<svg width="27" height="26" viewBox="0 0 27 26" fill="none" xmlns="http://www.w3.org/2000/svg">
<path d="M22.1213 22.2481H21.2362V23.0741H22.1213V22.2481Z" fill="#F2A12C"/>
<path d="M23.0063 19.77H22.1212V20.596H23.0063V19.77Z" fill="#F2A12C"/>
<path d="M5.30778 11.507H4.42273V12.3331H5.30778V11.507Z" fill="#F6ECC7"/>
<path d="M25.6614 9.02888H24.7739H23.8888H23.0038V9.85738V10.6834V11.507V12.3355V13.1616V13.9876V14.8137V15.6397V16.4657V17.2918V18.1178H22.1212V18.9439V19.7699H23.0038V20.596H22.1212V19.7699H21.2361V20.596H20.3486V21.422H19.466V22.2481V23.0741H18.581H17.6959V23.9002H16.8109V24.7262H15.9283H15.0408V25.5547H15.9283H16.8109H17.6959H18.581V24.7262H19.466H20.3486V23.9002H21.2361V23.0741V22.2481H22.1212V23.0741H23.0038V22.2481V21.422H23.8888V20.596H24.7739V19.7699V18.9439H25.6614V18.1178V17.2918H26.544V16.4657V15.6397V14.8137V13.9876V13.1616V12.3355V11.507V10.6834V9.85738V9.02888H25.6614Z" fill="#F2A12C"/>
<path d="M16.8109 24.7066V24.7262H15.0408V25.5547H18.581V24.7262H20.3486V24.7066H16.8109Z" fill="#231F20"/>
<path d="M22.1213 6.55075H21.2362V7.3768H22.1213V6.55075Z" fill="white"/>
<path d="M21.2362 9.02888V6.55074H20.3511V5.7247H19.4686V4.89865H18.5835V4.07261H17.7009V3.24656H16.8159V2.42051H15.0458V1.59447H7.96783V2.42051H6.19773V3.24656H5.31268V4.07261H4.42763V4.89865H3.54258V5.7247H2.65753V7.37679H1.77494V9.02888H0.889893V17.2918H1.77494V18.9439H2.65753V20.596H3.54258V21.422H4.42763V22.2481H5.31268V23.0741H6.19773V23.9002H7.96783V24.7262H15.0458V23.9002H16.8159V23.0741H17.7009V22.2481H18.5835V21.422H19.4686V20.596H20.3511V19.7699H21.2362V18.1178H22.1212V9.02888H21.2362ZM4.42271 9.85493V8.20284H5.30776V7.37679H6.19281V6.55074H7.07786V5.7247H7.96291V4.89865H15.0408V5.7247H15.9259V6.55074H16.8085V7.37679H17.6935V8.20284H18.5761V9.85493H19.4612V16.4633H18.5761V18.1154H17.6935V18.9414H16.8085V19.7675H15.9259V20.5935H15.0408V21.4196H7.96291V20.5935H7.07786V19.7675H6.19281V18.9414H5.30776V18.1154H4.42271V16.4633H3.53766V9.85493H4.42271Z" fill="#FCCB25"/>
<path d="M6.19279 9.0289H5.30774V9.8574V10.6835V11.507V12.3355V13.1616V13.9876V14.8137V15.6397H6.19279V16.4658V17.2918H7.07784V18.1179H7.96288V18.9439H8.84793H9.73299V19.77H10.6156H11.5031H12.3881H13.2707H14.1558V18.9439H15.0408H15.9283V18.1179H16.8109V17.2918H17.696V16.4658V15.6397H18.581V14.8137V13.9876V13.1616V12.3355V11.507V10.6835H17.696V9.8574V9.0289V8.20285H16.8109V7.37681H15.9283V6.55076H15.0408H14.1558V5.72472H13.2707H12.3881H11.5031H10.6156H9.73299H8.84793V6.55076H7.96288H7.07784V7.37681H6.19279V8.20285V9.0289Z" fill="#FCCB25"/>
<path d="M24.7738 6.55079V5.72474V4.8987H23.8887V5.72474H23.0037H22.1211V6.55079V7.37683V8.20288H23.0037V7.37683H23.8887H24.7738V8.20288V9.02893H25.6613V8.20288V7.37683V6.55079H24.7738Z" fill="#F2A12C"/>
<path d="M23.0038 4.07261V3.24656H22.1212H21.2361V2.42052H20.3486V1.59447H19.466H18.581V0.768425H17.6959H16.8109H15.9283H15.0408V1.59447H15.9283H16.8109V2.42052H17.6959V3.24656H18.581V4.07261H19.466V4.89865H20.3486H21.2361H22.1212H23.0038H23.8888V4.07261H23.0038Z" fill="#F2A12C"/>
<path d="M24.7739 6.55076V5.72471V4.89867H23.8889V5.72471H23.0038H22.1212V6.55076V7.3768V8.20285H23.0038V7.3768H23.8889H24.7739V8.20285V9.0289H25.6614V8.20285V7.3768V6.55076H24.7739Z" fill="#F2A12C"/>
<path d="M24.7738 6.55076V5.72471V4.89867H23.8888V5.72471V6.55076H24.7738V7.3768V8.20285V9.0289H25.6613V8.20285V7.3768V6.55076H24.7738Z" fill="#231F20"/>
<path d="M21.2337 2.42054H20.3486V3.24659H21.2337V2.42054Z" fill="#231F20"/>
<path d="M21.2361 4.07262H22.1211H23.0037V3.24657H22.1211H21.2361V4.07262Z" fill="#231F20"/>
<path d="M19.466 2.42054H20.3486V1.5945H19.466H18.5809V2.42054H19.466Z" fill="#231F20"/>
<path d="M23.8887 4.07262H23.0037V4.89867H23.8887V4.07262Z" fill="#231F20"/>
<path d="M15.9283 1.59447H16.8109H17.6959H18.581V0.768425H17.6959H16.8109H15.9283H15.0408V1.59447H15.9283Z" fill="#231F20"/>
<path d="M22.1213 19.77H21.2362V20.596H22.1213V19.77Z" fill="#231F20"/>
<path d="M25.6614 9.02891H24.7739H25.6614V9.85741V10.6835V11.507V12.3356V13.1616V13.9876V14.8137V15.6397V16.4658V17.2918H26.544V16.4658V15.6397V14.8137V13.9876V13.1616V12.3356V11.507V10.6835V9.85741V9.02891H25.6614Z" fill="#231F20"/>
<path d="M22.1213 21.4221V22.2481V23.0742H23.0039V22.2481V21.4221H22.1213Z" fill="#231F20"/>
<path d="M23.889 20.596H23.0039V21.4221H23.889V20.596Z" fill="#231F20"/>
<path d="M24.774 17.2918V18.1179V18.9439H23.8889V19.77V20.596H24.774V19.77V18.9439H25.6615V18.1179V17.2918H24.774Z" fill="#231F20"/>
<path d="M18.5811 24.7262H17.696V25.5547H18.5811V24.7262Z" fill="#231F20"/>
<path d="M21.2363 23.0742V22.2481H20.3488V23.0742V23.9002H21.2363V23.0742Z" fill="#231F20"/>
<path d="M20.3487 23.9002H19.4661V24.7262H20.3487V23.9002Z" fill="#231F20"/>
<path d="M15.0408 23.9002V24.7262H14.1558H13.2707H12.3857H11.5031H10.6156H9.73299H8.84794H7.96289V25.5547H8.84794H9.73299H10.6156H11.5031H12.3857H13.2707H14.1558H15.0408V24.7262H15.9283H16.8109V23.9002H15.9283H15.0408Z" fill="#231F20"/>
<path d="M17.696 23.0741H16.8109V23.9002H17.696V23.0741Z" fill="#231F20"/>
<path d="M18.581 22.2481H17.6959V23.0741H18.581H19.466V22.2481V21.422H18.581V22.2481Z" fill="#231F20"/>
<path d="M20.3487 20.596H19.4661V21.422H20.3487V20.596Z" fill="#231F20"/>
<path d="M21.2337 19.77H20.3486V20.596H21.2337V19.77Z" fill="#231F20"/>
<path d="M21.2362 18.9439V19.7699H22.1213V18.9439V18.1178H21.2362V18.9439Z" fill="#231F20"/>
<path d="M22.1212 9.85738V10.6834V11.507V12.3355V13.1616V13.9876V14.8137V15.6397V16.4658V17.2918V18.1178H23.0038V17.2918V16.4658V15.6397V14.8137V13.9876V13.1616V12.3355V11.507V10.6834V9.85738H22.1212Z" fill="#231F20"/>
<path d="M21.2362 8.20284V9.02888H22.1213V8.20284V7.37679H21.2362V8.20284Z" fill="#231F20"/>
<path d="M21.2337 5.72471H20.3486V6.55075H21.2337V5.72471Z" fill="#231F20"/>
<path d="M16.8109 18.9439H15.9283V19.77H16.8109V18.9439Z" fill="#231F20"/>
<path d="M17.696 9.85739V10.6834H18.581V11.507V12.3355V13.1616V13.9876V14.8137V15.6397H17.696V16.4658V17.2918H16.8109V18.1178V18.9439H17.696V18.1178H18.581V17.2918V16.4658H19.4661V15.6397V14.8137V13.9876V13.1616V12.3355V11.507V10.6834V9.85739H18.581V9.02888V8.20284H17.696V9.02888V9.85739Z" fill="#231F20"/>
<path d="M17.696 7.37679H16.8109V8.20284H17.696V7.37679Z" fill="#231F20"/>
<path d="M16.8109 6.55075H15.9283V7.3768H16.8109V6.55075Z" fill="#231F20"/>
<path d="M20.3487 4.89867H19.4661V5.72471H20.3487V4.89867Z" fill="#231F20"/>
<path d="M19.4661 4.07259H18.5811V4.89864H19.4661V4.07259Z" fill="#231F20"/>
<path d="M18.5785 3.24655H17.6959V4.0726H18.5785V3.24655Z" fill="#231F20"/>
<path d="M17.696 2.42051H16.8109V3.24656H17.696V2.42051Z" fill="#231F20"/>
<path d="M15.0408 2.42051H15.9283H16.8109V1.59447H15.9283H15.0408V2.42051Z" fill="#231F20"/>
<path d="M7.0778 23.9002H6.19275V24.7262H7.0778H7.96285V23.9002H7.0778Z" fill="#231F20"/>
<path d="M6.19279 23.0741H5.30774V23.9002H6.19279V23.0741Z" fill="#231F20"/>
<path d="M4.42265 22.2481V21.422H3.5376V22.2481V23.0741H4.42265H5.3077V22.2481H4.42265Z" fill="#231F20"/>
<path d="M3.53763 20.596H2.65259V21.422H3.53763V20.596Z" fill="#231F20"/>
<path d="M8.84798 21.422H9.73303H10.6156H11.5031H12.3857H13.2708H14.1558H15.0409V20.596H15.9284V19.77H15.0409H14.1558V20.596H13.2708H12.3857H11.5031H10.6156H9.73303H8.84798V19.77H7.96293H7.07788V20.596H7.96293V21.422H8.84798Z" fill="#231F20"/>
<path d="M7.0778 18.9439H6.19275V19.77H7.0778V18.9439Z" fill="#231F20"/>
<path d="M2.65261 18.9439H1.77002V19.77V20.596H2.65261V19.77V18.9439Z" fill="#231F20"/>
<path d="M1.76995 17.2918H0.882446V18.1178V18.9439H1.76995V18.1178V17.2918Z" fill="#231F20"/>
<path d="M0.882472 15.6397V14.8137V13.9876V13.1616V12.3355V11.507V10.6834V9.85738H-0.00012207V10.6834V11.507V12.3355V13.1616V13.9876V14.8137V15.6397V16.4658H0.882472V15.6397Z" fill="#231F20"/>
<path d="M6.19275 17.2918H5.3077V16.4658V15.6397H4.42265V14.8137V13.9876V13.1616V12.3355V11.507V10.6834H5.3077V9.85739V9.02888H6.19275V8.20284V7.37679H5.3077V8.20284H4.42265V9.02888V9.85739H3.5376V10.6834V11.507V12.3355V13.1616V13.9876V14.8137V15.6397V16.4658H4.42265V17.2918V18.1179H5.3077V18.9439H6.19275V18.1179V17.2918Z" fill="#231F20"/>
<path d="M1.76995 8.20284V7.37679H0.882446V8.20284V9.02888H1.76995V8.20284Z" fill="#231F20"/>
<path d="M7.0778 6.55075H6.19275V7.3768H7.0778V6.55075Z" fill="#231F20"/>
<path d="M2.65261 6.55075V5.72471H1.77002V6.55075V7.3768H2.65261V6.55075Z" fill="#231F20"/>
<path d="M8.84798 6.55076V5.72471H9.73303H10.6156H11.5031H12.3857H13.2708H14.1558V6.55076H15.0409H15.9284V5.72471H15.0409V4.89867H14.1558H13.2708H12.3857H11.5031H10.6156H9.73303H8.84798H7.96293V5.72471H7.07788V6.55076H7.96293H8.84798Z" fill="#231F20"/>
<path d="M3.53763 4.89867H2.65259V5.72471H3.53763V4.89867Z" fill="#231F20"/>
<path d="M4.42265 4.07259H3.5376V4.89864H4.42265V4.07259Z" fill="#231F20"/>
<path d="M5.30778 3.24655H4.42273V4.0726H5.30778V3.24655Z" fill="#231F20"/>
<path d="M6.19279 2.42051H5.30774V3.24656H6.19279V2.42051Z" fill="#231F20"/>
<path d="M7.96285 2.42051V1.59447H7.0778H6.19275V2.42051H7.0778H7.96285Z" fill="#231F20"/>
<path d="M9.73299 1.59447H10.6156H11.5031H12.3857H13.2707H14.1558H15.0408V0.768425H14.1558H13.2707H12.3857H11.5031H10.6156H9.73299H8.84794H7.96289V1.59447H8.84794H9.73299Z" fill="#231F20"/>
<path d="M23.8889 7.37676H23.0038V8.20281H22.1212V9.02885V9.85736H23.0038V9.02885H23.8889H24.7739V8.20281V7.37676H23.8889Z" fill="white"/>
<path d="M23.0038 4.89864H22.1212H21.2361H20.3486V5.72469H21.2361V6.55074H22.1212V5.72469H23.0038H23.8888V4.89864H23.0038Z" fill="white"/>
<path d="M12.3881 19.7699H11.503H10.6155H9.73295V18.9439H8.8479H7.96285V18.1178H7.0778V17.2918H6.19275V18.1178V18.9439H7.0778V19.7699H7.96285H8.8479V20.596H9.73295H10.6155H11.503H12.3881H13.2707H14.1557V19.7699H13.2707H12.3881Z" fill="white"/>
<path d="M14.1558 18.9439V19.7699H15.0408H15.9283V18.9439H15.0408H14.1558Z" fill="white"/>
<path d="M16.8109 18.1178H15.9283V18.9439H16.8109V18.1178Z" fill="white"/>
<path d="M6.19279 15.6397H5.30774V16.4657V17.2918H6.19279V16.4657V15.6397Z" fill="white"/>
<path d="M5.30778 13.9876V13.1616V12.3355H4.42273V13.1616V13.9876V14.8136V15.6397H5.30778V14.8136V13.9876Z" fill="white"/>
<path d="M5.30778 10.6834H4.42273V11.5095H5.30778V10.6834Z" fill="white"/>
</svg>
