<svg xmlns="http://www.w3.org/2000/svg" viewBox="0 -0.5 85 64" shape-rendering="crispEdges">
<metadata>Made with Pixels to Svg https://codepen.io/shshaw/pen/XbxvNj</metadata>
<path stroke="rgba(153,153,153,0.0196078431372549)" d="M32 25h1M70 28h1" />
<path stroke="#111111" d="M33 25h16M62 25h6M32 26h1M49 26h1M60 26h2M68 26h1M31 27h2M49 27h2M59 27h1M69 27h1M27 28h4M51 28h8M65 28h2M69 28h1M25 29h2M65 29h2M70 29h2M20 30h5M31 30h2M53 30h2M72 30h3M18 31h2M33 31h2M55 31h2M75 31h2M14 32h4M35 32h1M57 32h1M77 32h4M12 33h2M35 33h1M57 33h1M81 33h1M9 34h3M35 34h1M57 34h1M76 34h1M82 34h2M7 35h2M35 35h1M57 35h1M84 35h1M5 36h2M24 36h1M33 36h2M46 36h1M55 36h2M84 36h1M1 37h4M23 37h1M32 37h1M45 37h1M54 37h1M65 37h2M84 37h1M0 38h1M23 38h1M31 38h1M45 38h1M53 38h1M61 38h1M67 38h17M0 39h1M22 39h1M30 39h4M44 39h1M52 39h4M61 39h2M81 39h1M1 40h22M34 40h11M56 40h5M63 40h18M22 41h1M31 41h2M34 41h1M44 41h1M50 41h2M53 41h2M56 41h1M22 42h13M44 42h13" />
<path stroke="rgba(128,191,128,0.03137254901960784)" d="M49 25h1" />
<path stroke="rgba(0,0,0,0.00392156862745098)" d="M55 25h1M75 28h2M65 41h7" />
<path stroke="rgba(0,0,0,0.01568627450980392)" d="M57 25h1M73 28h1M75 41h1" />
<path stroke="rgba(0,0,0,0.023529411764705882)" d="M58 25h1M70 25h1M71 26h1" />
<path stroke="rgba(20,20,20,0.050980392156862744)" d="M59 25h1" />
<path stroke="rgba(17,17,17,0.058823529411764705)" d="M60 25h1M54 27h1" />
<path stroke="rgba(79,102,83,0.21568627450980393)" d="M61 25h1" />
<path stroke="rgba(21,21,21,0.047058823529411764)" d="M68 25h1" />
<path stroke="rgba(32,32,32,0.03137254901960784)" d="M69 25h1M71 27h1" />
<path stroke="#a4dc7b" d="M33 26h16M62 26h6M33 27h1M48 27h1M60 27h2M68 27h1M31 28h2M59 28h1M68 28h1M27 29h4M51 29h8M69 29h1M25 30h1M70 30h2M23 31h2M31 31h2M53 31h2M73 31h2M33 32h2M55 32h2M75 32h2M56 33h1M77 33h4M81 34h1M82 35h2M83 36h1" />
<path stroke="rgba(129,177,137,0.2549019607843137)" d="M59 26h1" />
<path stroke="rgba(132,173,140,0.12156862745098039)" d="M69 26h1M19 30h1" />
<path stroke="rgba(132,176,132,0.11372549019607843)" d="M30 27h1" />
<path stroke="#7eac85" d="M34 27h1M60 31h1M65 35h1" />
<path stroke="#7fad87" d="M35 27h1M67 36h1" />
<path stroke="#80af87" d="M36 27h1M64 34h1" />
<path stroke="#80b088" d="M37 27h11M62 27h6M37 28h1M39 28h5M45 28h4M60 28h4M67 28h1M37 29h2M40 29h5M49 29h2M59 29h4M67 29h2M37 30h2M40 30h3M49 30h4M55 30h3M60 30h2M63 30h2M67 30h3M37 31h2M42 31h3M47 31h1M50 31h3M63 31h10M40 32h4M50 32h4M64 32h11M14 33h3M63 33h2M67 33h10M12 34h2M67 34h8M77 34h4M9 35h3M68 35h14M7 36h2M25 36h1M47 36h1M70 36h13M5 37h2M24 37h1M46 37h1M81 37h3M24 38h1M46 38h1M23 39h1M45 39h1M23 40h1M45 40h1" />
<path stroke="rgba(26,26,26,0.0392156862745098)" d="M53 27h1" />
<path stroke="rgba(128,175,135,0.25098039215686274)" d="M58 27h1" />
<path stroke="rgba(0,0,0,0.0196078431372549)" d="M72 27h1M77 41h1" />
<path stroke="rgba(128,181,138,0.09411764705882353)" d="M26 28h1" />
<path stroke="#7faf87" d="M33 28h1M46 29h1M34 30h1M47 30h2M51 33h2M65 34h1" />
<path stroke="#7fad86" d="M34 28h1M62 33h1" />
<path stroke="#7eae87" d="M35 28h1" />
<path stroke="#80af88" d="M36 28h1M36 29h1M59 30h1M40 31h1M63 32h1M65 33h1M69 36h1M75 37h1M79 37h1" />
<path stroke="#3f5738" d="M38 28h1M44 28h1M39 29h1M45 29h1M39 30h1M39 31h1M45 31h1M39 32h1M45 32h1M38 33h1M44 33h1M21 34h1M38 34h1M44 34h1M20 36h1M28 36h1M40 36h1M57 36h1M27 37h1M36 37h1M44 37h1M55 37h4M64 37h1M3 38h4M8 38h1M10 38h1M12 38h2M16 38h1M19 38h2M22 38h1M29 38h1M34 38h2M38 38h1M41 38h2M44 38h1M50 38h1M54 38h7M66 38h1M1 39h21M26 39h1M34 39h10M48 39h1M56 39h5M24 40h2M28 40h1M46 40h2M50 40h1M53 40h1M23 41h5M30 41h1M33 41h1M45 41h5M52 41h1M55 41h1" />
<path stroke="#a2d979" d="M49 28h1" />
<path stroke="#9bd075" d="M50 28h1" />
<path stroke="#2b3529" d="M64 28h1M64 29h1M75 34h1" />
<path stroke="rgba(0,0,0,0.00784313725490196)" d="M74 28h1M72 41h3" />
<path stroke="rgba(124,170,131,0.12941176470588237)" d="M24 29h1" />
<path stroke="#7bab82" d="M31 29h1M51 34h1" />
<path stroke="#7dac85" d="M32 29h1M57 31h1" />
<path stroke="#7fac85" d="M33 29h1" />
<path stroke="#7eaf87" d="M34 29h1M77 37h1" />
<path stroke="#7faf88" d="M35 29h1M66 34h1M67 35h1M68 36h1" />
<path stroke="#7ba982" d="M47 29h1" />
<path stroke="#7dad85" d="M48 29h1" />
<path stroke="#66906d" d="M63 29h1M65 30h2M61 37h1" />
<path stroke="rgba(142,170,142,0.03529411764705882)" d="M72 29h1" />
<path stroke="#78a87e" d="M26 30h1" />
<path stroke="#78a77e" d="M27 30h1" />
<path stroke="#78a980" d="M28 30h1" />
<path stroke="#7aaa81" d="M29 30h1M47 32h1" />
<path stroke="#7aaa82" d="M30 30h1" />
<path stroke="#7eae86" d="M33 30h1M44 30h1" />
<path stroke="#80b087" d="M35 30h1M17 33h1M66 33h1M63 34h1" />
<path stroke="#7fb088" d="M36 30h1M58 30h1M62 30h1M48 31h2" />
<path stroke="#7fae87" d="M43 30h1M46 30h1M41 33h1M78 37h1" />
<path stroke="#3f5638" d="M45 30h1" />
<path stroke="rgba(127,178,136,0.11764705882352941)" d="M75 30h1" />
<path stroke="rgba(128,153,128,0.0392156862745098)" d="M17 31h1" />
<path stroke="#76a57b" d="M20 31h1" />
<path stroke="#73a378" d="M21 31h1" />
<path stroke="#72a177" d="M22 31h1" />
<path stroke="#72a176" d="M25 31h1M30 32h1" />
<path stroke="#71a376" d="M26 31h1" />
<path stroke="#72a479" d="M27 31h1" />
<path stroke="#73a379" d="M28 31h1" />
<path stroke="#75a57a" d="M29 31h1" />
<path stroke="#77a77d" d="M30 31h1M48 33h1M53 34h1" />
<path stroke="#7fae86" d="M35 31h1" />
<path stroke="#7faf86" d="M36 31h1M73 37h1" />
<path stroke="#7ead86" d="M41 31h1M64 35h1" />
<path stroke="#7fb087" d="M46 31h1M44 32h1M49 32h1M50 33h1" />
<path stroke="#7eab86" d="M58 31h1" />
<path stroke="#7eab87" d="M59 31h1" />
<path stroke="#7ead85" d="M61 31h1M49 33h1M71 37h1" />
<path stroke="#80ae88" d="M62 31h1" />
<path stroke="rgba(128,179,128,0.0392156862745098)" d="M77 31h1" />
<path stroke="rgba(128,179,140,0.0784313725490196)" d="M13 32h1M81 32h1M8 34h1" />
<path stroke="#7dac82" d="M18 32h1" />
<path stroke="#72a376" d="M19 32h1" />
<path stroke="#66966a" d="M20 32h1" />
<path stroke="#659367" d="M21 32h1" />
<path stroke="#638f5e" d="M22 32h1" />
<path stroke="#638e64" d="M23 32h1" />
<path stroke="#628f62" d="M24 32h1M29 33h1" />
<path stroke="#659163" d="M25 32h1" />
<path stroke="#679467" d="M26 32h1" />
<path stroke="#6a976a" d="M27 32h1" />
<path stroke="#6c986e" d="M28 32h1" />
<path stroke="#6f9d76" d="M29 32h1M48 34h1" />
<path stroke="#73a177" d="M31 32h1" />
<path stroke="#75a27a" d="M32 32h1M36 32h1" />
<path stroke="#7cad83" d="M37 32h1" />
<path stroke="#7bab83" d="M38 32h1M54 33h1" />
<path stroke="#7bac83" d="M46 32h1" />
<path stroke="#7dad84" d="M48 32h1" />
<path stroke="#7faf85" d="M54 32h1" />
<path stroke="#78a47f" d="M58 32h1" />
<path stroke="#79a581" d="M59 32h1M61 34h1" />
<path stroke="#7aa580" d="M60 32h1" />
<path stroke="#7ca883" d="M61 32h1" />
<path stroke="#7ead87" d="M62 32h1" />
<path stroke="rgba(137,177,137,0.050980392156862744)" d="M11 33h1" />
<path stroke="#507c4a" d="M18 33h1" />
<path stroke="#538050" d="M19 33h1M39 37h1" />
<path stroke="#578455" d="M20 33h1" />
<path stroke="#588655" d="M21 33h1" />
<path stroke="#578655" d="M22 33h1" />
<path stroke="#5b895a" d="M23 33h1M27 33h1" />
<path stroke="#5b875b" d="M24 33h1" />
<path stroke="#5b875a" d="M25 33h1" />
<path stroke="#5b8658" d="M26 33h1" />
<path stroke="#5d8b5c" d="M28 33h1" />
<path stroke="#65946a" d="M30 33h1" />
<path stroke="#679669" d="M31 33h1" />
<path stroke="#6b9970" d="M32 33h1" />
<path stroke="#6c9d71" d="M33 33h1" />
<path stroke="#a0d678" d="M34 33h1" />
<path stroke="#79a87d" d="M36 33h1" />
<path stroke="#77a881" d="M37 33h1" />
<path stroke="#7caa83" d="M39 33h1" />
<path stroke="#7cad85" d="M40 33h1" />
<path stroke="#7eae85" d="M42 33h1" />
<path stroke="#7ead84" d="M43 33h1" />
<path stroke="#75a57d" d="M45 33h1" />
<path stroke="#74a37b" d="M46 33h1" />
<path stroke="#74a67a" d="M47 33h1" />
<path stroke="#7fac86" d="M53 33h1" />
<path stroke="#72a178" d="M55 33h1" />
<path stroke="#729e7b" d="M58 33h1" />
<path stroke="#76a07b" d="M59 33h1" />
<path stroke="#75a17c" d="M60 33h1" />
<path stroke="#79a481" d="M61 33h1" />
<path stroke="rgba(132,179,132,0.10588235294117647)" d="M82 33h1" />
<path stroke="#4d7948" d="M14 34h2M12 35h3M9 36h5M7 37h8M1 38h2M7 38h1M9 38h1M11 38h1M21 38h1M24 39h2M51 39h1M48 40h2M51 40h2M54 40h2" />
<path stroke="#4e7a49" d="M16 34h1" />
<path stroke="#4e7a4c" d="M17 34h1" />
<path stroke="#507d4c" d="M18 34h1" />
<path stroke="#558052" d="M19 34h1M32 36h1" />
<path stroke="#558153" d="M20 34h1" />
<path stroke="#578554" d="M22 34h1" />
<path stroke="#588657" d="M23 34h1" />
<path stroke="#598658" d="M24 34h1" />
<path stroke="#5a8657" d="M25 34h1" />
<path stroke="#568656" d="M26 34h1" />
<path stroke="#598555" d="M27 34h1" />
<path stroke="#578457" d="M28 34h1M39 36h1" />
<path stroke="#5b885a" d="M29 34h1M47 37h1M49 37h3" />
<path stroke="#5c895d" d="M30 34h1" />
<path stroke="#5e8d5f" d="M31 34h1" />
<path stroke="#629265" d="M32 34h1" />
<path stroke="#68966a" d="M33 34h1" />
<path stroke="#6f9d73" d="M34 34h1" />
<path stroke="#709f76" d="M36 34h1" />
<path stroke="#739f79" d="M37 34h1" />
<path stroke="#6f9b72" d="M39 34h1" />
<path stroke="#709e76" d="M40 34h1" />
<path stroke="#74a37a" d="M41 34h1" />
<path stroke="#78a47c" d="M42 34h1" />
<path stroke="#73a37a" d="M43 34h1" />
<path stroke="#6e9d71" d="M45 34h1" />
<path stroke="#709e74" d="M46 34h1" />
<path stroke="#719f77" d="M47 34h1" />
<path stroke="#79aa80" d="M49 34h1" />
<path stroke="#7bac84" d="M50 34h1" />
<path stroke="#7aac82" d="M52 34h1" />
<path stroke="#72a175" d="M54 34h1" />
<path stroke="#679369" d="M55 34h1" />
<path stroke="#588356" d="M56 34h1M38 36h1" />
<path stroke="#628b63" d="M58 34h1" />
<path stroke="#729d79" d="M59 34h1M60 35h1" />
<path stroke="#749f7a" d="M60 34h1" />
<path stroke="#7fad88" d="M62 34h1" />
<path stroke="rgba(128,173,137,0.10980392156862745)" d="M84 34h1" />
<path stroke="rgba(128,182,128,0.054901960784313725)" d="M6 35h1" />
<path stroke="#4e7949" d="M15 35h1" />
<path stroke="#4f7b4a" d="M16 35h1M15 37h1" />
<path stroke="#537f4e" d="M17 35h1M17 37h1" />
<path stroke="#537f51" d="M18 35h1" />
<path stroke="#538251" d="M19 35h1" />
<path stroke="#558252" d="M20 35h2" />
<path stroke="#548052" d="M22 35h1" />
<path stroke="#558152" d="M23 35h1M30 37h1" />
<path stroke="#558150" d="M24 35h1" />
<path stroke="#548151" d="M25 35h1M40 37h1M30 38h1" />
<path stroke="#558051" d="M26 35h1" />
<path stroke="#578252" d="M27 35h1" />
<path stroke="#568454" d="M28 35h1M29 36h1" />
<path stroke="#588456" d="M29 35h1" />
<path stroke="#588455" d="M30 35h1" />
<path stroke="#5a8758" d="M31 35h1" />
<path stroke="#5c8a5d" d="M32 35h1" />
<path stroke="#648e66" d="M33 35h1" />
<path stroke="#6d996e" d="M34 35h1" />
<path stroke="#609062" d="M36 35h1" />
<path stroke="#628f63" d="M37 35h1M42 36h1M53 36h1" />
<path stroke="#608d61" d="M38 35h1" />
<path stroke="#608e63" d="M39 35h1" />
<path stroke="#639065" d="M40 35h1" />
<path stroke="#68946a" d="M41 35h1" />
<path stroke="#6c9a70" d="M42 35h1" />
<path stroke="#6c9a6f" d="M43 35h1" />
<path stroke="#6b976d" d="M44 35h1" />
<path stroke="#69976c" d="M45 35h1" />
<path stroke="#6a986d" d="M46 35h1" />
<path stroke="#6b9a6e" d="M47 35h1" />
<path stroke="#6c9970" d="M48 35h1" />
<path stroke="#6f9f74" d="M49 35h1" />
<path stroke="#75a177" d="M50 35h1" />
<path stroke="#74a277" d="M51 35h1" />
<path stroke="#72a074" d="M52 35h1" />
<path stroke="#6b9a6f" d="M53 35h1" />
<path stroke="#669368" d="M54 35h1" />
<path stroke="#608c60" d="M55 35h1" />
<path stroke="#537d4f" d="M56 35h1" />
<path stroke="#598057" d="M58 35h1" />
<path stroke="#6b9672" d="M59 35h1" />
<path stroke="#77a580" d="M61 35h1" />
<path stroke="#80ad85" d="M62 35h1" />
<path stroke="#80ae87" d="M63 35h1" />
<path stroke="#7fae88" d="M66 35h1" />
<path stroke="rgba(136,170,136,0.058823529411764705)" d="M4 36h1M82 39h1" />
<path stroke="#4e7948" d="M14 36h1" />
<path stroke="#4d7b49" d="M15 36h1M20 37h1" />
<path stroke="#517d4c" d="M16 36h1M21 36h1M17 38h1" />
<path stroke="#52804f" d="M17 36h1" />
<path stroke="#53804f" d="M18 36h1" />
<path stroke="#527f4f" d="M19 36h1" />
<path stroke="#4f7c4c" d="M22 36h1" />
<path stroke="#507d4b" d="M23 36h1" />
<path stroke="#4f804a" d="M26 36h1" />
<path stroke="#53814f" d="M27 36h1" />
<path stroke="#558253" d="M30 36h1" />
<path stroke="#558354" d="M31 36h1" />
<path stroke="#517e4e" d="M35 36h2M33 37h3M37 37h1M32 38h2M36 38h2" />
<path stroke="#578454" d="M37 36h1" />
<path stroke="#5c8b5d" d="M41 36h1" />
<path stroke="#628f64" d="M43 36h2" />
<path stroke="#638f63" d="M45 36h1" />
<path stroke="#639164" d="M48 36h1" />
<path stroke="#659165" d="M49 36h1" />
<path stroke="#649367" d="M50 36h1" />
<path stroke="#669367" d="M51 36h1" />
<path stroke="#659365" d="M52 36h1" />
<path stroke="#5e8c60" d="M54 36h1" />
<path stroke="#557d57" d="M58 36h1" />
<path stroke="#638d67" d="M59 36h1" />
<path stroke="#6c9773" d="M60 36h1" />
<path stroke="#76a280" d="M61 36h1" />
<path stroke="#7caa84" d="M62 36h1M80 39h1" />
<path stroke="#7cac84" d="M63 36h1" />
<path stroke="#7dab83" d="M64 36h1" />
<path stroke="#7ba883" d="M65 36h1" />
<path stroke="#7dab85" d="M66 36h1M69 37h1" />
<path stroke="rgba(133,177,133,0.09019607843137255)" d="M0 37h1" />
<path stroke="#527e4e" d="M16 37h1M27 38h1" />
<path stroke="#517e4d" d="M18 37h1" />
<path stroke="#4f7d4b" d="M19 37h1" />
<path stroke="#4e7b48" d="M21 37h1" />
<path stroke="#4d7a4a" d="M22 37h1" />
<path stroke="#4d7949" d="M25 37h1M14 38h1M25 38h1M49 39h1M26 40h1" />
<path stroke="#4e7c49" d="M26 37h1" />
<path stroke="#558352" d="M28 37h1" />
<path stroke="#548253" d="M29 37h1" />
<path stroke="#548251" d="M31 37h1" />
<path stroke="#537f4f" d="M38 37h1" />
<path stroke="#568354" d="M41 37h1" />
<path stroke="#588557" d="M42 37h1" />
<path stroke="#5a8658" d="M43 37h1" />
<path stroke="#5a8859" d="M48 37h1" />
<path stroke="#5b8759" d="M52 37h1" />
<path stroke="#598559" d="M53 37h1" />
<path stroke="#588058" d="M59 37h1" />
<path stroke="#5e8660" d="M60 37h1" />
<path stroke="#729c78" d="M62 37h1" />
<path stroke="#7aa680" d="M63 37h1" />
<path stroke="#7aa883" d="M67 37h1" />
<path stroke="#d5e7d8" d="M68 37h1M72 37h1M76 37h1M80 37h1M70 39h1M74 39h1M78 39h1" />
<path stroke="#7cac85" d="M70 37h1" />
<path stroke="#7ead88" d="M74 37h1" />
<path stroke="#4f7a4a" d="M15 38h1" />
<path stroke="#4e7a4b" d="M18 38h1" />
<path stroke="#4e7a4a" d="M26 38h1" />
<path stroke="#538052" d="M28 38h1" />
<path stroke="#507c4b" d="M39 38h1" />
<path stroke="#4e7c4c" d="M40 38h1" />
<path stroke="#527b4b" d="M43 38h1" />
<path stroke="#517e4c" d="M47 38h1" />
<path stroke="#527c4d" d="M48 38h1" />
<path stroke="#517d4d" d="M49 38h1" />
<path stroke="#527e4d" d="M51 38h1" />
<path stroke="#507e4b" d="M52 38h1" />
<path stroke="#5f855f" d="M62 38h1" />
<path stroke="#669069" d="M63 38h1" />
<path stroke="#6d9a74" d="M64 38h1" />
<path stroke="#719f78" d="M65 38h1" />
<path stroke="rgba(134,174,134,0.07450980392156863)" d="M84 38h1" />
<path stroke="#507c4c" d="M27 39h1" />
<path stroke="#52804e" d="M28 39h1" />
<path stroke="#537f4d" d="M29 39h1" />
<path stroke="#4d794a" d="M46 39h1" />
<path stroke="#4d7a49" d="M47 39h1" />
<path stroke="#4e7a48" d="M50 39h1" />
<path stroke="#537c51" d="M63 39h1" />
<path stroke="#588156" d="M64 39h1" />
<path stroke="#5b855b" d="M65 39h1" />
<path stroke="#5f8960" d="M66 39h1" />
<path stroke="#659168" d="M67 39h1" />
<path stroke="#66916a" d="M68 39h1" />
<path stroke="#679169" d="M69 39h1" />
<path stroke="#67916a" d="M71 39h1" />
<path stroke="#67926c" d="M72 39h1" />
<path stroke="#68926b" d="M73 39h1" />
<path stroke="#719c77" d="M75 39h1" />
<path stroke="#74a07b" d="M76 39h1" />
<path stroke="#74a17b" d="M77 39h1" />
<path stroke="#78a67f" d="M79 39h1" />
<path stroke="rgba(42,85,42,0.023529411764705882)" d="M0 40h1" />
<path stroke="#4f7a49" d="M27 40h1" />
<path stroke="#4c7848" d="M29 40h1" />
<path stroke="#4b7746" d="M30 40h1" />
<path stroke="#3e5637" d="M31 40h1" />
<path stroke="#4b7646" d="M32 40h1" />
<path stroke="#4a7546" d="M33 40h1" />
<path stroke="rgba(128,128,128,0.00784313725490196)" d="M61 40h1" />
<path stroke="rgba(109,146,109,0.027450980392156862)" d="M62 40h1" />
<path stroke="rgba(102,128,102,0.0784313725490196)" d="M81 40h1" />
<path stroke="#141714" d="M28 41h1" />
<path stroke="#111313" d="M29 41h1" />
<path stroke="rgba(0,0,0,0.027450980392156862)" d="M76 41h1" />
</svg>