<svg xmlns="http://www.w3.org/2000/svg" viewBox="0 -0.5 64 64" shape-rendering="crispEdges">
<metadata>Made with Pixels to Svg https://codepen.io/shshaw/pen/XbxvNj</metadata>
<path stroke="#111111" d="M39 7h1M62 7h1M38 8h1M40 8h2M60 8h2M63 8h1M38 9h2M42 9h1M59 9h1M62 9h2M38 10h1M40 10h1M43 10h1M58 10h1M61 10h1M63 10h1M38 11h1M40 11h2M44 11h1M57 11h1M60 11h2M63 11h1M38 12h1M42 12h1M45 12h1M56 12h1M59 12h1M63 12h1M38 13h1M43 13h1M46 13h1M55 13h1M58 13h1M63 13h1M39 14h1M44 14h1M47 14h1M54 14h1M57 14h1M62 14h1M39 15h1M44 15h2M47 15h1M54 15h1M57 15h1M62 15h1M40 16h1M46 16h10M61 16h1M41 17h1M46 17h1M56 17h1M60 17h1M42 18h1M45 18h1M57 18h1M59 18h1M43 19h3M57 19h2M44 20h1M57 20h1M43 21h1M58 21h1M43 22h1M58 22h1M42 23h1M46 23h1M54 23h1M59 23h1M42 24h1M46 24h2M54 24h2M59 24h1M42 25h1M59 25h1M43 26h1M58 26h1M43 27h1M50 27h2M58 27h1M44 28h1M48 28h2M52 28h1M57 28h1M45 29h1M48 29h1M53 29h1M56 29h1M44 30h1M46 30h1M49 30h1M52 30h1M55 30h1M41 31h3M46 31h2M50 31h2M54 31h2M37 32h4M48 32h1M53 32h2M56 32h1M35 33h2M48 33h6M56 33h1M33 34h2M56 34h1M32 35h2M56 35h1M31 36h2M43 36h1M56 36h1M31 37h1M43 37h1M56 37h1M30 38h1M43 38h1M56 38h1M30 39h1M44 39h1M56 39h1M29 40h1M45 40h2M56 40h1M29 41h1M47 41h1M56 41h1M29 42h1M48 42h1M56 42h1M28 43h1M40 43h5M48 43h1M56 43h1M28 44h1M38 44h3M45 44h1M48 44h1M56 44h1M28 45h1M36 45h2M46 45h2M56 45h1M28 46h1M35 46h2M47 46h1M55 46h1M28 47h1M48 47h1M55 47h1M28 48h1M48 48h1M55 48h1M28 49h1M48 49h1M55 49h1M27 50h1M48 50h1M54 50h1M27 51h1M48 51h1M54 51h1M26 52h2M47 52h1M53 52h1M26 53h1M34 53h4M47 53h6M24 54h2M34 54h1M38 54h1M46 54h1M49 54h2M23 55h2M32 55h2M38 55h1M46 55h1M49 55h1M21 56h2M32 56h1M38 56h1M44 56h2M49 56h1M19 57h2M31 57h1M38 57h1M44 57h1M49 57h1M15 58h4M30 58h1M37 58h1M43 58h2M50 58h4M9 59h6M29 59h1M36 59h2M44 59h1M54 59h6M3 60h6M28 60h2M36 60h1M45 60h6M60 60h1M1 61h2M27 61h2M35 61h1M50 61h11M1 62h1M26 62h2M36 62h1M55 62h1M2 63h24M36 63h20" />
<path stroke="#dfc18b" d="M39 8h1M62 8h1M40 9h1M61 9h1M48 27h1M47 28h1M54 28h1M47 29h1M54 29h1" />
<path stroke="#d9a46e" d="M41 9h1M60 9h1M41 10h2M59 10h2M43 11h1M58 11h1M44 12h1M57 12h1M44 13h2M56 13h1M45 14h2M55 14h2M46 15h1M55 15h2M52 21h6M49 22h9M48 23h6M56 23h3M48 24h5M56 24h3M49 25h4M58 25h1M52 26h1M56 27h2M41 32h1M37 33h5M35 34h6M34 35h5M33 36h6M32 37h2M45 37h1M32 38h1M45 38h5M46 39h4M47 40h3M48 41h1" />
<path stroke="#f67b7c" d="M39 10h1" />
<path stroke="#f18379" d="M62 10h1" />
<path stroke="#ff6f80" d="M39 11h1M40 14h1M42 14h2M61 14h1M41 15h1" />
<path stroke="#dd9f70" d="M42 11h1" />
<path stroke="#dd9e70" d="M59 11h1" />
<path stroke="#f77a7c" d="M62 11h1M60 12h1M62 13h1M58 14h1" />
<path stroke="#fe7080" d="M39 12h3M40 13h1M61 13h1M60 14h1M61 15h1" />
<path stroke="#de9d70" d="M43 12h1" />
<path stroke="#e09a72" d="M58 12h1" />
<path stroke="#fc747e" d="M61 12h1" />
<path stroke="#f8797d" d="M62 12h1" />
<path stroke="#fd727f" d="M39 13h1M42 13h1M41 14h1M41 16h1" />
<path stroke="#ff7080" d="M41 13h1M60 13h1M60 15h1M60 16h1" />
<path stroke="rgba(134,94,67,0.07450980392156863)" d="M54 13h1" />
<path stroke="#dba16f" d="M57 13h1" />
<path stroke="#f57d7b" d="M59 13h1" />
<path stroke="#fd717f" d="M59 14h1" />
<path stroke="#fe717f" d="M40 15h1M43 15h1M58 15h1M59 16h1M42 17h1" />
<path stroke="#e24e60" d="M42 15h1M59 15h1M42 16h2M58 16h1M43 17h1M59 17h1M43 18h1" />
<path stroke="#fe707f" d="M44 16h1" />
<path stroke="#e05a62" d="M45 16h1" />
<path stroke="#171315" d="M56 16h1" />
<path stroke="#fa777e" d="M57 16h1" />
<path stroke="#f7717c" d="M44 17h2" />
<path stroke="#bf8d5a" d="M47 17h1" />
<path stroke="#c38f5d" d="M48 17h1" />
<path stroke="#cb9461" d="M49 17h1" />
<path stroke="#c89461" d="M50 17h1M52 35h1M29 43h1" />
<path stroke="#c99660" d="M51 17h1M45 22h1" />
<path stroke="#ca9360" d="M52 17h1" />
<path stroke="#d59d6a" d="M53 17h1M41 44h1" />
<path stroke="#ca9363" d="M54 17h1" />
<path stroke="#c18760" d="M55 17h1" />
<path stroke="#d5585e" d="M57 17h1" />
<path stroke="#f5757a" d="M58 17h1" />
<path stroke="#e15460" d="M44 18h1" />
<path stroke="#cb9762" d="M46 18h1" />
<path stroke="#ca9862" d="M47 18h1" />
<path stroke="#c99662" d="M48 18h1" />
<path stroke="#c69561" d="M49 18h1" />
<path stroke="#ca9761" d="M50 18h1M47 20h1" />
<path stroke="#cd9a64" d="M51 18h1" />
<path stroke="#d09d66" d="M52 18h1" />
<path stroke="#d6a26a" d="M53 18h1" />
<path stroke="#d7a16d" d="M54 18h1" />
<path stroke="#d8a46d" d="M55 18h1M55 19h1M41 34h1M39 38h1" />
<path stroke="#da906b" d="M56 18h1" />
<path stroke="#f8747c" d="M58 18h1" />
<path stroke="#c9955f" d="M46 19h1" />
<path stroke="#ca9560" d="M47 19h1" />
<path stroke="#cf9a65" d="M48 19h1M54 25h1M43 32h1" />
<path stroke="#d29d67" d="M49 19h1M52 36h1" />
<path stroke="#d29d68" d="M50 19h1M42 46h1" />
<path stroke="#d19c66" d="M51 19h1" />
<path stroke="#cf9c66" d="M52 19h1" />
<path stroke="#d49f69" d="M53 19h1M44 26h1M41 36h1M42 49h1" />
<path stroke="#d7a36c" d="M54 19h1M41 47h1M40 48h1" />
<path stroke="#d9a06e" d="M56 19h1" />
<path stroke="#c7945e" d="M45 20h1" />
<path stroke="#c89660" d="M46 20h1" />
<path stroke="#d49f6a" d="M48 20h1M42 35h1M33 40h1M38 50h1" />
<path stroke="#d7a16b" d="M49 20h1M37 39h1" />
<path stroke="#d6a16b" d="M50 20h1M45 26h1M44 36h1M40 39h1M36 48h1" />
<path stroke="#d5a06b" d="M51 20h1M45 27h1M46 36h1M50 37h1M37 46h1M41 49h1" />
<path stroke="#d6a16c" d="M52 20h1M42 33h1M38 40h1M40 45h1M41 48h1" />
<path stroke="#d8a36c" d="M53 20h1M57 26h1M48 37h1" />
<path stroke="#d9a46d" d="M54 20h1M44 27h1M49 41h1M38 47h1" />
<path stroke="#d9a36d" d="M55 20h1M49 21h1M53 24h1M38 37h1M47 37h1M33 38h1M37 47h1M40 47h1" />
<path stroke="#d9a36e" d="M56 20h1M50 21h1M48 22h1" />
<path stroke="#c7925f" d="M44 21h1" />
<path stroke="#c8945f" d="M45 21h1M45 33h1" />
<path stroke="#cb9963" d="M46 21h1" />
<path stroke="#d39e67" d="M47 21h1" />
<path stroke="#d7a26c" d="M48 21h1M41 35h1M40 37h1M49 37h1M40 38h1M32 39h2M45 39h1" />
<path stroke="#d8a36d" d="M51 21h1M39 37h1M38 38h1M39 46h1" />
<path stroke="#c9945f" d="M44 22h1" />
<path stroke="#d39f67" d="M46 22h1" />
<path stroke="#d5a26b" d="M47 22h1" />
<path stroke="#c6945c" d="M43 23h1" />
<path stroke="#cf9c65" d="M44 23h1M38 51h1" />
<path stroke="#cd9965" d="M45 23h1M43 49h1" />
<path stroke="#54493e" d="M47 23h1" />
<path stroke="#443f39" d="M55 23h1" />
<path stroke="#c7945d" d="M43 24h1" />
<path stroke="#cd9963" d="M44 24h1M53 35h1" />
<path stroke="#d09c66" d="M45 24h1M35 42h1" />
<path stroke="#c6935b" d="M43 25h1" />
<path stroke="#ca9860" d="M44 25h1" />
<path stroke="#ce9a66" d="M45 25h1" />
<path stroke="#cb9761" d="M46 25h1" />
<path stroke="#c7915d" d="M47 25h1" />
<path stroke="#d19b68" d="M48 25h1" />
<path stroke="#d39f69" d="M53 25h1" />
<path stroke="#ce9b64" d="M55 25h1" />
<path stroke="#d19e67" d="M56 25h1M45 35h1" />
<path stroke="#d7a26b" d="M57 25h1" />
<path stroke="#d19e69" d="M46 26h1" />
<path stroke="#d3a069" d="M47 26h1" />
<path stroke="#d9a56e" d="M48 26h1M55 27h1" />
<path stroke="#dbab75" d="M49 26h1" />
<path stroke="#2e271f" d="M50 26h2" />
<path stroke="#d19d67" d="M53 26h1M42 50h1" />
<path stroke="#d29d69" d="M54 26h1M47 36h1M32 40h1" />
<path stroke="#d19e65" d="M55 26h1" />
<path stroke="#d29e68" d="M56 26h1M43 35h1" />
<path stroke="#d39e6a" d="M46 27h1" />
<path stroke="#d8a973" d="M47 27h1" />
<path stroke="#e3ca96" d="M49 27h1" />
<path stroke="#dcc290" d="M52 27h1" />
<path stroke="#dbb684" d="M53 27h1" />
<path stroke="#d8ae78" d="M54 27h1M45 28h2M55 28h2M46 29h1M55 29h1M47 30h2M53 30h2M48 31h2M52 31h2M49 32h4" />
<path stroke="#4e2e32" d="M50 28h2M51 30h1" />
<path stroke="#1c1a19" d="M53 28h1" />
<path stroke="#5a2c32" d="M49 29h1M51 29h1" />
<path stroke="#5d2d33" d="M50 29h1" />
<path stroke="#5f2e34" d="M52 29h1" />
<path stroke="#b78451" d="M45 30h1" />
<path stroke="#d64556" d="M50 30h1" />
<path stroke="#bf8c5a" d="M44 31h1" />
<path stroke="#bb8a53" d="M45 31h1" />
<path stroke="#d5a16b" d="M42 32h1M40 49h1" />
<path stroke="#c89360" d="M44 32h1" />
<path stroke="#c48e5b" d="M45 32h1" />
<path stroke="#bd8a55" d="M46 32h1" />
<path stroke="#b78450" d="M47 32h1M40 42h1M41 56h1" />
<path stroke="#b68150" d="M55 32h1" />
<path stroke="#d39e68" d="M43 33h1" />
<path stroke="#ce9962" d="M44 33h1" />
<path stroke="#c38f5b" d="M46 33h1" />
<path stroke="#be8856" d="M47 33h1" />
<path stroke="#bb8753" d="M54 33h1M45 50h1" />
<path stroke="#c18e5b" d="M55 33h1M41 41h1" />
<path stroke="#d5a06a" d="M42 34h1M40 36h1" />
<path stroke="#d49e6b" d="M43 34h1" />
<path stroke="#d09c67" d="M44 34h1M37 41h1" />
<path stroke="#ce9963" d="M45 34h1" />
<path stroke="#cb9661" d="M46 34h1" />
<path stroke="#c6905d" d="M47 34h1" />
<path stroke="#c18e5a" d="M48 34h1" />
<path stroke="#bf8c59" d="M49 34h1" />
<path stroke="#be8d59" d="M50 34h1" />
<path stroke="#bd8a57" d="M51 34h1" />
<path stroke="#bf8a55" d="M52 34h1" />
<path stroke="#c28d59" d="M53 34h1" />
<path stroke="#c5915c" d="M54 34h1M45 46h1" />
<path stroke="#c8935f" d="M55 34h1" />
<path stroke="#d8a46e" d="M39 35h1M34 37h2M46 37h1M50 39h1M38 46h1" />
<path stroke="#d6a26c" d="M40 35h1M39 49h1" />
<path stroke="#d4a069" d="M44 35h1" />
<path stroke="#cf9a66" d="M46 35h1" />
<path stroke="#cb9561" d="M47 35h1" />
<path stroke="#c89562" d="M48 35h1" />
<path stroke="#c6915e" d="M49 35h1" />
<path stroke="#c5905d" d="M50 35h1" />
<path stroke="#c7925e" d="M51 35h1" />
<path stroke="#ce9a64" d="M54 35h1" />
<path stroke="#cf9c64" d="M55 35h1" />
<path stroke="#d8a36e" d="M39 36h1" />
<path stroke="#d49e69" d="M42 36h1" />
<path stroke="#d8a16d" d="M45 36h1M34 38h1" />
<path stroke="#d09b66" d="M48 36h2" />
<path stroke="#ce9864" d="M50 36h1" />
<path stroke="#cf9b66" d="M51 36h1" />
<path stroke="#d4a16b" d="M53 36h1" />
<path stroke="#d7a56f" d="M54 36h1" />
<path stroke="#d9a773" d="M55 36h1" />
<path stroke="#d7a36d" d="M36 37h1M52 38h1M38 48h1" />
<path stroke="#d7a26e" d="M37 37h1M39 47h1" />
<path stroke="#d5a16c" d="M41 37h1M35 38h1M36 47h1" />
<path stroke="#d09d68" d="M42 37h1" />
<path stroke="#d4a16a" d="M44 37h1M41 46h1" />
<path stroke="#d4a06a" d="M51 37h1" />
<path stroke="#d6a16d" d="M52 37h1" />
<path stroke="#d8a771" d="M53 37h1" />
<path stroke="#dcad7c" d="M54 37h1" />
<path stroke="#e3bb8e" d="M55 37h1" />
<path stroke="#d6a26d" d="M31 38h1M37 38h1" />
<path stroke="#d6a26b" d="M36 38h1" />
<path stroke="#d19d68" d="M41 38h1" />
<path stroke="#c9945e" d="M42 38h1" />
<path stroke="#d39e69" d="M44 38h1" />
<path stroke="#d8a46c" d="M50 38h1" />
<path stroke="#d8a26d" d="M51 38h1M37 48h1" />
<path stroke="#dba975" d="M53 38h1" />
<path stroke="#e1b98b" d="M54 38h1" />
<path stroke="#e9cca6" d="M55 38h1" />
<path stroke="#d49e6c" d="M31 39h1" />
<path stroke="#d59f6c" d="M34 39h1" />
<path stroke="#d4a06c" d="M35 39h1" />
<path stroke="#d7a16c" d="M36 39h1M38 45h1" />
<path stroke="#d8a26e" d="M38 39h1" />
<path stroke="#d7a46e" d="M39 39h1" />
<path stroke="#cc9563" d="M41 39h1" />
<path stroke="#be8b58" d="M42 39h1" />
<path stroke="#bf8d59" d="M43 39h1M45 49h1" />
<path stroke="#d8a671" d="M51 39h1" />
<path stroke="#d9a673" d="M52 39h1" />
<path stroke="#deaf7d" d="M53 39h1" />
<path stroke="#e6c59b" d="M54 39h1" />
<path stroke="#eedab7" d="M55 39h1" />
<path stroke="#cb9864" d="M30 40h1M30 42h1M30 47h1" />
<path stroke="#d29f69" d="M31 40h1" />
<path stroke="#d59f6b" d="M34 40h1" />
<path stroke="#d39e6c" d="M35 40h1" />
<path stroke="#d4a06b" d="M36 40h1M37 49h1" />
<path stroke="#d5a06c" d="M37 40h1" />
<path stroke="#d29e6a" d="M39 40h1M33 41h1M35 41h1M33 42h1M35 48h1" />
<path stroke="#cf9965" d="M40 40h1M43 46h1" />
<path stroke="#c6925d" d="M41 40h1" />
<path stroke="#b88550" d="M42 40h1" />
<path stroke="#b58451" d="M43 40h1" />
<path stroke="#b68350" d="M44 40h1M44 41h1" />
<path stroke="#d9a571" d="M50 40h1" />
<path stroke="#daa674" d="M51 40h1" />
<path stroke="#dbac78" d="M52 40h1" />
<path stroke="#dfb787" d="M53 40h1" />
<path stroke="#e9cea9" d="M54 40h1" />
<path stroke="#f0dcba" d="M55 40h1" />
<path stroke="#cb9766" d="M30 41h1" />
<path stroke="#cf9c68" d="M31 41h1" />
<path stroke="#ce9b67" d="M32 41h1" />
<path stroke="#d29e6b" d="M34 41h1" />
<path stroke="#d29f6a" d="M36 41h1" />
<path stroke="#cb9763" d="M38 41h1M44 46h1" />
<path stroke="#c99562" d="M39 41h1" />
<path stroke="#c6925e" d="M40 41h1" />
<path stroke="#b6844f" d="M42 41h1" />
<path stroke="#b78350" d="M43 41h1" />
<path stroke="#b5814e" d="M45 41h1" />
<path stroke="#b4814e" d="M46 41h1M45 42h3M45 43h3M46 51h1M46 52h1M46 53h1M44 54h2M47 54h2M44 55h2M40 57h1M42 57h1" />
<path stroke="#dba774" d="M50 41h1" />
<path stroke="#dcaa79" d="M51 41h1" />
<path stroke="#deb07e" d="M52 41h1" />
<path stroke="#e6c397" d="M53 41h1" />
<path stroke="#eed8b4" d="M54 41h1" />
<path stroke="#f0debd" d="M55 41h1" />
<path stroke="#cc9a66" d="M31 42h1" />
<path stroke="#d09b68" d="M32 42h1" />
<path stroke="#d19c68" d="M34 42h1" />
<path stroke="#cd9864" d="M36 42h1M33 44h1" />
<path stroke="#c5925c" d="M37 42h1" />
<path stroke="#bc8755" d="M38 42h1" />
<path stroke="#b78552" d="M39 42h1M44 53h1" />
<path stroke="#b6834e" d="M41 42h1" />
<path stroke="#b6824f" d="M42 42h1" />
<path stroke="#b5824e" d="M43 42h1" />
<path stroke="#b4814f" d="M44 42h1M43 55h1M42 56h1" />
<path stroke="#d8a56e" d="M49 42h1" />
<path stroke="#dcaa76" d="M50 42h1" />
<path stroke="#dfb182" d="M51 42h1" />
<path stroke="#e5bc90" d="M52 42h1" />
<path stroke="#ead2ab" d="M53 42h1" />
<path stroke="#efddbb" d="M54 42h1" />
<path stroke="#f1dfbf" d="M55 42h1" />
<path stroke="#cb9765" d="M30 43h1" />
<path stroke="#ce9966" d="M31 43h1M36 50h1" />
<path stroke="#ce9b69" d="M32 43h1" />
<path stroke="#cf9d68" d="M33 43h1" />
<path stroke="#cc9865" d="M34 43h1" />
<path stroke="#c79460" d="M35 43h1" />
<path stroke="#bf8c58" d="M36 43h1" />
<path stroke="#b98753" d="M37 43h1" />
<path stroke="#b6834f" d="M38 43h1" />
<path stroke="#b48250" d="M39 43h1" />
<path stroke="#daa975" d="M49 43h1" />
<path stroke="#dfb281" d="M50 43h1" />
<path stroke="#e3bb93" d="M51 43h1" />
<path stroke="#e9caa0" d="M52 43h1" />
<path stroke="#edd7b3" d="M53 43h1" />
<path stroke="#f0ddba" d="M54 43h1M51 48h1" />
<path stroke="#f2e1be" d="M55 43h1M54 45h1M52 50h1" />
<path stroke="#c69461" d="M29 44h1" />
<path stroke="#cb9965" d="M30 44h1" />
<path stroke="#cf9a68" d="M31 44h1" />
<path stroke="#cd9966" d="M32 44h1M31 46h1" />
<path stroke="#c6925f" d="M34 44h1M44 45h1" />
<path stroke="#c28f59" d="M35 44h1" />
<path stroke="#b88653" d="M36 44h1" />
<path stroke="#b4824f" d="M37 44h1M47 44h1" />
<path stroke="#d39d67" d="M42 44h1" />
<path stroke="#c6935e" d="M43 44h1" />
<path stroke="#ba8652" d="M44 44h1" />
<path stroke="#b5814f" d="M46 44h1" />
<path stroke="#deb282" d="M49 44h1" />
<path stroke="#e5c196" d="M50 44h1" />
<path stroke="#e6c79e" d="M51 44h1" />
<path stroke="#edd3b0" d="M52 44h1" />
<path stroke="#efdab7" d="M53 44h1" />
<path stroke="#f2dfbd" d="M54 44h1" />
<path stroke="#f2e1bf" d="M55 44h1M55 45h1M54 46h1M54 47h1M53 48h2M52 49h3M53 50h1M52 51h2M48 52h5" />
<path stroke="#c3925f" d="M29 45h1" />
<path stroke="#cb9866" d="M30 45h1" />
<path stroke="#cd9a67" d="M31 45h1" />
<path stroke="#cc9a67" d="M32 45h1" />
<path stroke="#cc9864" d="M33 45h1M44 47h1" />
<path stroke="#ca9561" d="M34 45h1" />
<path stroke="#c79360" d="M35 45h1" />
<path stroke="#d9a36c" d="M39 45h1" />
<path stroke="#d59e6b" d="M41 45h1" />
<path stroke="#d39d69" d="M42 45h1" />
<path stroke="#cc9863" d="M43 45h1M42 51h1" />
<path stroke="#be8a55" d="M45 45h1" />
<path stroke="#dead7b" d="M48 45h1" />
<path stroke="#e3bc8f" d="M49 45h1" />
<path stroke="#ebcfa8" d="M50 45h1" />
<path stroke="#ebd0a9" d="M51 45h1" />
<path stroke="#efd8b4" d="M52 45h1" />
<path stroke="#efdfbb" d="M53 45h1" />
<path stroke="#c0915d" d="M29 46h1" />
<path stroke="#cb9966" d="M30 46h1" />
<path stroke="#cc9966" d="M32 46h1" />
<path stroke="#ca9763" d="M33 46h1" />
<path stroke="#ca9564" d="M34 46h1" />
<path stroke="#d7a26d" d="M40 46h1" />
<path stroke="#ba8853" d="M46 46h1" />
<path stroke="#e1ba8b" d="M48 46h1" />
<path stroke="#e4c197" d="M49 46h1" />
<path stroke="#ecd1ab" d="M50 46h1" />
<path stroke="#eed6b1" d="M51 46h1" />
<path stroke="#f0deba" d="M52 46h1" />
<path stroke="#f2e0be" d="M53 46h1" />
<path stroke="#c38f5e" d="M29 47h1" />
<path stroke="#c69262" d="M31 47h1" />
<path stroke="#c4925f" d="M32 47h1" />
<path stroke="#c69363" d="M33 47h1" />
<path stroke="#c49160" d="M34 47h1" />
<path stroke="#ca9865" d="M35 47h1" />
<path stroke="#d29d6a" d="M42 47h1" />
<path stroke="#d19c67" d="M43 47h1M40 51h1" />
<path stroke="#c48f5d" d="M45 47h1" />
<path stroke="#bb8954" d="M46 47h1" />
<path stroke="#bf8e5c" d="M47 47h1" />
<path stroke="#e7c69e" d="M49 47h1" />
<path stroke="#edd4b0" d="M50 47h1" />
<path stroke="#efd9b5" d="M51 47h1" />
<path stroke="#f2e0bc" d="M52 47h1" />
<path stroke="#f1e1bf" d="M53 47h1" />
<path stroke="#be8b5d" d="M29 48h1" />
<path stroke="#c59260" d="M30 48h1M40 53h1" />
<path stroke="#c28f5f" d="M31 48h1" />
<path stroke="#c18f5e" d="M32 48h1M41 52h1" />
<path stroke="#c08e5e" d="M33 48h1M33 49h1" />
<path stroke="#c2905f" d="M34 48h1M42 53h1" />
<path stroke="#d9a46c" d="M39 48h1" />
<path stroke="#d59f6a" d="M42 48h1" />
<path stroke="#cf9b67" d="M43 48h1" />
<path stroke="#cd9764" d="M44 48h1" />
<path stroke="#c4905b" d="M45 48h1" />
<path stroke="#ba8855" d="M46 48h1" />
<path stroke="#bb8854" d="M47 48h1" />
<path stroke="#e8cda6" d="M49 48h1" />
<path stroke="#efd9b4" d="M50 48h1" />
<path stroke="#f2e0bf" d="M52 48h1M51 51h1" />
<path stroke="rgba(154,115,75,0.41568627450980394)" d="M56 48h1" />
<path stroke="#b98858" d="M29 49h1" />
<path stroke="#c18f5d" d="M30 49h1" />
<path stroke="#bd8b5a" d="M31 49h1" />
<path stroke="#c08d5c" d="M32 49h1M41 54h1" />
<path stroke="#c29060" d="M34 49h1" />
<path stroke="#cd9865" d="M35 49h1" />
<path stroke="#d3a06a" d="M36 49h1M37 50h1" />
<path stroke="#d8a36b" d="M38 49h1" />
<path stroke="#c89460" d="M44 49h1" />
<path stroke="#b88551" d="M46 49h1" />
<path stroke="#b88451" d="M47 49h1" />
<path stroke="#ecd6b1" d="M49 49h1" />
<path stroke="#f0ddb9" d="M50 49h1" />
<path stroke="#f1dfbe" d="M51 49h1" />
<path stroke="rgba(142,113,85,0.03529411764705882)" d="M57 49h1" />
<path stroke="#b1814d" d="M28 50h1" />
<path stroke="#bc8c59" d="M29 50h1" />
<path stroke="#bc8b5c" d="M30 50h1" />
<path stroke="#bb8a5a" d="M31 50h1" />
<path stroke="#bc8d5c" d="M32 50h1" />
<path stroke="#b8885a" d="M33 50h1" />
<path stroke="#c19060" d="M34 50h1" />
<path stroke="#c69362" d="M35 50h1" />
<path stroke="#d39f6b" d="M39 50h1" />
<path stroke="#d39e6b" d="M40 50h1" />
<path stroke="#d49e6a" d="M41 50h1" />
<path stroke="#cb9863" d="M43 50h1" />
<path stroke="#c3915c" d="M44 50h1" />
<path stroke="#b5824f" d="M46 50h2" />
<path stroke="#f0debc" d="M49 50h1" />
<path stroke="#f0ddbc" d="M50 50h1" />
<path stroke="#f2dfbf" d="M51 50h1" />
<path stroke="#b78555" d="M28 51h1" />
<path stroke="#b78353" d="M29 51h1" />
<path stroke="#b88757" d="M30 51h1" />
<path stroke="#ba8b5a" d="M31 51h1" />
<path stroke="#bc895b" d="M32 51h1" />
<path stroke="#ba8959" d="M33 51h1" />
<path stroke="#bb8c5b" d="M34 51h1" />
<path stroke="#c69261" d="M35 51h1" />
<path stroke="#c89462" d="M36 51h1" />
<path stroke="#c99563" d="M37 51h1" />
<path stroke="#d29c6b" d="M39 51h1" />
<path stroke="#ce9b66" d="M41 51h1" />
<path stroke="#c5935f" d="M43 51h1" />
<path stroke="#bc8a57" d="M44 51h1" />
<path stroke="#b5844f" d="M45 51h1" />
<path stroke="#b4824e" d="M47 51h1M39 57h1" />
<path stroke="#f2e0bd" d="M49 51h1" />
<path stroke="#f2dfbe" d="M50 51h1" />
<path stroke="rgba(160,117,73,0.13725490196078433)" d="M55 51h1" />
<path stroke="#b58252" d="M28 52h1" />
<path stroke="#af814f" d="M29 52h1" />
<path stroke="#b78756" d="M30 52h1" />
<path stroke="#b78653" d="M31 52h1" />
<path stroke="#b78656" d="M32 52h1" />
<path stroke="#b58555" d="M33 52h1" />
<path stroke="#b9895a" d="M34 52h1" />
<path stroke="#bc8c5c" d="M35 52h1" />
<path stroke="#bf8d5d" d="M36 52h1" />
<path stroke="#bf8e5d" d="M37 52h1" />
<path stroke="#c28f5e" d="M38 52h1M39 53h1" />
<path stroke="#c28f60" d="M39 52h1" />
<path stroke="#c3915f" d="M40 52h1M41 53h1" />
<path stroke="#c08e5f" d="M42 52h1" />
<path stroke="#c18d5d" d="M43 52h1" />
<path stroke="#bd8958" d="M44 52h1" />
<path stroke="#b2804e" d="M45 52h1" />
<path stroke="rgba(170,117,74,0.09411764705882353)" d="M54 52h1" />
<path stroke="#b68454" d="M27 53h1" />
<path stroke="#b07d4c" d="M28 53h1" />
<path stroke="#af7e4b" d="M29 53h1" />
<path stroke="#ad7e4c" d="M30 53h1" />
<path stroke="#af7f4e" d="M31 53h1" />
<path stroke="#b38052" d="M32 53h1" />
<path stroke="#b68354" d="M33 53h1" />
<path stroke="#bd8a5b" d="M38 53h1" />
<path stroke="#bd8b5b" d="M43 53h1" />
<path stroke="#b2804d" d="M45 53h1" />
<path stroke="#966a43" d="M26 54h1" />
<path stroke="#9e7347" d="M27 54h1" />
<path stroke="#aa794b" d="M28 54h1" />
<path stroke="#b07e4a" d="M29 54h1" />
<path stroke="#ac7c4d" d="M30 54h1" />
<path stroke="#ae794d" d="M31 54h1" />
<path stroke="#ac7a4c" d="M32 54h1" />
<path stroke="#b17e4c" d="M33 54h1" />
<path stroke="#bf8d5b" d="M39 54h1" />
<path stroke="#c3915e" d="M40 54h1" />
<path stroke="#bc8b59" d="M42 54h1" />
<path stroke="#b68450" d="M43 54h1" />
<path stroke="#7f5939" d="M25 55h1" />
<path stroke="#835d3b" d="M26 55h1" />
<path stroke="#8a623e" d="M27 55h1" />
<path stroke="#996d43" d="M28 55h1" />
<path stroke="#a77649" d="M29 55h1" />
<path stroke="#a27448" d="M30 55h1" />
<path stroke="#976b43" d="M31 55h1" />
<path stroke="#bb8856" d="M39 55h1" />
<path stroke="#c08d5a" d="M40 55h1" />
<path stroke="#bd8b57" d="M41 55h1" />
<path stroke="#b88654" d="M42 55h1" />
<path stroke="#b4814d" d="M47 55h1" />
<path stroke="#b3814d" d="M48 55h1" />
<path stroke="#835b39" d="M23 56h1M21 57h2M19 58h2M15 59h4M52 59h2M9 60h6M3 61h6M48 61h2M2 62h1" />
<path stroke="#735035" d="M24 56h1" />
<path stroke="#785135" d="M25 56h1" />
<path stroke="#795436" d="M26 56h1" />
<path stroke="#795334" d="M27 56h1" />
<path stroke="#815a38" d="M28 56h1" />
<path stroke="#835c3a" d="M29 56h1" />
<path stroke="#815b39" d="M30 56h1" />
<path stroke="#875e3b" d="M31 56h1" />
<path stroke="#b88552" d="M39 56h1" />
<path stroke="#b88554" d="M40 56h1" />
<path stroke="#b3804d" d="M43 56h1" />
<path stroke="#af7b4c" d="M46 56h2" />
<path stroke="#ae7c4a" d="M48 56h1" />
<path stroke="#6c4b31" d="M23 57h1" />
<path stroke="#6b4b31" d="M24 57h1" />
<path stroke="#6e4a30" d="M25 57h2" />
<path stroke="#724b32" d="M27 57h1" />
<path stroke="#744f33" d="M28 57h1" />
<path stroke="#734f33" d="M29 57h1" />
<path stroke="#775232" d="M30 57h1" />
<path stroke="#b3814e" d="M41 57h1" />
<path stroke="#b27f4d" d="M43 57h1" />
<path stroke="#a17345" d="M45 57h1" />
<path stroke="#9e6e43" d="M46 57h1" />
<path stroke="#9f7144" d="M47 57h1M39 59h1" />
<path stroke="#986a41" d="M48 57h1" />
<path stroke="#67462d" d="M21 58h1" />
<path stroke="#65442b" d="M22 58h1" />
<path stroke="#67432c" d="M23 58h1M24 59h1M51 59h1M23 60h1" />
<path stroke="#66442c" d="M24 58h1" />
<path stroke="#68452c" d="M25 58h1" />
<path stroke="#6a472e" d="M26 58h1" />
<path stroke="#6e4a2f" d="M27 58h1" />
<path stroke="#704b31" d="M28 58h1" />
<path stroke="#6f4a2e" d="M29 58h1" />
<path stroke="#b17e4d" d="M38 58h1" />
<path stroke="#ae7c4b" d="M39 58h1" />
<path stroke="#ac7a4b" d="M40 58h1" />
<path stroke="#af7e4c" d="M41 58h1" />
<path stroke="#b17e4b" d="M42 58h1" />
<path stroke="#956940" d="M45 58h1" />
<path stroke="#91673f" d="M46 58h2" />
<path stroke="#8f663d" d="M48 58h1" />
<path stroke="#8b613c" d="M49 58h1" />
<path stroke="#624129" d="M19 59h1" />
<path stroke="#624029" d="M20 59h2M16 60h3M11 61h2M8 62h1M10 62h1" />
<path stroke="#63402b" d="M22 59h1" />
<path stroke="#65412b" d="M23 59h1" />
<path stroke="#69452e" d="M25 59h1M24 61h1" />
<path stroke="#6c492f" d="M26 59h1" />
<path stroke="#6f4a30" d="M27 59h1" />
<path stroke="#6d482f" d="M28 59h1" />
<path stroke="#9b6f44" d="M38 59h1" />
<path stroke="#94673f" d="M40 59h1" />
<path stroke="#986d42" d="M41 59h1" />
<path stroke="#976c3d" d="M42 59h1" />
<path stroke="#93673f" d="M43 59h1" />
<path stroke="#7e5636" d="M45 59h1" />
<path stroke="#775133" d="M46 59h1" />
<path stroke="#744d31" d="M47 59h1" />
<path stroke="#6b472e" d="M48 59h1M25 60h1M27 60h1" />
<path stroke="#66422b" d="M49 59h1" />
<path stroke="#64412b" d="M50 59h1" />
<path stroke="#614029" d="M15 60h1M20 60h1M4 62h1M6 62h1M45 62h1M50 62h1" />
<path stroke="#613f29" d="M19 60h1M51 60h9M9 61h2M13 61h3M3 62h1M5 62h1M7 62h1M11 62h11M23 62h3M40 62h1M46 62h4M51 62h4" />
<path stroke="#62402a" d="M21 60h1M46 61h1M37 62h1M43 62h1" />
<path stroke="#64422c" d="M22 60h1" />
<path stroke="#6a452e" d="M24 60h1" />
<path stroke="#6b482e" d="M26 60h1" />
<path stroke="#855c39" d="M37 60h1" />
<path stroke="#845a38" d="M38 60h1" />
<path stroke="#835c39" d="M39 60h1" />
<path stroke="#7b5535" d="M40 60h1" />
<path stroke="#795233" d="M41 60h1" />
<path stroke="#775131" d="M42 60h1" />
<path stroke="#815936" d="M43 60h1" />
<path stroke="#7b5335" d="M44 60h1" />
<path stroke="#623f29" d="M16 61h5M9 62h1M22 62h1M41 62h2" />
<path stroke="#623f2a" d="M21 61h1" />
<path stroke="#64432a" d="M22 61h1" />
<path stroke="#68452d" d="M23 61h1" />
<path stroke="#66412b" d="M25 61h1" />
<path stroke="#643f2a" d="M26 61h1" />
<path stroke="#67442a" d="M36 61h1" />
<path stroke="#714c30" d="M37 61h1" />
<path stroke="#6e492e" d="M38 61h1" />
<path stroke="#6b462e" d="M39 61h1" />
<path stroke="#69452c" d="M40 61h1" />
<path stroke="#67432b" d="M41 61h1" />
<path stroke="#68412c" d="M42 61h1" />
<path stroke="#6d492f" d="M43 61h1" />
<path stroke="#6b472d" d="M44 61h1" />
<path stroke="#65412c" d="M45 61h1" />
<path stroke="#62412a" d="M47 61h1" />
<path stroke="#63422a" d="M38 62h1" />
<path stroke="#64422a" d="M39 62h1" />
<path stroke="#633f29" d="M44 62h1" />
</svg>