<svg xmlns="http://www.w3.org/2000/svg" viewBox="0 -0.5 64 64" shape-rendering="crispEdges">
<metadata>Made with Pixels to Svg https://codepen.io/shshaw/pen/XbxvNj</metadata>
<path stroke="#111111" d="M16 14h2M45 14h2M15 15h1M18 15h1M44 15h1M47 15h1M14 16h1M19 16h1M43 16h1M48 16h1M14 17h1M20 17h1M27 17h9M42 17h1M48 17h1M13 18h1M15 18h1M20 18h1M26 18h1M36 18h1M42 18h1M47 18h1M49 18h1M13 19h4M21 19h2M24 19h2M28 19h1M34 19h1M37 19h2M40 19h2M46 19h4M12 20h1M17 20h4M23 20h2M27 20h1M29 20h1M33 20h1M35 20h1M38 20h2M42 20h4M50 20h1M11 21h2M16 21h1M21 21h1M24 21h1M27 21h1M29 21h1M33 21h1M35 21h1M38 21h1M41 21h1M46 21h1M50 21h2M10 22h1M15 22h2M21 22h2M24 22h1M27 22h3M33 22h3M38 22h1M40 22h2M46 22h2M52 22h1M9 23h1M14 23h1M23 23h1M25 23h1M28 23h1M34 23h1M37 23h1M39 23h1M48 23h1M53 23h1M7 24h2M11 24h3M18 24h3M23 24h1M25 24h1M30 24h3M37 24h1M39 24h1M42 24h3M49 24h3M54 24h2M6 25h1M10 25h1M12 25h1M17 25h1M21 25h2M24 25h2M37 25h2M40 25h2M45 25h1M50 25h1M52 25h1M56 25h1M5 26h1M9 26h1M12 26h1M16 26h2M21 26h1M23 26h1M26 26h1M36 26h1M39 26h1M41 26h1M45 26h2M50 26h1M53 26h1M57 26h1M3 27h2M7 27h2M12 27h1M15 27h1M17 27h1M21 27h1M23 27h2M27 27h1M35 27h1M38 27h2M41 27h1M45 27h1M47 27h1M50 27h1M54 27h2M58 27h2M1 28h2M6 28h1M11 28h1M14 28h1M17 28h1M21 28h1M25 28h1M28 28h1M34 28h1M37 28h1M41 28h1M45 28h1M48 28h1M51 28h1M56 28h1M60 28h2M0 29h1M5 29h1M10 29h1M14 29h1M18 29h1M22 29h1M26 29h1M29 29h1M33 29h1M36 29h1M40 29h1M44 29h1M48 29h1M52 29h1M57 29h1M62 29h1M0 30h1M3 30h2M9 30h1M13 30h1M19 30h1M22 30h2M27 30h1M29 30h1M33 30h1M35 30h1M39 30h2M43 30h1M49 30h1M53 30h1M58 30h2M62 30h1M0 31h3M8 31h1M12 31h1M19 31h1M22 31h1M24 31h1M29 31h1M33 31h1M38 31h1M40 31h1M43 31h1M50 31h1M54 31h1M60 31h3M7 32h1M11 32h1M19 32h1M23 32h1M25 32h1M29 32h2M32 32h2M37 32h1M39 32h1M43 32h1M51 32h1M55 32h1M7 33h1M10 33h1M20 33h1M23 33h1M26 33h1M30 33h1M32 33h1M36 33h1M39 33h1M42 33h1M52 33h1M55 33h1M6 34h1M10 34h1M20 34h1M23 34h1M27 34h1M30 34h1M32 34h1M35 34h1M39 34h1M42 34h1M52 34h1M56 34h1M5 35h1M9 35h1M20 35h1M23 35h1M28 35h2M33 35h2M39 35h1M42 35h1M53 35h1M57 35h1M4 36h1M8 36h1M20 36h1M23 36h1M39 36h1M42 36h1M54 36h1M58 36h1M3 37h1M7 37h1M20 37h1M23 37h1M39 37h1M42 37h1M55 37h1M59 37h1M3 38h1M6 38h1M20 38h1M23 38h1M39 38h1M42 38h1M56 38h1M59 38h1M3 39h3M21 39h1M24 39h1M38 39h1M41 39h1M57 39h3M21 40h1M24 40h1M38 40h1M41 40h1M21 41h1M24 41h1M38 41h1M41 41h1M21 42h1M24 42h1M38 42h1M41 42h1M21 43h1M24 43h1M38 43h1M41 43h1M22 44h1M25 44h1M37 44h1M40 44h1M22 45h1M25 45h1M37 45h1M40 45h1M22 46h1M25 46h1M37 46h1M40 46h1M22 47h1M25 47h1M37 47h1M40 47h1M22 48h1M24 48h1M38 48h1M40 48h1M23 49h2M38 49h2" />
<path stroke="#5e4a43" d="M16 15h1M18 16h1" />
<path stroke="#664f45" d="M17 15h1" />
<path stroke="#664f46" d="M45 15h1" />
<path stroke="#6c5349" d="M46 15h1M47 16h1M34 18h2M36 19h1M37 20h1M30 31h3" />
<path stroke="#3c322e" d="M15 16h1" />
<path stroke="#3b322e" d="M16 16h1M18 18h1M16 25h1" />
<path stroke="#433732" d="M17 16h1M30 27h1" />
<path stroke="#483a36" d="M44 16h1" />
<path stroke="#453834" d="M45 16h1M33 27h1" />
<path stroke="#423733" d="M46 16h1" />
<path stroke="#342d2a" d="M15 17h2M14 18h1M16 18h1M27 18h7M43 18h3M17 19h1M26 19h2M29 19h5M35 19h1M42 19h4M25 20h2M30 20h3M36 20h1M46 20h4M25 21h2M30 21h3M39 21h2M47 21h3M12 22h3M18 22h1M25 22h2M30 22h3M39 22h1M48 22h3M13 23h1M17 23h2M26 23h2M29 23h5M35 23h1M40 23h1M49 23h1M14 24h1M26 24h4M33 24h3M38 24h1M40 24h1M13 25h3M23 25h1M26 25h5M33 25h3M39 25h1M13 26h3M22 26h1M24 26h1M27 26h1M35 26h1M38 26h1M40 26h1M42 26h1M47 26h1M13 27h2M18 27h1M22 27h1M25 27h2M36 27h2M40 27h1M42 27h1M48 27h1M3 28h1M13 28h1M18 28h1M22 28h3M26 28h2M35 28h2M38 28h3M49 28h1M57 28h1M59 28h1M1 29h3M19 29h1M23 29h3M27 29h2M34 29h2M37 29h3M58 29h4M1 30h2M24 30h2M28 30h1M34 30h1M37 30h2M60 30h2M20 31h1M23 31h1M25 31h3M35 31h3M39 31h1M20 32h3M26 32h3M34 32h3M40 32h1M21 33h2M27 33h3M33 33h3M40 33h1M53 33h2M28 34h2M33 34h2M53 34h3M6 35h3M54 35h3M5 36h3M55 36h3M4 37h3M56 37h3M4 38h2M57 38h2M40 41h1M22 42h1M39 42h2M22 43h2M39 43h2M23 44h2M38 44h2M23 45h2M38 45h2M23 46h2M38 46h2M23 47h2M38 47h2M23 48h1M39 48h1" />
<path stroke="#362e2c" d="M17 17h1" />
<path stroke="#443833" d="M18 17h1M17 21h1" />
<path stroke="#695047" d="M19 17h1" />
<path stroke="#413632" d="M43 17h1" />
<path stroke="#433731" d="M44 17h1M31 26h1" />
<path stroke="#3d332f" d="M45 17h1M15 20h1M42 30h1" />
<path stroke="#413533" d="M46 17h1" />
<path stroke="#55443d" d="M47 17h1" />
<path stroke="#342e2a" d="M17 18h1M18 26h1" />
<path stroke="#513f3a" d="M19 18h1" />
<path stroke="#392f2d" d="M46 18h1M22 24h1" />
<path stroke="#503f39" d="M48 18h1M46 23h1" />
<path stroke="rgba(0,0,0,0.00784313725490196)" d="M63 18h1M63 22h1M63 28h1M63 31h1M63 48h1" />
<path stroke="#352e2a" d="M18 19h1M40 20h1M31 25h2M20 30h1M41 32h1" />
<path stroke="#352d2b" d="M19 19h1" />
<path stroke="#483b37" d="M20 19h1" />
<path stroke="rgba(0,0,0,0.00392156862745098)" d="M63 19h1M63 21h1M63 23h1M63 25h1M63 27h1M63 38h1M63 39h1M63 40h1M63 41h1M63 42h1M63 46h1M63 47h1" />
<path stroke="#372e2c" d="M13 20h1" />
<path stroke="#3a302d" d="M14 20h1M42 22h1" />
<path stroke="#433832" d="M16 20h1" />
<path stroke="#59463f" d="M21 20h1" />
<path stroke="#4e3f38" d="M22 20h1" />
<path stroke="#ffffff" d="M28 20h1M34 20h1" />
<path stroke="#40332f" d="M41 20h1" />
<path stroke="#3a312d" d="M13 21h1M42 23h1M15 24h1M49 27h1" />
<path stroke="#39312d" d="M14 21h1M42 25h1" />
<path stroke="#39302d" d="M15 21h1" />
<path stroke="#493b36" d="M18 21h1" />
<path stroke="#503f38" d="M19 21h1" />
<path stroke="#614b42" d="M20 21h1" />
<path stroke="#403531" d="M22 21h1M43 22h1M20 23h1" />
<path stroke="#5a473f" d="M23 21h1" />
<path stroke="#884237" d="M28 21h1M34 21h1" />
<path stroke="#3a302e" d="M36 21h1" />
<path stroke="#5b493f" d="M37 21h1" />
<path stroke="#443732" d="M42 21h1M29 27h1" />
<path stroke="#685147" d="M43 21h1" />
<path stroke="#6c5348" d="M44 21h1" />
<path stroke="#6b5349" d="M45 21h1M31 30h1" />
<path stroke="#772717" d="M11 22h1M51 22h1M10 23h3M50 23h3M9 24h2M52 24h2M12 28h1M13 29h1M49 29h1M21 34h2M40 34h2M21 35h2M40 35h2" />
<path stroke="#38302c" d="M17 22h1M15 23h1M16 24h1M28 27h1" />
<path stroke="#3a302c" d="M19 22h1" />
<path stroke="#59463d" d="M20 22h1" />
<path stroke="#4c3d38" d="M23 22h1" />
<path stroke="#3e322f" d="M36 22h1" />
<path stroke="#4d3f38" d="M37 22h1" />
<path stroke="#3b312d" d="M44 22h1M46 25h1" />
<path stroke="#58453e" d="M45 22h1" />
<path stroke="#3c332e" d="M16 23h1" />
<path stroke="#352d2a" d="M19 23h1M58 28h1M4 29h1M41 30h1M42 32h1M39 41h1" />
<path stroke="#5c4840" d="M21 23h1" />
<path stroke="#5f4a41" d="M22 23h1" />
<path stroke="#4c3e38" d="M24 23h1M30 28h1" />
<path stroke="#3b3230" d="M36 23h1" />
<path stroke="#362d2a" d="M38 23h1" />
<path stroke="#352e2b" d="M41 23h1M48 26h1M43 27h1M41 29h1M21 31h1M41 33h1" />
<path stroke="#372f2d" d="M43 23h1" />
<path stroke="#3b312e" d="M44 23h1" />
<path stroke="#40352f" d="M45 23h1" />
<path stroke="#5f4b43" d="M47 23h1" />
<path stroke="#3c312e" d="M17 24h1" />
<path stroke="#362f2b" d="M21 24h1" />
<path stroke="#4c3d37" d="M24 24h1" />
<path stroke="#3c332f" d="M36 24h1" />
<path stroke="#342d2b" d="M41 24h1M28 26h1" />
<path stroke="#3e332d" d="M45 24h1" />
<path stroke="#43362f" d="M46 24h1" />
<path stroke="#4a3a35" d="M47 24h1" />
<path stroke="#54423a" d="M48 24h1" />
<path stroke="#552c22" d="M7 25h1M55 25h1" />
<path stroke="#5a2b21" d="M8 25h1" />
<path stroke="#762718" d="M9 25h1M12 29h1" />
<path stroke="#55423b" d="M18 25h1" />
<path stroke="#4a3d37" d="M19 25h1" />
<path stroke="#52403b" d="M20 25h1" />
<path stroke="#3f3330" d="M36 25h1M32 26h1" />
<path stroke="#604a43" d="M43 25h1" />
<path stroke="#5d4840" d="M44 25h1" />
<path stroke="#40332e" d="M47 25h1" />
<path stroke="#473832" d="M48 25h1" />
<path stroke="#543c35" d="M49 25h1" />
<path stroke="#712b19" d="M53 25h1" />
<path stroke="#5a2d22" d="M54 25h1M11 31h1" />
<path stroke="#4d2d25" d="M6 26h1" />
<path stroke="#4e2d23" d="M7 26h1" />
<path stroke="#5b2b21" d="M8 26h1" />
<path stroke="#362d2c" d="M19 26h1" />
<path stroke="#57453e" d="M20 26h1" />
<path stroke="#2d2725" d="M25 26h1M37 26h1" />
<path stroke="#352e2c" d="M29 26h1" />
<path stroke="#3f3430" d="M30 26h1" />
<path stroke="#372f2c" d="M33 26h1M20 29h1M42 31h1" />
<path stroke="#38302b" d="M34 26h1" />
<path stroke="#39322d" d="M43 26h1" />
<path stroke="#5f4b42" d="M44 26h1" />
<path stroke="#4a3c37" d="M49 26h1" />
<path stroke="#5b2b23" d="M54 26h1" />
<path stroke="#4f2d25" d="M55 26h1" />
<path stroke="#512d26" d="M56 26h1" />
<path stroke="#3d2d28" d="M5 27h1" />
<path stroke="#4d2d24" d="M6 27h1" />
<path stroke="#362e2b" d="M19 27h1M41 31h1M22 41h1" />
<path stroke="#39302c" d="M20 27h1" />
<path stroke="#463935" d="M31 27h1" />
<path stroke="#403532" d="M32 27h1" />
<path stroke="#3f342f" d="M34 27h1" />
<path stroke="#4f3f3a" d="M44 27h1" />
<path stroke="#4c2d26" d="M56 27h1" />
<path stroke="#492c27" d="M57 27h1" />
<path stroke="#372d2a" d="M4 28h1" />
<path stroke="#432d27" d="M5 28h1" />
<path stroke="#342e2b" d="M19 28h1" />
<path stroke="#634c44" d="M20 28h1" />
<path stroke="#3f332f" d="M29 28h1" />
<path stroke="#4b3b37" d="M31 28h1" />
<path stroke="#543f3a" d="M32 28h1" />
<path stroke="#382f2d" d="M33 28h1M21 30h1" />
<path stroke="#362f2c" d="M42 28h1" />
<path stroke="#413430" d="M43 28h1" />
<path stroke="#53433c" d="M44 28h1" />
<path stroke="#5f2b20" d="M50 28h1M11 30h1" />
<path stroke="#712819" d="M11 29h1" />
<path stroke="#37302c" d="M21 29h1" />
<path stroke="#4d3d37" d="M30 29h1" />
<path stroke="#5d4740" d="M31 29h1" />
<path stroke="#604942" d="M32 29h1" />
<path stroke="#3b342e" d="M42 29h1" />
<path stroke="#473934" d="M43 29h1" />
<path stroke="#742719" d="M50 29h1" />
<path stroke="#632e22" d="M51 29h1" />
<path stroke="rgba(64,0,0,0.01568627450980392)" d="M63 29h1" />
<path stroke="#512c25" d="M10 30h1" />
<path stroke="#692a1d" d="M12 30h1" />
<path stroke="#332c29" d="M26 30h1M36 30h1" />
<path stroke="#664e46" d="M30 30h1" />
<path stroke="#56443d" d="M32 30h1" />
<path stroke="#4e2d25" d="M50 30h1" />
<path stroke="#5b2d22" d="M51 30h1" />
<path stroke="#592d23" d="M52 30h1" />
<path stroke="rgba(51,51,51,0.0196078431372549)" d="M63 30h1" />
<path stroke="#4b2d27" d="M9 31h1" />
<path stroke="#462d29" d="M10 31h1" />
<path stroke="#131312" d="M28 31h1M34 31h1" />
<path stroke="#522d24" d="M51 31h1" />
<path stroke="#522d25" d="M52 31h1M22 38h1" />
<path stroke="#462e27" d="M53 31h1" />
<path stroke="#392d2a" d="M8 32h1" />
<path stroke="#422d29" d="M9 32h1" />
<path stroke="#4a2e27" d="M10 32h1" />
<path stroke="#131313" d="M31 32h1" />
<path stroke="#402f2a" d="M52 32h1" />
<path stroke="#422e28" d="M53 32h1M8 33h1" />
<path stroke="#382d29" d="M54 32h1" />
<path stroke="rgba(42,21,21,0.047058823529411764)" d="M63 32h1" />
<path stroke="#382d2a" d="M9 33h1" />
<path stroke="rgba(28,28,28,0.07058823529411765)" d="M63 33h1M63 34h1" />
<path stroke="#3a2d2a" d="M7 34h1" />
<path stroke="#372e2a" d="M8 34h1M23 42h1" />
<path stroke="#382f2a" d="M9 34h1" />
<path stroke="rgba(36,18,18,0.054901960784313725)" d="M63 35h1" />
<path stroke="#652a1e" d="M21 36h1" />
<path stroke="#632a1e" d="M22 36h1" />
<path stroke="#69291d" d="M40 36h1" />
<path stroke="#602c1f" d="M41 36h1" />
<path stroke="rgba(0,0,0,0.0196078431372549)" d="M63 36h1" />
<path stroke="#572a24" d="M21 37h1" />
<path stroke="#582d24" d="M22 37h1" />
<path stroke="#4b2e26" d="M40 37h1" />
<path stroke="#5a2c23" d="M41 37h1" />
<path stroke="rgba(0,0,0,0.011764705882352941)" d="M63 37h1" />
<path stroke="#4e2e27" d="M21 38h1" />
<path stroke="#482e27" d="M40 38h1" />
<path stroke="#4b2d25" d="M41 38h1" />
<path stroke="#492e27" d="M22 39h1" />
<path stroke="#472e27" d="M23 39h1" />
<path stroke="#3b2e29" d="M39 39h1" />
<path stroke="#472d25" d="M40 39h1" />
<path stroke="#402e29" d="M22 40h1" />
<path stroke="#4d2e26" d="M23 40h1" />
<path stroke="#3d2e28" d="M39 40h1" />
<path stroke="#412e28" d="M40 40h1" />
<path stroke="#432e28" d="M23 41h1" />
<path stroke="rgba(0,0,0,0.01568627450980392)" d="M63 49h1M63 50h1" />
<path stroke="rgba(20,20,20,0.050980392156862744)" d="M63 51h1" />
</svg>