<svg xmlns="http://www.w3.org/2000/svg" viewBox="0 -0.5 64 64" shape-rendering="crispEdges">
<metadata>Made with Pixels to Svg https://codepen.io/shshaw/pen/XbxvNj</metadata>
<path stroke="#111111" d="M25 15h9M22 16h3M34 16h2M20 17h2M36 17h3M18 18h2M39 18h2M15 19h3M41 19h2M14 20h1M43 20h1M12 21h2M43 21h3M10 22h2M46 22h1M9 23h1M47 23h1M8 24h1M48 24h1M54 24h3M7 25h1M48 25h2M53 25h1M57 25h2M6 26h1M50 26h3M59 26h1M5 27h1M51 27h1M60 27h2M4 28h2M35 28h10M59 28h1M3 29h2M32 29h3M45 29h3M52 29h2M57 29h2M3 30h1M29 30h3M48 30h1M54 30h3M2 31h1M27 31h2M49 31h1M55 31h1M2 32h1M26 32h1M49 32h2M56 32h1M1 33h1M25 33h1M49 33h1M51 33h1M57 33h1M1 34h1M23 34h2M49 34h3M57 34h2M1 35h1M22 35h1M50 35h1M52 35h1M58 35h1M1 36h1M21 36h1M50 36h1M53 36h2M58 36h1M1 37h1M20 37h1M50 37h1M55 37h4M2 38h1M18 38h2M50 38h1M2 39h2M17 39h1M50 39h1M4 40h5M15 40h2M50 40h1M4 41h1M9 41h6M50 41h1M4 42h1M48 42h3M4 43h1M48 43h1M5 44h1M47 44h1M4 45h1M45 45h2M4 46h1M45 46h1M4 47h1M45 47h1M5 48h2M39 48h6M6 49h1M36 49h3M7 50h2M25 50h2M30 50h6M9 51h2M13 51h2M18 51h3M24 51h1M27 51h3M10 52h3M15 52h3M21 52h3" />
<path stroke="#fb984e" d="M25 16h3M22 17h8M20 18h3M25 18h7M21 19h1M24 19h4M29 19h4M23 20h5M42 20h1M26 21h1M40 21h3M35 23h1M9 24h5M8 25h8M7 26h10M18 26h1M7 27h8M17 27h2M50 27h1M6 28h3M10 28h1M16 28h6M50 28h2M5 29h2M8 29h14M50 29h2M4 30h3M8 30h6M15 30h5M51 30h2M3 31h2M13 31h3M17 31h1M52 31h1M3 32h1M14 32h3" />
<path stroke="#ffc176" d="M28 16h6M30 17h6M32 18h2M15 20h3M19 20h4M14 21h4M20 21h1M16 22h10M38 22h3M10 23h2M13 23h13M36 23h3M14 24h3M19 24h2M22 24h1M18 25h2M22 25h1M47 25h1M54 25h3M19 26h5M49 26h1M53 26h3M21 27h4M52 27h2M22 28h1M53 30h1M5 31h3M9 31h2M53 31h2M6 32h2M10 32h1M53 32h3M7 33h5M55 33h2M9 34h2M12 34h3M11 36h1" />
<path stroke="#fb8f4e" d="M23 18h2M18 19h3M22 19h2M28 19h1M28 20h1M25 21h1M32 24h4M32 25h2M45 25h1M17 26h1M45 26h1M6 27h1M15 27h2M19 27h1M9 28h1M11 28h5M49 28h1M7 29h1M22 29h1M14 30h1M12 31h1" />
<path stroke="#ffb676" d="M34 18h1M18 20h1M18 21h2M21 21h4M12 22h4M37 22h1M12 23h1M17 24h2M21 24h1M36 24h1M16 25h2M20 25h2M28 26h2M47 26h2M56 26h3M20 27h1M27 27h1M47 27h3M54 27h3M23 28h2M54 28h1M8 31h1M4 32h2M4 33h1M53 33h2M4 34h5M54 34h3M7 35h5M56 35h2M10 36h1M12 36h2" />
<path stroke="#ffc076" d="M35 18h1M33 19h1M38 21h2M26 22h1M23 25h1M8 32h2M11 32h2M12 33h4M11 34h1M14 35h1" />
<path stroke="#ffbe75" d="M36 18h1M35 22h1M29 25h1M26 26h1" />
<path stroke="#fb954d" d="M37 18h1M45 22h1" />
<path stroke="#fb944d" d="M38 18h1M28 22h1" />
<path stroke="#ffbe76" d="M34 19h1M26 23h1M27 26h1" />
<path stroke="#ffba75" d="M35 19h1M37 20h1M28 23h1M29 24h1" />
<path stroke="#ffba74" d="M36 19h1M34 20h1M36 20h1M27 23h1" />
<path stroke="#ffb973" d="M37 19h1" />
<path stroke="#fb914c" d="M38 19h1" />
<path stroke="#fb914d" d="M39 19h2M33 20h1M39 20h1M29 21h1M34 21h1M29 22h2M32 23h2M17 32h1" />
<path stroke="#fb904e" d="M29 20h1M40 20h1M30 24h2M46 26h1M11 31h1M19 31h1" />
<path stroke="#fb954e" d="M30 20h1M41 20h1" />
<path stroke="#fb914e" d="M31 20h2" />
<path stroke="#ffb974" d="M35 20h1" />
<path stroke="#ffb975" d="M38 20h1" />
<path stroke="#fb984d" d="M27 21h1" />
<path stroke="#fb964e" d="M28 21h1" />
<path stroke="#fb924d" d="M30 21h4M31 22h1M34 22h1M29 23h1M31 23h1" />
<path stroke="#ffbb74" d="M35 21h1" />
<path stroke="#ffbc75" d="M36 21h1M28 24h1M26 25h2M25 26h1" />
<path stroke="#ffb976" d="M37 21h1" />
<path stroke="#fb974d" d="M27 22h1" />
<path stroke="#fb934d" d="M32 22h2M30 23h1M16 33h1" />
<path stroke="#ffbf76" d="M36 22h1M47 24h1M24 26h1" />
<path stroke="#fb974e" d="M41 22h3M20 30h1M16 31h1M18 31h1M13 32h1" />
<path stroke="#fa954d" d="M44 22h1" />
<path stroke="#fb8f4d" d="M34 23h1M30 25h1M34 25h1M31 26h1M21 30h1" />
<path stroke="#feb676" d="M39 23h1" />
<path stroke="#feb675" d="M40 23h1" />
<path stroke="#feb474" d="M41 23h1" />
<path stroke="#fa914c" d="M42 23h1" />
<path stroke="#fa8f4a" d="M43 23h1" />
<path stroke="#fa8e4a" d="M44 23h1" />
<path stroke="#f98d4a" d="M45 23h1" />
<path stroke="#fdb36f" d="M46 23h1" />
<path stroke="#ffc175" d="M23 24h1" />
<path stroke="#ffc075" d="M24 24h1" />
<path stroke="#ffba76" d="M25 24h1" />
<path stroke="#ffbc74" d="M26 24h1" />
<path stroke="#ffbb75" d="M27 24h1M28 25h1" />
<path stroke="#ffb574" d="M37 24h1" />
<path stroke="#ffb572" d="M38 24h1" />
<path stroke="#ffb270" d="M39 24h1" />
<path stroke="#fdb06f" d="M40 24h1" />
<path stroke="#fdae6c" d="M41 24h1" />
<path stroke="#f98848" d="M42 24h1" />
<path stroke="#fa8948" d="M43 24h1" />
<path stroke="#fa8b4a" d="M44 24h1" />
<path stroke="#f98b4d" d="M45 24h1" />
<path stroke="#fda760" d="M46 24h1" />
<path stroke="#ffbd75" d="M24 25h2" />
<path stroke="#fb904d" d="M31 25h1" />
<path stroke="#fa8844" d="M35 25h1M32 26h1M43 26h2M43 27h2M48 29h2M7 30h1M49 30h2M50 31h2M51 32h1" />
<path stroke="#fead67" d="M36 25h1M57 27h3M46 28h3M55 28h4M25 29h1M52 32h1M2 33h2M5 33h2M52 33h1M2 34h2M53 34h1M3 35h4M54 35h2M4 36h6M14 36h2M55 36h3M5 37h10M7 38h7" />
<path stroke="#fdab66" d="M37 25h1" />
<path stroke="#fcaa67" d="M38 25h1" />
<path stroke="#fca766" d="M39 25h1M28 29h1" />
<path stroke="#fba866" d="M40 25h1M29 29h1" />
<path stroke="#fcad6b" d="M41 25h1" />
<path stroke="#fb8b4a" d="M42 25h1" />
<path stroke="#fa8d4c" d="M43 25h1" />
<path stroke="#fb8e4d" d="M44 25h1" />
<path stroke="#fb994f" d="M46 25h1" />
<path stroke="#ffb675" d="M30 26h1M25 27h1M25 28h1" />
<path stroke="#fa8845" d="M33 26h1M45 27h1" />
<path stroke="#fa8745" d="M34 26h1" />
<path stroke="#f98744" d="M35 26h1M22 31h1" />
<path stroke="#f78343" d="M36 26h1M34 27h1M31 28h1" />
<path stroke="#faa465" d="M37 26h1" />
<path stroke="#fba665" d="M38 26h1" />
<path stroke="#fca966" d="M39 26h1M30 28h1" />
<path stroke="#fdaa65" d="M40 26h1" />
<path stroke="#feac66" d="M41 26h1" />
<path stroke="#fa8843" d="M42 26h1" />
<path stroke="#ffb776" d="M26 27h1M12 35h2" />
<path stroke="#ffb576" d="M28 27h1" />
<path stroke="#feb472" d="M29 27h1" />
<path stroke="#fdae68" d="M30 27h1" />
<path stroke="#f98743" d="M31 27h1M24 30h1" />
<path stroke="#f98643" d="M32 27h1" />
<path stroke="#f98443" d="M33 27h1" />
<path stroke="#f67f43" d="M35 27h1M19 35h1" />
<path stroke="#f67f42" d="M36 27h1" />
<path stroke="#f89e63" d="M37 27h1" />
<path stroke="#f89d62" d="M38 27h1M17 36h1" />
<path stroke="#f89c62" d="M39 27h2M52 28h2M54 29h3M52 34h1M2 35h1M53 35h1M2 36h2M18 36h1M2 37h3M15 37h3M3 38h4M14 38h4M4 39h13M9 40h6" />
<path stroke="#f47c41" d="M41 27h1M19 36h1" />
<path stroke="#f57c41" d="M42 27h1" />
<path stroke="#fea963" d="M46 27h1" />
<path stroke="#ffb374" d="M26 28h1" />
<path stroke="#fead6a" d="M27 28h1" />
<path stroke="#fdab68" d="M28 28h1" />
<path stroke="#fdaa66" d="M29 28h1M26 29h1" />
<path stroke="#f68042" d="M32 28h1" />
<path stroke="#f57e43" d="M33 28h1M25 32h1" />
<path stroke="#f47d42" d="M34 28h1M21 35h1" />
<path stroke="#fc9652" d="M45 28h1" />
<path stroke="#ffb475" d="M23 29h1" />
<path stroke="#feb272" d="M24 29h1" />
<path stroke="#fda966" d="M27 29h1" />
<path stroke="#f68143" d="M30 29h1" />
<path stroke="#f57e42" d="M31 29h1" />
<path stroke="#fcefe8" d="M35 29h3M41 29h3M32 30h7M42 30h2M29 31h16M27 32h12M41 32h3M26 33h4M31 33h3M35 33h1M38 33h1M41 33h2M25 34h3M31 34h3M35 34h2M38 34h1M41 34h1M23 35h5M30 35h9M22 36h2M26 36h7M35 36h4M26 37h7M36 37h2M26 38h2M29 38h6M18 39h1M27 39h1M29 39h5M17 40h3M28 40h2M31 40h1M17 41h1" />
<path stroke="#f5e7df" d="M38 29h1M43 34h1" />
<path stroke="#f1e1d9" d="M39 29h1M28 42h1M10 47h1" />
<path stroke="#f1e1d7" d="M40 29h1M42 41h1M12 43h1M40 43h1M27 45h1M33 46h1" />
<path stroke="#f2e3da" d="M44 29h1M40 30h1M19 49h1" />
<path stroke="#fa8c49" d="M22 30h1" />
<path stroke="#f98745" d="M23 30h1" />
<path stroke="#fbaa65" d="M25 30h1" />
<path stroke="#fba767" d="M26 30h1" />
<path stroke="#fba565" d="M27 30h1" />
<path stroke="#f9a366" d="M28 30h1" />
<path stroke="#fceee7" d="M39 30h1M45 31h1M45 34h1M39 36h1M21 37h1M20 38h2M32 40h1" />
<path stroke="#f5e7de" d="M41 30h1M42 34h1M33 41h1M39 43h1M31 49h1M16 50h1" />
<path stroke="#faede5" d="M44 30h1M44 34h1M41 37h1" />
<path stroke="#fbeee7" d="M45 30h3M45 32h1M30 33h1M43 33h2M37 34h1M23 37h1M24 38h1M37 38h1M26 39h1M33 40h1M20 41h1" />
<path stroke="#fa8d4b" d="M20 31h1" />
<path stroke="#fa8a48" d="M21 31h1M19 33h1" />
<path stroke="#f88744" d="M23 31h2" />
<path stroke="#f68445" d="M25 31h1" />
<path stroke="#f9a467" d="M26 31h1" />
<path stroke="#f8ebe3" d="M46 31h1" />
<path stroke="#fbede6" d="M47 31h1M34 40h1M18 41h1" />
<path stroke="#fcefe6" d="M48 31h1" />
<path stroke="#fb8e4c" d="M18 32h1" />
<path stroke="#f98b48" d="M19 32h1M17 34h1" />
<path stroke="#f98945" d="M20 32h1" />
<path stroke="#fa8945" d="M21 32h1" />
<path stroke="#fa8b46" d="M22 32h1" />
<path stroke="#f98947" d="M23 32h1M20 34h1" />
<path stroke="#f78545" d="M24 32h1" />
<path stroke="#f7e8e0" d="M39 32h1" />
<path stroke="#f7e9e2" d="M40 32h1" />
<path stroke="#fbefe7" d="M44 32h1" />
<path stroke="#f1e1d8" d="M46 32h1M45 41h1M43 42h1M13 49h1" />
<path stroke="#f9ebe5" d="M47 32h1" />
<path stroke="#f6e6dc" d="M48 32h1M47 33h2M48 34h1M48 35h2M48 36h2M47 37h2M15 41h1M40 41h2M14 42h1M37 42h2M41 42h2M19 43h1M35 43h1M37 43h1M18 44h2M28 44h2M34 44h1M18 45h1M25 45h1M33 45h1M23 46h1" />
<path stroke="#fb8e4a" d="M17 33h1" />
<path stroke="#fa8b48" d="M18 33h1M20 33h1M18 34h1" />
<path stroke="#f98b47" d="M21 33h1" />
<path stroke="#f98847" d="M22 33h1" />
<path stroke="#f78445" d="M23 33h1" />
<path stroke="#f67e42" d="M24 33h1" />
<path stroke="#f8eae3" d="M34 33h1M39 33h1" />
<path stroke="#f8eae2" d="M36 33h1M29 35h1M40 35h1M28 38h1M36 40h1" />
<path stroke="#f0e1d8" d="M37 33h1" />
<path stroke="#f9eae3" d="M40 33h1M43 36h1M24 41h1" />
<path stroke="#fbede7" d="M45 33h1M35 39h1" />
<path stroke="#f8e8df" d="M46 33h1M46 34h1M40 42h1" />
<path stroke="#f47b41" d="M50 33h1M20 36h1M18 37h2" />
<path stroke="#ffbd76" d="M15 34h1" />
<path stroke="#ffb873" d="M16 34h1" />
<path stroke="#f98a48" d="M19 34h1" />
<path stroke="#f78746" d="M21 34h1" />
<path stroke="#f78345" d="M22 34h1" />
<path stroke="#fbeee6" d="M28 34h1M40 36h1M39 37h1M23 38h1M38 38h1M21 39h2M30 41h2M28 47h1" />
<path stroke="#f0e0d6" d="M29 34h1M42 45h1" />
<path stroke="#f0e0d7" d="M30 34h1M33 37h1M28 39h1M46 41h1M22 50h1" />
<path stroke="#efdfd6" d="M34 34h1M24 36h1M25 40h1M31 42h1" />
<path stroke="#f6e7e0" d="M39 34h1" />
<path stroke="#eddcd3" d="M40 34h1M44 42h1M10 43h1M7 45h1M23 50h1" />
<path stroke="#f6e7dc" d="M47 34h1M31 44h2" />
<path stroke="#ffb876" d="M15 35h1" />
<path stroke="#feb06c" d="M16 35h1" />
<path stroke="#fdad68" d="M17 35h1" />
<path stroke="#f88644" d="M18 35h1" />
<path stroke="#f47f42" d="M20 35h1" />
<path stroke="#fcefe7" d="M28 35h1M38 37h1M35 38h2M19 39h2M25 39h1M34 39h1M27 40h1M21 41h1" />
<path stroke="#faece5" d="M39 35h1M25 36h1M40 37h1M43 44h1" />
<path stroke="#fbeee8" d="M41 35h1M16 41h1" />
<path stroke="#f9ebe3" d="M42 35h1M17 42h1M29 42h1" />
<path stroke="#f8eae1" d="M43 35h1M18 42h1" />
<path stroke="#fcece5" d="M44 35h1" />
<path stroke="#fceee5" d="M45 35h1" />
<path stroke="#f9ebe1" d="M46 35h1M16 43h1M29 43h1" />
<path stroke="#f7e7dd" d="M47 35h1M15 42h1M24 45h1" />
<path stroke="#feac67" d="M16 36h1" />
<path stroke="#f4e5dd" d="M33 36h1M44 44h1M21 49h1" />
<path stroke="#f9eae2" d="M34 36h1M44 37h1" />
<path stroke="#fbeee5" d="M41 36h1M22 40h1" />
<path stroke="#faebe4" d="M42 36h1M30 42h1" />
<path stroke="#faebe3" d="M44 36h1M42 38h1M21 40h1" />
<path stroke="#f9eae1" d="M45 36h1M16 42h1M25 42h1M39 42h1M21 43h1" />
<path stroke="#f8e7df" d="M46 36h1" />
<path stroke="#f7e6dc" d="M47 36h1M46 38h1M17 45h1" />
<path stroke="#fceee6" d="M22 37h1M22 38h1M26 40h1" />
<path stroke="#faece6" d="M24 37h1" />
<path stroke="#fbefe8" d="M25 37h1M25 38h1M24 39h1" />
<path stroke="#f5e6de" d="M34 37h1M26 41h2M32 41h1M24 42h1" />
<path stroke="#eeded4" d="M35 37h1M19 50h1" />
<path stroke="#faeae3" d="M42 37h1" />
<path stroke="#faebe2" d="M43 37h1" />
<path stroke="#f9e8e1" d="M45 37h1" />
<path stroke="#f7e8df" d="M46 37h1M44 40h1M14 44h1" />
<path stroke="#ebdad0" d="M49 37h1M48 38h2M47 39h3M47 40h3M5 41h2M47 41h3M5 42h3M45 42h3M6 43h3M42 43h1M45 43h2M6 44h1M9 44h1M42 44h1M45 44h2M6 45h1M9 45h2M40 45h1M44 45h1M6 46h4M39 46h6M6 47h3M35 47h10M7 48h2M32 48h7M7 49h2M15 49h1M17 49h1M27 49h2M32 49h3M9 50h7M17 50h2M24 50h1M28 50h2M11 51h2M15 51h2M21 51h3" />
<path stroke="#faede4" d="M39 38h1M41 38h1" />
<path stroke="#faece3" d="M40 38h1M38 39h1M26 43h1" />
<path stroke="#f9e9e0" d="M43 38h1" />
<path stroke="#f9e8df" d="M44 38h1" />
<path stroke="#f8e8de" d="M45 38h1" />
<path stroke="#ebdad1" d="M47 38h1M34 47h1" />
<path stroke="#faede6" d="M23 39h1" />
<path stroke="#faeee5" d="M36 39h1" />
<path stroke="#fbece3" d="M37 39h1" />
<path stroke="#f5e4dc" d="M39 39h1" />
<path stroke="#f2e2da" d="M40 39h1M45 40h1M27 42h1M38 45h1" />
<path stroke="#f9ebe2" d="M41 39h1M34 41h1M23 42h1M27 43h2" />
<path stroke="#f8e8e0" d="M42 39h1M39 41h1" />
<path stroke="#f7e8de" d="M43 39h1" />
<path stroke="#f5e6dd" d="M44 39h1M19 41h1M17 44h1M20 49h1" />
<path stroke="#f5e5dc" d="M45 39h1M13 42h1M16 45h1M16 46h1M20 46h3M31 46h1" />
<path stroke="#ebdbd2" d="M46 39h1" />
<path stroke="#eeded5" d="M20 40h1" />
<path stroke="#fbede5" d="M23 40h1M29 41h1M38 41h1" />
<path stroke="#f7eae1" d="M24 40h1" />
<path stroke="#fceee8" d="M30 40h1" />
<path stroke="#faece4" d="M35 40h1M23 41h1" />
<path stroke="#f8e9e1" d="M37 40h1M24 44h1" />
<path stroke="#f9e9e1" d="M38 40h1" />
<path stroke="#f6e8df" d="M39 40h1M32 42h1" />
<path stroke="#f6e7df" d="M40 40h1" />
<path stroke="#f7e6de" d="M41 40h1M14 46h1" />
<path stroke="#f4e3da" d="M42 40h1M25 47h1M10 48h1" />
<path stroke="#f5e5db" d="M43 40h1M35 44h1" />
<path stroke="#f3e4db" d="M46 40h1" />
<path stroke="#ecdad1" d="M7 41h1M37 46h1" />
<path stroke="#ecdcd1" d="M8 41h1" />
<path stroke="#fbede4" d="M22 41h1" />
<path stroke="#efdfd5" d="M25 41h1M44 43h1M41 44h1M12 47h1" />
<path stroke="#f7e9e1" d="M28 41h1M41 43h1M38 44h2M41 45h1" />
<path stroke="#f7eae0" d="M35 41h1" />
<path stroke="#f8e9e0" d="M36 41h1M15 43h1M23 43h1M15 44h1" />
<path stroke="#f7e9df" d="M37 41h1M25 44h1" />
<path stroke="#f3e3d9" d="M43 41h1M27 44h1M20 45h1" />
<path stroke="#efded5" d="M44 41h1M24 48h1" />
<path stroke="#ebddd0" d="M8 42h1" />
<path stroke="#ecdcd2" d="M9 42h1M10 49h1M18 49h1" />
<path stroke="#efdfd4" d="M10 42h1" />
<path stroke="#f2e2d8" d="M11 42h1M35 42h1M13 44h1" />
<path stroke="#f4e5da" d="M12 42h1" />
<path stroke="#f2e2d9" d="M19 42h1M26 47h1M16 49h1" />
<path stroke="#f7e6dd" d="M20 42h1M20 44h1" />
<path stroke="#f8e8e1" d="M21 42h1M29 47h1" />
<path stroke="#f9ebe4" d="M22 42h1" />
<path stroke="#f9ece4" d="M26 42h1" />
<path stroke="#f5e6db" d="M33 42h1" />
<path stroke="#f1e0d7" d="M34 42h1M24 43h1" />
<path stroke="#f6e7dd" d="M36 42h1M18 43h1M26 45h1" />
<path stroke="rgba(235,218,208,0.9647058823529412)" d="M5 43h1" />
<path stroke="#ebdbd1" d="M9 43h1M10 44h1M9 48h1M26 49h1" />
<path stroke="#f0e0d5" d="M11 43h1" />
<path stroke="#f3e5d9" d="M13 43h1" />
<path stroke="#f6e6dd" d="M14 43h1M32 43h3M36 43h1M30 44h1M33 44h1M37 44h1M21 45h1M31 45h2M24 46h3" />
<path stroke="#faeadf" d="M17 43h1" />
<path stroke="#f8e7de" d="M20 43h1" />
<path stroke="#faeae1" d="M22 43h1" />
<path stroke="#faece1" d="M25 43h1" />
<path stroke="#f8e7e0" d="M30 43h1" />
<path stroke="#f4e4da" d="M31 43h1M19 46h1M19 47h3" />
<path stroke="#f6e5dc" d="M38 43h1M23 44h1M30 46h1" />
<path stroke="#f3e3da" d="M43 43h1" />
<path stroke="rgba(234,218,209,0.9254901960784314)" d="M47 43h1" />
<path stroke="rgba(255,255,255,0.00392156862745098)" d="M4 44h1" />
<path stroke="#ecdbd2" d="M7 44h1M36 44h1M14 49h1" />
<path stroke="#f0e1d7" d="M8 44h1M31 47h1M22 48h1" />
<path stroke="#ecddd4" d="M11 44h1" />
<path stroke="#efddd4" d="M12 44h1" />
<path stroke="#f8e9df" d="M16 44h1" />
<path stroke="#f9eae0" d="M21 44h1" />
<path stroke="#f4e5db" d="M22 44h1M23 45h1" />
<path stroke="#f7e9e0" d="M26 44h1M26 48h1" />
<path stroke="#eeddd3" d="M40 44h1M35 46h1M30 48h1" />
<path stroke="rgba(255,255,255,0.00784313725490196)" d="M48 44h1" />
<path stroke="rgba(235,218,208,0.984313725490196)" d="M5 45h1" />
<path stroke="#f4e5dc" d="M8 45h1M17 46h1M11 48h1" />
<path stroke="#ebdcd2" d="M11 45h1" />
<path stroke="#f2e1d8" d="M12 45h1" />
<path stroke="#f4e4dc" d="M13 45h1M12 46h1" />
<path stroke="#f6e8de" d="M14 45h1" />
<path stroke="#f6e5de" d="M15 45h1" />
<path stroke="#efded4" d="M19 45h1M27 46h1M24 49h1" />
<path stroke="#f3e4da" d="M22 45h1M18 47h1M22 47h1" />
<path stroke="#f5e6dc" d="M28 45h1" />
<path stroke="#eeddd4" d="M29 45h1M43 45h1M16 48h1" />
<path stroke="#f4e4db" d="M30 45h1" />
<path stroke="#f5e3da" d="M34 45h1" />
<path stroke="#f2e3d9" d="M35 45h1" />
<path stroke="#f1e0d6" d="M36 45h1" />
<path stroke="#f1e2d9" d="M37 45h1M23 49h1M20 50h2" />
<path stroke="#eedcd4" d="M39 45h1" />
<path stroke="rgba(255,255,170,0.011764705882352941)" d="M47 45h1M4 48h1M36 50h1M25 51h1" />
<path stroke="rgba(235,218,208,0.8588235294117647)" d="M5 46h1" />
<path stroke="#ebdcd1" d="M10 46h1" />
<path stroke="#f1dfd6" d="M11 46h1" />
<path stroke="#f4e6dc" d="M13 46h1M25 48h1" />
<path stroke="#f4e3d8" d="M15 46h1" />
<path stroke="#f5e4db" d="M18 46h1M32 46h1" />
<path stroke="#f7e7de" d="M28 46h1" />
<path stroke="#f6e7de" d="M29 46h1M18 48h1" />
<path stroke="#eeded3" d="M34 46h1" />
<path stroke="#ecdbd1" d="M36 46h1M9 49h1M12 49h1" />
<path stroke="#ecdad2" d="M38 46h1" />
<path stroke="rgba(235,218,208,0.7058823529411765)" d="M5 47h1" />
<path stroke="#ecdad0" d="M9 47h1M29 49h1" />
<path stroke="#f5e5dd" d="M11 47h1" />
<path stroke="#f4e4d9" d="M13 47h1" />
<path stroke="#f9ece3" d="M14 47h1" />
<path stroke="#f2e4d8" d="M15 47h1" />
<path stroke="#f2e3d8" d="M16 47h1" />
<path stroke="#f4e3d9" d="M17 47h1" />
<path stroke="#f3e2d9" d="M23 47h1" />
<path stroke="#f1e2d8" d="M24 47h1" />
<path stroke="#f3e2d8" d="M27 47h1" />
<path stroke="#f3e2da" d="M30 47h1" />
<path stroke="#edded1" d="M32 47h1" />
<path stroke="#eddcd1" d="M33 47h1M15 48h1" />
<path stroke="#edddd2" d="M12 48h1" />
<path stroke="#f3e4dd" d="M13 48h1" />
<path stroke="#eedcd3" d="M14 48h1M25 49h1" />
<path stroke="#efded3" d="M17 48h1" />
<path stroke="#f3e5dd" d="M19 48h1" />
<path stroke="#f1e0d9" d="M20 48h1" />
<path stroke="#f2e1d9" d="M21 48h1M28 48h1" />
<path stroke="#f0dfd7" d="M23 48h1" />
<path stroke="#f5e3db" d="M27 48h1" />
<path stroke="#eedcd6" d="M29 48h1" />
<path stroke="#efe0d6" d="M31 48h1" />
<path stroke="rgba(219,219,219,0.027450980392156862)" d="M45 48h1" />
<path stroke="#eddcd2" d="M11 49h1M30 49h1" />
<path stroke="#f5e6df" d="M22 49h1" />
<path stroke="rgba(235,218,208,0.9411764705882353)" d="M35 49h1" />
<path stroke="rgba(238,221,204,0.058823529411764705)" d="M39 49h1" />
<path stroke="rgba(227,227,198,0.03529411764705882)" d="M6 50h1" />
<path stroke="rgba(235,218,208,0.9686274509803922)" d="M27 50h1" />
<path stroke="rgba(242,215,201,0.07450980392156863)" d="M8 51h1" />
<path stroke="rgba(235,218,208,0.9725490196078431)" d="M17 51h1" />
<path stroke="rgba(255,204,204,0.0196078431372549)" d="M26 51h1" />
<path stroke="rgba(241,213,213,0.07058823529411765)" d="M30 51h1" />
<path stroke="rgba(230,217,204,0.0784313725490196)" d="M13 52h1" />
<path stroke="rgba(255,191,191,0.01568627450980392)" d="M14 52h1M24 52h1" />
<path stroke="rgba(230,230,204,0.0392156862745098)" d="M18 52h1" />
<path stroke="rgba(232,209,209,0.043137254901960784)" d="M20 52h1" />
</svg>