<svg width="493" height="105" viewBox="0 0 493 105" fill="none" xmlns="http://www.w3.org/2000/svg">
<path fill-rule="evenodd" clip-rule="evenodd" d="M191.4 5.83333H185.6V0H191.4V5.83333ZM411.8 23.3333H406V17.5H411.8V23.3333Z" fill="#999999" fill-opacity="0.0196078"/>
<path d="M127.6 102.083H203ZM255.2 102.083H330.6Z" fill="black"/>
<path fill-rule="evenodd" clip-rule="evenodd" d="M284.2 5.83333H191.4V0H284.2V5.83333ZM295.8 17.5H284.2V5.83333H290V11.6667H295.8V17.5ZM342.2 17.5V23.3333H295.8V17.5H342.2ZM348 11.6667V17.5H342.2V11.6667H348ZM359.6 5.83333V11.6667H348V5.83333H359.6ZM394.4 5.83333H359.6V0H394.4V5.83333ZM400.2 11.6667H394.4V5.83333H400.2V11.6667ZM406 23.3333H400.2V11.6667H406V23.3333ZM417.6 29.1667H406V23.3333H417.6V29.1667ZM435 35H417.6V29.1667H435V35ZM446.6 40.8333H435V35H446.6V40.8333ZM469.8 46.6667H446.6V40.8333H469.8V46.6667ZM475.6 52.5H469.8V46.6667H475.6V52.5ZM487.2 58.3333H475.6V52.5H487.2V58.3333ZM487.2 75.8333V58.3333H493V75.8333H487.2ZM487.2 75.8333H388.6V70H377V75.8333H388.6V81.6667H469.8V87.5H365.4V81.6667H359.6V75.8333H353.8V87.5H324.8V81.6667H313.2V75.8333H319V70H330.6V64.1667H336.4V40.8333H330.6V35H319V29.1667H307.4V35H319V40.8333H330.6V64.1667H319V70H313.2V75.8333H307.4V81.6667H301.6V87.5H324.8V99.1667H319V93.3333H307.4V99.1667H301.6V93.3333H290V99.1667H261V81.6667H266.8V70H272.6V64.1667H266.8V70H261V81.6667H255.2V87.5H197.2V81.6667H185.6V75.8333H191.4V70H203V64.1667H208.8V40.8333H203V35H191.4V29.1667H179.8V35H191.4V40.8333H203V64.1667H191.4V70H185.6V75.8333H179.8V81.6667H174V87.5H197.2V99.1667H191.4V93.3333H179.8V99.1667H133.4V81.6667H139.2V70H145V64.1667H139.2V70H133.4V81.6667H127.6V87.5H5.8V75.8333H29V70H40.6V64.1667H52.2V58.3333H69.6V52.5H81.2V46.6667H104.4V40.8333H116V35H145V29.1667H156.6V23.3333H179.8V17.5H191.4V5.83333H185.6V11.6667H179.8V17.5H156.6V23.3333H145V29.1667H116V35H104.4V40.8333H81.2V46.6667H69.6V52.5H52.2V58.3333H40.6V64.1667H29V70H5.8V75.8333H0V87.5H5.8V93.3333H127.6V105H203V93.3333H255.2V105H330.6V93.3333H353.8V87.5H365.4V93.3333H469.8V87.5H475.6V81.6667H487.2V75.8333ZM388.6 17.5V29.1667H377V17.5H388.6ZM446.6 58.3333H440.8V52.5H446.6V58.3333Z" fill="#111111"/>
<path fill-rule="evenodd" clip-rule="evenodd" d="M290 5.83333H284.2V0H290V5.83333Z" fill="#80BF80" fill-opacity="0.0313726"/>
<path d="M319 2.91667H324.8Z" fill="black"/>
<path fill-rule="evenodd" clip-rule="evenodd" d="M324.8 5.83333H319V0H324.8V5.83333ZM446.6 23.3333H435V17.5H446.6V23.3333ZM417.6 99.1667H377V93.3333H417.6V99.1667Z" fill="black" fill-opacity="0.01"/>
<path fill-rule="evenodd" clip-rule="evenodd" d="M336.4 5.83333H330.6V0H336.4V5.83333ZM429.2 23.3333H423.4V17.5H429.2V23.3333ZM440.8 99.1667H435V93.3333H440.8V99.1667Z" fill="black" fill-opacity="0.0156863"/>
<path d="M411.8 8.75H417.6Z" fill="black"/>
<path fill-rule="evenodd" clip-rule="evenodd" d="M342.2 5.83333H336.4V0H342.2V5.83333ZM411.8 5.83333H406V0H411.8V5.83333ZM417.6 11.6667H411.8V5.83333H417.6V11.6667Z" fill="black" fill-opacity="0.0235294"/>
<path fill-rule="evenodd" clip-rule="evenodd" d="M348 5.83333H342.2V0H348V5.83333Z" fill="#141414" fill-opacity="0.0509804"/>
<path fill-rule="evenodd" clip-rule="evenodd" d="M353.8 5.83333H348V0H353.8V5.83333ZM319 17.5H313.2V11.6667H319V17.5Z" fill="#111111" fill-opacity="0.0588235"/>
<path fill-rule="evenodd" clip-rule="evenodd" d="M359.6 5.83333H353.8V0H359.6V5.83333Z" fill="#4F6653" fill-opacity="0.215686"/>
<path fill-rule="evenodd" clip-rule="evenodd" d="M400.2 5.83333H394.4V0H400.2V5.83333Z" fill="#151515" fill-opacity="0.0470588"/>
<path fill-rule="evenodd" clip-rule="evenodd" d="M406 5.83333H400.2V0H406V5.83333ZM417.6 17.5H411.8V11.6667H417.6V17.5Z" fill="#202020" fill-opacity="0.0313726"/>
<path fill-rule="evenodd" clip-rule="evenodd" d="M278.4 11.6667H197.2V17.5H191.4V5.83333H284.2V17.5H278.4V11.6667ZM179.8 23.3333V17.5H191.4V23.3333H179.8ZM179.8 23.3333H156.6V29.1667H179.8V23.3333ZM394.4 11.6667H359.6V5.83333H394.4V11.6667ZM400.2 23.3333H394.4V11.6667H400.2V23.3333ZM406 29.1667H400.2V23.3333H406V29.1667ZM406 29.1667V35H417.6V29.1667H406ZM348 17.5V11.6667H359.6V17.5H348ZM348 17.5H342.2V23.3333H295.8V29.1667H342.2V23.3333H348V17.5ZM150.8 35H145V29.1667H150.8V35ZM145 40.8333H133.4V35H145V40.8333ZM191.4 40.8333H179.8V35H191.4V40.8333ZM319 40.8333H307.4V35H319V40.8333ZM435 40.8333H423.4V35H435V40.8333ZM446.6 46.6667H435V40.8333H446.6V46.6667ZM469.8 52.5H446.6V46.6667H469.8V52.5ZM475.6 58.3333H469.8V52.5H475.6V58.3333ZM475.6 58.3333V64.1667H481.4V70H487.2V58.3333H475.6ZM203 46.6667H191.4V40.8333H203V46.6667ZM324.8 46.6667H319V40.8333H330.6V52.5H324.8V46.6667Z" fill="#A4DC7B"/>
<path fill-rule="evenodd" clip-rule="evenodd" d="M348 11.6667H342.2V5.83333H348V11.6667Z" fill="#81B189" fill-opacity="0.254902"/>
<path fill-rule="evenodd" clip-rule="evenodd" d="M406 11.6667H400.2V5.83333H406V11.6667ZM116 35H110.2V29.1667H116V35Z" fill="#84AD8C" fill-opacity="0.121569"/>
<path fill-rule="evenodd" clip-rule="evenodd" d="M179.8 17.5H174V11.6667H179.8V17.5Z" fill="#84B084" fill-opacity="0.113725"/>
<path fill-rule="evenodd" clip-rule="evenodd" d="M203 17.5H197.2V11.6667H203V17.5ZM353.8 40.8333H348V35H353.8V40.8333ZM382.8 64.1667H377V58.3333H382.8V64.1667Z" fill="#7EAC85"/>
<path fill-rule="evenodd" clip-rule="evenodd" d="M208.8 17.5H203V11.6667H208.8V17.5ZM394.4 70H388.6V64.1667H394.4V70Z" fill="#7FAD87"/>
<path fill-rule="evenodd" clip-rule="evenodd" d="M214.6 17.5H208.8V11.6667H214.6V17.5ZM377 58.3333H371.2V52.5H377V58.3333Z" fill="#80AF87"/>
<path fill-rule="evenodd" clip-rule="evenodd" d="M226.2 17.5H220.4V23.3333H226.2V40.8333H214.6V11.6667H278.4V17.5H284.2V23.3333H261V17.5H255.2V23.3333H261V29.1667H249.4V35H261V40.8333H255.2V46.6667H232V40.8333H243.6V35H232V23.3333H226.2V17.5ZM388.6 17.5H371.2V23.3333H365.4V29.1667H359.6V35H348V29.1667H342.2V23.3333H348V17.5H359.6V11.6667H394.4V23.3333H400.2V29.1667H406V35H423.4V40.8333H435V46.6667H446.6V52.5H435V58.3333H446.6V52.5H469.8V58.3333H475.6V64.1667H481.4V70H487.2V75.8333H469.8V70H406V64.1667H394.4V58.3333H388.6V46.6667H377V52.5H365.4V46.6667H371.2V40.8333H365.4V29.1667H377V35H388.6V17.5ZM295.8 23.3333V29.1667H307.4V40.8333H313.2V46.6667H290V35H284.2V23.3333H295.8ZM336.4 35H319V29.1667H336.4V35ZM278.4 40.8333H272.6V35H278.4V40.8333ZM98.6 52.5H81.2V46.6667H98.6V52.5ZM69.6 58.3333V52.5H81.2V58.3333H69.6ZM69.6 58.3333H52.2V64.1667H40.6V70H29V75.8333H40.6V70H52.2V64.1667H69.6V58.3333ZM150.8 70H145V64.1667H150.8V70ZM139.2 81.6667V70H145V81.6667H139.2ZM139.2 81.6667H133.4V93.3333H139.2V81.6667ZM278.4 70H272.6V64.1667H278.4V70ZM266.8 81.6667V70H272.6V81.6667H266.8ZM266.8 81.6667H261V93.3333H266.8V81.6667Z" fill="#80B088"/>
<path fill-rule="evenodd" clip-rule="evenodd" d="M313.2 17.5H307.4V11.6667H313.2V17.5Z" fill="#1A1A1A" fill-opacity="0.0392157"/>
<path fill-rule="evenodd" clip-rule="evenodd" d="M342.2 17.5H336.4V11.6667H342.2V17.5Z" fill="#80AF87" fill-opacity="0.25098"/>
<path fill-rule="evenodd" clip-rule="evenodd" d="M423.4 17.5H417.6V11.6667H423.4V17.5ZM452.4 99.1667H446.6V93.3333H452.4V99.1667Z" fill="black" fill-opacity="0.0196078"/>
<path fill-rule="evenodd" clip-rule="evenodd" d="M156.6 23.3333H150.8V17.5H156.6V23.3333Z" fill="#80B58A" fill-opacity="0.0941176"/>
<path fill-rule="evenodd" clip-rule="evenodd" d="M197.2 23.3333H191.4V17.5H197.2V23.3333ZM272.6 29.1667H266.8V23.3333H272.6V29.1667ZM203 35H197.2V29.1667H203V35ZM284.2 35H272.6V29.1667H284.2V35ZM307.4 52.5H295.8V46.6667H307.4V52.5ZM382.8 58.3333H377V52.5H382.8V58.3333Z" fill="#7FAF87"/>
<path fill-rule="evenodd" clip-rule="evenodd" d="M203 23.3333H197.2V17.5H203V23.3333ZM365.4 52.5H359.6V46.6667H365.4V52.5Z" fill="#7FAD86"/>
<path fill-rule="evenodd" clip-rule="evenodd" d="M208.8 23.3333H203V17.5H208.8V23.3333Z" fill="#7EAE87"/>
<path fill-rule="evenodd" clip-rule="evenodd" d="M214.6 17.5V29.1667H208.8V17.5H214.6ZM348 35H342.2V29.1667H348V35ZM237.8 40.8333H232V35H237.8V40.8333ZM371.2 46.6667H365.4V40.8333H371.2V46.6667ZM382.8 52.5H377V46.6667H382.8V52.5ZM406 70H400.2V64.1667H406V70ZM440.8 75.8333H435V70H440.8V75.8333ZM464 75.8333H458.2V70H464V75.8333Z" fill="#80AF88"/>
<path fill-rule="evenodd" clip-rule="evenodd" d="M226.2 23.3333H220.4V17.5H226.2V23.3333ZM226.2 46.6667V23.3333H232V46.6667H226.2ZM226.2 46.6667H220.4V58.3333H226.2V46.6667ZM261 23.3333H255.2V17.5H261V23.3333ZM266.8 29.1667H261V23.3333H266.8V29.1667ZM266.8 35V46.6667H261V35H266.8ZM261 46.6667V58.3333H255.2V46.6667H261ZM127.6 58.3333H121.8V52.5H127.6V58.3333ZM121.8 70H116V64.1667H121.8V70ZM168.2 70H162.4V64.1667H168.2V70ZM237.8 70H232V64.1667H237.8V70ZM336.4 64.1667V70H342.2V75.8333H353.8V87.5H324.8V81.6667H313.2V75.8333H319V70H330.6V64.1667H336.4ZM162.4 75.8333H156.6V70H162.4V75.8333ZM214.6 75.8333H208.8V70H214.6V75.8333ZM255.2 81.6667V87.5H197.2V75.8333H208.8V81.6667H220.4V75.8333H226.2V81.6667H237.8V75.8333H249.4V81.6667H255.2ZM255.2 81.6667H261V70H255.2V81.6667ZM377 75.8333H371.2V70H377V75.8333ZM40.6 75.8333V81.6667H46.4V75.8333H52.2V81.6667H58V75.8333H63.8V81.6667H69.6V75.8333H81.2V81.6667H92.8V75.8333H98.6V81.6667H110.2V75.8333H121.8V81.6667H127.6V87.5H5.8V81.6667H17.4V75.8333H40.6ZM127.6 81.6667H133.4V75.8333H127.6V81.6667ZM174 81.6667H168.2V75.8333H174V81.6667ZM295.8 81.6667H290V75.8333H295.8V81.6667ZM388.6 81.6667H382.8V75.8333H388.6V81.6667ZM156.6 87.5H150.8V81.6667H156.6V87.5ZM162.4 93.3333V99.1667H133.4V93.3333H139.2V87.5H150.8V93.3333H162.4ZM162.4 93.3333H168.2V87.5H162.4V93.3333ZM284.2 87.5H278.4V81.6667H284.2V87.5ZM290 93.3333V99.1667H261V93.3333H266.8V87.5H278.4V93.3333H290ZM290 93.3333H295.8V87.5H290V93.3333ZM313.2 93.3333H307.4V87.5H313.2V93.3333ZM179.8 99.1667H174V93.3333H179.8V99.1667ZM197.2 99.1667H191.4V93.3333H197.2V99.1667ZM307.4 99.1667H301.6V93.3333H307.4V99.1667ZM324.8 99.1667H319V93.3333H324.8V99.1667Z" fill="#3F5738"/>
<path fill-rule="evenodd" clip-rule="evenodd" d="M290 23.3333H284.2V17.5H290V23.3333Z" fill="#A2D979"/>
<path fill-rule="evenodd" clip-rule="evenodd" d="M295.8 23.3333H290V17.5H295.8V23.3333Z" fill="#9BD075"/>
<path fill-rule="evenodd" clip-rule="evenodd" d="M377 17.5V29.1667H371.2V17.5H377ZM440.8 58.3333H435V52.5H440.8V58.3333Z" fill="#2B3529"/>
<path fill-rule="evenodd" clip-rule="evenodd" d="M435 23.3333H429.2V17.5H435V23.3333ZM435 99.1667H417.6V93.3333H435V99.1667Z" fill="black" fill-opacity="0.01"/>
<path fill-rule="evenodd" clip-rule="evenodd" d="M145 29.1667H139.2V23.3333H145V29.1667Z" fill="#7CAA83" fill-opacity="0.129412"/>
<path fill-rule="evenodd" clip-rule="evenodd" d="M185.6 29.1667H179.8V23.3333H185.6V29.1667ZM301.6 58.3333H295.8V52.5H301.6V58.3333Z" fill="#7BAB82"/>
<path fill-rule="evenodd" clip-rule="evenodd" d="M191.4 29.1667H185.6V23.3333H191.4V29.1667ZM336.4 40.8333H330.6V35H336.4V40.8333Z" fill="#7DAC85"/>
<path fill-rule="evenodd" clip-rule="evenodd" d="M197.2 29.1667H191.4V23.3333H197.2V29.1667Z" fill="#7FAC85"/>
<path fill-rule="evenodd" clip-rule="evenodd" d="M203 29.1667H197.2V23.3333H203V29.1667ZM452.4 75.8333H446.6V70H452.4V75.8333Z" fill="#7EAF87"/>
<path fill-rule="evenodd" clip-rule="evenodd" d="M208.8 29.1667H203V23.3333H208.8V29.1667ZM388.6 58.3333H382.8V52.5H388.6V58.3333ZM394.4 64.1667H388.6V58.3333H394.4V64.1667ZM394.4 64.1667V70H400.2V64.1667H394.4Z" fill="#7FAF88"/>
<path fill-rule="evenodd" clip-rule="evenodd" d="M278.4 29.1667H272.6V23.3333H278.4V29.1667Z" fill="#7BA982"/>
<path fill-rule="evenodd" clip-rule="evenodd" d="M284.2 29.1667H278.4V23.3333H284.2V29.1667Z" fill="#7DAD85"/>
<path fill-rule="evenodd" clip-rule="evenodd" d="M371.2 29.1667H365.4V23.3333H371.2V29.1667ZM388.6 35H377V29.1667H388.6V35ZM359.6 75.8333H353.8V70H359.6V75.8333Z" fill="#66906D"/>
<path fill-rule="evenodd" clip-rule="evenodd" d="M423.4 29.1667H417.6V23.3333H423.4V29.1667Z" fill="#8EAA8E" fill-opacity="0.0352941"/>
<path fill-rule="evenodd" clip-rule="evenodd" d="M156.6 35H150.8V29.1667H156.6V35Z" fill="#78A87E"/>
<path fill-rule="evenodd" clip-rule="evenodd" d="M162.4 35H156.6V29.1667H162.4V35Z" fill="#78A77E"/>
<path fill-rule="evenodd" clip-rule="evenodd" d="M168.2 35H162.4V29.1667H168.2V35Z" fill="#78A980"/>
<path fill-rule="evenodd" clip-rule="evenodd" d="M174 35H168.2V29.1667H174V35ZM278.4 46.6667H272.6V40.8333H278.4V46.6667Z" fill="#7AAA81"/>
<path fill-rule="evenodd" clip-rule="evenodd" d="M179.8 35H174V29.1667H179.8V35Z" fill="#7AAA82"/>
<path fill-rule="evenodd" clip-rule="evenodd" d="M197.2 35H191.4V29.1667H197.2V35ZM261 35H255.2V29.1667H261V35Z" fill="#7EAE86"/>
<path fill-rule="evenodd" clip-rule="evenodd" d="M208.8 35H203V29.1667H208.8V35ZM104.4 52.5H98.6V46.6667H104.4V52.5ZM388.6 52.5H382.8V46.6667H388.6V52.5ZM371.2 58.3333H365.4V52.5H371.2V58.3333Z" fill="#80B087"/>
<path fill-rule="evenodd" clip-rule="evenodd" d="M214.6 35H208.8V29.1667H214.6V35ZM342.2 35H336.4V29.1667H342.2V35ZM365.4 35H359.6V29.1667H365.4V35ZM290 40.8333H278.4V35H290V40.8333Z" fill="#7FB088"/>
<path fill-rule="evenodd" clip-rule="evenodd" d="M255.2 35H249.4V29.1667H255.2V35ZM272.6 35H266.8V29.1667H272.6V35ZM243.6 52.5H237.8V46.6667H243.6V52.5ZM458.2 75.8333H452.4V70H458.2V75.8333Z" fill="#7FAE87"/>
<path fill-rule="evenodd" clip-rule="evenodd" d="M266.8 35H261V29.1667H266.8V35Z" fill="#3F5638"/>
<path fill-rule="evenodd" clip-rule="evenodd" d="M440.8 35H435V29.1667H440.8V35Z" fill="#7FB288" fill-opacity="0.117647"/>
<path fill-rule="evenodd" clip-rule="evenodd" d="M104.4 40.8333H98.6V35H104.4V40.8333Z" fill="#809980" fill-opacity="0.0392157"/>
<path fill-rule="evenodd" clip-rule="evenodd" d="M121.8 40.8333H116V35H121.8V40.8333Z" fill="#76A57B"/>
<path fill-rule="evenodd" clip-rule="evenodd" d="M127.6 40.8333H121.8V35H127.6V40.8333Z" fill="#73A378"/>
<path fill-rule="evenodd" clip-rule="evenodd" d="M133.4 40.8333H127.6V35H133.4V40.8333Z" fill="#72A177"/>
<path fill-rule="evenodd" clip-rule="evenodd" d="M150.8 40.8333H145V35H150.8V40.8333ZM179.8 46.6667H174V40.8333H179.8V46.6667Z" fill="#72A176"/>
<path fill-rule="evenodd" clip-rule="evenodd" d="M156.6 40.8333H150.8V35H156.6V40.8333Z" fill="#71A376"/>
<path fill-rule="evenodd" clip-rule="evenodd" d="M162.4 40.8333H156.6V35H162.4V40.8333Z" fill="#72A479"/>
<path fill-rule="evenodd" clip-rule="evenodd" d="M168.2 40.8333H162.4V35H168.2V40.8333Z" fill="#73A379"/>
<path fill-rule="evenodd" clip-rule="evenodd" d="M174 40.8333H168.2V35H174V40.8333Z" fill="#75A57A"/>
<path fill-rule="evenodd" clip-rule="evenodd" d="M179.8 40.8333H174V35H179.8V40.8333ZM284.2 52.5H278.4V46.6667H284.2V52.5ZM313.2 58.3333H307.4V52.5H313.2V58.3333Z" fill="#77A77D"/>
<path fill-rule="evenodd" clip-rule="evenodd" d="M208.8 40.8333H203V35H208.8V40.8333Z" fill="#7FAE86"/>
<path fill-rule="evenodd" clip-rule="evenodd" d="M214.6 40.8333H208.8V35H214.6V40.8333ZM429.2 75.8333H423.4V70H429.2V75.8333Z" fill="#7FAF86"/>
<path fill-rule="evenodd" clip-rule="evenodd" d="M243.6 40.8333H237.8V35H243.6V40.8333ZM377 64.1667H371.2V58.3333H377V64.1667Z" fill="#7EAD86"/>
<path fill-rule="evenodd" clip-rule="evenodd" d="M272.6 40.8333H266.8V35H272.6V40.8333ZM261 46.6667H255.2V40.8333H261V46.6667ZM290 46.6667H284.2V40.8333H290V46.6667ZM295.8 52.5H290V46.6667H295.8V52.5Z" fill="#7FB087"/>
<path fill-rule="evenodd" clip-rule="evenodd" d="M342.2 40.8333H336.4V35H342.2V40.8333Z" fill="#7EAB86"/>
<path fill-rule="evenodd" clip-rule="evenodd" d="M348 40.8333H342.2V35H348V40.8333Z" fill="#7EAB87"/>
<path fill-rule="evenodd" clip-rule="evenodd" d="M359.6 40.8333H353.8V35H359.6V40.8333ZM290 52.5H284.2V46.6667H290V52.5ZM417.6 75.8333H411.8V70H417.6V75.8333Z" fill="#7EAD85"/>
<path fill-rule="evenodd" clip-rule="evenodd" d="M365.4 40.8333H359.6V35H365.4V40.8333Z" fill="#80AE88"/>
<path fill-rule="evenodd" clip-rule="evenodd" d="M452.4 40.8333H446.6V35H452.4V40.8333Z" fill="#80B380" fill-opacity="0.0392157"/>
<path fill-rule="evenodd" clip-rule="evenodd" d="M81.2 46.6667H75.4V40.8333H81.2V46.6667ZM475.6 46.6667H469.8V40.8333H475.6V46.6667ZM52.2 58.3333H46.4V52.5H52.2V58.3333Z" fill="#80B38C" fill-opacity="0.0784314"/>
<path fill-rule="evenodd" clip-rule="evenodd" d="M110.2 46.6667H104.4V40.8333H110.2V46.6667Z" fill="#7DAC82"/>
<path fill-rule="evenodd" clip-rule="evenodd" d="M116 46.6667H110.2V40.8333H116V46.6667Z" fill="#72A376"/>
<path fill-rule="evenodd" clip-rule="evenodd" d="M121.8 46.6667H116V40.8333H121.8V46.6667Z" fill="#66966A"/>
<path fill-rule="evenodd" clip-rule="evenodd" d="M127.6 46.6667H121.8V40.8333H127.6V46.6667Z" fill="#659367"/>
<path fill-rule="evenodd" clip-rule="evenodd" d="M133.4 46.6667H127.6V40.8333H133.4V46.6667Z" fill="#638F5E"/>
<path fill-rule="evenodd" clip-rule="evenodd" d="M139.2 46.6667H133.4V40.8333H139.2V46.6667Z" fill="#638E64"/>
<path fill-rule="evenodd" clip-rule="evenodd" d="M145 46.6667H139.2V40.8333H145V46.6667ZM174 52.5H168.2V46.6667H174V52.5Z" fill="#628F62"/>
<path fill-rule="evenodd" clip-rule="evenodd" d="M150.8 46.6667H145V40.8333H150.8V46.6667Z" fill="#659163"/>
<path fill-rule="evenodd" clip-rule="evenodd" d="M156.6 46.6667H150.8V40.8333H156.6V46.6667Z" fill="#679467"/>
<path fill-rule="evenodd" clip-rule="evenodd" d="M162.4 46.6667H156.6V40.8333H162.4V46.6667Z" fill="#6A976A"/>
<path fill-rule="evenodd" clip-rule="evenodd" d="M168.2 46.6667H162.4V40.8333H168.2V46.6667Z" fill="#6C986E"/>
<path fill-rule="evenodd" clip-rule="evenodd" d="M174 46.6667H168.2V40.8333H174V46.6667ZM284.2 58.3333H278.4V52.5H284.2V58.3333Z" fill="#6F9D76"/>
<path fill-rule="evenodd" clip-rule="evenodd" d="M185.6 46.6667H179.8V40.8333H185.6V46.6667Z" fill="#73A177"/>
<path fill-rule="evenodd" clip-rule="evenodd" d="M191.4 46.6667H185.6V40.8333H191.4V46.6667ZM214.6 46.6667H208.8V40.8333H214.6V46.6667Z" fill="#75A27A"/>
<path fill-rule="evenodd" clip-rule="evenodd" d="M220.4 46.6667H214.6V40.8333H220.4V46.6667Z" fill="#7CAD83"/>
<path fill-rule="evenodd" clip-rule="evenodd" d="M226.2 46.6667H220.4V40.8333H226.2V46.6667ZM319 52.5H313.2V46.6667H319V52.5Z" fill="#7BAB83"/>
<path fill-rule="evenodd" clip-rule="evenodd" d="M272.6 46.6667H266.8V40.8333H272.6V46.6667Z" fill="#7BAC83"/>
<path fill-rule="evenodd" clip-rule="evenodd" d="M284.2 46.6667H278.4V40.8333H284.2V46.6667Z" fill="#7DAD84"/>
<path fill-rule="evenodd" clip-rule="evenodd" d="M319 46.6667H313.2V40.8333H319V46.6667Z" fill="#7FAF85"/>
<path fill-rule="evenodd" clip-rule="evenodd" d="M342.2 46.6667H336.4V40.8333H342.2V46.6667Z" fill="#78A47F"/>
<path fill-rule="evenodd" clip-rule="evenodd" d="M348 46.6667H342.2V40.8333H348V46.6667ZM359.6 58.3333H353.8V52.5H359.6V58.3333Z" fill="#79A581"/>
<path fill-rule="evenodd" clip-rule="evenodd" d="M353.8 46.6667H348V40.8333H353.8V46.6667Z" fill="#7AA580"/>
<path fill-rule="evenodd" clip-rule="evenodd" d="M359.6 46.6667H353.8V40.8333H359.6V46.6667Z" fill="#7CA883"/>
<path fill-rule="evenodd" clip-rule="evenodd" d="M365.4 46.6667H359.6V40.8333H365.4V46.6667Z" fill="#7EAD87"/>
<path fill-rule="evenodd" clip-rule="evenodd" d="M69.6 52.5H63.8V46.6667H69.6V52.5Z" fill="#89B189" fill-opacity="0.0509804"/>
<path fill-rule="evenodd" clip-rule="evenodd" d="M110.2 52.5H104.4V46.6667H110.2V52.5Z" fill="#507C4A"/>
<path fill-rule="evenodd" clip-rule="evenodd" d="M116 52.5H110.2V46.6667H116V52.5ZM232 75.8333H226.2V70H232V75.8333Z" fill="#538050"/>
<path fill-rule="evenodd" clip-rule="evenodd" d="M121.8 52.5H116V46.6667H121.8V52.5Z" fill="#578455"/>
<path fill-rule="evenodd" clip-rule="evenodd" d="M127.6 52.5H121.8V46.6667H127.6V52.5Z" fill="#588655"/>
<path fill-rule="evenodd" clip-rule="evenodd" d="M133.4 52.5H127.6V46.6667H133.4V52.5Z" fill="#578655"/>
<path fill-rule="evenodd" clip-rule="evenodd" d="M139.2 52.5H133.4V46.6667H139.2V52.5ZM162.4 52.5H156.6V46.6667H162.4V52.5Z" fill="#5B895A"/>
<path fill-rule="evenodd" clip-rule="evenodd" d="M145 52.5H139.2V46.6667H145V52.5Z" fill="#5B875B"/>
<path fill-rule="evenodd" clip-rule="evenodd" d="M150.8 52.5H145V46.6667H150.8V52.5Z" fill="#5B875A"/>
<path fill-rule="evenodd" clip-rule="evenodd" d="M156.6 52.5H150.8V46.6667H156.6V52.5Z" fill="#5B8658"/>
<path fill-rule="evenodd" clip-rule="evenodd" d="M168.2 52.5H162.4V46.6667H168.2V52.5Z" fill="#5D8B5C"/>
<path fill-rule="evenodd" clip-rule="evenodd" d="M179.8 52.5H174V46.6667H179.8V52.5Z" fill="#65946A"/>
<path fill-rule="evenodd" clip-rule="evenodd" d="M185.6 52.5H179.8V46.6667H185.6V52.5Z" fill="#679669"/>
<path fill-rule="evenodd" clip-rule="evenodd" d="M191.4 52.5H185.6V46.6667H191.4V52.5Z" fill="#6B9970"/>
<path fill-rule="evenodd" clip-rule="evenodd" d="M197.2 52.5H191.4V46.6667H197.2V52.5Z" fill="#6C9D71"/>
<path fill-rule="evenodd" clip-rule="evenodd" d="M203 52.5H197.2V46.6667H203V52.5Z" fill="#A0D678"/>
<path fill-rule="evenodd" clip-rule="evenodd" d="M214.6 52.5H208.8V46.6667H214.6V52.5Z" fill="#79A87D"/>
<path fill-rule="evenodd" clip-rule="evenodd" d="M220.4 52.5H214.6V46.6667H220.4V52.5Z" fill="#77A881"/>
<path fill-rule="evenodd" clip-rule="evenodd" d="M232 52.5H226.2V46.6667H232V52.5Z" fill="#7CAA83"/>
<path fill-rule="evenodd" clip-rule="evenodd" d="M237.8 52.5H232V46.6667H237.8V52.5Z" fill="#7CAD85"/>
<path fill-rule="evenodd" clip-rule="evenodd" d="M249.4 52.5H243.6V46.6667H249.4V52.5Z" fill="#7EAE85"/>
<path fill-rule="evenodd" clip-rule="evenodd" d="M255.2 52.5H249.4V46.6667H255.2V52.5Z" fill="#7EAD84"/>
<path fill-rule="evenodd" clip-rule="evenodd" d="M266.8 52.5H261V46.6667H266.8V52.5Z" fill="#75A57D"/>
<path fill-rule="evenodd" clip-rule="evenodd" d="M272.6 52.5H266.8V46.6667H272.6V52.5Z" fill="#74A37B"/>
<path fill-rule="evenodd" clip-rule="evenodd" d="M278.4 52.5H272.6V46.6667H278.4V52.5Z" fill="#74A67A"/>
<path fill-rule="evenodd" clip-rule="evenodd" d="M313.2 52.5H307.4V46.6667H313.2V52.5Z" fill="#7FAC86"/>
<path fill-rule="evenodd" clip-rule="evenodd" d="M324.8 52.5H319V46.6667H324.8V52.5Z" fill="#72A178"/>
<path fill-rule="evenodd" clip-rule="evenodd" d="M342.2 52.5H336.4V46.6667H342.2V52.5Z" fill="#729E7B"/>
<path fill-rule="evenodd" clip-rule="evenodd" d="M348 52.5H342.2V46.6667H348V52.5Z" fill="#76A07B"/>
<path fill-rule="evenodd" clip-rule="evenodd" d="M353.8 52.5H348V46.6667H353.8V52.5Z" fill="#75A17C"/>
<path fill-rule="evenodd" clip-rule="evenodd" d="M359.6 52.5H353.8V46.6667H359.6V52.5Z" fill="#79A481"/>
<path fill-rule="evenodd" clip-rule="evenodd" d="M481.4 52.5H475.6V46.6667H481.4V52.5Z" fill="#84B384" fill-opacity="0.105882"/>
<path fill-rule="evenodd" clip-rule="evenodd" d="M92.8 58.3333H87V64.1667H81.2V70H87V75.8333H69.6V81.6667H63.8V75.8333H58V81.6667H52.2V75.8333H46.4V81.6667H40.6V70H52.2V64.1667H69.6V58.3333H81.2V52.5H92.8V58.3333ZM17.4 81.6667H5.8V75.8333H17.4V81.6667ZM127.6 81.6667H121.8V75.8333H127.6V81.6667ZM150.8 87.5H139.2V81.6667H150.8V87.5ZM301.6 81.6667V87.5H307.4V93.3333H295.8V81.6667H301.6ZM290 93.3333H278.4V87.5H290V93.3333ZM324.8 93.3333H313.2V87.5H324.8V93.3333Z" fill="#4D7948"/>
<path fill-rule="evenodd" clip-rule="evenodd" d="M98.6 58.3333H92.8V52.5H98.6V58.3333Z" fill="#4E7A49"/>
<path fill-rule="evenodd" clip-rule="evenodd" d="M104.4 58.3333H98.6V52.5H104.4V58.3333Z" fill="#4E7A4C"/>
<path fill-rule="evenodd" clip-rule="evenodd" d="M110.2 58.3333H104.4V52.5H110.2V58.3333Z" fill="#507D4C"/>
<path fill-rule="evenodd" clip-rule="evenodd" d="M116 58.3333H110.2V52.5H116V58.3333ZM191.4 70H185.6V64.1667H191.4V70Z" fill="#558052"/>
<path fill-rule="evenodd" clip-rule="evenodd" d="M121.8 58.3333H116V52.5H121.8V58.3333Z" fill="#558153"/>
<path fill-rule="evenodd" clip-rule="evenodd" d="M133.4 58.3333H127.6V52.5H133.4V58.3333Z" fill="#578554"/>
<path fill-rule="evenodd" clip-rule="evenodd" d="M139.2 58.3333H133.4V52.5H139.2V58.3333Z" fill="#588657"/>
<path fill-rule="evenodd" clip-rule="evenodd" d="M145 58.3333H139.2V52.5H145V58.3333Z" fill="#598658"/>
<path fill-rule="evenodd" clip-rule="evenodd" d="M150.8 58.3333H145V52.5H150.8V58.3333Z" fill="#5A8657"/>
<path fill-rule="evenodd" clip-rule="evenodd" d="M156.6 58.3333H150.8V52.5H156.6V58.3333Z" fill="#568656"/>
<path fill-rule="evenodd" clip-rule="evenodd" d="M162.4 58.3333H156.6V52.5H162.4V58.3333Z" fill="#598555"/>
<path fill-rule="evenodd" clip-rule="evenodd" d="M168.2 58.3333H162.4V52.5H168.2V58.3333ZM232 70H226.2V64.1667H232V70Z" fill="#578457"/>
<path fill-rule="evenodd" clip-rule="evenodd" d="M174 58.3333H168.2V52.5H174V58.3333ZM278.4 75.8333H272.6V70H278.4V75.8333ZM301.6 75.8333H284.2V70H301.6V75.8333Z" fill="#5B885A"/>
<path fill-rule="evenodd" clip-rule="evenodd" d="M179.8 58.3333H174V52.5H179.8V58.3333Z" fill="#5C895D"/>
<path fill-rule="evenodd" clip-rule="evenodd" d="M185.6 58.3333H179.8V52.5H185.6V58.3333Z" fill="#5E8D5F"/>
<path fill-rule="evenodd" clip-rule="evenodd" d="M191.4 58.3333H185.6V52.5H191.4V58.3333Z" fill="#629265"/>
<path fill-rule="evenodd" clip-rule="evenodd" d="M197.2 58.3333H191.4V52.5H197.2V58.3333Z" fill="#68966A"/>
<path fill-rule="evenodd" clip-rule="evenodd" d="M203 58.3333H197.2V52.5H203V58.3333Z" fill="#6F9D73"/>
<path fill-rule="evenodd" clip-rule="evenodd" d="M214.6 58.3333H208.8V52.5H214.6V58.3333Z" fill="#709F76"/>
<path fill-rule="evenodd" clip-rule="evenodd" d="M220.4 58.3333H214.6V52.5H220.4V58.3333Z" fill="#739F79"/>
<path fill-rule="evenodd" clip-rule="evenodd" d="M232 58.3333H226.2V52.5H232V58.3333Z" fill="#6F9B72"/>
<path fill-rule="evenodd" clip-rule="evenodd" d="M237.8 58.3333H232V52.5H237.8V58.3333Z" fill="#709E76"/>
<path fill-rule="evenodd" clip-rule="evenodd" d="M243.6 58.3333H237.8V52.5H243.6V58.3333Z" fill="#74A37A"/>
<path fill-rule="evenodd" clip-rule="evenodd" d="M249.4 58.3333H243.6V52.5H249.4V58.3333Z" fill="#78A47C"/>
<path fill-rule="evenodd" clip-rule="evenodd" d="M255.2 58.3333H249.4V52.5H255.2V58.3333Z" fill="#73A37A"/>
<path fill-rule="evenodd" clip-rule="evenodd" d="M266.8 58.3333H261V52.5H266.8V58.3333Z" fill="#6E9D71"/>
<path fill-rule="evenodd" clip-rule="evenodd" d="M272.6 58.3333H266.8V52.5H272.6V58.3333Z" fill="#709E74"/>
<path fill-rule="evenodd" clip-rule="evenodd" d="M278.4 58.3333H272.6V52.5H278.4V58.3333Z" fill="#719F77"/>
<path fill-rule="evenodd" clip-rule="evenodd" d="M290 58.3333H284.2V52.5H290V58.3333Z" fill="#79AA80"/>
<path fill-rule="evenodd" clip-rule="evenodd" d="M295.8 58.3333H290V52.5H295.8V58.3333Z" fill="#7BAC84"/>
<path fill-rule="evenodd" clip-rule="evenodd" d="M307.4 58.3333H301.6V52.5H307.4V58.3333Z" fill="#7AAC82"/>
<path fill-rule="evenodd" clip-rule="evenodd" d="M319 58.3333H313.2V52.5H319V58.3333Z" fill="#72A175"/>
<path fill-rule="evenodd" clip-rule="evenodd" d="M324.8 58.3333H319V52.5H324.8V58.3333Z" fill="#679369"/>
<path fill-rule="evenodd" clip-rule="evenodd" d="M330.6 58.3333H324.8V52.5H330.6V58.3333ZM226.2 70H220.4V64.1667H226.2V70Z" fill="#588356"/>
<path fill-rule="evenodd" clip-rule="evenodd" d="M342.2 58.3333H336.4V52.5H342.2V58.3333Z" fill="#628B63"/>
<path fill-rule="evenodd" clip-rule="evenodd" d="M348 58.3333H342.2V52.5H348V58.3333ZM353.8 64.1667H348V58.3333H353.8V64.1667Z" fill="#729D79"/>
<path fill-rule="evenodd" clip-rule="evenodd" d="M353.8 58.3333H348V52.5H353.8V58.3333Z" fill="#749F7A"/>
<path fill-rule="evenodd" clip-rule="evenodd" d="M365.4 58.3333H359.6V52.5H365.4V58.3333Z" fill="#7FAD88"/>
<path fill-rule="evenodd" clip-rule="evenodd" d="M493 58.3333H487.2V52.5H493V58.3333Z" fill="#80AD89" fill-opacity="0.109804"/>
<path fill-rule="evenodd" clip-rule="evenodd" d="M40.6 64.1667H34.8V58.3333H40.6V64.1667Z" fill="#80B680" fill-opacity="0.054902"/>
<path fill-rule="evenodd" clip-rule="evenodd" d="M92.8 64.1667H87V58.3333H92.8V64.1667Z" fill="#4E7949"/>
<path fill-rule="evenodd" clip-rule="evenodd" d="M98.6 64.1667H92.8V58.3333H98.6V64.1667ZM92.8 75.8333H87V70H92.8V75.8333Z" fill="#4F7B4A"/>
<path fill-rule="evenodd" clip-rule="evenodd" d="M104.4 64.1667H98.6V58.3333H104.4V64.1667ZM104.4 75.8333H98.6V70H104.4V75.8333Z" fill="#537F4E"/>
<path fill-rule="evenodd" clip-rule="evenodd" d="M110.2 64.1667H104.4V58.3333H110.2V64.1667Z" fill="#537F51"/>
<path fill-rule="evenodd" clip-rule="evenodd" d="M116 64.1667H110.2V58.3333H116V64.1667Z" fill="#538251"/>
<path fill-rule="evenodd" clip-rule="evenodd" d="M127.6 64.1667H116V58.3333H127.6V64.1667Z" fill="#558252"/>
<path fill-rule="evenodd" clip-rule="evenodd" d="M133.4 64.1667H127.6V58.3333H133.4V64.1667Z" fill="#548052"/>
<path fill-rule="evenodd" clip-rule="evenodd" d="M139.2 64.1667H133.4V58.3333H139.2V64.1667ZM179.8 75.8333H174V70H179.8V75.8333Z" fill="#558152"/>
<path fill-rule="evenodd" clip-rule="evenodd" d="M145 64.1667H139.2V58.3333H145V64.1667Z" fill="#558150"/>
<path fill-rule="evenodd" clip-rule="evenodd" d="M150.8 64.1667H145V58.3333H150.8V64.1667ZM237.8 75.8333H232V70H237.8V75.8333ZM179.8 81.6667H174V75.8333H179.8V81.6667Z" fill="#548151"/>
<path fill-rule="evenodd" clip-rule="evenodd" d="M156.6 64.1667H150.8V58.3333H156.6V64.1667Z" fill="#558051"/>
<path fill-rule="evenodd" clip-rule="evenodd" d="M162.4 64.1667H156.6V58.3333H162.4V64.1667Z" fill="#578252"/>
<path fill-rule="evenodd" clip-rule="evenodd" d="M168.2 64.1667H162.4V58.3333H168.2V64.1667ZM174 70H168.2V64.1667H174V70Z" fill="#568454"/>
<path fill-rule="evenodd" clip-rule="evenodd" d="M174 64.1667H168.2V58.3333H174V64.1667Z" fill="#588456"/>
<path fill-rule="evenodd" clip-rule="evenodd" d="M179.8 64.1667H174V58.3333H179.8V64.1667Z" fill="#588455"/>
<path fill-rule="evenodd" clip-rule="evenodd" d="M185.6 64.1667H179.8V58.3333H185.6V64.1667Z" fill="#5A8758"/>
<path fill-rule="evenodd" clip-rule="evenodd" d="M191.4 64.1667H185.6V58.3333H191.4V64.1667Z" fill="#5C8A5D"/>
<path fill-rule="evenodd" clip-rule="evenodd" d="M197.2 64.1667H191.4V58.3333H197.2V64.1667Z" fill="#648E66"/>
<path fill-rule="evenodd" clip-rule="evenodd" d="M203 64.1667H197.2V58.3333H203V64.1667Z" fill="#6D996E"/>
<path fill-rule="evenodd" clip-rule="evenodd" d="M214.6 64.1667H208.8V58.3333H214.6V64.1667Z" fill="#609062"/>
<path fill-rule="evenodd" clip-rule="evenodd" d="M220.4 64.1667H214.6V58.3333H220.4V64.1667ZM249.4 70H243.6V64.1667H249.4V70ZM313.2 70H307.4V64.1667H313.2V70Z" fill="#628F63"/>
<path fill-rule="evenodd" clip-rule="evenodd" d="M226.2 64.1667H220.4V58.3333H226.2V64.1667Z" fill="#608D61"/>
<path fill-rule="evenodd" clip-rule="evenodd" d="M232 64.1667H226.2V58.3333H232V64.1667Z" fill="#608E63"/>
<path fill-rule="evenodd" clip-rule="evenodd" d="M237.8 64.1667H232V58.3333H237.8V64.1667Z" fill="#639065"/>
<path fill-rule="evenodd" clip-rule="evenodd" d="M243.6 64.1667H237.8V58.3333H243.6V64.1667Z" fill="#68946A"/>
<path fill-rule="evenodd" clip-rule="evenodd" d="M249.4 64.1667H243.6V58.3333H249.4V64.1667Z" fill="#6C9A70"/>
<path fill-rule="evenodd" clip-rule="evenodd" d="M255.2 64.1667H249.4V58.3333H255.2V64.1667Z" fill="#6C9A6F"/>
<path fill-rule="evenodd" clip-rule="evenodd" d="M261 64.1667H255.2V58.3333H261V64.1667Z" fill="#6B976D"/>
<path fill-rule="evenodd" clip-rule="evenodd" d="M266.8 64.1667H261V58.3333H266.8V64.1667Z" fill="#69976C"/>
<path fill-rule="evenodd" clip-rule="evenodd" d="M272.6 64.1667H266.8V58.3333H272.6V64.1667Z" fill="#6A986D"/>
<path fill-rule="evenodd" clip-rule="evenodd" d="M278.4 64.1667H272.6V58.3333H278.4V64.1667Z" fill="#6B9A6E"/>
<path fill-rule="evenodd" clip-rule="evenodd" d="M284.2 64.1667H278.4V58.3333H284.2V64.1667Z" fill="#6C9970"/>
<path fill-rule="evenodd" clip-rule="evenodd" d="M290 64.1667H284.2V58.3333H290V64.1667Z" fill="#6F9F74"/>
<path fill-rule="evenodd" clip-rule="evenodd" d="M295.8 64.1667H290V58.3333H295.8V64.1667Z" fill="#75A177"/>
<path fill-rule="evenodd" clip-rule="evenodd" d="M301.6 64.1667H295.8V58.3333H301.6V64.1667Z" fill="#74A277"/>
<path fill-rule="evenodd" clip-rule="evenodd" d="M307.4 64.1667H301.6V58.3333H307.4V64.1667Z" fill="#72A074"/>
<path fill-rule="evenodd" clip-rule="evenodd" d="M313.2 64.1667H307.4V58.3333H313.2V64.1667Z" fill="#6B9A6F"/>
<path fill-rule="evenodd" clip-rule="evenodd" d="M319 64.1667H313.2V58.3333H319V64.1667Z" fill="#669368"/>
<path fill-rule="evenodd" clip-rule="evenodd" d="M324.8 64.1667H319V58.3333H324.8V64.1667Z" fill="#608C60"/>
<path fill-rule="evenodd" clip-rule="evenodd" d="M330.6 64.1667H324.8V58.3333H330.6V64.1667Z" fill="#537D4F"/>
<path fill-rule="evenodd" clip-rule="evenodd" d="M342.2 64.1667H336.4V58.3333H342.2V64.1667Z" fill="#598057"/>
<path fill-rule="evenodd" clip-rule="evenodd" d="M348 64.1667H342.2V58.3333H348V64.1667Z" fill="#6B9672"/>
<path fill-rule="evenodd" clip-rule="evenodd" d="M359.6 64.1667H353.8V58.3333H359.6V64.1667Z" fill="#77A580"/>
<path fill-rule="evenodd" clip-rule="evenodd" d="M365.4 64.1667H359.6V58.3333H365.4V64.1667Z" fill="#80AD85"/>
<path fill-rule="evenodd" clip-rule="evenodd" d="M371.2 64.1667H365.4V58.3333H371.2V64.1667Z" fill="#80AE87"/>
<path fill-rule="evenodd" clip-rule="evenodd" d="M388.6 64.1667H382.8V58.3333H388.6V64.1667Z" fill="#7FAE88"/>
<path fill-rule="evenodd" clip-rule="evenodd" d="M29 70H23.2V64.1667H29V70ZM481.4 87.5H475.6V81.6667H481.4V87.5Z" fill="#88AA88" fill-opacity="0.0588235"/>
<path fill-rule="evenodd" clip-rule="evenodd" d="M87 70H81.2V64.1667H87V70Z" fill="#4E7948"/>
<path fill-rule="evenodd" clip-rule="evenodd" d="M92.8 70H87V64.1667H92.8V70ZM121.8 75.8333H116V70H121.8V75.8333Z" fill="#4D7B49"/>
<path fill-rule="evenodd" clip-rule="evenodd" d="M98.6 70H92.8V64.1667H98.6V70ZM127.6 70H121.8V64.1667H127.6V70ZM104.4 81.6667H98.6V75.8333H104.4V81.6667Z" fill="#517D4C"/>
<path fill-rule="evenodd" clip-rule="evenodd" d="M104.4 70H98.6V64.1667H104.4V70Z" fill="#52804F"/>
<path fill-rule="evenodd" clip-rule="evenodd" d="M110.2 70H104.4V64.1667H110.2V70Z" fill="#53804F"/>
<path fill-rule="evenodd" clip-rule="evenodd" d="M116 70H110.2V64.1667H116V70Z" fill="#527F4F"/>
<path fill-rule="evenodd" clip-rule="evenodd" d="M133.4 70H127.6V64.1667H133.4V70Z" fill="#4F7C4C"/>
<path fill-rule="evenodd" clip-rule="evenodd" d="M139.2 70H133.4V64.1667H139.2V70Z" fill="#507D4B"/>
<path fill-rule="evenodd" clip-rule="evenodd" d="M156.6 70H150.8V64.1667H156.6V70Z" fill="#4F804A"/>
<path fill-rule="evenodd" clip-rule="evenodd" d="M162.4 70H156.6V64.1667H162.4V70Z" fill="#53814F"/>
<path fill-rule="evenodd" clip-rule="evenodd" d="M179.8 70H174V64.1667H179.8V70Z" fill="#558253"/>
<path fill-rule="evenodd" clip-rule="evenodd" d="M185.6 70H179.8V64.1667H185.6V70Z" fill="#558354"/>
<path fill-rule="evenodd" clip-rule="evenodd" d="M214.6 70H208.8V75.8333H197.2V81.6667H185.6V75.8333H191.4V70H203V64.1667H214.6V70ZM214.6 70H220.4V81.6667H208.8V75.8333H214.6V70Z" fill="#517E4E"/>
<path fill-rule="evenodd" clip-rule="evenodd" d="M220.4 70H214.6V64.1667H220.4V70Z" fill="#578454"/>
<path fill-rule="evenodd" clip-rule="evenodd" d="M243.6 70H237.8V64.1667H243.6V70Z" fill="#5C8B5D"/>
<path fill-rule="evenodd" clip-rule="evenodd" d="M261 70H249.4V64.1667H261V70Z" fill="#628F64"/>
<path fill-rule="evenodd" clip-rule="evenodd" d="M266.8 70H261V64.1667H266.8V70Z" fill="#638F63"/>
<path fill-rule="evenodd" clip-rule="evenodd" d="M284.2 70H278.4V64.1667H284.2V70Z" fill="#639164"/>
<path fill-rule="evenodd" clip-rule="evenodd" d="M290 70H284.2V64.1667H290V70Z" fill="#659165"/>
<path fill-rule="evenodd" clip-rule="evenodd" d="M295.8 70H290V64.1667H295.8V70Z" fill="#649367"/>
<path fill-rule="evenodd" clip-rule="evenodd" d="M301.6 70H295.8V64.1667H301.6V70Z" fill="#669367"/>
<path fill-rule="evenodd" clip-rule="evenodd" d="M307.4 70H301.6V64.1667H307.4V70Z" fill="#659365"/>
<path fill-rule="evenodd" clip-rule="evenodd" d="M319 70H313.2V64.1667H319V70Z" fill="#5E8C60"/>
<path fill-rule="evenodd" clip-rule="evenodd" d="M342.2 70H336.4V64.1667H342.2V70Z" fill="#557D57"/>
<path fill-rule="evenodd" clip-rule="evenodd" d="M348 70H342.2V64.1667H348V70Z" fill="#638D67"/>
<path fill-rule="evenodd" clip-rule="evenodd" d="M353.8 70H348V64.1667H353.8V70Z" fill="#6C9773"/>
<path fill-rule="evenodd" clip-rule="evenodd" d="M359.6 70H353.8V64.1667H359.6V70Z" fill="#76A280"/>
<path fill-rule="evenodd" clip-rule="evenodd" d="M365.4 70H359.6V64.1667H365.4V70ZM469.8 87.5H464V81.6667H469.8V87.5Z" fill="#7CAA84"/>
<path fill-rule="evenodd" clip-rule="evenodd" d="M371.2 70H365.4V64.1667H371.2V70Z" fill="#7CAC84"/>
<path fill-rule="evenodd" clip-rule="evenodd" d="M377 70H371.2V64.1667H377V70Z" fill="#7DAB83"/>
<path fill-rule="evenodd" clip-rule="evenodd" d="M382.8 70H377V64.1667H382.8V70Z" fill="#7BA883"/>
<path fill-rule="evenodd" clip-rule="evenodd" d="M388.6 70H382.8V64.1667H388.6V70ZM406 75.8333H400.2V70H406V75.8333Z" fill="#7DAB85"/>
<path fill-rule="evenodd" clip-rule="evenodd" d="M5.8 75.8333H0V70H5.8V75.8333Z" fill="#85B185" fill-opacity="0.0901961"/>
<path fill-rule="evenodd" clip-rule="evenodd" d="M98.6 75.8333H92.8V70H98.6V75.8333ZM162.4 81.6667H156.6V75.8333H162.4V81.6667Z" fill="#527E4E"/>
<path fill-rule="evenodd" clip-rule="evenodd" d="M110.2 75.8333H104.4V70H110.2V75.8333Z" fill="#517E4D"/>
<path fill-rule="evenodd" clip-rule="evenodd" d="M116 75.8333H110.2V70H116V75.8333Z" fill="#4F7D4B"/>
<path fill-rule="evenodd" clip-rule="evenodd" d="M127.6 75.8333H121.8V70H127.6V75.8333Z" fill="#4E7B48"/>
<path fill-rule="evenodd" clip-rule="evenodd" d="M133.4 75.8333H127.6V70H133.4V75.8333Z" fill="#4D7A4A"/>
<path fill-rule="evenodd" clip-rule="evenodd" d="M150.8 70V81.6667H145V70H150.8ZM87 81.6667H81.2V75.8333H87V81.6667ZM290 87.5H284.2V81.6667H290V87.5ZM156.6 93.3333H150.8V87.5H156.6V93.3333Z" fill="#4D7949"/>
<path fill-rule="evenodd" clip-rule="evenodd" d="M156.6 75.8333H150.8V70H156.6V75.8333Z" fill="#4E7C49"/>
<path fill-rule="evenodd" clip-rule="evenodd" d="M168.2 75.8333H162.4V70H168.2V75.8333Z" fill="#558352"/>
<path fill-rule="evenodd" clip-rule="evenodd" d="M174 75.8333H168.2V70H174V75.8333Z" fill="#548253"/>
<path fill-rule="evenodd" clip-rule="evenodd" d="M185.6 75.8333H179.8V70H185.6V75.8333Z" fill="#548251"/>
<path fill-rule="evenodd" clip-rule="evenodd" d="M226.2 75.8333H220.4V70H226.2V75.8333Z" fill="#537F4F"/>
<path fill-rule="evenodd" clip-rule="evenodd" d="M243.6 75.8333H237.8V70H243.6V75.8333Z" fill="#568354"/>
<path fill-rule="evenodd" clip-rule="evenodd" d="M249.4 75.8333H243.6V70H249.4V75.8333Z" fill="#588557"/>
<path fill-rule="evenodd" clip-rule="evenodd" d="M255.2 75.8333H249.4V70H255.2V75.8333Z" fill="#5A8658"/>
<path fill-rule="evenodd" clip-rule="evenodd" d="M284.2 75.8333H278.4V70H284.2V75.8333Z" fill="#5A8859"/>
<path fill-rule="evenodd" clip-rule="evenodd" d="M307.4 75.8333H301.6V70H307.4V75.8333Z" fill="#5B8759"/>
<path fill-rule="evenodd" clip-rule="evenodd" d="M313.2 75.8333H307.4V70H313.2V75.8333Z" fill="#598559"/>
<path fill-rule="evenodd" clip-rule="evenodd" d="M348 75.8333H342.2V70H348V75.8333Z" fill="#588058"/>
<path fill-rule="evenodd" clip-rule="evenodd" d="M353.8 75.8333H348V70H353.8V75.8333Z" fill="#5E8660"/>
<path fill-rule="evenodd" clip-rule="evenodd" d="M365.4 75.8333H359.6V70H365.4V75.8333Z" fill="#729C78"/>
<path fill-rule="evenodd" clip-rule="evenodd" d="M371.2 75.8333H365.4V70H371.2V75.8333Z" fill="#7AA680"/>
<path fill-rule="evenodd" clip-rule="evenodd" d="M394.4 75.8333H388.6V70H394.4V75.8333Z" fill="#7AA883"/>
<path fill-rule="evenodd" clip-rule="evenodd" d="M400.2 75.8333H394.4V70H400.2V75.8333ZM423.4 75.8333H417.6V70H423.4V75.8333ZM446.6 75.8333H440.8V70H446.6V75.8333ZM469.8 75.8333H464V70H469.8V75.8333ZM411.8 87.5H406V81.6667H411.8V87.5ZM435 87.5H429.2V81.6667H435V87.5ZM458.2 87.5H452.4V81.6667H458.2V87.5Z" fill="#D5E7D8"/>
<path fill-rule="evenodd" clip-rule="evenodd" d="M411.8 75.8333H406V70H411.8V75.8333Z" fill="#7CAC85"/>
<path fill-rule="evenodd" clip-rule="evenodd" d="M435 75.8333H429.2V70H435V75.8333Z" fill="#7EAD88"/>
<path fill-rule="evenodd" clip-rule="evenodd" d="M92.8 81.6667H87V75.8333H92.8V81.6667Z" fill="#4F7A4A"/>
<path fill-rule="evenodd" clip-rule="evenodd" d="M110.2 81.6667H104.4V75.8333H110.2V81.6667Z" fill="#4E7A4B"/>
<path fill-rule="evenodd" clip-rule="evenodd" d="M156.6 81.6667H150.8V75.8333H156.6V81.6667Z" fill="#4E7A4A"/>
<path fill-rule="evenodd" clip-rule="evenodd" d="M168.2 81.6667H162.4V75.8333H168.2V81.6667Z" fill="#538052"/>
<path fill-rule="evenodd" clip-rule="evenodd" d="M232 81.6667H226.2V75.8333H232V81.6667Z" fill="#507C4B"/>
<path fill-rule="evenodd" clip-rule="evenodd" d="M237.8 81.6667H232V75.8333H237.8V81.6667Z" fill="#4E7C4C"/>
<path fill-rule="evenodd" clip-rule="evenodd" d="M255.2 81.6667H249.4V75.8333H255.2V81.6667Z" fill="#527B4B"/>
<path fill-rule="evenodd" clip-rule="evenodd" d="M278.4 81.6667H272.6V75.8333H278.4V81.6667Z" fill="#517E4C"/>
<path fill-rule="evenodd" clip-rule="evenodd" d="M284.2 81.6667H278.4V75.8333H284.2V81.6667Z" fill="#527C4D"/>
<path fill-rule="evenodd" clip-rule="evenodd" d="M290 81.6667H284.2V75.8333H290V81.6667Z" fill="#517D4D"/>
<path fill-rule="evenodd" clip-rule="evenodd" d="M301.6 81.6667H295.8V75.8333H301.6V81.6667Z" fill="#527E4D"/>
<path fill-rule="evenodd" clip-rule="evenodd" d="M307.4 81.6667H301.6V75.8333H307.4V81.6667Z" fill="#507E4B"/>
<path fill-rule="evenodd" clip-rule="evenodd" d="M365.4 81.6667H359.6V75.8333H365.4V81.6667Z" fill="#5F855F"/>
<path fill-rule="evenodd" clip-rule="evenodd" d="M371.2 81.6667H365.4V75.8333H371.2V81.6667Z" fill="#669069"/>
<path fill-rule="evenodd" clip-rule="evenodd" d="M377 81.6667H371.2V75.8333H377V81.6667Z" fill="#6D9A74"/>
<path fill-rule="evenodd" clip-rule="evenodd" d="M382.8 81.6667H377V75.8333H382.8V81.6667Z" fill="#719F78"/>
<path fill-rule="evenodd" clip-rule="evenodd" d="M493 81.6667H487.2V75.8333H493V81.6667Z" fill="#86AE86" fill-opacity="0.0745098"/>
<path fill-rule="evenodd" clip-rule="evenodd" d="M162.4 87.5H156.6V81.6667H162.4V87.5Z" fill="#507C4C"/>
<path fill-rule="evenodd" clip-rule="evenodd" d="M168.2 87.5H162.4V81.6667H168.2V87.5Z" fill="#52804E"/>
<path fill-rule="evenodd" clip-rule="evenodd" d="M174 87.5H168.2V81.6667H174V87.5Z" fill="#537F4D"/>
<path fill-rule="evenodd" clip-rule="evenodd" d="M272.6 87.5H266.8V81.6667H272.6V87.5Z" fill="#4D794A"/>
<path fill-rule="evenodd" clip-rule="evenodd" d="M278.4 87.5H272.6V81.6667H278.4V87.5Z" fill="#4D7A49"/>
<path fill-rule="evenodd" clip-rule="evenodd" d="M295.8 87.5H290V81.6667H295.8V87.5Z" fill="#4E7A48"/>
<path fill-rule="evenodd" clip-rule="evenodd" d="M371.2 87.5H365.4V81.6667H371.2V87.5Z" fill="#537C51"/>
<path fill-rule="evenodd" clip-rule="evenodd" d="M377 87.5H371.2V81.6667H377V87.5Z" fill="#588156"/>
<path fill-rule="evenodd" clip-rule="evenodd" d="M382.8 87.5H377V81.6667H382.8V87.5Z" fill="#5B855B"/>
<path fill-rule="evenodd" clip-rule="evenodd" d="M388.6 87.5H382.8V81.6667H388.6V87.5Z" fill="#5F8960"/>
<path fill-rule="evenodd" clip-rule="evenodd" d="M394.4 87.5H388.6V81.6667H394.4V87.5Z" fill="#659168"/>
<path fill-rule="evenodd" clip-rule="evenodd" d="M400.2 87.5H394.4V81.6667H400.2V87.5Z" fill="#66916A"/>
<path fill-rule="evenodd" clip-rule="evenodd" d="M406 87.5H400.2V81.6667H406V87.5Z" fill="#679169"/>
<path fill-rule="evenodd" clip-rule="evenodd" d="M417.6 87.5H411.8V81.6667H417.6V87.5Z" fill="#67916A"/>
<path fill-rule="evenodd" clip-rule="evenodd" d="M423.4 87.5H417.6V81.6667H423.4V87.5Z" fill="#67926C"/>
<path fill-rule="evenodd" clip-rule="evenodd" d="M429.2 87.5H423.4V81.6667H429.2V87.5Z" fill="#68926B"/>
<path fill-rule="evenodd" clip-rule="evenodd" d="M440.8 87.5H435V81.6667H440.8V87.5Z" fill="#719C77"/>
<path fill-rule="evenodd" clip-rule="evenodd" d="M446.6 87.5H440.8V81.6667H446.6V87.5Z" fill="#74A07B"/>
<path fill-rule="evenodd" clip-rule="evenodd" d="M452.4 87.5H446.6V81.6667H452.4V87.5Z" fill="#74A17B"/>
<path fill-rule="evenodd" clip-rule="evenodd" d="M464 87.5H458.2V81.6667H464V87.5Z" fill="#78A67F"/>
<path fill-rule="evenodd" clip-rule="evenodd" d="M5.8 93.3333H0V87.5H5.8V93.3333Z" fill="#2A552A" fill-opacity="0.0235294"/>
<path fill-rule="evenodd" clip-rule="evenodd" d="M162.4 93.3333H156.6V87.5H162.4V93.3333Z" fill="#4F7A49"/>
<path fill-rule="evenodd" clip-rule="evenodd" d="M174 93.3333H168.2V87.5H174V93.3333Z" fill="#4C7848"/>
<path fill-rule="evenodd" clip-rule="evenodd" d="M179.8 93.3333H174V87.5H179.8V93.3333Z" fill="#4B7746"/>
<path fill-rule="evenodd" clip-rule="evenodd" d="M185.6 93.3333H179.8V87.5H185.6V93.3333Z" fill="#3E5637"/>
<path fill-rule="evenodd" clip-rule="evenodd" d="M191.4 93.3333H185.6V87.5H191.4V93.3333Z" fill="#4B7646"/>
<path fill-rule="evenodd" clip-rule="evenodd" d="M197.2 93.3333H191.4V87.5H197.2V93.3333Z" fill="#4A7546"/>
<path fill-rule="evenodd" clip-rule="evenodd" d="M359.6 93.3333H353.8V87.5H359.6V93.3333Z" fill="#808080" fill-opacity="0.01"/>
<path fill-rule="evenodd" clip-rule="evenodd" d="M365.4 93.3333H359.6V87.5H365.4V93.3333Z" fill="#6D926D" fill-opacity="0.027451"/>
<path fill-rule="evenodd" clip-rule="evenodd" d="M475.6 93.3333H469.8V87.5H475.6V93.3333Z" fill="#668066" fill-opacity="0.0784314"/>
<path fill-rule="evenodd" clip-rule="evenodd" d="M168.2 99.1667H162.4V93.3333H168.2V99.1667Z" fill="#141714"/>
<path fill-rule="evenodd" clip-rule="evenodd" d="M174 99.1667H168.2V93.3333H174V99.1667Z" fill="#111313"/>
<path fill-rule="evenodd" clip-rule="evenodd" d="M446.6 99.1667H440.8V93.3333H446.6V99.1667Z" fill="black" fill-opacity="0.027451"/>
</svg>
