<svg width="254" height="230" viewBox="0 0 254 230" fill="none" xmlns="http://www.w3.org/2000/svg">
<path d="M153.206 2.01754H157.238ZM245.937 2.01754H249.968ZM4.03175 227.982H100.794ZM141.111 227.982H221.746Z" fill="black"/>
<path fill-rule="evenodd" clip-rule="evenodd" d="M157.238 4.03509H153.206V0H157.238V4.03509ZM165.302 8.07018H157.238V4.03509H165.302V8.07018ZM157.238 12.1053H153.206V28.2456H149.175V4.03509H153.206V8.07018H157.238V12.1053ZM157.238 36.3158H153.206V28.2456H157.238V36.3158ZM161.27 40.3509H157.238V36.3158H161.27V40.3509ZM165.302 44.386H161.27V40.3509H165.302V44.386ZM169.333 48.4211H165.302V44.386H169.333V48.4211ZM181.429 44.386V52.4561H177.397V56.4912H173.365V52.4561H169.333V48.4211H177.397V44.386H181.429ZM169.333 64.5614V56.4912H173.365V64.5614H169.333ZM169.333 64.5614H165.302V76.6667H169.333V84.7368H173.365V88.7719H177.397V92.807H173.365V96.8421H161.27V100.877H145.143V104.912H137.079V108.947H129.016V112.982H124.984V117.018H120.952V125.088H116.921V133.158H112.889V145.263H108.857V173.509H104.825V181.579H100.794V189.649H92.7302V193.684H88.6984V197.719H80.6349V201.754H72.5714V205.789H56.4444V209.825H32.254V213.86H8.06349V217.895H0V225.965H4.03175V230H100.794V225.965H108.857V221.93H112.889V217.895H116.921V209.825H120.952V205.789H124.984V201.754H129.016V197.719H133.048V193.684H137.079V189.649H149.175V205.789H145.143V209.825H141.111V217.895H137.079V221.93H141.111V230H221.746V221.93H241.905V213.86H237.873V209.825H213.683V205.789H197.556V193.684H201.587V189.649H209.651V185.614H213.683V181.579H217.714V173.509H221.746V157.368H225.778V100.877H221.746V92.807H225.778V88.7719H229.81V84.7368H233.841V76.6667H237.873V64.5614H233.841V56.4912H229.81V52.4561H233.841V48.4211H237.873V44.386H241.905V40.3509H245.937V36.3158H249.968V28.2456H254V4.03509H249.968V0H245.937V4.03509H237.873V8.07018H233.841V12.1053H229.81V16.1404H225.778V20.1754H221.746V24.2105H217.714V28.2456H213.683V36.3158H189.492V28.2456H185.46V24.2105H181.429V20.1754H177.397V16.1404H173.365V12.1053H169.333V8.07018H165.302V12.1053H169.333V16.1404H173.365V20.1754H177.397V24.2105H181.429V28.2456H185.46V36.3158H181.429V32.2807H177.397V28.2456H173.365V24.2105H169.333V20.1754H165.302V16.1404H161.27V12.1053H157.238V20.1754H165.302V24.2105H169.333V28.2456H173.365V36.3158H181.429V44.386H185.46V40.3509H221.746V44.386H225.778V56.4912H229.81V64.5614H233.841V76.6667H229.81V84.7368H225.778V88.7719H221.746V92.807H217.714V96.8421H213.683V100.877H209.651V104.912H193.524V100.877H189.492V96.8421H185.46V92.807H181.429V88.7719H177.397V84.7368H173.365V76.6667H169.333V64.5614ZM181.429 92.807H177.397V96.8421H173.365V100.877H161.27V104.912H145.143V108.947H137.079V112.982H133.048V117.018H129.016V121.053H124.984V125.088H120.952V133.158H116.921V145.263H112.889V173.509H108.857V185.614H104.825V189.649H100.794V193.684H96.7619V197.719H88.6984V201.754H80.6349V205.789H72.5714V209.825H56.4444V213.86H32.254V217.895H8.06349V221.93H4.03175V225.965H100.794V221.93H104.825V217.895H108.857V213.86H112.889V209.825H116.921V205.789H120.952V201.754H124.984V193.684H133.048V185.614H149.175V189.649H153.206V205.789H149.175V213.86H145.143V217.895H141.111V221.93H145.143V225.965H217.714V221.93H197.556V217.895H177.397V213.86H201.587V217.895H237.873V213.86H213.683V209.825H197.556V205.789H193.524V189.649H185.46V181.579H189.492V185.614H209.651V181.579H213.683V173.509H217.714V157.368H221.746V100.877H217.714V104.912H213.683V108.947H189.492V100.877H181.429V92.807ZM189.492 161.404H193.524V181.579H189.492V161.404ZM181.429 153.333H189.492V161.404H185.46V157.368H181.429V153.333ZM189.492 141.228H193.524V153.333H189.492V141.228ZM185.46 137.193H189.492V141.228H185.46V137.193ZM177.397 133.158H185.46V137.193H177.397V133.158ZM173.365 129.123H177.397V133.158H173.365V129.123ZM173.365 129.123V117.018H169.333V129.123H173.365ZM181.429 153.333V149.298H177.397V145.263H157.238V149.298H149.175V153.333H141.111V157.368H137.079V161.404H145.143V157.368H149.175V153.333H161.27V149.298H177.397V153.333H181.429ZM181.429 197.719H173.365V205.789H169.333V209.825H173.365V213.86H177.397V201.754H181.429V197.719ZM181.429 197.719H185.46V189.649H181.429V197.719ZM225.778 44.386H229.81V48.4211H233.841V44.386H237.873V40.3509H241.905V36.3158H245.937V28.2456H249.968V12.1053H245.937V8.07018H249.968V4.03509H245.937V8.07018H237.873V12.1053H233.841V16.1404H229.81V20.1754H225.778V24.2105H221.746V28.2456H217.714V36.3158H221.746V40.3509H225.778V44.386ZM237.873 20.1754V16.1404H241.905V12.1053H245.937V20.1754H237.873ZM237.873 20.1754H233.841V24.2105H229.81V28.2456H225.778V36.3158H229.81V28.2456H233.841V24.2105H237.873V20.1754ZM185.46 64.5614V68.5965H189.492V72.6316H181.429V64.5614H185.46ZM217.714 64.5614V68.5965H221.746V72.6316H213.683V64.5614H217.714ZM205.619 84.7368H197.556V80.7018H205.619V84.7368ZM209.651 88.7719H205.619V84.7368H209.651V88.7719ZM209.651 92.807V88.7719H213.683V92.807H209.651ZM209.651 92.807H205.619V96.8421H197.556V92.807H193.524V88.7719H197.556V84.7368H189.492V92.807H193.524V96.8421H197.556V100.877H205.619V96.8421H209.651V92.807Z" fill="#111111"/>
<path fill-rule="evenodd" clip-rule="evenodd" d="M157.238 8.07018H153.206V4.03509H157.238V8.07018ZM249.968 8.07018H245.937V4.03509H249.968V8.07018ZM161.27 12.1053H157.238V8.07018H161.27V12.1053ZM245.937 12.1053H241.905V8.07018H245.937V12.1053ZM193.524 84.7368H189.492V80.7018H193.524V84.7368ZM189.492 84.7368V92.807H185.46V84.7368H189.492ZM217.714 84.7368V92.807H213.683V84.7368H217.714Z" fill="#DFC18B"/>
<path fill-rule="evenodd" clip-rule="evenodd" d="M165.302 8.07018V12.1053H169.333V16.1404H161.27V8.07018H165.302ZM173.365 20.1754H169.333V16.1404H173.365V20.1754ZM173.365 20.1754V28.2456H177.397V32.2807H181.429V36.3158H185.46V28.2456H181.429V24.2105H177.397V20.1754H173.365ZM241.905 8.07018V16.1404H233.841V12.1053H237.873V8.07018H241.905ZM229.81 20.1754V16.1404H233.841V20.1754H229.81ZM229.81 20.1754H225.778V24.2105H221.746V28.2456H217.714V36.3158H225.778V24.2105H229.81V20.1754ZM229.81 56.4912V64.5614H233.841V76.6667H229.81V72.6316H221.746V64.5614H213.683V68.5965H209.651V80.7018H205.619V76.6667H193.524V72.6316H189.492V64.5614H193.524V60.5263H205.619V56.4912H229.81ZM229.81 80.7018V84.7368H221.746V80.7018H229.81ZM165.302 100.877V108.947H161.27V112.982H153.206V121.053H133.048V125.088H129.016V129.123H124.984V121.053H129.016V117.018H133.048V112.982H137.079V108.947H145.143V104.912H161.27V100.877H165.302ZM181.429 121.053V125.088H197.556V137.193H193.524V141.228H189.492V137.193H185.46V133.158H181.429V129.123H177.397V121.053H181.429Z" fill="#D9A46E"/>
<path fill-rule="evenodd" clip-rule="evenodd" d="M157.238 16.1404H153.206V12.1053H157.238V16.1404Z" fill="#F67B7C"/>
<path fill-rule="evenodd" clip-rule="evenodd" d="M249.968 16.1404H245.937V12.1053H249.968V16.1404Z" fill="#F18379"/>
<path fill-rule="evenodd" clip-rule="evenodd" d="M157.238 20.1754H153.206V16.1404H157.238V20.1754ZM161.27 32.2807H157.238V28.2456H161.27V32.2807ZM165.302 32.2807V36.3158H161.27V32.2807H165.302ZM165.302 32.2807H173.365V28.2456H165.302V32.2807ZM245.937 32.2807H241.905V28.2456H245.937V32.2807Z" fill="#FF6F80"/>
<path fill-rule="evenodd" clip-rule="evenodd" d="M169.333 20.1754H165.302V16.1404H169.333V20.1754Z" fill="#DD9F70"/>
<path fill-rule="evenodd" clip-rule="evenodd" d="M237.873 20.1754H233.841V16.1404H237.873V20.1754Z" fill="#DD9E70"/>
<path fill-rule="evenodd" clip-rule="evenodd" d="M249.968 20.1754H245.937V16.1404H249.968V20.1754ZM241.905 24.2105H237.873V20.1754H241.905V24.2105ZM249.968 28.2456H245.937V24.2105H249.968V28.2456ZM233.841 32.2807H229.81V28.2456H233.841V32.2807Z" fill="#F77A7C"/>
<path fill-rule="evenodd" clip-rule="evenodd" d="M157.238 24.2105H153.206V20.1754H165.302V24.2105H161.27V28.2456H157.238V24.2105ZM245.937 28.2456H241.905V24.2105H245.937V28.2456ZM241.905 32.2807H237.873V28.2456H241.905V32.2807ZM241.905 32.2807V36.3158H245.937V32.2807H241.905Z" fill="#FE7080"/>
<path fill-rule="evenodd" clip-rule="evenodd" d="M173.365 24.2105H169.333V20.1754H173.365V24.2105Z" fill="#DE9D70"/>
<path fill-rule="evenodd" clip-rule="evenodd" d="M233.841 24.2105H229.81V20.1754H233.841V24.2105Z" fill="#E09A72"/>
<path fill-rule="evenodd" clip-rule="evenodd" d="M245.937 24.2105H241.905V20.1754H245.937V24.2105Z" fill="#FC747E"/>
<path fill-rule="evenodd" clip-rule="evenodd" d="M249.968 24.2105H245.937V20.1754H249.968V24.2105Z" fill="#F8797D"/>
<path fill-rule="evenodd" clip-rule="evenodd" d="M157.238 28.2456H153.206V24.2105H157.238V28.2456ZM169.333 28.2456H165.302V24.2105H169.333V28.2456ZM165.302 32.2807H161.27V28.2456H165.302V32.2807ZM165.302 40.3509H161.27V36.3158H165.302V40.3509Z" fill="#FD727F"/>
<path fill-rule="evenodd" clip-rule="evenodd" d="M165.302 28.2456H161.27V24.2105H165.302V28.2456ZM241.905 28.2456H237.873V24.2105H241.905V28.2456ZM241.905 32.2807V40.3509H237.873V32.2807H241.905Z" fill="#FF7080"/>
<path fill-rule="evenodd" clip-rule="evenodd" d="M217.714 28.2456H213.683V24.2105H217.714V28.2456Z" fill="#865E43" fill-opacity="0.0745098"/>
<path fill-rule="evenodd" clip-rule="evenodd" d="M229.81 28.2456H225.778V24.2105H229.81V28.2456Z" fill="#DBA16F"/>
<path fill-rule="evenodd" clip-rule="evenodd" d="M237.873 28.2456H233.841V24.2105H237.873V28.2456Z" fill="#F57D7B"/>
<path fill-rule="evenodd" clip-rule="evenodd" d="M237.873 32.2807H233.841V28.2456H237.873V32.2807Z" fill="#FD717F"/>
<path fill-rule="evenodd" clip-rule="evenodd" d="M161.27 36.3158H157.238V32.2807H161.27V36.3158ZM173.365 36.3158H169.333V32.2807H173.365V36.3158ZM233.841 36.3158H229.81V32.2807H233.841V36.3158ZM237.873 40.3509H233.841V36.3158H237.873V40.3509ZM169.333 44.386H165.302V40.3509H169.333V44.386Z" fill="#FE717F"/>
<path fill-rule="evenodd" clip-rule="evenodd" d="M169.333 32.2807V36.3158H173.365V48.4211H169.333V40.3509H165.302V32.2807H169.333ZM237.873 36.3158H233.841V32.2807H237.873V36.3158ZM233.841 40.3509H229.81V36.3158H233.841V40.3509ZM233.841 40.3509V44.386H237.873V40.3509H233.841Z" fill="#E24E60"/>
<path fill-rule="evenodd" clip-rule="evenodd" d="M177.397 40.3509H173.365V36.3158H177.397V40.3509Z" fill="#FE707F"/>
<path fill-rule="evenodd" clip-rule="evenodd" d="M181.429 40.3509H177.397V36.3158H181.429V40.3509Z" fill="#E05A62"/>
<path fill-rule="evenodd" clip-rule="evenodd" d="M225.778 40.3509H221.746V36.3158H225.778V40.3509Z" fill="#171315"/>
<path fill-rule="evenodd" clip-rule="evenodd" d="M229.81 40.3509H225.778V36.3158H229.81V40.3509Z" fill="#FA777E"/>
<path fill-rule="evenodd" clip-rule="evenodd" d="M181.429 44.386H173.365V40.3509H181.429V44.386Z" fill="#F7717C"/>
<path fill-rule="evenodd" clip-rule="evenodd" d="M189.492 44.386H185.46V40.3509H189.492V44.386Z" fill="#BF8D5A"/>
<path fill-rule="evenodd" clip-rule="evenodd" d="M193.524 44.386H189.492V40.3509H193.524V44.386Z" fill="#C38F5D"/>
<path fill-rule="evenodd" clip-rule="evenodd" d="M197.556 44.386H193.524V40.3509H197.556V44.386Z" fill="#CB9461"/>
<path fill-rule="evenodd" clip-rule="evenodd" d="M201.587 44.386H197.556V40.3509H201.587V44.386ZM209.651 117.018H205.619V112.982H209.651V117.018ZM116.921 149.298H112.889V145.263H116.921V149.298Z" fill="#C89461"/>
<path fill-rule="evenodd" clip-rule="evenodd" d="M205.619 44.386H201.587V40.3509H205.619V44.386ZM181.429 64.5614H177.397V60.5263H181.429V64.5614Z" fill="#C99660"/>
<path fill-rule="evenodd" clip-rule="evenodd" d="M209.651 44.386H205.619V40.3509H209.651V44.386Z" fill="#CA9360"/>
<path fill-rule="evenodd" clip-rule="evenodd" d="M213.683 44.386H209.651V40.3509H213.683V44.386ZM165.302 153.333H161.27V149.298H165.302V153.333Z" fill="#D59D6A"/>
<path fill-rule="evenodd" clip-rule="evenodd" d="M217.714 44.386H213.683V40.3509H217.714V44.386Z" fill="#CA9363"/>
<path fill-rule="evenodd" clip-rule="evenodd" d="M221.746 44.386H217.714V40.3509H221.746V44.386Z" fill="#C18760"/>
<path fill-rule="evenodd" clip-rule="evenodd" d="M229.81 44.386H225.778V40.3509H229.81V44.386Z" fill="#D5585E"/>
<path fill-rule="evenodd" clip-rule="evenodd" d="M233.841 44.386H229.81V40.3509H233.841V44.386Z" fill="#F5757A"/>
<path fill-rule="evenodd" clip-rule="evenodd" d="M177.397 48.4211H173.365V44.386H177.397V48.4211Z" fill="#E15460"/>
<path fill-rule="evenodd" clip-rule="evenodd" d="M185.46 48.4211H181.429V44.386H185.46V48.4211Z" fill="#CB9762"/>
<path fill-rule="evenodd" clip-rule="evenodd" d="M189.492 48.4211H185.46V44.386H189.492V48.4211Z" fill="#CA9862"/>
<path fill-rule="evenodd" clip-rule="evenodd" d="M193.524 48.4211H189.492V44.386H193.524V48.4211Z" fill="#C99662"/>
<path fill-rule="evenodd" clip-rule="evenodd" d="M197.556 48.4211H193.524V44.386H197.556V48.4211Z" fill="#C69561"/>
<path fill-rule="evenodd" clip-rule="evenodd" d="M201.587 48.4211H197.556V44.386H201.587V48.4211ZM189.492 56.4912H185.46V52.4561H189.492V56.4912Z" fill="#CA9761"/>
<path fill-rule="evenodd" clip-rule="evenodd" d="M205.619 48.4211H201.587V44.386H205.619V48.4211Z" fill="#CD9A64"/>
<path fill-rule="evenodd" clip-rule="evenodd" d="M209.651 48.4211H205.619V44.386H209.651V48.4211Z" fill="#D09D66"/>
<path fill-rule="evenodd" clip-rule="evenodd" d="M213.683 48.4211H209.651V44.386H213.683V48.4211Z" fill="#D6A26A"/>
<path fill-rule="evenodd" clip-rule="evenodd" d="M217.714 48.4211H213.683V44.386H217.714V48.4211Z" fill="#D7A16D"/>
<path fill-rule="evenodd" clip-rule="evenodd" d="M221.746 44.386V52.4561H217.714V44.386H221.746ZM165.302 112.982H161.27V108.947H165.302V112.982ZM157.238 129.123H153.206V125.088H157.238V129.123Z" fill="#D8A46D"/>
<path fill-rule="evenodd" clip-rule="evenodd" d="M225.778 48.4211H221.746V44.386H225.778V48.4211Z" fill="#DA906B"/>
<path fill-rule="evenodd" clip-rule="evenodd" d="M233.841 48.4211H229.81V44.386H233.841V48.4211Z" fill="#F8747C"/>
<path fill-rule="evenodd" clip-rule="evenodd" d="M185.46 52.4561H181.429V48.4211H185.46V52.4561Z" fill="#C9955F"/>
<path fill-rule="evenodd" clip-rule="evenodd" d="M189.492 52.4561H185.46V48.4211H189.492V52.4561Z" fill="#CA9560"/>
<path fill-rule="evenodd" clip-rule="evenodd" d="M193.524 52.4561H189.492V48.4211H193.524V52.4561ZM217.714 76.6667H213.683V72.6316H217.714V76.6667ZM173.365 104.912H169.333V100.877H173.365V104.912Z" fill="#CF9A65"/>
<path fill-rule="evenodd" clip-rule="evenodd" d="M197.556 52.4561H193.524V48.4211H197.556V52.4561ZM209.651 121.053H205.619V117.018H209.651V121.053Z" fill="#D29D67"/>
<path fill-rule="evenodd" clip-rule="evenodd" d="M201.587 52.4561H197.556V48.4211H201.587V52.4561ZM169.333 161.404H165.302V157.368H169.333V161.404Z" fill="#D29D68"/>
<path fill-rule="evenodd" clip-rule="evenodd" d="M205.619 52.4561H201.587V48.4211H205.619V52.4561Z" fill="#D19C66"/>
<path fill-rule="evenodd" clip-rule="evenodd" d="M209.651 52.4561H205.619V48.4211H209.651V52.4561Z" fill="#CF9C66"/>
<path fill-rule="evenodd" clip-rule="evenodd" d="M213.683 52.4561H209.651V48.4211H213.683V52.4561ZM177.397 80.7018H173.365V76.6667H177.397V80.7018ZM165.302 121.053H161.27V117.018H165.302V121.053ZM169.333 173.509H165.302V169.474H169.333V173.509Z" fill="#D49F69"/>
<path fill-rule="evenodd" clip-rule="evenodd" d="M217.714 52.4561H213.683V48.4211H217.714V52.4561ZM165.302 165.439H161.27V161.404H165.302V165.439ZM161.27 169.474H157.238V165.439H161.27V169.474Z" fill="#D7A36C"/>
<path fill-rule="evenodd" clip-rule="evenodd" d="M225.778 52.4561H221.746V48.4211H225.778V52.4561Z" fill="#D9A06E"/>
<path fill-rule="evenodd" clip-rule="evenodd" d="M181.429 56.4912H177.397V52.4561H181.429V56.4912Z" fill="#C7945E"/>
<path fill-rule="evenodd" clip-rule="evenodd" d="M185.46 56.4912H181.429V52.4561H185.46V56.4912Z" fill="#C89660"/>
<path fill-rule="evenodd" clip-rule="evenodd" d="M193.524 56.4912H189.492V52.4561H193.524V56.4912ZM169.333 117.018H165.302V112.982H169.333V117.018ZM133.048 137.193H129.016V133.158H133.048V137.193ZM153.206 177.544H149.175V173.509H153.206V177.544Z" fill="#D49F6A"/>
<path fill-rule="evenodd" clip-rule="evenodd" d="M197.556 56.4912H193.524V52.4561H197.556V56.4912ZM149.175 133.158H145.143V129.123H149.175V133.158Z" fill="#D7A16B"/>
<path fill-rule="evenodd" clip-rule="evenodd" d="M201.587 56.4912H197.556V52.4561H201.587V56.4912ZM181.429 80.7018H177.397V76.6667H181.429V80.7018ZM177.397 121.053H173.365V117.018H177.397V121.053ZM161.27 133.158H157.238V129.123H161.27V133.158ZM145.143 169.474H141.111V165.439H145.143V169.474Z" fill="#D6A16B"/>
<path fill-rule="evenodd" clip-rule="evenodd" d="M205.619 56.4912H201.587V52.4561H205.619V56.4912ZM181.429 84.7368H177.397V80.7018H181.429V84.7368ZM185.46 121.053H181.429V117.018H185.46V121.053ZM201.587 125.088H197.556V121.053H201.587V125.088ZM149.175 161.404H145.143V157.368H149.175V161.404ZM165.302 173.509H161.27V169.474H165.302V173.509Z" fill="#D5A06B"/>
<path fill-rule="evenodd" clip-rule="evenodd" d="M209.651 56.4912H205.619V52.4561H209.651V56.4912ZM169.333 108.947H165.302V104.912H169.333V108.947ZM153.206 137.193H149.175V133.158H153.206V137.193ZM161.27 157.368H157.238V153.333H161.27V157.368ZM165.302 169.474H161.27V165.439H165.302V169.474Z" fill="#D6A16C"/>
<path fill-rule="evenodd" clip-rule="evenodd" d="M213.683 56.4912H209.651V52.4561H213.683V56.4912ZM229.81 80.7018H225.778V76.6667H229.81V80.7018ZM193.524 125.088H189.492V121.053H193.524V125.088Z" fill="#D8A36C"/>
<path fill-rule="evenodd" clip-rule="evenodd" d="M217.714 56.4912H213.683V52.4561H217.714V56.4912ZM177.397 84.7368H173.365V80.7018H177.397V84.7368ZM197.556 141.228H193.524V137.193H197.556V141.228ZM153.206 165.439H149.175V161.404H153.206V165.439Z" fill="#D9A46D"/>
<path fill-rule="evenodd" clip-rule="evenodd" d="M221.746 56.4912H217.714V52.4561H221.746V56.4912ZM197.556 60.5263H193.524V56.4912H197.556V60.5263ZM213.683 72.6316H209.651V68.5965H213.683V72.6316ZM153.206 125.088H149.175V121.053H153.206V125.088ZM189.492 125.088H185.46V121.053H189.492V125.088ZM133.048 129.123H129.016V125.088H133.048V129.123ZM149.175 165.439H145.143V161.404H149.175V165.439ZM161.27 165.439H157.238V161.404H161.27V165.439Z" fill="#D9A36D"/>
<path fill-rule="evenodd" clip-rule="evenodd" d="M225.778 56.4912H221.746V52.4561H225.778V56.4912ZM201.587 60.5263H197.556V56.4912H201.587V60.5263ZM193.524 64.5614H189.492V60.5263H193.524V64.5614Z" fill="#D9A36E"/>
<path fill-rule="evenodd" clip-rule="evenodd" d="M177.397 60.5263H173.365V56.4912H177.397V60.5263Z" fill="#C7925F"/>
<path fill-rule="evenodd" clip-rule="evenodd" d="M181.429 60.5263H177.397V56.4912H181.429V60.5263ZM181.429 108.947H177.397V104.912H181.429V108.947Z" fill="#C8945F"/>
<path fill-rule="evenodd" clip-rule="evenodd" d="M185.46 60.5263H181.429V56.4912H185.46V60.5263Z" fill="#CB9963"/>
<path fill-rule="evenodd" clip-rule="evenodd" d="M189.492 60.5263H185.46V56.4912H189.492V60.5263Z" fill="#D39E67"/>
<path fill-rule="evenodd" clip-rule="evenodd" d="M193.524 60.5263H189.492V56.4912H193.524V60.5263ZM165.302 117.018H161.27V112.982H165.302V117.018ZM161.27 121.053V129.123H157.238V121.053H161.27ZM197.556 125.088H193.524V121.053H197.556V125.088ZM133.048 133.158H124.984V129.123H133.048V133.158ZM181.429 133.158H177.397V129.123H181.429V133.158Z" fill="#D7A26C"/>
<path fill-rule="evenodd" clip-rule="evenodd" d="M205.619 60.5263H201.587V56.4912H205.619V60.5263ZM157.238 125.088H153.206V121.053H157.238V125.088ZM153.206 129.123H149.175V125.088H153.206V129.123ZM157.238 161.404H153.206V157.368H157.238V161.404Z" fill="#D8A36D"/>
<path fill-rule="evenodd" clip-rule="evenodd" d="M177.397 64.5614H173.365V60.5263H177.397V64.5614Z" fill="#C9945F"/>
<path fill-rule="evenodd" clip-rule="evenodd" d="M185.46 64.5614H181.429V60.5263H185.46V64.5614Z" fill="#D39F67"/>
<path fill-rule="evenodd" clip-rule="evenodd" d="M189.492 64.5614H185.46V60.5263H189.492V64.5614Z" fill="#D5A26B"/>
<path fill-rule="evenodd" clip-rule="evenodd" d="M173.365 68.5965H169.333V64.5614H173.365V68.5965Z" fill="#C6945C"/>
<path fill-rule="evenodd" clip-rule="evenodd" d="M177.397 68.5965H173.365V64.5614H177.397V68.5965ZM153.206 181.579H149.175V177.544H153.206V181.579Z" fill="#CF9C65"/>
<path fill-rule="evenodd" clip-rule="evenodd" d="M181.429 68.5965H177.397V64.5614H181.429V68.5965ZM173.365 173.509H169.333V169.474H173.365V173.509Z" fill="#CD9965"/>
<path fill-rule="evenodd" clip-rule="evenodd" d="M189.492 68.5965H185.46V64.5614H189.492V68.5965Z" fill="#54493E"/>
<path fill-rule="evenodd" clip-rule="evenodd" d="M221.746 68.5965H217.714V64.5614H221.746V68.5965Z" fill="#443F39"/>
<path fill-rule="evenodd" clip-rule="evenodd" d="M173.365 72.6316H169.333V68.5965H173.365V72.6316Z" fill="#C7945D"/>
<path fill-rule="evenodd" clip-rule="evenodd" d="M177.397 72.6316H173.365V68.5965H177.397V72.6316ZM213.683 117.018H209.651V112.982H213.683V117.018Z" fill="#CD9963"/>
<path fill-rule="evenodd" clip-rule="evenodd" d="M181.429 72.6316H177.397V68.5965H181.429V72.6316ZM141.111 145.263H137.079V141.228H141.111V145.263Z" fill="#D09C66"/>
<path fill-rule="evenodd" clip-rule="evenodd" d="M173.365 76.6667H169.333V72.6316H173.365V76.6667Z" fill="#C6935B"/>
<path fill-rule="evenodd" clip-rule="evenodd" d="M177.397 76.6667H173.365V72.6316H177.397V76.6667Z" fill="#CA9860"/>
<path fill-rule="evenodd" clip-rule="evenodd" d="M181.429 76.6667H177.397V72.6316H181.429V76.6667Z" fill="#CE9A66"/>
<path fill-rule="evenodd" clip-rule="evenodd" d="M185.46 76.6667H181.429V72.6316H185.46V76.6667Z" fill="#CB9761"/>
<path fill-rule="evenodd" clip-rule="evenodd" d="M189.492 76.6667H185.46V72.6316H189.492V76.6667Z" fill="#C7915D"/>
<path fill-rule="evenodd" clip-rule="evenodd" d="M193.524 76.6667H189.492V72.6316H193.524V76.6667Z" fill="#D19B68"/>
<path fill-rule="evenodd" clip-rule="evenodd" d="M213.683 76.6667H209.651V72.6316H213.683V76.6667Z" fill="#D39F69"/>
<path fill-rule="evenodd" clip-rule="evenodd" d="M221.746 76.6667H217.714V72.6316H221.746V76.6667Z" fill="#CE9B64"/>
<path fill-rule="evenodd" clip-rule="evenodd" d="M225.778 76.6667H221.746V72.6316H225.778V76.6667ZM181.429 117.018H177.397V112.982H181.429V117.018Z" fill="#D19E67"/>
<path fill-rule="evenodd" clip-rule="evenodd" d="M229.81 76.6667H225.778V72.6316H229.81V76.6667Z" fill="#D7A26B"/>
<path fill-rule="evenodd" clip-rule="evenodd" d="M185.46 80.7018H181.429V76.6667H185.46V80.7018Z" fill="#D19E69"/>
<path fill-rule="evenodd" clip-rule="evenodd" d="M189.492 80.7018H185.46V76.6667H189.492V80.7018Z" fill="#D3A069"/>
<path fill-rule="evenodd" clip-rule="evenodd" d="M193.524 80.7018H189.492V76.6667H193.524V80.7018ZM221.746 84.7368H217.714V80.7018H221.746V84.7368Z" fill="#D9A56E"/>
<path fill-rule="evenodd" clip-rule="evenodd" d="M197.556 80.7018H193.524V76.6667H197.556V80.7018Z" fill="#DBAB75"/>
<path fill-rule="evenodd" clip-rule="evenodd" d="M205.619 80.7018H197.556V76.6667H205.619V80.7018Z" fill="#2E271F"/>
<path fill-rule="evenodd" clip-rule="evenodd" d="M213.683 80.7018H209.651V76.6667H213.683V80.7018ZM169.333 177.544H165.302V173.509H169.333V177.544Z" fill="#D19D67"/>
<path fill-rule="evenodd" clip-rule="evenodd" d="M217.714 80.7018H213.683V76.6667H217.714V80.7018ZM189.492 121.053H185.46V117.018H189.492V121.053ZM129.016 137.193H124.984V133.158H129.016V137.193Z" fill="#D29D69"/>
<path fill-rule="evenodd" clip-rule="evenodd" d="M221.746 80.7018H217.714V76.6667H221.746V80.7018Z" fill="#D19E65"/>
<path fill-rule="evenodd" clip-rule="evenodd" d="M225.778 80.7018H221.746V76.6667H225.778V80.7018ZM173.365 117.018H169.333V112.982H173.365V117.018Z" fill="#D29E68"/>
<path fill-rule="evenodd" clip-rule="evenodd" d="M185.46 84.7368H181.429V80.7018H185.46V84.7368Z" fill="#D39E6A"/>
<path fill-rule="evenodd" clip-rule="evenodd" d="M189.492 84.7368H185.46V80.7018H189.492V84.7368Z" fill="#D8A973"/>
<path fill-rule="evenodd" clip-rule="evenodd" d="M197.556 84.7368H193.524V80.7018H197.556V84.7368Z" fill="#E3CA96"/>
<path fill-rule="evenodd" clip-rule="evenodd" d="M209.651 84.7368H205.619V80.7018H209.651V84.7368Z" fill="#DCC290"/>
<path fill-rule="evenodd" clip-rule="evenodd" d="M213.683 84.7368H209.651V80.7018H213.683V84.7368Z" fill="#DBB684"/>
<path fill-rule="evenodd" clip-rule="evenodd" d="M217.714 84.7368H213.683V80.7018H217.714V84.7368ZM217.714 92.807V84.7368H225.778V88.7719H221.746V92.807H217.714ZM217.714 92.807H209.651V96.8421H205.619V100.877H197.556V96.8421H193.524V92.807H185.46V84.7368H177.397V88.7719H181.429V92.807H185.46V96.8421H189.492V100.877H193.524V104.912H209.651V100.877H213.683V96.8421H217.714V92.807Z" fill="#D8AE78"/>
<path fill-rule="evenodd" clip-rule="evenodd" d="M205.619 88.7719H197.556V84.7368H205.619V88.7719ZM205.619 96.8421H201.587V92.807H205.619V96.8421Z" fill="#4E2E32"/>
<path fill-rule="evenodd" clip-rule="evenodd" d="M213.683 88.7719H209.651V84.7368H213.683V88.7719Z" fill="#1C1A19"/>
<path fill-rule="evenodd" clip-rule="evenodd" d="M197.556 92.807H193.524V88.7719H197.556V92.807ZM205.619 92.807H201.587V88.7719H205.619V92.807Z" fill="#5A2C32"/>
<path fill-rule="evenodd" clip-rule="evenodd" d="M201.587 92.807H197.556V88.7719H201.587V92.807Z" fill="#5D2D33"/>
<path fill-rule="evenodd" clip-rule="evenodd" d="M209.651 92.807H205.619V88.7719H209.651V92.807Z" fill="#5F2E34"/>
<path fill-rule="evenodd" clip-rule="evenodd" d="M181.429 96.8421H177.397V92.807H181.429V96.8421Z" fill="#B78451"/>
<path fill-rule="evenodd" clip-rule="evenodd" d="M201.587 96.8421H197.556V92.807H201.587V96.8421Z" fill="#D64556"/>
<path fill-rule="evenodd" clip-rule="evenodd" d="M177.397 100.877H173.365V96.8421H177.397V100.877Z" fill="#BF8C5A"/>
<path fill-rule="evenodd" clip-rule="evenodd" d="M181.429 100.877H177.397V96.8421H181.429V100.877Z" fill="#BB8A53"/>
<path fill-rule="evenodd" clip-rule="evenodd" d="M169.333 104.912H165.302V100.877H169.333V104.912ZM161.27 173.509H157.238V169.474H161.27V173.509Z" fill="#D5A16B"/>
<path fill-rule="evenodd" clip-rule="evenodd" d="M177.397 104.912H173.365V100.877H177.397V104.912Z" fill="#C89360"/>
<path fill-rule="evenodd" clip-rule="evenodd" d="M181.429 104.912H177.397V100.877H181.429V104.912Z" fill="#C48E5B"/>
<path fill-rule="evenodd" clip-rule="evenodd" d="M185.46 104.912H181.429V100.877H185.46V104.912Z" fill="#BD8A55"/>
<path fill-rule="evenodd" clip-rule="evenodd" d="M189.492 104.912H185.46V100.877H189.492V104.912ZM161.27 145.263H157.238V141.228H161.27V145.263ZM165.302 201.754H161.27V197.719H165.302V201.754Z" fill="#B78450"/>
<path fill-rule="evenodd" clip-rule="evenodd" d="M221.746 104.912H217.714V100.877H221.746V104.912Z" fill="#B68150"/>
<path fill-rule="evenodd" clip-rule="evenodd" d="M173.365 108.947H169.333V104.912H173.365V108.947Z" fill="#D39E68"/>
<path fill-rule="evenodd" clip-rule="evenodd" d="M177.397 108.947H173.365V104.912H177.397V108.947Z" fill="#CE9962"/>
<path fill-rule="evenodd" clip-rule="evenodd" d="M185.46 108.947H181.429V104.912H185.46V108.947Z" fill="#C38F5B"/>
<path fill-rule="evenodd" clip-rule="evenodd" d="M189.492 108.947H185.46V104.912H189.492V108.947Z" fill="#BE8856"/>
<path fill-rule="evenodd" clip-rule="evenodd" d="M217.714 108.947H213.683V104.912H217.714V108.947ZM181.429 177.544H177.397V173.509H181.429V177.544Z" fill="#BB8753"/>
<path fill-rule="evenodd" clip-rule="evenodd" d="M221.746 108.947H217.714V104.912H221.746V108.947ZM165.302 141.228H161.27V137.193H165.302V141.228Z" fill="#C18E5B"/>
<path fill-rule="evenodd" clip-rule="evenodd" d="M169.333 112.982H165.302V108.947H169.333V112.982ZM161.27 121.053H157.238V117.018H161.27V121.053Z" fill="#D5A06A"/>
<path fill-rule="evenodd" clip-rule="evenodd" d="M173.365 112.982H169.333V108.947H173.365V112.982Z" fill="#D49E6B"/>
<path fill-rule="evenodd" clip-rule="evenodd" d="M177.397 112.982H173.365V108.947H177.397V112.982ZM149.175 141.228H145.143V137.193H149.175V141.228Z" fill="#D09C67"/>
<path fill-rule="evenodd" clip-rule="evenodd" d="M181.429 112.982H177.397V108.947H181.429V112.982Z" fill="#CE9963"/>
<path fill-rule="evenodd" clip-rule="evenodd" d="M185.46 112.982H181.429V108.947H185.46V112.982Z" fill="#CB9661"/>
<path fill-rule="evenodd" clip-rule="evenodd" d="M189.492 112.982H185.46V108.947H189.492V112.982Z" fill="#C6905D"/>
<path fill-rule="evenodd" clip-rule="evenodd" d="M193.524 112.982H189.492V108.947H193.524V112.982Z" fill="#C18E5A"/>
<path fill-rule="evenodd" clip-rule="evenodd" d="M197.556 112.982H193.524V108.947H197.556V112.982Z" fill="#BF8C59"/>
<path fill-rule="evenodd" clip-rule="evenodd" d="M201.587 112.982H197.556V108.947H201.587V112.982Z" fill="#BE8D59"/>
<path fill-rule="evenodd" clip-rule="evenodd" d="M205.619 112.982H201.587V108.947H205.619V112.982Z" fill="#BD8A57"/>
<path fill-rule="evenodd" clip-rule="evenodd" d="M209.651 112.982H205.619V108.947H209.651V112.982Z" fill="#BF8A55"/>
<path fill-rule="evenodd" clip-rule="evenodd" d="M213.683 112.982H209.651V108.947H213.683V112.982Z" fill="#C28D59"/>
<path fill-rule="evenodd" clip-rule="evenodd" d="M217.714 112.982H213.683V108.947H217.714V112.982ZM181.429 161.404H177.397V157.368H181.429V161.404Z" fill="#C5915C"/>
<path fill-rule="evenodd" clip-rule="evenodd" d="M221.746 112.982H217.714V108.947H221.746V112.982Z" fill="#C8935F"/>
<path fill-rule="evenodd" clip-rule="evenodd" d="M157.238 117.018H153.206V112.982H157.238V117.018ZM141.111 125.088H133.048V121.053H141.111V125.088ZM185.46 125.088H181.429V121.053H185.46V125.088ZM201.587 133.158H197.556V129.123H201.587V133.158ZM153.206 161.404H149.175V157.368H153.206V161.404Z" fill="#D8A46E"/>
<path fill-rule="evenodd" clip-rule="evenodd" d="M161.27 117.018H157.238V112.982H161.27V117.018ZM157.238 173.509H153.206V169.474H157.238V173.509Z" fill="#D6A26C"/>
<path fill-rule="evenodd" clip-rule="evenodd" d="M177.397 117.018H173.365V112.982H177.397V117.018Z" fill="#D4A069"/>
<path fill-rule="evenodd" clip-rule="evenodd" d="M185.46 117.018H181.429V112.982H185.46V117.018Z" fill="#CF9A66"/>
<path fill-rule="evenodd" clip-rule="evenodd" d="M189.492 117.018H185.46V112.982H189.492V117.018Z" fill="#CB9561"/>
<path fill-rule="evenodd" clip-rule="evenodd" d="M193.524 117.018H189.492V112.982H193.524V117.018Z" fill="#C89562"/>
<path fill-rule="evenodd" clip-rule="evenodd" d="M197.556 117.018H193.524V112.982H197.556V117.018Z" fill="#C6915E"/>
<path fill-rule="evenodd" clip-rule="evenodd" d="M201.587 117.018H197.556V112.982H201.587V117.018Z" fill="#C5905D"/>
<path fill-rule="evenodd" clip-rule="evenodd" d="M205.619 117.018H201.587V112.982H205.619V117.018Z" fill="#C7925E"/>
<path fill-rule="evenodd" clip-rule="evenodd" d="M217.714 117.018H213.683V112.982H217.714V117.018Z" fill="#CE9A64"/>
<path fill-rule="evenodd" clip-rule="evenodd" d="M221.746 117.018H217.714V112.982H221.746V117.018Z" fill="#CF9C64"/>
<path fill-rule="evenodd" clip-rule="evenodd" d="M157.238 121.053H153.206V117.018H157.238V121.053Z" fill="#D8A36E"/>
<path fill-rule="evenodd" clip-rule="evenodd" d="M169.333 121.053H165.302V117.018H169.333V121.053Z" fill="#D49E69"/>
<path fill-rule="evenodd" clip-rule="evenodd" d="M181.429 121.053H177.397V117.018H181.429V121.053ZM137.079 129.123H133.048V125.088H137.079V129.123Z" fill="#D8A16D"/>
<path fill-rule="evenodd" clip-rule="evenodd" d="M197.556 121.053H189.492V117.018H197.556V121.053Z" fill="#D09B66"/>
<path fill-rule="evenodd" clip-rule="evenodd" d="M201.587 121.053H197.556V117.018H201.587V121.053Z" fill="#CE9864"/>
<path fill-rule="evenodd" clip-rule="evenodd" d="M205.619 121.053H201.587V117.018H205.619V121.053Z" fill="#CF9B66"/>
<path fill-rule="evenodd" clip-rule="evenodd" d="M213.683 121.053H209.651V117.018H213.683V121.053Z" fill="#D4A16B"/>
<path fill-rule="evenodd" clip-rule="evenodd" d="M217.714 121.053H213.683V117.018H217.714V121.053Z" fill="#D7A56F"/>
<path fill-rule="evenodd" clip-rule="evenodd" d="M221.746 121.053H217.714V117.018H221.746V121.053Z" fill="#D9A773"/>
<path fill-rule="evenodd" clip-rule="evenodd" d="M145.143 125.088H141.111V121.053H145.143V125.088ZM209.651 129.123H205.619V125.088H209.651V129.123ZM153.206 169.474H149.175V165.439H153.206V169.474Z" fill="#D7A36D"/>
<path fill-rule="evenodd" clip-rule="evenodd" d="M149.175 125.088H145.143V121.053H149.175V125.088ZM157.238 165.439H153.206V161.404H157.238V165.439Z" fill="#D7A26E"/>
<path fill-rule="evenodd" clip-rule="evenodd" d="M165.302 125.088H161.27V121.053H165.302V125.088ZM141.111 129.123H137.079V125.088H141.111V129.123ZM145.143 165.439H141.111V161.404H145.143V165.439Z" fill="#D5A16C"/>
<path fill-rule="evenodd" clip-rule="evenodd" d="M169.333 125.088H165.302V121.053H169.333V125.088Z" fill="#D09D68"/>
<path fill-rule="evenodd" clip-rule="evenodd" d="M177.397 125.088H173.365V121.053H177.397V125.088ZM165.302 161.404H161.27V157.368H165.302V161.404Z" fill="#D4A16A"/>
<path fill-rule="evenodd" clip-rule="evenodd" d="M205.619 125.088H201.587V121.053H205.619V125.088Z" fill="#D4A06A"/>
<path fill-rule="evenodd" clip-rule="evenodd" d="M209.651 125.088H205.619V121.053H209.651V125.088Z" fill="#D6A16D"/>
<path fill-rule="evenodd" clip-rule="evenodd" d="M213.683 125.088H209.651V121.053H213.683V125.088Z" fill="#D8A771"/>
<path fill-rule="evenodd" clip-rule="evenodd" d="M217.714 125.088H213.683V121.053H217.714V125.088Z" fill="#DCAD7C"/>
<path fill-rule="evenodd" clip-rule="evenodd" d="M221.746 125.088H217.714V121.053H221.746V125.088Z" fill="#E3BB8E"/>
<path fill-rule="evenodd" clip-rule="evenodd" d="M124.984 129.123H120.952V125.088H124.984V129.123ZM149.175 129.123H145.143V125.088H149.175V129.123Z" fill="#D6A26D"/>
<path fill-rule="evenodd" clip-rule="evenodd" d="M145.143 129.123H141.111V125.088H145.143V129.123Z" fill="#D6A26B"/>
<path fill-rule="evenodd" clip-rule="evenodd" d="M165.302 129.123H161.27V125.088H165.302V129.123Z" fill="#D19D68"/>
<path fill-rule="evenodd" clip-rule="evenodd" d="M169.333 129.123H165.302V125.088H169.333V129.123Z" fill="#C9945E"/>
<path fill-rule="evenodd" clip-rule="evenodd" d="M177.397 129.123H173.365V125.088H177.397V129.123Z" fill="#D39E69"/>
<path fill-rule="evenodd" clip-rule="evenodd" d="M201.587 129.123H197.556V125.088H201.587V129.123Z" fill="#D8A46C"/>
<path fill-rule="evenodd" clip-rule="evenodd" d="M205.619 129.123H201.587V125.088H205.619V129.123ZM149.175 169.474H145.143V165.439H149.175V169.474Z" fill="#D8A26D"/>
<path fill-rule="evenodd" clip-rule="evenodd" d="M213.683 129.123H209.651V125.088H213.683V129.123Z" fill="#DBA975"/>
<path fill-rule="evenodd" clip-rule="evenodd" d="M217.714 129.123H213.683V125.088H217.714V129.123Z" fill="#E1B98B"/>
<path fill-rule="evenodd" clip-rule="evenodd" d="M221.746 129.123H217.714V125.088H221.746V129.123Z" fill="#E9CCA6"/>
<path fill-rule="evenodd" clip-rule="evenodd" d="M124.984 133.158H120.952V129.123H124.984V133.158Z" fill="#D49E6C"/>
<path fill-rule="evenodd" clip-rule="evenodd" d="M137.079 133.158H133.048V129.123H137.079V133.158Z" fill="#D59F6C"/>
<path fill-rule="evenodd" clip-rule="evenodd" d="M141.111 133.158H137.079V129.123H141.111V133.158Z" fill="#D4A06C"/>
<path fill-rule="evenodd" clip-rule="evenodd" d="M145.143 133.158H141.111V129.123H145.143V133.158ZM153.206 157.368H149.175V153.333H153.206V157.368Z" fill="#D7A16C"/>
<path fill-rule="evenodd" clip-rule="evenodd" d="M153.206 133.158H149.175V129.123H153.206V133.158Z" fill="#D8A26E"/>
<path fill-rule="evenodd" clip-rule="evenodd" d="M157.238 133.158H153.206V129.123H157.238V133.158Z" fill="#D7A46E"/>
<path fill-rule="evenodd" clip-rule="evenodd" d="M165.302 133.158H161.27V129.123H165.302V133.158Z" fill="#CC9563"/>
<path fill-rule="evenodd" clip-rule="evenodd" d="M169.333 133.158H165.302V129.123H169.333V133.158Z" fill="#BE8B58"/>
<path fill-rule="evenodd" clip-rule="evenodd" d="M173.365 133.158H169.333V129.123H173.365V133.158ZM181.429 173.509H177.397V169.474H181.429V173.509Z" fill="#BF8D59"/>
<path fill-rule="evenodd" clip-rule="evenodd" d="M205.619 133.158H201.587V129.123H205.619V133.158Z" fill="#D8A671"/>
<path fill-rule="evenodd" clip-rule="evenodd" d="M209.651 133.158H205.619V129.123H209.651V133.158Z" fill="#D9A673"/>
<path fill-rule="evenodd" clip-rule="evenodd" d="M213.683 133.158H209.651V129.123H213.683V133.158Z" fill="#DEAF7D"/>
<path fill-rule="evenodd" clip-rule="evenodd" d="M217.714 133.158H213.683V129.123H217.714V133.158Z" fill="#E6C59B"/>
<path fill-rule="evenodd" clip-rule="evenodd" d="M221.746 133.158H217.714V129.123H221.746V133.158Z" fill="#EEDAB7"/>
<path fill-rule="evenodd" clip-rule="evenodd" d="M120.952 137.193H116.921V133.158H120.952V137.193ZM120.952 145.263H116.921V141.228H120.952V145.263ZM120.952 165.439H116.921V161.404H120.952V165.439Z" fill="#CB9864"/>
<path fill-rule="evenodd" clip-rule="evenodd" d="M124.984 137.193H120.952V133.158H124.984V137.193Z" fill="#D29F69"/>
<path fill-rule="evenodd" clip-rule="evenodd" d="M137.079 137.193H133.048V133.158H137.079V137.193Z" fill="#D59F6B"/>
<path fill-rule="evenodd" clip-rule="evenodd" d="M141.111 137.193H137.079V133.158H141.111V137.193Z" fill="#D39E6C"/>
<path fill-rule="evenodd" clip-rule="evenodd" d="M145.143 137.193H141.111V133.158H145.143V137.193ZM149.175 173.509H145.143V169.474H149.175V173.509Z" fill="#D4A06B"/>
<path fill-rule="evenodd" clip-rule="evenodd" d="M149.175 137.193H145.143V133.158H149.175V137.193Z" fill="#D5A06C"/>
<path fill-rule="evenodd" clip-rule="evenodd" d="M157.238 137.193H153.206V133.158H157.238V137.193ZM133.048 137.193V145.263H129.016V137.193H133.048ZM141.111 141.228H137.079V137.193H141.111V141.228ZM141.111 169.474H137.079V165.439H141.111V169.474Z" fill="#D29E6A"/>
<path fill-rule="evenodd" clip-rule="evenodd" d="M161.27 137.193H157.238V133.158H161.27V137.193ZM173.365 161.404H169.333V157.368H173.365V161.404Z" fill="#CF9965"/>
<path fill-rule="evenodd" clip-rule="evenodd" d="M165.302 137.193H161.27V133.158H165.302V137.193Z" fill="#C6925D"/>
<path fill-rule="evenodd" clip-rule="evenodd" d="M169.333 137.193H165.302V133.158H169.333V137.193Z" fill="#B88550"/>
<path fill-rule="evenodd" clip-rule="evenodd" d="M173.365 137.193H169.333V133.158H173.365V137.193Z" fill="#B58451"/>
<path fill-rule="evenodd" clip-rule="evenodd" d="M177.397 133.158V141.228H173.365V133.158H177.397Z" fill="#B68350"/>
<path fill-rule="evenodd" clip-rule="evenodd" d="M201.587 137.193H197.556V133.158H201.587V137.193Z" fill="#D9A571"/>
<path fill-rule="evenodd" clip-rule="evenodd" d="M205.619 137.193H201.587V133.158H205.619V137.193Z" fill="#DAA674"/>
<path fill-rule="evenodd" clip-rule="evenodd" d="M209.651 137.193H205.619V133.158H209.651V137.193Z" fill="#DBAC78"/>
<path fill-rule="evenodd" clip-rule="evenodd" d="M213.683 137.193H209.651V133.158H213.683V137.193Z" fill="#DFB787"/>
<path fill-rule="evenodd" clip-rule="evenodd" d="M217.714 137.193H213.683V133.158H217.714V137.193Z" fill="#E9CEA9"/>
<path fill-rule="evenodd" clip-rule="evenodd" d="M221.746 137.193H217.714V133.158H221.746V137.193Z" fill="#F0DCBA"/>
<path fill-rule="evenodd" clip-rule="evenodd" d="M120.952 141.228H116.921V137.193H120.952V141.228Z" fill="#CB9766"/>
<path fill-rule="evenodd" clip-rule="evenodd" d="M124.984 141.228H120.952V137.193H124.984V141.228Z" fill="#CF9C68"/>
<path fill-rule="evenodd" clip-rule="evenodd" d="M129.016 141.228H124.984V137.193H129.016V141.228Z" fill="#CE9B67"/>
<path fill-rule="evenodd" clip-rule="evenodd" d="M137.079 141.228H133.048V137.193H137.079V141.228Z" fill="#D29E6B"/>
<path fill-rule="evenodd" clip-rule="evenodd" d="M145.143 141.228H141.111V137.193H145.143V141.228Z" fill="#D29F6A"/>
<path fill-rule="evenodd" clip-rule="evenodd" d="M153.206 141.228H149.175V137.193H153.206V141.228ZM177.397 161.404H173.365V157.368H177.397V161.404Z" fill="#CB9763"/>
<path fill-rule="evenodd" clip-rule="evenodd" d="M157.238 141.228H153.206V137.193H157.238V141.228Z" fill="#C99562"/>
<path fill-rule="evenodd" clip-rule="evenodd" d="M161.27 141.228H157.238V137.193H161.27V141.228Z" fill="#C6925E"/>
<path fill-rule="evenodd" clip-rule="evenodd" d="M169.333 141.228H165.302V137.193H169.333V141.228Z" fill="#B6844F"/>
<path fill-rule="evenodd" clip-rule="evenodd" d="M173.365 141.228H169.333V137.193H173.365V141.228Z" fill="#B78350"/>
<path fill-rule="evenodd" clip-rule="evenodd" d="M181.429 141.228H177.397V137.193H181.429V141.228Z" fill="#B5814E"/>
<path fill-rule="evenodd" clip-rule="evenodd" d="M185.46 137.193V141.228H189.492V149.298H177.397V141.228H181.429V137.193H185.46ZM185.46 177.544V189.649H181.429V177.544H185.46ZM181.429 189.649H173.365V197.719H181.429V189.649ZM193.524 193.684H185.46V189.649H193.524V193.684ZM161.27 205.789H157.238V201.754H161.27V205.789ZM169.333 205.789H165.302V201.754H169.333V205.789Z" fill="#B4814E"/>
<path fill-rule="evenodd" clip-rule="evenodd" d="M201.587 141.228H197.556V137.193H201.587V141.228Z" fill="#DBA774"/>
<path fill-rule="evenodd" clip-rule="evenodd" d="M205.619 141.228H201.587V137.193H205.619V141.228Z" fill="#DCAA79"/>
<path fill-rule="evenodd" clip-rule="evenodd" d="M209.651 141.228H205.619V137.193H209.651V141.228Z" fill="#DEB07E"/>
<path fill-rule="evenodd" clip-rule="evenodd" d="M213.683 141.228H209.651V137.193H213.683V141.228Z" fill="#E6C397"/>
<path fill-rule="evenodd" clip-rule="evenodd" d="M217.714 141.228H213.683V137.193H217.714V141.228Z" fill="#EED8B4"/>
<path fill-rule="evenodd" clip-rule="evenodd" d="M221.746 141.228H217.714V137.193H221.746V141.228Z" fill="#F0DEBD"/>
<path fill-rule="evenodd" clip-rule="evenodd" d="M124.984 145.263H120.952V141.228H124.984V145.263Z" fill="#CC9A66"/>
<path fill-rule="evenodd" clip-rule="evenodd" d="M129.016 145.263H124.984V141.228H129.016V145.263Z" fill="#D09B68"/>
<path fill-rule="evenodd" clip-rule="evenodd" d="M137.079 145.263H133.048V141.228H137.079V145.263Z" fill="#D19C68"/>
<path fill-rule="evenodd" clip-rule="evenodd" d="M145.143 145.263H141.111V141.228H145.143V145.263ZM133.048 153.333H129.016V149.298H133.048V153.333Z" fill="#CD9864"/>
<path fill-rule="evenodd" clip-rule="evenodd" d="M149.175 145.263H145.143V141.228H149.175V145.263Z" fill="#C5925C"/>
<path fill-rule="evenodd" clip-rule="evenodd" d="M153.206 145.263H149.175V141.228H153.206V145.263Z" fill="#BC8755"/>
<path fill-rule="evenodd" clip-rule="evenodd" d="M157.238 145.263H153.206V141.228H157.238V145.263ZM177.397 189.649H173.365V185.614H177.397V189.649Z" fill="#B78552"/>
<path fill-rule="evenodd" clip-rule="evenodd" d="M165.302 145.263H161.27V141.228H165.302V145.263Z" fill="#B6834E"/>
<path fill-rule="evenodd" clip-rule="evenodd" d="M169.333 145.263H165.302V141.228H169.333V145.263Z" fill="#B6824F"/>
<path fill-rule="evenodd" clip-rule="evenodd" d="M173.365 145.263H169.333V141.228H173.365V145.263Z" fill="#B5824E"/>
<path fill-rule="evenodd" clip-rule="evenodd" d="M177.397 145.263H173.365V141.228H177.397V145.263ZM173.365 197.719H169.333V193.684H173.365V197.719ZM169.333 201.754H165.302V197.719H169.333V201.754Z" fill="#B4814F"/>
<path fill-rule="evenodd" clip-rule="evenodd" d="M197.556 145.263H193.524V141.228H197.556V145.263Z" fill="#D8A56E"/>
<path fill-rule="evenodd" clip-rule="evenodd" d="M201.587 145.263H197.556V141.228H201.587V145.263Z" fill="#DCAA76"/>
<path fill-rule="evenodd" clip-rule="evenodd" d="M205.619 145.263H201.587V141.228H205.619V145.263Z" fill="#DFB182"/>
<path fill-rule="evenodd" clip-rule="evenodd" d="M209.651 145.263H205.619V141.228H209.651V145.263Z" fill="#E5BC90"/>
<path fill-rule="evenodd" clip-rule="evenodd" d="M213.683 145.263H209.651V141.228H213.683V145.263Z" fill="#EAD2AB"/>
<path fill-rule="evenodd" clip-rule="evenodd" d="M217.714 145.263H213.683V141.228H217.714V145.263Z" fill="#EFDDBB"/>
<path fill-rule="evenodd" clip-rule="evenodd" d="M221.746 145.263H217.714V141.228H221.746V145.263Z" fill="#F1DFBF"/>
<path fill-rule="evenodd" clip-rule="evenodd" d="M120.952 149.298H116.921V145.263H120.952V149.298Z" fill="#CB9765"/>
<path fill-rule="evenodd" clip-rule="evenodd" d="M124.984 149.298H120.952V145.263H124.984V149.298ZM145.143 177.544H141.111V173.509H145.143V177.544Z" fill="#CE9966"/>
<path fill-rule="evenodd" clip-rule="evenodd" d="M129.016 149.298H124.984V145.263H129.016V149.298Z" fill="#CE9B69"/>
<path fill-rule="evenodd" clip-rule="evenodd" d="M133.048 149.298H129.016V145.263H133.048V149.298Z" fill="#CF9D68"/>
<path fill-rule="evenodd" clip-rule="evenodd" d="M137.079 149.298H133.048V145.263H137.079V149.298Z" fill="#CC9865"/>
<path fill-rule="evenodd" clip-rule="evenodd" d="M141.111 149.298H137.079V145.263H141.111V149.298Z" fill="#C79460"/>
<path fill-rule="evenodd" clip-rule="evenodd" d="M145.143 149.298H141.111V145.263H145.143V149.298Z" fill="#BF8C58"/>
<path fill-rule="evenodd" clip-rule="evenodd" d="M149.175 149.298H145.143V145.263H149.175V149.298Z" fill="#B98753"/>
<path fill-rule="evenodd" clip-rule="evenodd" d="M153.206 149.298H149.175V145.263H153.206V149.298Z" fill="#B6834F"/>
<path fill-rule="evenodd" clip-rule="evenodd" d="M157.238 149.298H153.206V145.263H157.238V149.298Z" fill="#B48250"/>
<path fill-rule="evenodd" clip-rule="evenodd" d="M197.556 149.298H193.524V145.263H197.556V149.298Z" fill="#DAA975"/>
<path fill-rule="evenodd" clip-rule="evenodd" d="M201.587 149.298H197.556V145.263H201.587V149.298Z" fill="#DFB281"/>
<path fill-rule="evenodd" clip-rule="evenodd" d="M205.619 149.298H201.587V145.263H205.619V149.298Z" fill="#E3BB93"/>
<path fill-rule="evenodd" clip-rule="evenodd" d="M209.651 149.298H205.619V145.263H209.651V149.298Z" fill="#E9CAA0"/>
<path fill-rule="evenodd" clip-rule="evenodd" d="M213.683 149.298H209.651V145.263H213.683V149.298Z" fill="#EDD7B3"/>
<path fill-rule="evenodd" clip-rule="evenodd" d="M217.714 149.298H213.683V145.263H217.714V149.298ZM205.619 169.474H201.587V165.439H205.619V169.474Z" fill="#F0DDBA"/>
<path fill-rule="evenodd" clip-rule="evenodd" d="M221.746 149.298H217.714V145.263H221.746V149.298ZM217.714 157.368H213.683V153.333H217.714V157.368ZM209.651 177.544H205.619V173.509H209.651V177.544Z" fill="#F2E1BE"/>
<path fill-rule="evenodd" clip-rule="evenodd" d="M116.921 153.333H112.889V149.298H116.921V153.333Z" fill="#C69461"/>
<path fill-rule="evenodd" clip-rule="evenodd" d="M120.952 153.333H116.921V149.298H120.952V153.333Z" fill="#CB9965"/>
<path fill-rule="evenodd" clip-rule="evenodd" d="M124.984 153.333H120.952V149.298H124.984V153.333Z" fill="#CF9A68"/>
<path fill-rule="evenodd" clip-rule="evenodd" d="M129.016 153.333H124.984V149.298H129.016V153.333ZM124.984 161.404H120.952V157.368H124.984V161.404Z" fill="#CD9966"/>
<path fill-rule="evenodd" clip-rule="evenodd" d="M137.079 153.333H133.048V149.298H137.079V153.333ZM177.397 157.368H173.365V153.333H177.397V157.368Z" fill="#C6925F"/>
<path fill-rule="evenodd" clip-rule="evenodd" d="M141.111 153.333H137.079V149.298H141.111V153.333Z" fill="#C28F59"/>
<path fill-rule="evenodd" clip-rule="evenodd" d="M145.143 153.333H141.111V149.298H145.143V153.333Z" fill="#B88653"/>
<path fill-rule="evenodd" clip-rule="evenodd" d="M149.175 153.333H145.143V149.298H149.175V153.333ZM189.492 153.333H185.46V149.298H189.492V153.333Z" fill="#B4824F"/>
<path fill-rule="evenodd" clip-rule="evenodd" d="M169.333 153.333H165.302V149.298H169.333V153.333Z" fill="#D39D67"/>
<path fill-rule="evenodd" clip-rule="evenodd" d="M173.365 153.333H169.333V149.298H173.365V153.333Z" fill="#C6935E"/>
<path fill-rule="evenodd" clip-rule="evenodd" d="M177.397 153.333H173.365V149.298H177.397V153.333Z" fill="#BA8652"/>
<path fill-rule="evenodd" clip-rule="evenodd" d="M185.46 153.333H181.429V149.298H185.46V153.333Z" fill="#B5814F"/>
<path fill-rule="evenodd" clip-rule="evenodd" d="M197.556 153.333H193.524V149.298H197.556V153.333Z" fill="#DEB282"/>
<path fill-rule="evenodd" clip-rule="evenodd" d="M201.587 153.333H197.556V149.298H201.587V153.333Z" fill="#E5C196"/>
<path fill-rule="evenodd" clip-rule="evenodd" d="M205.619 153.333H201.587V149.298H205.619V153.333Z" fill="#E6C79E"/>
<path fill-rule="evenodd" clip-rule="evenodd" d="M209.651 153.333H205.619V149.298H209.651V153.333Z" fill="#EDD3B0"/>
<path fill-rule="evenodd" clip-rule="evenodd" d="M213.683 153.333H209.651V149.298H213.683V153.333Z" fill="#EFDAB7"/>
<path fill-rule="evenodd" clip-rule="evenodd" d="M217.714 153.333H213.683V149.298H217.714V153.333Z" fill="#F2DFBD"/>
<path fill-rule="evenodd" clip-rule="evenodd" d="M221.746 149.298V157.368H217.714V149.298H221.746ZM217.714 157.368V173.509H213.683V181.579H209.651V185.614H189.492V181.579H205.619V177.544H209.651V173.509H205.619V169.474H209.651V165.439H213.683V157.368H217.714Z" fill="#F2E1BF"/>
<path fill-rule="evenodd" clip-rule="evenodd" d="M116.921 157.368H112.889V153.333H116.921V157.368Z" fill="#C3925F"/>
<path fill-rule="evenodd" clip-rule="evenodd" d="M120.952 157.368H116.921V153.333H120.952V157.368Z" fill="#CB9866"/>
<path fill-rule="evenodd" clip-rule="evenodd" d="M124.984 157.368H120.952V153.333H124.984V157.368Z" fill="#CD9A67"/>
<path fill-rule="evenodd" clip-rule="evenodd" d="M129.016 157.368H124.984V153.333H129.016V157.368Z" fill="#CC9A67"/>
<path fill-rule="evenodd" clip-rule="evenodd" d="M133.048 157.368H129.016V153.333H133.048V157.368ZM177.397 165.439H173.365V161.404H177.397V165.439Z" fill="#CC9864"/>
<path fill-rule="evenodd" clip-rule="evenodd" d="M137.079 157.368H133.048V153.333H137.079V157.368Z" fill="#CA9561"/>
<path fill-rule="evenodd" clip-rule="evenodd" d="M141.111 157.368H137.079V153.333H141.111V157.368Z" fill="#C79360"/>
<path fill-rule="evenodd" clip-rule="evenodd" d="M157.238 157.368H153.206V153.333H157.238V157.368Z" fill="#D9A36C"/>
<path fill-rule="evenodd" clip-rule="evenodd" d="M165.302 157.368H161.27V153.333H165.302V157.368Z" fill="#D59E6B"/>
<path fill-rule="evenodd" clip-rule="evenodd" d="M169.333 157.368H165.302V153.333H169.333V157.368Z" fill="#D39D69"/>
<path fill-rule="evenodd" clip-rule="evenodd" d="M173.365 157.368H169.333V153.333H173.365V157.368ZM169.333 181.579H165.302V177.544H169.333V181.579Z" fill="#CC9863"/>
<path fill-rule="evenodd" clip-rule="evenodd" d="M181.429 157.368H177.397V153.333H181.429V157.368Z" fill="#BE8A55"/>
<path fill-rule="evenodd" clip-rule="evenodd" d="M193.524 157.368H189.492V153.333H193.524V157.368Z" fill="#DEAD7B"/>
<path fill-rule="evenodd" clip-rule="evenodd" d="M197.556 157.368H193.524V153.333H197.556V157.368Z" fill="#E3BC8F"/>
<path fill-rule="evenodd" clip-rule="evenodd" d="M201.587 157.368H197.556V153.333H201.587V157.368Z" fill="#EBCFA8"/>
<path fill-rule="evenodd" clip-rule="evenodd" d="M205.619 157.368H201.587V153.333H205.619V157.368Z" fill="#EBD0A9"/>
<path fill-rule="evenodd" clip-rule="evenodd" d="M209.651 157.368H205.619V153.333H209.651V157.368Z" fill="#EFD8B4"/>
<path fill-rule="evenodd" clip-rule="evenodd" d="M213.683 157.368H209.651V153.333H213.683V157.368Z" fill="#EFDFBB"/>
<path fill-rule="evenodd" clip-rule="evenodd" d="M116.921 161.404H112.889V157.368H116.921V161.404Z" fill="#C0915D"/>
<path fill-rule="evenodd" clip-rule="evenodd" d="M120.952 161.404H116.921V157.368H120.952V161.404Z" fill="#CB9966"/>
<path fill-rule="evenodd" clip-rule="evenodd" d="M129.016 161.404H124.984V157.368H129.016V161.404Z" fill="#CC9966"/>
<path fill-rule="evenodd" clip-rule="evenodd" d="M133.048 161.404H129.016V157.368H133.048V161.404Z" fill="#CA9763"/>
<path fill-rule="evenodd" clip-rule="evenodd" d="M137.079 161.404H133.048V157.368H137.079V161.404Z" fill="#CA9564"/>
<path fill-rule="evenodd" clip-rule="evenodd" d="M161.27 161.404H157.238V157.368H161.27V161.404Z" fill="#D7A26D"/>
<path fill-rule="evenodd" clip-rule="evenodd" d="M185.46 161.404H181.429V157.368H185.46V161.404Z" fill="#BA8853"/>
<path fill-rule="evenodd" clip-rule="evenodd" d="M193.524 161.404H189.492V157.368H193.524V161.404Z" fill="#E1BA8B"/>
<path fill-rule="evenodd" clip-rule="evenodd" d="M197.556 161.404H193.524V157.368H197.556V161.404Z" fill="#E4C197"/>
<path fill-rule="evenodd" clip-rule="evenodd" d="M201.587 161.404H197.556V157.368H201.587V161.404Z" fill="#ECD1AB"/>
<path fill-rule="evenodd" clip-rule="evenodd" d="M205.619 161.404H201.587V157.368H205.619V161.404Z" fill="#EED6B1"/>
<path fill-rule="evenodd" clip-rule="evenodd" d="M209.651 161.404H205.619V157.368H209.651V161.404Z" fill="#F0DEBA"/>
<path fill-rule="evenodd" clip-rule="evenodd" d="M213.683 161.404H209.651V157.368H213.683V161.404Z" fill="#F2E0BE"/>
<path fill-rule="evenodd" clip-rule="evenodd" d="M116.921 165.439H112.889V161.404H116.921V165.439Z" fill="#C38F5E"/>
<path fill-rule="evenodd" clip-rule="evenodd" d="M124.984 165.439H120.952V161.404H124.984V165.439Z" fill="#C69262"/>
<path fill-rule="evenodd" clip-rule="evenodd" d="M129.016 165.439H124.984V161.404H129.016V165.439Z" fill="#C4925F"/>
<path fill-rule="evenodd" clip-rule="evenodd" d="M133.048 165.439H129.016V161.404H133.048V165.439Z" fill="#C69363"/>
<path fill-rule="evenodd" clip-rule="evenodd" d="M137.079 165.439H133.048V161.404H137.079V165.439Z" fill="#C49160"/>
<path fill-rule="evenodd" clip-rule="evenodd" d="M141.111 165.439H137.079V161.404H141.111V165.439Z" fill="#CA9865"/>
<path fill-rule="evenodd" clip-rule="evenodd" d="M169.333 165.439H165.302V161.404H169.333V165.439Z" fill="#D29D6A"/>
<path fill-rule="evenodd" clip-rule="evenodd" d="M173.365 165.439H169.333V161.404H173.365V165.439ZM161.27 181.579H157.238V177.544H161.27V181.579Z" fill="#D19C67"/>
<path fill-rule="evenodd" clip-rule="evenodd" d="M181.429 165.439H177.397V161.404H181.429V165.439Z" fill="#C48F5D"/>
<path fill-rule="evenodd" clip-rule="evenodd" d="M185.46 165.439H181.429V161.404H185.46V165.439Z" fill="#BB8954"/>
<path fill-rule="evenodd" clip-rule="evenodd" d="M189.492 165.439H185.46V161.404H189.492V165.439Z" fill="#BF8E5C"/>
<path fill-rule="evenodd" clip-rule="evenodd" d="M197.556 165.439H193.524V161.404H197.556V165.439Z" fill="#E7C69E"/>
<path fill-rule="evenodd" clip-rule="evenodd" d="M201.587 165.439H197.556V161.404H201.587V165.439Z" fill="#EDD4B0"/>
<path fill-rule="evenodd" clip-rule="evenodd" d="M205.619 165.439H201.587V161.404H205.619V165.439Z" fill="#EFD9B5"/>
<path fill-rule="evenodd" clip-rule="evenodd" d="M209.651 165.439H205.619V161.404H209.651V165.439Z" fill="#F2E0BC"/>
<path fill-rule="evenodd" clip-rule="evenodd" d="M213.683 165.439H209.651V161.404H213.683V165.439Z" fill="#F1E1BF"/>
<path fill-rule="evenodd" clip-rule="evenodd" d="M116.921 169.474H112.889V165.439H116.921V169.474Z" fill="#BE8B5D"/>
<path fill-rule="evenodd" clip-rule="evenodd" d="M120.952 169.474H116.921V165.439H120.952V169.474ZM161.27 189.649H157.238V185.614H161.27V189.649Z" fill="#C59260"/>
<path fill-rule="evenodd" clip-rule="evenodd" d="M124.984 169.474H120.952V165.439H124.984V169.474Z" fill="#C28F5F"/>
<path fill-rule="evenodd" clip-rule="evenodd" d="M129.016 169.474H124.984V165.439H129.016V169.474ZM165.302 185.614H161.27V181.579H165.302V185.614Z" fill="#C18F5E"/>
<path fill-rule="evenodd" clip-rule="evenodd" d="M133.048 165.439V173.509H129.016V165.439H133.048Z" fill="#C08E5E"/>
<path fill-rule="evenodd" clip-rule="evenodd" d="M137.079 169.474H133.048V165.439H137.079V169.474ZM169.333 189.649H165.302V185.614H169.333V189.649Z" fill="#C2905F"/>
<path fill-rule="evenodd" clip-rule="evenodd" d="M157.238 169.474H153.206V165.439H157.238V169.474Z" fill="#D9A46C"/>
<path fill-rule="evenodd" clip-rule="evenodd" d="M169.333 169.474H165.302V165.439H169.333V169.474Z" fill="#D59F6A"/>
<path fill-rule="evenodd" clip-rule="evenodd" d="M173.365 169.474H169.333V165.439H173.365V169.474Z" fill="#CF9B67"/>
<path fill-rule="evenodd" clip-rule="evenodd" d="M177.397 169.474H173.365V165.439H177.397V169.474Z" fill="#CD9764"/>
<path fill-rule="evenodd" clip-rule="evenodd" d="M181.429 169.474H177.397V165.439H181.429V169.474Z" fill="#C4905B"/>
<path fill-rule="evenodd" clip-rule="evenodd" d="M185.46 169.474H181.429V165.439H185.46V169.474Z" fill="#BA8855"/>
<path fill-rule="evenodd" clip-rule="evenodd" d="M189.492 169.474H185.46V165.439H189.492V169.474Z" fill="#BB8854"/>
<path fill-rule="evenodd" clip-rule="evenodd" d="M197.556 169.474H193.524V165.439H197.556V169.474Z" fill="#E8CDA6"/>
<path fill-rule="evenodd" clip-rule="evenodd" d="M201.587 169.474H197.556V165.439H201.587V169.474Z" fill="#EFD9B4"/>
<path fill-rule="evenodd" clip-rule="evenodd" d="M209.651 169.474H205.619V165.439H209.651V169.474ZM205.619 181.579H201.587V177.544H205.619V181.579Z" fill="#F2E0BF"/>
<path fill-rule="evenodd" clip-rule="evenodd" d="M225.778 169.474H221.746V165.439H225.778V169.474Z" fill="#9A734B" fill-opacity="0.415686"/>
<path fill-rule="evenodd" clip-rule="evenodd" d="M116.921 173.509H112.889V169.474H116.921V173.509Z" fill="#B98858"/>
<path fill-rule="evenodd" clip-rule="evenodd" d="M120.952 173.509H116.921V169.474H120.952V173.509Z" fill="#C18F5D"/>
<path fill-rule="evenodd" clip-rule="evenodd" d="M124.984 173.509H120.952V169.474H124.984V173.509Z" fill="#BD8B5A"/>
<path fill-rule="evenodd" clip-rule="evenodd" d="M129.016 173.509H124.984V169.474H129.016V173.509ZM165.302 193.684H161.27V189.649H165.302V193.684Z" fill="#C08D5C"/>
<path fill-rule="evenodd" clip-rule="evenodd" d="M137.079 173.509H133.048V169.474H137.079V173.509Z" fill="#C29060"/>
<path fill-rule="evenodd" clip-rule="evenodd" d="M141.111 173.509H137.079V169.474H141.111V173.509Z" fill="#CD9865"/>
<path fill-rule="evenodd" clip-rule="evenodd" d="M145.143 173.509H141.111V169.474H145.143V173.509ZM149.175 177.544H145.143V173.509H149.175V177.544Z" fill="#D3A06A"/>
<path fill-rule="evenodd" clip-rule="evenodd" d="M153.206 173.509H149.175V169.474H153.206V173.509Z" fill="#D8A36B"/>
<path fill-rule="evenodd" clip-rule="evenodd" d="M177.397 173.509H173.365V169.474H177.397V173.509Z" fill="#C89460"/>
<path fill-rule="evenodd" clip-rule="evenodd" d="M185.46 173.509H181.429V169.474H185.46V173.509Z" fill="#B88551"/>
<path fill-rule="evenodd" clip-rule="evenodd" d="M189.492 173.509H185.46V169.474H189.492V173.509Z" fill="#B88451"/>
<path fill-rule="evenodd" clip-rule="evenodd" d="M197.556 173.509H193.524V169.474H197.556V173.509Z" fill="#ECD6B1"/>
<path fill-rule="evenodd" clip-rule="evenodd" d="M201.587 173.509H197.556V169.474H201.587V173.509Z" fill="#F0DDB9"/>
<path fill-rule="evenodd" clip-rule="evenodd" d="M205.619 173.509H201.587V169.474H205.619V173.509Z" fill="#F1DFBE"/>
<path d="M225.778 171.491H229.81Z" fill="black"/>
<path fill-rule="evenodd" clip-rule="evenodd" d="M229.81 173.509H225.778V169.474H229.81V173.509Z" fill="#8E7155" fill-opacity="0.0352941"/>
<path fill-rule="evenodd" clip-rule="evenodd" d="M112.889 177.544H108.857V173.509H112.889V177.544Z" fill="#B1814D"/>
<path fill-rule="evenodd" clip-rule="evenodd" d="M116.921 177.544H112.889V173.509H116.921V177.544Z" fill="#BC8C59"/>
<path fill-rule="evenodd" clip-rule="evenodd" d="M120.952 177.544H116.921V173.509H120.952V177.544Z" fill="#BC8B5C"/>
<path fill-rule="evenodd" clip-rule="evenodd" d="M124.984 177.544H120.952V173.509H124.984V177.544Z" fill="#BB8A5A"/>
<path fill-rule="evenodd" clip-rule="evenodd" d="M129.016 177.544H124.984V173.509H129.016V177.544Z" fill="#BC8D5C"/>
<path fill-rule="evenodd" clip-rule="evenodd" d="M133.048 177.544H129.016V173.509H133.048V177.544Z" fill="#B8885A"/>
<path fill-rule="evenodd" clip-rule="evenodd" d="M137.079 177.544H133.048V173.509H137.079V177.544Z" fill="#C19060"/>
<path fill-rule="evenodd" clip-rule="evenodd" d="M141.111 177.544H137.079V173.509H141.111V177.544Z" fill="#C69362"/>
<path fill-rule="evenodd" clip-rule="evenodd" d="M157.238 177.544H153.206V173.509H157.238V177.544Z" fill="#D39F6B"/>
<path fill-rule="evenodd" clip-rule="evenodd" d="M161.27 177.544H157.238V173.509H161.27V177.544Z" fill="#D39E6B"/>
<path fill-rule="evenodd" clip-rule="evenodd" d="M165.302 177.544H161.27V173.509H165.302V177.544Z" fill="#D49E6A"/>
<path fill-rule="evenodd" clip-rule="evenodd" d="M173.365 177.544H169.333V173.509H173.365V177.544Z" fill="#CB9863"/>
<path fill-rule="evenodd" clip-rule="evenodd" d="M177.397 177.544H173.365V173.509H177.397V177.544Z" fill="#C3915C"/>
<path fill-rule="evenodd" clip-rule="evenodd" d="M189.492 177.544H181.429V173.509H189.492V177.544Z" fill="#B5824F"/>
<path fill-rule="evenodd" clip-rule="evenodd" d="M197.556 177.544H193.524V173.509H197.556V177.544Z" fill="#F0DEBC"/>
<path fill-rule="evenodd" clip-rule="evenodd" d="M201.587 177.544H197.556V173.509H201.587V177.544Z" fill="#F0DDBC"/>
<path fill-rule="evenodd" clip-rule="evenodd" d="M205.619 177.544H201.587V173.509H205.619V177.544Z" fill="#F2DFBF"/>
<path fill-rule="evenodd" clip-rule="evenodd" d="M112.889 181.579H108.857V177.544H112.889V181.579Z" fill="#B78555"/>
<path fill-rule="evenodd" clip-rule="evenodd" d="M116.921 181.579H112.889V177.544H116.921V181.579Z" fill="#B78353"/>
<path fill-rule="evenodd" clip-rule="evenodd" d="M120.952 181.579H116.921V177.544H120.952V181.579Z" fill="#B88757"/>
<path fill-rule="evenodd" clip-rule="evenodd" d="M124.984 181.579H120.952V177.544H124.984V181.579Z" fill="#BA8B5A"/>
<path fill-rule="evenodd" clip-rule="evenodd" d="M129.016 181.579H124.984V177.544H129.016V181.579Z" fill="#BC895B"/>
<path fill-rule="evenodd" clip-rule="evenodd" d="M133.048 181.579H129.016V177.544H133.048V181.579Z" fill="#BA8959"/>
<path fill-rule="evenodd" clip-rule="evenodd" d="M137.079 181.579H133.048V177.544H137.079V181.579Z" fill="#BB8C5B"/>
<path fill-rule="evenodd" clip-rule="evenodd" d="M141.111 181.579H137.079V177.544H141.111V181.579Z" fill="#C69261"/>
<path fill-rule="evenodd" clip-rule="evenodd" d="M145.143 181.579H141.111V177.544H145.143V181.579Z" fill="#C89462"/>
<path fill-rule="evenodd" clip-rule="evenodd" d="M149.175 181.579H145.143V177.544H149.175V181.579Z" fill="#C99563"/>
<path fill-rule="evenodd" clip-rule="evenodd" d="M157.238 181.579H153.206V177.544H157.238V181.579Z" fill="#D29C6B"/>
<path fill-rule="evenodd" clip-rule="evenodd" d="M165.302 181.579H161.27V177.544H165.302V181.579Z" fill="#CE9B66"/>
<path fill-rule="evenodd" clip-rule="evenodd" d="M173.365 181.579H169.333V177.544H173.365V181.579Z" fill="#C5935F"/>
<path fill-rule="evenodd" clip-rule="evenodd" d="M177.397 181.579H173.365V177.544H177.397V181.579Z" fill="#BC8A57"/>
<path fill-rule="evenodd" clip-rule="evenodd" d="M181.429 181.579H177.397V177.544H181.429V181.579Z" fill="#B5844F"/>
<path fill-rule="evenodd" clip-rule="evenodd" d="M189.492 181.579H185.46V177.544H189.492V181.579ZM157.238 205.789H153.206V201.754H157.238V205.789Z" fill="#B4824E"/>
<path fill-rule="evenodd" clip-rule="evenodd" d="M197.556 181.579H193.524V177.544H197.556V181.579Z" fill="#F2E0BD"/>
<path fill-rule="evenodd" clip-rule="evenodd" d="M201.587 181.579H197.556V177.544H201.587V181.579Z" fill="#F2DFBE"/>
<path fill-rule="evenodd" clip-rule="evenodd" d="M221.746 181.579H217.714V177.544H221.746V181.579Z" fill="#A07549" fill-opacity="0.137255"/>
<path fill-rule="evenodd" clip-rule="evenodd" d="M112.889 185.614H108.857V181.579H112.889V185.614Z" fill="#B58252"/>
<path fill-rule="evenodd" clip-rule="evenodd" d="M116.921 185.614H112.889V181.579H116.921V185.614Z" fill="#AF814F"/>
<path fill-rule="evenodd" clip-rule="evenodd" d="M120.952 185.614H116.921V181.579H120.952V185.614Z" fill="#B78756"/>
<path fill-rule="evenodd" clip-rule="evenodd" d="M124.984 185.614H120.952V181.579H124.984V185.614Z" fill="#B78653"/>
<path fill-rule="evenodd" clip-rule="evenodd" d="M129.016 185.614H124.984V181.579H129.016V185.614Z" fill="#B78656"/>
<path fill-rule="evenodd" clip-rule="evenodd" d="M133.048 185.614H129.016V181.579H133.048V185.614Z" fill="#B58555"/>
<path fill-rule="evenodd" clip-rule="evenodd" d="M137.079 185.614H133.048V181.579H137.079V185.614Z" fill="#B9895A"/>
<path fill-rule="evenodd" clip-rule="evenodd" d="M141.111 185.614H137.079V181.579H141.111V185.614Z" fill="#BC8C5C"/>
<path fill-rule="evenodd" clip-rule="evenodd" d="M145.143 185.614H141.111V181.579H145.143V185.614Z" fill="#BF8D5D"/>
<path fill-rule="evenodd" clip-rule="evenodd" d="M149.175 185.614H145.143V181.579H149.175V185.614Z" fill="#BF8E5D"/>
<path fill-rule="evenodd" clip-rule="evenodd" d="M153.206 185.614H149.175V181.579H153.206V185.614ZM157.238 189.649H153.206V185.614H157.238V189.649Z" fill="#C28F5E"/>
<path fill-rule="evenodd" clip-rule="evenodd" d="M157.238 185.614H153.206V181.579H157.238V185.614Z" fill="#C28F60"/>
<path fill-rule="evenodd" clip-rule="evenodd" d="M161.27 185.614H157.238V181.579H161.27V185.614ZM165.302 189.649H161.27V185.614H165.302V189.649Z" fill="#C3915F"/>
<path fill-rule="evenodd" clip-rule="evenodd" d="M169.333 185.614H165.302V181.579H169.333V185.614Z" fill="#C08E5F"/>
<path fill-rule="evenodd" clip-rule="evenodd" d="M173.365 185.614H169.333V181.579H173.365V185.614Z" fill="#C18D5D"/>
<path fill-rule="evenodd" clip-rule="evenodd" d="M177.397 185.614H173.365V181.579H177.397V185.614Z" fill="#BD8958"/>
<path fill-rule="evenodd" clip-rule="evenodd" d="M181.429 185.614H177.397V181.579H181.429V185.614Z" fill="#B2804E"/>
<path fill-rule="evenodd" clip-rule="evenodd" d="M217.714 185.614H213.683V181.579H217.714V185.614Z" fill="#AA754A" fill-opacity="0.0941176"/>
<path fill-rule="evenodd" clip-rule="evenodd" d="M108.857 189.649H104.825V185.614H108.857V189.649Z" fill="#B68454"/>
<path fill-rule="evenodd" clip-rule="evenodd" d="M112.889 189.649H108.857V185.614H112.889V189.649Z" fill="#B07D4C"/>
<path fill-rule="evenodd" clip-rule="evenodd" d="M116.921 189.649H112.889V185.614H116.921V189.649Z" fill="#AF7E4B"/>
<path fill-rule="evenodd" clip-rule="evenodd" d="M120.952 189.649H116.921V185.614H120.952V189.649Z" fill="#AD7E4C"/>
<path fill-rule="evenodd" clip-rule="evenodd" d="M124.984 189.649H120.952V185.614H124.984V189.649Z" fill="#AF7F4E"/>
<path fill-rule="evenodd" clip-rule="evenodd" d="M129.016 189.649H124.984V185.614H129.016V189.649Z" fill="#B38052"/>
<path fill-rule="evenodd" clip-rule="evenodd" d="M133.048 189.649H129.016V185.614H133.048V189.649Z" fill="#B68354"/>
<path fill-rule="evenodd" clip-rule="evenodd" d="M153.206 189.649H149.175V185.614H153.206V189.649Z" fill="#BD8A5B"/>
<path fill-rule="evenodd" clip-rule="evenodd" d="M173.365 189.649H169.333V185.614H173.365V189.649Z" fill="#BD8B5B"/>
<path fill-rule="evenodd" clip-rule="evenodd" d="M181.429 189.649H177.397V185.614H181.429V189.649Z" fill="#B2804D"/>
<path fill-rule="evenodd" clip-rule="evenodd" d="M104.825 193.684H100.794V189.649H104.825V193.684Z" fill="#966A43"/>
<path fill-rule="evenodd" clip-rule="evenodd" d="M108.857 193.684H104.825V189.649H108.857V193.684Z" fill="#9E7347"/>
<path fill-rule="evenodd" clip-rule="evenodd" d="M112.889 193.684H108.857V189.649H112.889V193.684Z" fill="#AA794B"/>
<path fill-rule="evenodd" clip-rule="evenodd" d="M116.921 193.684H112.889V189.649H116.921V193.684Z" fill="#B07E4A"/>
<path fill-rule="evenodd" clip-rule="evenodd" d="M120.952 193.684H116.921V189.649H120.952V193.684Z" fill="#AC7C4D"/>
<path fill-rule="evenodd" clip-rule="evenodd" d="M124.984 193.684H120.952V189.649H124.984V193.684Z" fill="#AE794D"/>
<path fill-rule="evenodd" clip-rule="evenodd" d="M129.016 193.684H124.984V189.649H129.016V193.684Z" fill="#AC7A4C"/>
<path fill-rule="evenodd" clip-rule="evenodd" d="M133.048 193.684H129.016V189.649H133.048V193.684Z" fill="#B17E4C"/>
<path fill-rule="evenodd" clip-rule="evenodd" d="M157.238 193.684H153.206V189.649H157.238V193.684Z" fill="#BF8D5B"/>
<path fill-rule="evenodd" clip-rule="evenodd" d="M161.27 193.684H157.238V189.649H161.27V193.684Z" fill="#C3915E"/>
<path fill-rule="evenodd" clip-rule="evenodd" d="M169.333 193.684H165.302V189.649H169.333V193.684Z" fill="#BC8B59"/>
<path fill-rule="evenodd" clip-rule="evenodd" d="M173.365 193.684H169.333V189.649H173.365V193.684Z" fill="#B68450"/>
<path fill-rule="evenodd" clip-rule="evenodd" d="M100.794 197.719H96.7619V193.684H100.794V197.719Z" fill="#7F5939"/>
<path fill-rule="evenodd" clip-rule="evenodd" d="M104.825 197.719H100.794V193.684H104.825V197.719Z" fill="#835D3B"/>
<path fill-rule="evenodd" clip-rule="evenodd" d="M108.857 197.719H104.825V193.684H108.857V197.719Z" fill="#8A623E"/>
<path fill-rule="evenodd" clip-rule="evenodd" d="M112.889 197.719H108.857V193.684H112.889V197.719Z" fill="#996D43"/>
<path fill-rule="evenodd" clip-rule="evenodd" d="M116.921 197.719H112.889V193.684H116.921V197.719Z" fill="#A77649"/>
<path fill-rule="evenodd" clip-rule="evenodd" d="M120.952 197.719H116.921V193.684H120.952V197.719Z" fill="#A27448"/>
<path fill-rule="evenodd" clip-rule="evenodd" d="M124.984 197.719H120.952V193.684H124.984V197.719Z" fill="#976B43"/>
<path fill-rule="evenodd" clip-rule="evenodd" d="M157.238 197.719H153.206V193.684H157.238V197.719Z" fill="#BB8856"/>
<path fill-rule="evenodd" clip-rule="evenodd" d="M161.27 197.719H157.238V193.684H161.27V197.719Z" fill="#C08D5A"/>
<path fill-rule="evenodd" clip-rule="evenodd" d="M165.302 197.719H161.27V193.684H165.302V197.719Z" fill="#BD8B57"/>
<path fill-rule="evenodd" clip-rule="evenodd" d="M169.333 197.719H165.302V193.684H169.333V197.719Z" fill="#B88654"/>
<path fill-rule="evenodd" clip-rule="evenodd" d="M189.492 197.719H185.46V193.684H189.492V197.719Z" fill="#B4814D"/>
<path fill-rule="evenodd" clip-rule="evenodd" d="M193.524 197.719H189.492V193.684H193.524V197.719Z" fill="#B3814D"/>
<path fill-rule="evenodd" clip-rule="evenodd" d="M92.7302 201.754H88.6984V197.719H92.7302V201.754ZM80.6349 205.789V201.754H88.6984V205.789H80.6349ZM80.6349 205.789H72.5714V209.825H56.4444V213.86H32.254V217.895H8.06349V221.93H4.03175V225.965H8.06349V221.93H32.254V217.895H56.4444V213.86H72.5714V209.825H80.6349V205.789ZM213.683 213.86H205.619V209.825H213.683V213.86ZM197.556 221.93H189.492V217.895H197.556V221.93Z" fill="#835B39"/>
<path fill-rule="evenodd" clip-rule="evenodd" d="M96.7619 201.754H92.7302V197.719H96.7619V201.754Z" fill="#735035"/>
<path fill-rule="evenodd" clip-rule="evenodd" d="M100.794 201.754H96.7619V197.719H100.794V201.754Z" fill="#785135"/>
<path fill-rule="evenodd" clip-rule="evenodd" d="M104.825 201.754H100.794V197.719H104.825V201.754Z" fill="#795436"/>
<path fill-rule="evenodd" clip-rule="evenodd" d="M108.857 201.754H104.825V197.719H108.857V201.754Z" fill="#795334"/>
<path fill-rule="evenodd" clip-rule="evenodd" d="M112.889 201.754H108.857V197.719H112.889V201.754Z" fill="#815A38"/>
<path fill-rule="evenodd" clip-rule="evenodd" d="M116.921 201.754H112.889V197.719H116.921V201.754Z" fill="#835C3A"/>
<path fill-rule="evenodd" clip-rule="evenodd" d="M120.952 201.754H116.921V197.719H120.952V201.754Z" fill="#815B39"/>
<path fill-rule="evenodd" clip-rule="evenodd" d="M124.984 201.754H120.952V197.719H124.984V201.754Z" fill="#875E3B"/>
<path fill-rule="evenodd" clip-rule="evenodd" d="M157.238 201.754H153.206V197.719H157.238V201.754Z" fill="#B88552"/>
<path fill-rule="evenodd" clip-rule="evenodd" d="M161.27 201.754H157.238V197.719H161.27V201.754Z" fill="#B88554"/>
<path fill-rule="evenodd" clip-rule="evenodd" d="M173.365 201.754H169.333V197.719H173.365V201.754Z" fill="#B3804D"/>
<path fill-rule="evenodd" clip-rule="evenodd" d="M189.492 201.754H181.429V197.719H189.492V201.754Z" fill="#AF7B4C"/>
<path fill-rule="evenodd" clip-rule="evenodd" d="M193.524 201.754H189.492V197.719H193.524V201.754Z" fill="#AE7C4A"/>
<path fill-rule="evenodd" clip-rule="evenodd" d="M92.7302 205.789H88.6984V201.754H92.7302V205.789Z" fill="#6C4B31"/>
<path fill-rule="evenodd" clip-rule="evenodd" d="M96.7619 205.789H92.7302V201.754H96.7619V205.789Z" fill="#6B4B31"/>
<path fill-rule="evenodd" clip-rule="evenodd" d="M104.825 205.789H96.7619V201.754H104.825V205.789Z" fill="#6E4A30"/>
<path fill-rule="evenodd" clip-rule="evenodd" d="M108.857 205.789H104.825V201.754H108.857V205.789Z" fill="#724B32"/>
<path fill-rule="evenodd" clip-rule="evenodd" d="M112.889 205.789H108.857V201.754H112.889V205.789Z" fill="#744F33"/>
<path fill-rule="evenodd" clip-rule="evenodd" d="M116.921 205.789H112.889V201.754H116.921V205.789Z" fill="#734F33"/>
<path fill-rule="evenodd" clip-rule="evenodd" d="M120.952 205.789H116.921V201.754H120.952V205.789Z" fill="#775232"/>
<path fill-rule="evenodd" clip-rule="evenodd" d="M165.302 205.789H161.27V201.754H165.302V205.789Z" fill="#B3814E"/>
<path fill-rule="evenodd" clip-rule="evenodd" d="M173.365 205.789H169.333V201.754H173.365V205.789Z" fill="#B27F4D"/>
<path fill-rule="evenodd" clip-rule="evenodd" d="M181.429 205.789H177.397V201.754H181.429V205.789Z" fill="#A17345"/>
<path fill-rule="evenodd" clip-rule="evenodd" d="M185.46 205.789H181.429V201.754H185.46V205.789Z" fill="#9E6E43"/>
<path fill-rule="evenodd" clip-rule="evenodd" d="M189.492 205.789H185.46V201.754H189.492V205.789ZM157.238 213.86H153.206V209.825H157.238V213.86Z" fill="#9F7144"/>
<path fill-rule="evenodd" clip-rule="evenodd" d="M193.524 205.789H189.492V201.754H193.524V205.789Z" fill="#986A41"/>
<path fill-rule="evenodd" clip-rule="evenodd" d="M84.6667 209.825H80.6349V205.789H84.6667V209.825Z" fill="#67462D"/>
<path fill-rule="evenodd" clip-rule="evenodd" d="M88.6984 209.825H84.6667V205.789H88.6984V209.825Z" fill="#65442B"/>
<path fill-rule="evenodd" clip-rule="evenodd" d="M92.7302 209.825H88.6984V205.789H92.7302V209.825ZM92.7302 213.86V209.825H96.7619V213.86H92.7302ZM92.7302 213.86H88.6984V217.895H92.7302V213.86ZM205.619 213.86H201.587V209.825H205.619V213.86Z" fill="#67432C"/>
<path fill-rule="evenodd" clip-rule="evenodd" d="M96.7619 209.825H92.7302V205.789H96.7619V209.825Z" fill="#66442C"/>
<path fill-rule="evenodd" clip-rule="evenodd" d="M100.794 209.825H96.7619V205.789H100.794V209.825Z" fill="#68452C"/>
<path fill-rule="evenodd" clip-rule="evenodd" d="M104.825 209.825H100.794V205.789H104.825V209.825Z" fill="#6A472E"/>
<path fill-rule="evenodd" clip-rule="evenodd" d="M108.857 209.825H104.825V205.789H108.857V209.825Z" fill="#6E4A2F"/>
<path fill-rule="evenodd" clip-rule="evenodd" d="M112.889 209.825H108.857V205.789H112.889V209.825Z" fill="#704B31"/>
<path fill-rule="evenodd" clip-rule="evenodd" d="M116.921 209.825H112.889V205.789H116.921V209.825Z" fill="#6F4A2E"/>
<path fill-rule="evenodd" clip-rule="evenodd" d="M153.206 209.825H149.175V205.789H153.206V209.825Z" fill="#B17E4D"/>
<path fill-rule="evenodd" clip-rule="evenodd" d="M157.238 209.825H153.206V205.789H157.238V209.825Z" fill="#AE7C4B"/>
<path fill-rule="evenodd" clip-rule="evenodd" d="M161.27 209.825H157.238V205.789H161.27V209.825Z" fill="#AC7A4B"/>
<path fill-rule="evenodd" clip-rule="evenodd" d="M165.302 209.825H161.27V205.789H165.302V209.825Z" fill="#AF7E4C"/>
<path fill-rule="evenodd" clip-rule="evenodd" d="M169.333 209.825H165.302V205.789H169.333V209.825Z" fill="#B17E4B"/>
<path fill-rule="evenodd" clip-rule="evenodd" d="M181.429 209.825H177.397V205.789H181.429V209.825Z" fill="#956940"/>
<path fill-rule="evenodd" clip-rule="evenodd" d="M189.492 209.825H181.429V205.789H189.492V209.825Z" fill="#91673F"/>
<path fill-rule="evenodd" clip-rule="evenodd" d="M193.524 209.825H189.492V205.789H193.524V209.825Z" fill="#8F663D"/>
<path fill-rule="evenodd" clip-rule="evenodd" d="M197.556 209.825H193.524V205.789H197.556V209.825Z" fill="#8B613C"/>
<path fill-rule="evenodd" clip-rule="evenodd" d="M76.6032 213.86H72.5714V209.825H76.6032V213.86Z" fill="#624129"/>
<path fill-rule="evenodd" clip-rule="evenodd" d="M84.6667 213.86H76.6032V209.825H84.6667V213.86ZM72.5714 217.895H60.4762V213.86H72.5714V217.895ZM48.381 221.93H40.3175V217.895H48.381V221.93ZM32.254 225.965H28.2222V221.93H32.254V225.965ZM40.3175 225.965H36.2857V221.93H40.3175V225.965Z" fill="#624029"/>
<path fill-rule="evenodd" clip-rule="evenodd" d="M88.6984 213.86H84.6667V209.825H88.6984V213.86Z" fill="#63402B"/>
<path fill-rule="evenodd" clip-rule="evenodd" d="M92.7302 213.86H88.6984V209.825H92.7302V213.86Z" fill="#65412B"/>
<path fill-rule="evenodd" clip-rule="evenodd" d="M100.794 213.86H96.7619V209.825H100.794V213.86ZM96.7619 221.93H92.7302V217.895H96.7619V221.93Z" fill="#69452E"/>
<path fill-rule="evenodd" clip-rule="evenodd" d="M104.825 213.86H100.794V209.825H104.825V213.86Z" fill="#6C492F"/>
<path fill-rule="evenodd" clip-rule="evenodd" d="M108.857 213.86H104.825V209.825H108.857V213.86Z" fill="#6F4A30"/>
<path fill-rule="evenodd" clip-rule="evenodd" d="M112.889 213.86H108.857V209.825H112.889V213.86Z" fill="#6D482F"/>
<path fill-rule="evenodd" clip-rule="evenodd" d="M153.206 213.86H149.175V209.825H153.206V213.86Z" fill="#9B6F44"/>
<path fill-rule="evenodd" clip-rule="evenodd" d="M161.27 213.86H157.238V209.825H161.27V213.86Z" fill="#94673F"/>
<path fill-rule="evenodd" clip-rule="evenodd" d="M165.302 213.86H161.27V209.825H165.302V213.86Z" fill="#986D42"/>
<path fill-rule="evenodd" clip-rule="evenodd" d="M169.333 213.86H165.302V209.825H169.333V213.86Z" fill="#976C3D"/>
<path fill-rule="evenodd" clip-rule="evenodd" d="M173.365 213.86H169.333V209.825H173.365V213.86Z" fill="#93673F"/>
<path fill-rule="evenodd" clip-rule="evenodd" d="M181.429 213.86H177.397V209.825H181.429V213.86Z" fill="#7E5636"/>
<path fill-rule="evenodd" clip-rule="evenodd" d="M185.46 213.86H181.429V209.825H185.46V213.86Z" fill="#775133"/>
<path fill-rule="evenodd" clip-rule="evenodd" d="M189.492 213.86H185.46V209.825H189.492V213.86Z" fill="#744D31"/>
<path fill-rule="evenodd" clip-rule="evenodd" d="M193.524 213.86H189.492V209.825H193.524V213.86ZM100.794 217.895H96.7619V213.86H100.794V217.895ZM108.857 217.895H104.825V213.86H108.857V217.895Z" fill="#6B472E"/>
<path fill-rule="evenodd" clip-rule="evenodd" d="M197.556 213.86H193.524V209.825H197.556V213.86Z" fill="#66422B"/>
<path fill-rule="evenodd" clip-rule="evenodd" d="M201.587 213.86H197.556V209.825H201.587V213.86Z" fill="#64412B"/>
<path fill-rule="evenodd" clip-rule="evenodd" d="M60.4762 217.895H56.4444V213.86H60.4762V217.895ZM80.6349 217.895H76.6032V213.86H80.6349V217.895ZM16.127 225.965H12.0952V221.93H16.127V225.965ZM24.1905 225.965H20.1587V221.93H24.1905V225.965ZM181.429 225.965H177.397V221.93H181.429V225.965ZM201.587 225.965H197.556V221.93H201.587V225.965Z" fill="#614029"/>
<path fill-rule="evenodd" clip-rule="evenodd" d="M76.6032 217.895H72.5714V213.86H76.6032V217.895ZM237.873 217.895H201.587V213.86H237.873V217.895ZM40.3175 221.93H32.254V217.895H40.3175V221.93ZM60.4762 217.895V221.93H84.6667V225.965H40.3175V221.93H48.381V217.895H60.4762ZM12.0952 225.965H8.06349V221.93H12.0952V225.965ZM20.1587 225.965H16.127V221.93H20.1587V225.965ZM28.2222 225.965H24.1905V221.93H28.2222V225.965ZM100.794 225.965H88.6984V221.93H100.794V225.965ZM161.27 225.965H157.238V221.93H161.27V225.965ZM197.556 225.965H181.429V221.93H197.556V225.965ZM217.714 225.965H201.587V221.93H217.714V225.965Z" fill="#613F29"/>
<path fill-rule="evenodd" clip-rule="evenodd" d="M84.6667 217.895H80.6349V213.86H84.6667V217.895ZM185.46 221.93H181.429V217.895H185.46V221.93ZM149.175 225.965H145.143V221.93H149.175V225.965ZM173.365 225.965H169.333V221.93H173.365V225.965Z" fill="#62402A"/>
<path fill-rule="evenodd" clip-rule="evenodd" d="M88.6984 217.895H84.6667V213.86H88.6984V217.895Z" fill="#64422C"/>
<path fill-rule="evenodd" clip-rule="evenodd" d="M96.7619 217.895H92.7302V213.86H96.7619V217.895Z" fill="#6A452E"/>
<path fill-rule="evenodd" clip-rule="evenodd" d="M104.825 217.895H100.794V213.86H104.825V217.895Z" fill="#6B482E"/>
<path fill-rule="evenodd" clip-rule="evenodd" d="M149.175 217.895H145.143V213.86H149.175V217.895Z" fill="#855C39"/>
<path fill-rule="evenodd" clip-rule="evenodd" d="M153.206 217.895H149.175V213.86H153.206V217.895Z" fill="#845A38"/>
<path fill-rule="evenodd" clip-rule="evenodd" d="M157.238 217.895H153.206V213.86H157.238V217.895Z" fill="#835C39"/>
<path fill-rule="evenodd" clip-rule="evenodd" d="M161.27 217.895H157.238V213.86H161.27V217.895Z" fill="#7B5535"/>
<path fill-rule="evenodd" clip-rule="evenodd" d="M165.302 217.895H161.27V213.86H165.302V217.895Z" fill="#795233"/>
<path fill-rule="evenodd" clip-rule="evenodd" d="M169.333 217.895H165.302V213.86H169.333V217.895Z" fill="#775131"/>
<path fill-rule="evenodd" clip-rule="evenodd" d="M173.365 217.895H169.333V213.86H173.365V217.895Z" fill="#815936"/>
<path fill-rule="evenodd" clip-rule="evenodd" d="M177.397 217.895H173.365V213.86H177.397V217.895Z" fill="#7B5335"/>
<path fill-rule="evenodd" clip-rule="evenodd" d="M80.6349 221.93H60.4762V217.895H80.6349V221.93ZM36.2857 225.965H32.254V221.93H36.2857V225.965ZM88.6984 225.965H84.6667V221.93H88.6984V225.965ZM169.333 225.965H161.27V221.93H169.333V225.965Z" fill="#623F29"/>
<path fill-rule="evenodd" clip-rule="evenodd" d="M84.6667 221.93H80.6349V217.895H84.6667V221.93Z" fill="#623F2A"/>
<path fill-rule="evenodd" clip-rule="evenodd" d="M88.6984 221.93H84.6667V217.895H88.6984V221.93Z" fill="#64432A"/>
<path fill-rule="evenodd" clip-rule="evenodd" d="M92.7302 221.93H88.6984V217.895H92.7302V221.93Z" fill="#68452D"/>
<path fill-rule="evenodd" clip-rule="evenodd" d="M100.794 221.93H96.7619V217.895H100.794V221.93Z" fill="#66412B"/>
<path fill-rule="evenodd" clip-rule="evenodd" d="M104.825 221.93H100.794V217.895H104.825V221.93Z" fill="#643F2A"/>
<path fill-rule="evenodd" clip-rule="evenodd" d="M145.143 221.93H141.111V217.895H145.143V221.93Z" fill="#67442A"/>
<path fill-rule="evenodd" clip-rule="evenodd" d="M149.175 221.93H145.143V217.895H149.175V221.93Z" fill="#714C30"/>
<path fill-rule="evenodd" clip-rule="evenodd" d="M153.206 221.93H149.175V217.895H153.206V221.93Z" fill="#6E492E"/>
<path fill-rule="evenodd" clip-rule="evenodd" d="M157.238 221.93H153.206V217.895H157.238V221.93Z" fill="#6B462E"/>
<path fill-rule="evenodd" clip-rule="evenodd" d="M161.27 221.93H157.238V217.895H161.27V221.93Z" fill="#69452C"/>
<path fill-rule="evenodd" clip-rule="evenodd" d="M165.302 221.93H161.27V217.895H165.302V221.93Z" fill="#67432B"/>
<path fill-rule="evenodd" clip-rule="evenodd" d="M169.333 221.93H165.302V217.895H169.333V221.93Z" fill="#68412C"/>
<path fill-rule="evenodd" clip-rule="evenodd" d="M173.365 221.93H169.333V217.895H173.365V221.93Z" fill="#6D492F"/>
<path fill-rule="evenodd" clip-rule="evenodd" d="M177.397 221.93H173.365V217.895H177.397V221.93Z" fill="#6B472D"/>
<path fill-rule="evenodd" clip-rule="evenodd" d="M181.429 221.93H177.397V217.895H181.429V221.93Z" fill="#65412C"/>
<path fill-rule="evenodd" clip-rule="evenodd" d="M189.492 221.93H185.46V217.895H189.492V221.93Z" fill="#62412A"/>
<path fill-rule="evenodd" clip-rule="evenodd" d="M153.206 225.965H149.175V221.93H153.206V225.965Z" fill="#63422A"/>
<path fill-rule="evenodd" clip-rule="evenodd" d="M157.238 225.965H153.206V221.93H157.238V225.965Z" fill="#64422A"/>
<path fill-rule="evenodd" clip-rule="evenodd" d="M177.397 225.965H173.365V221.93H177.397V225.965Z" fill="#633F29"/>
</svg>
