<svg width="258" height="258" viewBox="0 0 258 258" fill="none" xmlns="http://www.w3.org/2000/svg">
<path fill-rule="evenodd" clip-rule="evenodd" d="M141.094 4.03125H137.062V0H141.094V4.03125ZM120.938 253.969H116.906V249.938H120.938V253.969Z" fill="#AA8055" fill-opacity="0.0235294"/>
<path d="M197.531 255.984H253.969Z" fill="black"/>
<path fill-rule="evenodd" clip-rule="evenodd" d="M149.156 4.03125H141.094V0H149.156V4.03125ZM157.219 8.0625H149.156V4.03125H157.219V8.0625ZM209.625 8.0625V12.0938H205.594V16.125H165.281V12.0938H157.219V8.0625H169.312V12.0938H201.562V8.0625H209.625ZM217.688 4.03125V8.0625H209.625V4.03125H217.688ZM225.75 4.03125H217.688V0H225.75V4.03125ZM237.844 8.0625H225.75V4.03125H237.844V8.0625ZM221.719 12.0938V8.0625H225.75V12.0938H221.719ZM221.719 12.0938H217.688V20.1562H213.656V24.1875H217.688V28.2188H221.719V32.25H225.75V36.2812H229.781V48.375H233.812V56.4375H237.844V60.4688H241.875V68.5312H245.906V76.5938H249.938V88.6875H253.969V104.812H249.938V116.906H245.906V124.969H241.875V129H233.812V133.031H217.688V137.062H197.531V141.094H217.688V137.062H229.781V141.094H233.812V145.125H237.844V149.156H241.875V157.219H245.906V173.344H241.875V177.375H237.844V189.469H229.781V193.5H217.688V189.469H213.656V169.312H217.688V161.25H225.75V157.219H217.688V161.25H213.656V169.312H209.625V189.469H213.656V193.5H217.688V197.531H229.781V193.5H233.812V201.562H229.781V209.625H225.75V217.688H221.719V221.719H217.688V225.75H213.656V229.781H205.594V233.812H197.531V237.844H165.281V233.812H169.312V225.75H173.344V209.625H169.312V201.562H165.281V197.531H161.25V193.5H157.219V201.562H161.25V205.594H165.281V209.625H169.312V225.75H165.281V229.781H161.25V233.812H157.219V237.844H149.156V241.875H173.344V245.906H181.406V253.969H129V249.938H120.938V253.969H124.969V258H181.406V253.969H185.438V245.906H181.406V241.875H193.5V253.969H197.531V258H253.969V253.969H258V245.906H253.969V241.875H241.875V237.844H237.844V233.812H241.875V225.75H245.906V209.625H241.875V201.562H237.844V189.469H241.875V177.375H245.906V173.344H249.938V157.219H245.906V149.156H241.875V145.125H237.844V141.094H233.812V133.031H241.875V129H245.906V124.969H249.938V116.906H253.969V104.812H258V88.6875H253.969V76.5938H249.938V68.5312H245.906V60.4688H241.875V44.3438H245.906V12.0938H241.875V8.0625H237.844V12.0938H241.875V44.3438H237.844V48.375H233.812V36.2812H229.781V32.25H225.75V28.2188H221.719V24.1875H217.688V20.1562H221.719V12.0938ZM241.875 209.625H237.844V205.594H233.812V213.656H229.781V217.688H225.75V221.719H221.719V225.75H217.688V229.781H213.656V233.812H205.594V237.844H201.562V241.875H197.531V249.938H201.562V253.969H253.969V245.906H241.875V241.875H221.719V237.844H229.781V233.812H233.812V229.781H237.844V225.75H241.875V209.625ZM141.094 8.0625H133.031V4.03125H141.094V8.0625ZM129 16.125V8.0625H133.031V16.125H129ZM129 16.125H124.969V44.3438H129V60.4688H124.969V64.5H120.938V72.5625H116.906V80.625H112.875V108.844H116.906V116.906H120.938V124.969H124.969V133.031H120.938V137.062H116.906V145.125H112.875V149.156H108.844V153.188H104.812V161.25H100.781V169.312H96.75V205.594H100.781V213.656H104.812V221.719H96.75V225.75H92.7188V229.781H84.6562V233.812H76.5938V237.844H52.4062V241.875H24.1875V245.906H4.03125V249.938H0V253.969H4.03125V258H84.6562V253.969H100.781V249.938H108.844V245.906H112.875V241.875H116.906V237.844H120.938V241.875H129V229.781H124.969V233.812H112.875V237.844H108.844V241.875H104.812V245.906H100.781V249.938H84.6562V253.969H8.0625V249.938H24.1875V245.906H52.4062V241.875H76.5938V237.844H88.6875V233.812H92.7188V229.781H100.781V225.75H108.844V209.625H104.812V205.594H100.781V169.312H104.812V165.281H108.844V157.219H112.875V153.188H116.906V145.125H120.938V137.062H129V133.031H137.062V137.062H145.125V141.094H173.344V137.062H145.125V133.031H141.094V129H133.031V124.969H124.969V116.906H120.938V108.844H116.906V80.625H120.938V72.5625H124.969V64.5H129V60.4688H133.031V56.4375H137.062V48.375H141.094V36.2812H145.125V32.25H149.156V28.2188H153.188V16.125H149.156V12.0938H145.125V8.0625H141.094V12.0938H145.125V16.125H149.156V28.2188H145.125V32.25H141.094V36.2812H137.062V48.375H133.031V44.3438H129V16.125ZM161.25 56.4375H157.219V60.4688H161.25V56.4375ZM161.25 52.4062V56.4375H165.281V64.5H161.25V68.5312H149.156V64.5H145.125V56.4375H149.156V52.4062H161.25ZM221.719 56.4375H217.688V60.4688H221.719V56.4375ZM221.719 52.4062V56.4375H225.75V64.5H221.719V68.5312H209.625V64.5H205.594V56.4375H209.625V52.4062H221.719ZM193.5 68.5312V72.5625H197.531V84.6562H193.5V88.6875H177.375V84.6562H173.344V72.5625H177.375V68.5312H193.5ZM165.281 84.6562V92.7188H161.25V84.6562H165.281ZM169.312 96.75H165.281V92.7188H169.312V96.75ZM181.406 96.75V100.781H173.344V108.844H177.375V116.906H173.344V112.875H169.312V96.75H181.406ZM193.5 116.906V120.938H177.375V116.906H193.5ZM189.469 96.75V92.7188H181.406V96.75H189.469ZM201.562 96.75V112.875H197.531V116.906H193.5V108.844H197.531V100.781H189.469V96.75H201.562ZM205.594 92.7188V96.75H201.562V92.7188H205.594ZM205.594 92.7188H209.625V84.6562H205.594V92.7188ZM145.125 157.219V177.375H141.094V157.219H145.125ZM149.156 181.406H145.125V177.375H149.156V181.406ZM181.406 193.5H177.375V189.469H173.344V185.438H149.156V181.406H177.375V185.438H181.406V193.5ZM193.5 193.5V197.531H181.406V193.5H193.5ZM197.531 173.344H201.562V189.469H197.531V193.5H193.5V185.438H197.531V173.344ZM193.5 165.281H197.531V173.344H193.5V165.281ZM185.438 161.25H193.5V165.281H185.438V161.25ZM185.438 161.25V157.219H169.312V161.25H185.438Z" fill="#111111"/>
<path fill-rule="evenodd" clip-rule="evenodd" d="M153.188 4.03125H149.156V0H153.188V4.03125ZM209.625 8.0625H205.594V4.03125H209.625V8.0625ZM120.938 72.5625H116.906V68.5312H120.938V72.5625ZM258 84.6562H253.969V80.625H258V84.6562ZM237.844 137.062H233.812V133.031H237.844V137.062ZM245.906 149.156H241.875V145.125H245.906V149.156ZM24.1875 245.906H20.1562V241.875H24.1875V245.906ZM88.6875 258H84.6562V253.969H88.6875V258ZM185.438 258H181.406V253.969H185.438V258Z" fill="#FFFF00" fill-opacity="0.01"/>
<path fill-rule="evenodd" clip-rule="evenodd" d="M217.688 4.03125H213.656V0H217.688V4.03125Z" fill="#FF8080" fill-opacity="0.01"/>
<path fill-rule="evenodd" clip-rule="evenodd" d="M229.781 4.03125H225.75V0H229.781V4.03125Z" fill="#DCB480" fill-opacity="0.172549"/>
<path fill-rule="evenodd" clip-rule="evenodd" d="M149.156 8.0625H141.094V4.03125H149.156V8.0625ZM157.219 12.0938H149.156V8.0625H157.219V12.0938ZM213.656 12.0938V16.125H209.625V28.2188H217.688V32.25H221.719V36.2812H225.75V48.375H217.688V52.4062H209.625V56.4375H201.562V68.5312H209.625V72.5625H225.75V64.5H229.781V60.4688H237.844V68.5312H241.875V76.5938H245.906V92.7188H241.875V96.75H233.812V104.812H229.781V108.844H233.812V112.875H225.75V120.938H221.719V124.969H213.656V129H205.594V133.031H193.5V129H189.469V124.969H193.5V120.938H197.531V116.906H201.562V96.75H205.594V92.7188H209.625V84.6562H201.562V88.6875H197.531V72.5625H193.5V68.5312H177.375V72.5625H173.344V80.625H161.25V92.7188H165.281V96.75H169.312V108.844H165.281V116.906H169.312V120.938H149.156V112.875H145.125V96.75H149.156V92.7188H145.125V76.5938H157.219V72.5625H161.25V68.5312H165.281V64.5H169.312V56.4375H165.281V52.4062H153.188V48.375H157.219V36.2812H161.25V28.2188H165.281V20.1562H161.25V16.125H157.219V12.0938H165.281V16.125H205.594V12.0938H213.656ZM213.656 12.0938V8.0625H217.688V12.0938H213.656ZM217.688 8.0625H221.719V4.03125H217.688V8.0625ZM197.531 88.6875H189.469V92.7188H197.531V88.6875ZM177.375 92.7188H173.344V88.6875H181.406V96.75H177.375V92.7188ZM237.844 149.156V161.25H241.875V165.281H233.812V149.156H237.844ZM185.438 165.281H181.406V169.312H173.344V173.344H169.312V169.312H165.281V161.25H185.438V165.281ZM169.312 177.375H149.156V173.344H169.312V177.375ZM241.875 209.625V225.75H237.844V209.625H241.875ZM237.844 229.781H233.812V225.75H237.844V229.781ZM173.344 237.844H169.312V233.812H173.344V237.844ZM197.531 237.844H185.438V233.812H197.531V237.844Z" fill="#D9A46E"/>
<path fill-rule="evenodd" clip-rule="evenodd" d="M225.75 8.0625H221.719V4.03125H225.75V8.0625ZM217.688 12.0938V8.0625H221.719V12.0938H217.688ZM217.688 12.0938H213.656V16.125H209.625V28.2188H213.656V20.1562H217.688V12.0938ZM221.719 32.25H217.688V28.2188H221.719V32.25ZM225.75 36.2812H221.719V32.25H225.75V36.2812ZM225.75 36.2812V48.375H229.781V36.2812H225.75ZM237.844 60.4688H233.812V56.4375H237.844V60.4688ZM241.875 68.5312H237.844V64.5H241.875V68.5312ZM245.906 76.5938H241.875V72.5625H245.906V76.5938ZM249.938 76.5938V84.6562H245.906V76.5938H249.938ZM233.812 145.125H229.781V141.094H233.812V145.125ZM237.844 149.156H233.812V145.125H237.844V149.156ZM237.844 149.156V161.25H241.875V165.281H245.906V157.219H241.875V149.156H237.844Z" fill="#EDD5A6"/>
<path fill-rule="evenodd" clip-rule="evenodd" d="M141.094 8.0625V12.0938H145.125V16.125H149.156V20.1562H141.094V16.125H137.062V20.1562H133.031V24.1875H137.062V32.25H133.031V36.2812H137.062V48.375H133.031V44.3438H129V16.125H133.031V8.0625H141.094ZM137.062 36.2812H141.094V32.25H137.062V36.2812ZM137.062 24.1875H141.094V20.1562H137.062V24.1875ZM229.781 8.0625V12.0938H233.812V16.125H229.781V20.1562H233.812V16.125H237.844V24.1875H241.875V32.25H237.844V36.2812H241.875V44.3438H237.844V48.375H233.812V36.2812H229.781V32.25H233.812V24.1875H229.781V28.2188H225.75V16.125H221.719V12.0938H225.75V8.0625H229.781ZM185.438 116.906H181.406V112.875H185.438V116.906Z" fill="#FF6F80"/>
<path fill-rule="evenodd" clip-rule="evenodd" d="M149.156 12.0938H145.125V8.0625H149.156V12.0938Z" fill="#BA8651" fill-opacity="0.937255"/>
<path fill-rule="evenodd" clip-rule="evenodd" d="M213.656 12.0938H209.625V8.0625H213.656V12.0938ZM205.594 60.4688H201.562V56.4375H205.594V60.4688Z" fill="#D8A36E"/>
<path fill-rule="evenodd" clip-rule="evenodd" d="M233.812 12.0938H229.781V8.0625H237.844V12.0938H241.875V24.1875H237.844V16.125H233.812V12.0938ZM241.875 36.2812H237.844V32.25H241.875V36.2812ZM189.469 116.906H185.438V112.875H189.469V116.906Z" fill="#FFA3AE"/>
<path fill-rule="evenodd" clip-rule="evenodd" d="M153.188 16.125H149.156V12.0938H153.188V16.125Z" fill="#BA8651" fill-opacity="0.996078"/>
<path fill-rule="evenodd" clip-rule="evenodd" d="M157.219 12.0938V16.125H161.25V20.1562H165.281V28.2188H161.25V36.2812H157.219V40.3125H145.125V48.375H141.094V36.2812H145.125V32.25H149.156V28.2188H153.188V24.1875H157.219V20.1562H153.188V12.0938H157.219ZM133.031 64.5V84.6562H129V104.812H133.031V108.844H124.969V100.781H116.906V80.625H120.938V72.5625H124.969V64.5H133.031ZM177.375 88.6875H173.344V84.6562H177.375V88.6875ZM197.531 88.6875H193.5V84.6562H197.531V88.6875ZM189.469 92.7188H181.406V88.6875H189.469V92.7188ZM141.094 129H133.031V124.969H141.094V129ZM137.062 133.031V137.062H129V133.031H137.062ZM145.125 137.062V141.094H161.25V145.125H149.156V149.156H145.125V157.219H141.094V177.375H145.125V181.406H149.156V185.438H137.062V197.531H141.094V201.562H145.125V209.625H149.156V225.75H141.094V217.688H137.062V209.625H133.031V205.594H124.969V201.562H120.938V193.5H116.906V173.344H120.938V169.312H124.969V161.25H129V157.219H133.031V153.188H137.062V145.125H141.094V141.094H137.062V137.062H145.125ZM149.156 177.375H169.312V181.406H149.156V177.375ZM149.156 177.375V169.312H145.125V177.375H149.156ZM149.156 185.438V189.469H153.188V193.5H157.219V185.438H149.156ZM145.125 137.062V133.031H149.156V137.062H145.125ZM124.969 141.094H120.938V137.062H124.969V141.094ZM169.312 145.125H165.281V141.094H169.312V145.125ZM237.844 205.594V225.75H221.719V221.719H225.75V217.688H229.781V213.656H233.812V205.594H237.844ZM217.688 229.781V225.75H221.719V229.781H217.688ZM217.688 229.781H213.656V233.812H205.594V237.844H217.688V229.781ZM173.344 233.812H169.312V229.781H173.344V233.812ZM169.312 237.844H165.281V233.812H169.312V237.844Z" fill="#BA8651"/>
<path fill-rule="evenodd" clip-rule="evenodd" d="M141.094 20.1562H137.062V16.125H141.094V20.1562ZM141.094 28.2188V20.1562H145.125V28.2188H141.094ZM141.094 28.2188H137.062V32.25H133.031V36.2812H137.062V32.25H141.094V28.2188ZM225.75 20.1562H221.719V16.125H225.75V20.1562ZM221.719 24.1875H217.688V20.1562H221.719V24.1875ZM225.75 28.2188H221.719V24.1875H225.75V28.2188ZM225.75 28.2188V32.25H233.812V28.2188H225.75ZM233.812 20.1562H229.781V16.125H233.812V20.1562ZM137.062 24.1875H133.031V20.1562H137.062V24.1875Z" fill="#EB5C6D"/>
<path fill-rule="evenodd" clip-rule="evenodd" d="M149.156 20.1562V28.2188H145.125V20.1562H149.156ZM141.094 28.2188H145.125V32.25H141.094V28.2188ZM141.094 28.2188V24.1875H137.062V28.2188H141.094ZM225.75 24.1875H221.719V20.1562H225.75V24.1875ZM233.812 28.2188H229.781V24.1875H233.812V28.2188Z" fill="#E24E60"/>
<path fill-rule="evenodd" clip-rule="evenodd" d="M157.219 24.1875H153.188V20.1562H157.219V24.1875ZM133.031 124.969H129V120.938H133.031V124.969ZM129 141.094H124.969V137.062H129V141.094ZM137.062 153.188H133.031V149.156H137.062V153.188ZM124.969 169.312H120.938V165.281H124.969V169.312ZM120.938 197.531H116.906V193.5H120.938V197.531ZM145.125 229.781H141.094V225.75H145.125V229.781Z" fill="#B98651"/>
<path fill-rule="evenodd" clip-rule="evenodd" d="M217.688 28.2188H213.656V24.1875H217.688V28.2188Z" fill="#ECD2A3" fill-opacity="0.980392"/>
<path fill-rule="evenodd" clip-rule="evenodd" d="M149.156 44.3438H145.125V40.3125H149.156V44.3438ZM141.094 52.4062H137.062V48.375H141.094V52.4062ZM141.094 197.531H137.062V193.5H141.094V197.531ZM149.156 209.625H145.125V205.594H149.156V209.625ZM225.75 229.781H221.719V225.75H225.75V229.781Z" fill="#BA8652"/>
<path fill-rule="evenodd" clip-rule="evenodd" d="M153.188 44.3438H149.156V40.3125H153.188V44.3438ZM225.75 233.812H221.719V229.781H225.75V233.812Z" fill="#BD8854"/>
<path fill-rule="evenodd" clip-rule="evenodd" d="M157.219 40.3125V48.375H153.188V40.3125H157.219ZM149.156 116.906H145.125V112.875H149.156V116.906ZM153.188 124.969H149.156V120.938H153.188V124.969Z" fill="#D8A36D"/>
<path fill-rule="evenodd" clip-rule="evenodd" d="M149.156 48.375H145.125V44.3438H149.156V48.375ZM165.281 137.062H161.25V133.031H165.281V137.062Z" fill="#BF8B55"/>
<path fill-rule="evenodd" clip-rule="evenodd" d="M153.188 48.375H149.156V44.3438H153.188V48.375Z" fill="#C9965F"/>
<path fill-rule="evenodd" clip-rule="evenodd" d="M145.125 52.4062H141.094V48.375H145.125V52.4062ZM133.031 64.5H129V60.4688H133.031V64.5ZM145.125 133.031H141.094V129H145.125V133.031ZM153.188 137.062H149.156V133.031H153.188V137.062ZM165.281 145.125H161.25V141.094H165.281V145.125Z" fill="#BB8651"/>
<path fill-rule="evenodd" clip-rule="evenodd" d="M149.156 52.4062H145.125V48.375H149.156V52.4062Z" fill="#C39159"/>
<path fill-rule="evenodd" clip-rule="evenodd" d="M153.188 52.4062H149.156V48.375H153.188V52.4062Z" fill="#D39D68"/>
<path fill-rule="evenodd" clip-rule="evenodd" d="M221.719 52.4062H217.688V48.375H221.719V52.4062ZM233.812 165.281H229.781V161.25H233.812V165.281Z" fill="#D9A36F"/>
<path fill-rule="evenodd" clip-rule="evenodd" d="M225.75 52.4062H221.719V48.375H225.75V52.4062ZM245.906 169.312H241.875V165.281H245.906V169.312Z" fill="#D8A46F"/>
<path fill-rule="evenodd" clip-rule="evenodd" d="M229.781 52.4062H225.75V48.375H229.781V52.4062ZM241.875 100.781H237.844V96.75H241.875V100.781Z" fill="#DAA570"/>
<path fill-rule="evenodd" clip-rule="evenodd" d="M233.812 52.4062H229.781V48.375H233.812V52.4062Z" fill="#EDD5A5"/>
<path fill-rule="evenodd" clip-rule="evenodd" d="M141.094 56.4375H137.062V52.4062H141.094V56.4375ZM153.188 213.656H149.156V209.625H153.188V213.656Z" fill="#BB8753"/>
<path fill-rule="evenodd" clip-rule="evenodd" d="M145.125 56.4375H141.094V52.4062H145.125V56.4375ZM137.062 76.5938H133.031V72.5625H137.062V76.5938Z" fill="#BF8A54"/>
<path fill-rule="evenodd" clip-rule="evenodd" d="M149.156 56.4375H145.125V52.4062H149.156V56.4375Z" fill="#C5925C"/>
<path fill-rule="evenodd" clip-rule="evenodd" d="M165.281 56.4375H161.25V52.4062H165.281V56.4375Z" fill="#D9A773"/>
<path fill-rule="evenodd" clip-rule="evenodd" d="M225.75 56.4375H221.719V52.4062H225.75V56.4375Z" fill="#D5A26F"/>
<path fill-rule="evenodd" clip-rule="evenodd" d="M229.781 56.4375H225.75V52.4062H229.781V56.4375Z" fill="#D9A572"/>
<path fill-rule="evenodd" clip-rule="evenodd" d="M233.812 56.4375H229.781V52.4062H233.812V56.4375Z" fill="#EBD1A1"/>
<path fill-rule="evenodd" clip-rule="evenodd" d="M129 60.4688H124.969V56.4375H129V60.4688Z" fill="#BF8060" fill-opacity="0.0313726"/>
<path fill-rule="evenodd" clip-rule="evenodd" d="M137.062 60.4688H133.031V56.4375H137.062V60.4688Z" fill="#BD8A55"/>
<path fill-rule="evenodd" clip-rule="evenodd" d="M141.094 60.4688H137.062V56.4375H141.094V60.4688ZM149.156 157.219H145.125V153.188H149.156V157.219Z" fill="#C28E5A"/>
<path fill-rule="evenodd" clip-rule="evenodd" d="M145.125 60.4688H141.094V56.4375H145.125V60.4688Z" fill="#C5905D"/>
<path fill-rule="evenodd" clip-rule="evenodd" d="M161.25 60.4688H157.219V56.4375H161.25V60.4688Z" fill="#D9D1C6"/>
<path fill-rule="evenodd" clip-rule="evenodd" d="M169.312 60.4688H165.281V56.4375H169.312V60.4688ZM157.219 197.531H153.188V193.5H157.219V197.531Z" fill="#D9A46C"/>
<path fill-rule="evenodd" clip-rule="evenodd" d="M221.719 60.4688H217.688V56.4375H221.719V60.4688Z" fill="#DBD5D2"/>
<path fill-rule="evenodd" clip-rule="evenodd" d="M229.781 60.4688H225.75V56.4375H229.781V60.4688Z" fill="#D5A16D"/>
<path fill-rule="evenodd" clip-rule="evenodd" d="M233.812 60.4688H229.781V56.4375H233.812V60.4688Z" fill="#D7A36E"/>
<path fill-rule="evenodd" clip-rule="evenodd" d="M137.062 64.5H133.031V60.4688H137.062V64.5ZM133.031 96.75H129V92.7188H133.031V96.75ZM161.25 149.156H157.219V145.125H161.25V149.156Z" fill="#BE8A56"/>
<path fill-rule="evenodd" clip-rule="evenodd" d="M141.094 64.5H137.062V60.4688H141.094V64.5Z" fill="#C89460"/>
<path fill-rule="evenodd" clip-rule="evenodd" d="M145.125 64.5H141.094V60.4688H145.125V64.5Z" fill="#C7925E"/>
<path fill-rule="evenodd" clip-rule="evenodd" d="M169.312 64.5H165.281V60.4688H169.312V64.5ZM173.344 177.375H169.312V173.344H173.344V177.375Z" fill="#D9A36D"/>
<path fill-rule="evenodd" clip-rule="evenodd" d="M205.594 64.5H201.562V60.4688H205.594V64.5Z" fill="#D7A46C"/>
<path fill-rule="evenodd" clip-rule="evenodd" d="M229.781 64.5H225.75V60.4688H229.781V64.5Z" fill="#D5A26D"/>
<path fill-rule="evenodd" clip-rule="evenodd" d="M241.875 64.5H237.844V60.4688H241.875V64.5Z" fill="#ECD2A3" fill-opacity="0.984314"/>
<path fill-rule="evenodd" clip-rule="evenodd" d="M137.062 68.5312H133.031V64.5H137.062V68.5312Z" fill="#BC8854"/>
<path fill-rule="evenodd" clip-rule="evenodd" d="M141.094 68.5312H137.062V64.5H141.094V68.5312Z" fill="#C89562"/>
<path fill-rule="evenodd" clip-rule="evenodd" d="M145.125 68.5312H141.094V64.5H145.125V68.5312Z" fill="#CA9563"/>
<path fill-rule="evenodd" clip-rule="evenodd" d="M149.156 68.5312H145.125V64.5H149.156V68.5312Z" fill="#C5945E"/>
<path fill-rule="evenodd" clip-rule="evenodd" d="M165.281 68.5312H161.25V64.5H165.281V68.5312ZM221.719 72.5625H217.688V68.5312H221.719V72.5625Z" fill="#D7A36D"/>
<path fill-rule="evenodd" clip-rule="evenodd" d="M205.594 68.5312H201.562V64.5H205.594V68.5312Z" fill="#D9A26E"/>
<path fill-rule="evenodd" clip-rule="evenodd" d="M209.625 68.5312H205.594V64.5H209.625V68.5312Z" fill="#D29F6B"/>
<path fill-rule="evenodd" clip-rule="evenodd" d="M225.75 68.5312H221.719V64.5H225.75V68.5312Z" fill="#D79F6D"/>
<path fill-rule="evenodd" clip-rule="evenodd" d="M249.938 68.5312H245.906V64.5H249.938V68.5312Z" fill="#CC9966" fill-opacity="0.0196078"/>
<path fill-rule="evenodd" clip-rule="evenodd" d="M137.062 72.5625H133.031V68.5312H137.062V72.5625Z" fill="#BD8852"/>
<path fill-rule="evenodd" clip-rule="evenodd" d="M141.094 72.5625H137.062V68.5312H141.094V72.5625Z" fill="#C99460"/>
<path fill-rule="evenodd" clip-rule="evenodd" d="M145.125 72.5625H141.094V68.5312H145.125V72.5625Z" fill="#D09B68"/>
<path fill-rule="evenodd" clip-rule="evenodd" d="M149.156 72.5625H145.125V68.5312H149.156V72.5625Z" fill="#CD9A66"/>
<path fill-rule="evenodd" clip-rule="evenodd" d="M153.188 72.5625H149.156V68.5312H153.188V72.5625Z" fill="#CF9A68"/>
<path fill-rule="evenodd" clip-rule="evenodd" d="M157.219 72.5625H153.188V68.5312H157.219V72.5625Z" fill="#D5A16B"/>
<path fill-rule="evenodd" clip-rule="evenodd" d="M161.25 72.5625H157.219V68.5312H161.25V72.5625ZM145.125 84.6562H141.094V80.625H145.125V84.6562ZM169.312 173.344H165.281V169.312H169.312V173.344Z" fill="#D9A36E"/>
<path fill-rule="evenodd" clip-rule="evenodd" d="M213.656 72.5625H209.625V68.5312H213.656V72.5625ZM185.438 137.062H181.406V133.031H185.438V137.062Z" fill="#D8A36C"/>
<path fill-rule="evenodd" clip-rule="evenodd" d="M217.688 72.5625H213.656V68.5312H217.688V72.5625ZM145.125 100.781H141.094V96.75H145.125V100.781ZM169.312 213.656H165.281V209.625H169.312V213.656Z" fill="#D6A16C"/>
<path fill-rule="evenodd" clip-rule="evenodd" d="M225.75 72.5625H221.719V68.5312H225.75V72.5625Z" fill="#D8A46D"/>
<path fill-rule="evenodd" clip-rule="evenodd" d="M245.906 72.5625H241.875V68.5312H245.906V72.5625Z" fill="#EFD9AB" fill-opacity="0.690196"/>
<path fill-rule="evenodd" clip-rule="evenodd" d="M141.094 76.5938H137.062V72.5625H141.094V76.5938Z" fill="#C6935C"/>
<path fill-rule="evenodd" clip-rule="evenodd" d="M145.125 76.5938H141.094V72.5625H145.125V76.5938Z" fill="#D79F6C"/>
<path fill-rule="evenodd" clip-rule="evenodd" d="M149.156 76.5938H145.125V72.5625H149.156V76.5938Z" fill="#D8A26D"/>
<path fill-rule="evenodd" clip-rule="evenodd" d="M153.188 76.5938H149.156V72.5625H153.188V76.5938ZM165.281 173.344H153.188V169.312H165.281V173.344Z" fill="#D8A46E"/>
<path fill-rule="evenodd" clip-rule="evenodd" d="M157.219 76.5938H153.188V72.5625H157.219V76.5938ZM149.156 96.75H145.125V92.7188H149.156V96.75Z" fill="#D9A46D"/>
<path fill-rule="evenodd" clip-rule="evenodd" d="M253.969 76.5938H249.938V72.5625H253.969V76.5938Z" fill="#DBB680" fill-opacity="0.054902"/>
<path fill-rule="evenodd" clip-rule="evenodd" d="M137.062 80.625H133.031V76.5938H137.062V80.625Z" fill="#C18D57"/>
<path fill-rule="evenodd" clip-rule="evenodd" d="M141.094 80.625H137.062V76.5938H141.094V80.625ZM157.219 165.281H153.188V161.25H157.219V165.281Z" fill="#D09A66"/>
<path fill-rule="evenodd" clip-rule="evenodd" d="M145.125 80.625H141.094V76.5938H145.125V80.625ZM145.125 88.6875H141.094V84.6562H145.125V88.6875Z" fill="#D8A16D"/>
<path fill-rule="evenodd" clip-rule="evenodd" d="M137.062 84.6562H133.031V80.625H137.062V84.6562Z" fill="#C6915C"/>
<path fill-rule="evenodd" clip-rule="evenodd" d="M141.094 84.6562H137.062V80.625H141.094V84.6562Z" fill="#D19C67"/>
<path fill-rule="evenodd" clip-rule="evenodd" d="M165.281 84.6562H161.25V80.625H165.281V84.6562ZM173.344 84.6562H169.312V80.625H173.344V84.6562ZM193.5 96.75H189.469V92.7188H193.5V96.75ZM237.844 100.781H233.812V96.75H237.844V100.781ZM217.688 129H213.656V124.969H217.688V129ZM181.406 237.844H173.344V233.812H181.406V237.844Z" fill="#D9A56E"/>
<path fill-rule="evenodd" clip-rule="evenodd" d="M169.312 84.6562H165.281V80.625H169.312V84.6562ZM177.375 233.812H173.344V229.781H177.375V233.812Z" fill="#D9A872"/>
<path fill-rule="evenodd" clip-rule="evenodd" d="M133.031 88.6875H129V84.6562H133.031V88.6875ZM149.156 153.188H145.125V149.156H149.156V153.188Z" fill="#BC8853"/>
<path fill-rule="evenodd" clip-rule="evenodd" d="M137.062 88.6875H133.031V84.6562H137.062V88.6875Z" fill="#CC9760"/>
<path fill-rule="evenodd" clip-rule="evenodd" d="M141.094 88.6875H137.062V84.6562H141.094V88.6875Z" fill="#D29D67"/>
<path fill-rule="evenodd" clip-rule="evenodd" d="M169.312 88.6875H165.281V84.6562H169.312V88.6875Z" fill="#EACF9F"/>
<path fill-rule="evenodd" clip-rule="evenodd" d="M173.344 88.6875H169.312V84.6562H173.344V88.6875ZM245.906 104.812H241.875V100.781H245.906V104.812ZM237.844 116.906H233.812V112.875H237.844V116.906Z" fill="#DCAC77"/>
<path fill-rule="evenodd" clip-rule="evenodd" d="M205.594 88.6875H201.562V84.6562H205.594V88.6875Z" fill="#EACF9D"/>
<path fill-rule="evenodd" clip-rule="evenodd" d="M249.938 88.6875H245.906V84.6562H249.938V88.6875ZM229.781 116.906H225.75V112.875H229.781V116.906ZM157.219 124.969H153.188V120.938H157.219V124.969ZM189.469 133.031H185.438V129H189.469V133.031Z" fill="#D9A46F"/>
<path fill-rule="evenodd" clip-rule="evenodd" d="M258 88.6875H253.969V84.6562H258V88.6875Z" fill="#DCAA78" fill-opacity="0.141176"/>
<path fill-rule="evenodd" clip-rule="evenodd" d="M133.031 92.7188H129V88.6875H133.031V92.7188Z" fill="#C28D57"/>
<path fill-rule="evenodd" clip-rule="evenodd" d="M137.062 92.7188H133.031V88.6875H137.062V92.7188Z" fill="#D09964"/>
<path fill-rule="evenodd" clip-rule="evenodd" d="M141.094 92.7188H137.062V88.6875H141.094V92.7188Z" fill="#D19C69"/>
<path fill-rule="evenodd" clip-rule="evenodd" d="M145.125 92.7188H141.094V88.6875H145.125V92.7188Z" fill="#D7A16C"/>
<path fill-rule="evenodd" clip-rule="evenodd" d="M169.312 92.7188H165.281V88.6875H169.312V92.7188Z" fill="#ECD3A3"/>
<path fill-rule="evenodd" clip-rule="evenodd" d="M173.344 92.7188H169.312V88.6875H173.344V92.7188Z" fill="#E3BD8A"/>
<path fill-rule="evenodd" clip-rule="evenodd" d="M201.562 92.7188H197.531V88.6875H201.562V92.7188ZM237.844 108.844H233.812V104.812H237.844V108.844Z" fill="#DAA671"/>
<path fill-rule="evenodd" clip-rule="evenodd" d="M205.594 92.7188H201.562V88.6875H205.594V92.7188Z" fill="#E6C695"/>
<path fill-rule="evenodd" clip-rule="evenodd" d="M249.938 92.7188H245.906V88.6875H249.938V92.7188Z" fill="#D9A571"/>
<path fill-rule="evenodd" clip-rule="evenodd" d="M253.969 92.7188H249.938V88.6875H253.969V92.7188Z" fill="#E7C795"/>
<path fill-rule="evenodd" clip-rule="evenodd" d="M137.062 96.75H133.031V92.7188H137.062V96.75Z" fill="#CD9763"/>
<path fill-rule="evenodd" clip-rule="evenodd" d="M141.094 96.75H137.062V92.7188H141.094V96.75Z" fill="#D19C66"/>
<path fill-rule="evenodd" clip-rule="evenodd" d="M145.125 96.75H141.094V92.7188H145.125V96.75ZM177.375 129H173.344V124.969H177.375V129Z" fill="#D6A16D"/>
<path fill-rule="evenodd" clip-rule="evenodd" d="M173.344 96.75H169.312V92.7188H173.344V96.75Z" fill="#EBCF9F"/>
<path fill-rule="evenodd" clip-rule="evenodd" d="M177.375 96.75H173.344V92.7188H177.375V96.75Z" fill="#DDB07B"/>
<path fill-rule="evenodd" clip-rule="evenodd" d="M197.531 96.75H193.5V92.7188H197.531V96.75ZM233.812 108.844H229.781V104.812H233.812V108.844Z" fill="#DAA56F"/>
<path fill-rule="evenodd" clip-rule="evenodd" d="M201.562 96.75H197.531V92.7188H201.562V96.75Z" fill="#E2BA87"/>
<path fill-rule="evenodd" clip-rule="evenodd" d="M245.906 96.75H241.875V92.7188H245.906V96.75ZM237.844 112.875H233.812V108.844H237.844V112.875ZM165.281 124.969H161.25V120.938H165.281V124.969Z" fill="#D9A670"/>
<path fill-rule="evenodd" clip-rule="evenodd" d="M249.938 96.75H245.906V92.7188H249.938V96.75ZM173.344 120.938H169.312V116.906H173.344V120.938Z" fill="#DBAB75"/>
<path fill-rule="evenodd" clip-rule="evenodd" d="M253.969 96.75H249.938V92.7188H253.969V96.75Z" fill="#E5C190"/>
<path fill-rule="evenodd" clip-rule="evenodd" d="M133.031 100.781H129V96.75H133.031V100.781Z" fill="#BD8954"/>
<path fill-rule="evenodd" clip-rule="evenodd" d="M137.062 100.781H133.031V96.75H137.062V100.781Z" fill="#CC9661"/>
<path fill-rule="evenodd" clip-rule="evenodd" d="M141.094 100.781H137.062V96.75H141.094V100.781Z" fill="#D19B64"/>
<path fill-rule="evenodd" clip-rule="evenodd" d="M185.438 96.75V104.812H181.406V96.75H185.438ZM197.531 100.781V108.844H185.438V104.812H193.5V100.781H197.531ZM177.375 108.844H173.344V104.812H177.375V108.844Z" fill="#4E2E32"/>
<path fill-rule="evenodd" clip-rule="evenodd" d="M189.469 96.75V100.781H193.5V104.812H185.438V96.75H189.469ZM177.375 104.812H173.344V100.781H177.375V104.812Z" fill="#392326"/>
<path fill-rule="evenodd" clip-rule="evenodd" d="M245.906 100.781H241.875V96.75H245.906V100.781Z" fill="#DEB07B"/>
<path fill-rule="evenodd" clip-rule="evenodd" d="M249.938 100.781H245.906V96.75H249.938V100.781Z" fill="#DDB37E"/>
<path fill-rule="evenodd" clip-rule="evenodd" d="M253.969 100.781H249.938V96.75H253.969V100.781Z" fill="#E5BF8F" fill-opacity="0.996078"/>
<path fill-rule="evenodd" clip-rule="evenodd" d="M120.938 104.812H116.906V100.781H120.938V104.812ZM133.031 112.875H129V108.844H133.031V112.875ZM133.031 157.219H129V153.188H133.031V157.219Z" fill="#BA8451"/>
<path fill-rule="evenodd" clip-rule="evenodd" d="M124.969 104.812H120.938V100.781H124.969V104.812Z" fill="#B98351"/>
<path fill-rule="evenodd" clip-rule="evenodd" d="M133.031 104.812H129V100.781H133.031V104.812Z" fill="#BC8751"/>
<path fill-rule="evenodd" clip-rule="evenodd" d="M137.062 104.812H133.031V100.781H137.062V104.812Z" fill="#C5905B"/>
<path fill-rule="evenodd" clip-rule="evenodd" d="M141.094 104.812H137.062V100.781H141.094V104.812Z" fill="#CD9865"/>
<path fill-rule="evenodd" clip-rule="evenodd" d="M145.125 104.812H141.094V100.781H145.125V104.812Z" fill="#D6A16B"/>
<path fill-rule="evenodd" clip-rule="evenodd" d="M181.406 100.781V104.812H185.438V108.844H177.375V100.781H181.406Z" fill="#5F2E34"/>
<path fill-rule="evenodd" clip-rule="evenodd" d="M237.844 104.812H233.812V100.781H237.844V104.812ZM169.312 124.969H165.281V120.938H169.312V124.969Z" fill="#D9A771"/>
<path fill-rule="evenodd" clip-rule="evenodd" d="M241.875 104.812H237.844V100.781H241.875V104.812Z" fill="#DAA973"/>
<path fill-rule="evenodd" clip-rule="evenodd" d="M249.938 104.812H245.906V100.781H249.938V104.812Z" fill="#E0B886"/>
<path fill-rule="evenodd" clip-rule="evenodd" d="M253.969 104.812H249.938V100.781H253.969V104.812Z" fill="#E6C290" fill-opacity="0.996078"/>
<path fill-rule="evenodd" clip-rule="evenodd" d="M120.938 108.844H116.906V104.812H120.938V108.844Z" fill="#B58250"/>
<path fill-rule="evenodd" clip-rule="evenodd" d="M124.969 108.844H120.938V104.812H124.969V108.844Z" fill="#B68451"/>
<path fill-rule="evenodd" clip-rule="evenodd" d="M137.062 108.844H133.031V104.812H137.062V108.844Z" fill="#C08C54"/>
<path fill-rule="evenodd" clip-rule="evenodd" d="M141.094 108.844H137.062V104.812H141.094V108.844Z" fill="#CC9762"/>
<path fill-rule="evenodd" clip-rule="evenodd" d="M145.125 108.844H141.094V104.812H145.125V108.844Z" fill="#D69F6B"/>
<path fill-rule="evenodd" clip-rule="evenodd" d="M241.875 108.844H237.844V104.812H241.875V108.844Z" fill="#DAA971"/>
<path fill-rule="evenodd" clip-rule="evenodd" d="M245.906 108.844H241.875V104.812H245.906V108.844Z" fill="#DCAD78"/>
<path fill-rule="evenodd" clip-rule="evenodd" d="M249.938 108.844H245.906V104.812H249.938V108.844Z" fill="#E2B986"/>
<path fill-rule="evenodd" clip-rule="evenodd" d="M258 108.844H253.969V104.812H258V108.844Z" fill="#E6B380" fill-opacity="0.0392157"/>
<path fill-rule="evenodd" clip-rule="evenodd" d="M124.969 112.875H120.938V108.844H124.969V112.875ZM124.969 233.812H120.938V229.781H124.969V233.812Z" fill="#B58350"/>
<path fill-rule="evenodd" clip-rule="evenodd" d="M129 112.875H124.969V108.844H129V112.875Z" fill="#B78651"/>
<path fill-rule="evenodd" clip-rule="evenodd" d="M137.062 112.875H133.031V108.844H137.062V112.875Z" fill="#BE8954"/>
<path fill-rule="evenodd" clip-rule="evenodd" d="M141.094 112.875H137.062V108.844H141.094V112.875Z" fill="#C7935C"/>
<path fill-rule="evenodd" clip-rule="evenodd" d="M145.125 112.875H141.094V108.844H145.125V112.875Z" fill="#D2A06B"/>
<path fill-rule="evenodd" clip-rule="evenodd" d="M169.312 112.875H165.281V108.844H169.312V112.875Z" fill="#D9A56F"/>
<path fill-rule="evenodd" clip-rule="evenodd" d="M181.406 112.875H177.375V108.844H181.406V112.875Z" fill="#87303A"/>
<path fill-rule="evenodd" clip-rule="evenodd" d="M189.469 112.875H181.406V108.844H189.469V112.875ZM181.406 116.906H177.375V112.875H181.406V116.906ZM193.5 116.906H189.469V112.875H193.5V116.906Z" fill="#D64556"/>
<path fill-rule="evenodd" clip-rule="evenodd" d="M193.5 112.875H189.469V108.844H193.5V112.875Z" fill="#7D1B27"/>
<path fill-rule="evenodd" clip-rule="evenodd" d="M241.875 112.875H237.844V108.844H241.875V112.875Z" fill="#DBAA75"/>
<path fill-rule="evenodd" clip-rule="evenodd" d="M245.906 112.875H241.875V108.844H245.906V112.875Z" fill="#DFB481"/>
<path fill-rule="evenodd" clip-rule="evenodd" d="M249.938 112.875H245.906V108.844H249.938V112.875Z" fill="#E4C08F"/>
<path fill-rule="evenodd" clip-rule="evenodd" d="M124.969 116.906H120.938V112.875H124.969V116.906ZM129 149.156H124.969V145.125H129V149.156ZM112.875 173.344H104.812V169.312H112.875V173.344Z" fill="#B4824E"/>
<path fill-rule="evenodd" clip-rule="evenodd" d="M129 116.906H124.969V112.875H129V116.906ZM120.938 201.562H116.906V197.531H120.938V201.562ZM137.062 217.688H133.031V213.656H137.062V217.688Z" fill="#B78450"/>
<path fill-rule="evenodd" clip-rule="evenodd" d="M137.062 116.906H129V112.875H137.062V116.906ZM141.094 145.125H137.062V141.094H141.094V145.125ZM112.875 229.781H108.844V225.75H112.875V229.781Z" fill="#BA8551"/>
<path fill-rule="evenodd" clip-rule="evenodd" d="M141.094 116.906H137.062V112.875H141.094V116.906Z" fill="#C28F58"/>
<path fill-rule="evenodd" clip-rule="evenodd" d="M145.125 116.906H141.094V112.875H145.125V116.906Z" fill="#D19A65"/>
<path fill-rule="evenodd" clip-rule="evenodd" d="M169.312 116.906H165.281V112.875H169.312V116.906Z" fill="#DDB17A"/>
<path fill-rule="evenodd" clip-rule="evenodd" d="M173.344 116.906H169.312V112.875H173.344V116.906Z" fill="#DCB27C"/>
<path fill-rule="evenodd" clip-rule="evenodd" d="M201.562 116.906H197.531V112.875H201.562V116.906ZM193.5 120.938V116.906H197.531V120.938H193.5ZM193.5 120.938H189.469V124.969H193.5V120.938Z" fill="#E4CD99"/>
<path fill-rule="evenodd" clip-rule="evenodd" d="M233.812 116.906H229.781V112.875H233.812V116.906ZM229.781 120.938H225.75V116.906H229.781V120.938Z" fill="#D9A570"/>
<path fill-rule="evenodd" clip-rule="evenodd" d="M241.875 116.906H237.844V112.875H241.875V116.906Z" fill="#DEAC7A"/>
<path fill-rule="evenodd" clip-rule="evenodd" d="M245.906 116.906H241.875V112.875H245.906V116.906Z" fill="#E2B885"/>
<path fill-rule="evenodd" clip-rule="evenodd" d="M249.938 116.906H245.906V112.875H249.938V116.906Z" fill="#E9C698"/>
<path fill-rule="evenodd" clip-rule="evenodd" d="M120.938 120.938H116.906V116.906H120.938V120.938Z" fill="#996633" fill-opacity="0.0196078"/>
<path fill-rule="evenodd" clip-rule="evenodd" d="M129 120.938H124.969V116.906H129V120.938ZM116.906 197.531H112.875V193.5H116.906V197.531ZM116.906 229.781H112.875V225.75H116.906V229.781Z" fill="#B68350"/>
<path fill-rule="evenodd" clip-rule="evenodd" d="M133.031 120.938H129V116.906H133.031V120.938Z" fill="#B58450"/>
<path fill-rule="evenodd" clip-rule="evenodd" d="M137.062 120.938H133.031V116.906H137.062V120.938Z" fill="#B98751"/>
<path fill-rule="evenodd" clip-rule="evenodd" d="M141.094 120.938H137.062V116.906H141.094V120.938Z" fill="#BE8B55"/>
<path fill-rule="evenodd" clip-rule="evenodd" d="M145.125 120.938H141.094V116.906H145.125V120.938Z" fill="#C8945E"/>
<path fill-rule="evenodd" clip-rule="evenodd" d="M149.156 120.938H145.125V116.906H149.156V120.938ZM165.281 165.281H161.25V161.25H165.281V165.281Z" fill="#D39F69"/>
<path fill-rule="evenodd" clip-rule="evenodd" d="M177.375 120.938H173.344V116.906H177.375V120.938Z" fill="#DEB47E"/>
<path fill-rule="evenodd" clip-rule="evenodd" d="M233.812 120.938H229.781V116.906H233.812V120.938Z" fill="#DCAB76"/>
<path fill-rule="evenodd" clip-rule="evenodd" d="M237.844 120.938H233.812V116.906H237.844V120.938ZM189.469 129H185.438V124.969H189.469V129Z" fill="#DBAD78"/>
<path fill-rule="evenodd" clip-rule="evenodd" d="M241.875 120.938H237.844V116.906H241.875V120.938ZM229.781 145.125H225.75V141.094H229.781V145.125Z" fill="#DDAF7A"/>
<path fill-rule="evenodd" clip-rule="evenodd" d="M245.906 120.938H241.875V116.906H245.906V120.938Z" fill="#E3BC8B"/>
<path fill-rule="evenodd" clip-rule="evenodd" d="M253.969 120.938H249.938V116.906H253.969V120.938Z" fill="#D4D4AA" fill-opacity="0.0235294"/>
<path fill-rule="evenodd" clip-rule="evenodd" d="M129 124.969H124.969V120.938H129V124.969Z" fill="#B5844E"/>
<path fill-rule="evenodd" clip-rule="evenodd" d="M137.062 124.969H133.031V120.938H137.062V124.969ZM137.062 213.656H133.031V209.625H137.062V213.656Z" fill="#BA8650"/>
<path fill-rule="evenodd" clip-rule="evenodd" d="M141.094 124.969H137.062V120.938H141.094V124.969Z" fill="#BC8753"/>
<path fill-rule="evenodd" clip-rule="evenodd" d="M145.125 124.969H141.094V120.938H145.125V124.969Z" fill="#C28E59"/>
<path fill-rule="evenodd" clip-rule="evenodd" d="M149.156 124.969H145.125V120.938H149.156V124.969Z" fill="#D39D67"/>
<path fill-rule="evenodd" clip-rule="evenodd" d="M161.25 124.969H157.219V120.938H161.25V124.969Z" fill="#D9A66F"/>
<path fill-rule="evenodd" clip-rule="evenodd" d="M173.344 124.969H169.312V120.938H173.344V124.969Z" fill="#D9A672"/>
<path fill-rule="evenodd" clip-rule="evenodd" d="M177.375 124.969H173.344V120.938H177.375V124.969Z" fill="#DAA974"/>
<path fill-rule="evenodd" clip-rule="evenodd" d="M181.406 124.969H177.375V120.938H181.406V124.969Z" fill="#E1BE8B"/>
<path fill-rule="evenodd" clip-rule="evenodd" d="M185.438 124.969H181.406V120.938H185.438V124.969Z" fill="#E0BE89"/>
<path fill-rule="evenodd" clip-rule="evenodd" d="M189.469 124.969H185.438V120.938H189.469V124.969Z" fill="#E3CA96"/>
<path fill-rule="evenodd" clip-rule="evenodd" d="M225.75 124.969H221.719V120.938H225.75V124.969Z" fill="#DBA774"/>
<path fill-rule="evenodd" clip-rule="evenodd" d="M229.781 124.969H225.75V120.938H229.781V124.969Z" fill="#DFB07E"/>
<path fill-rule="evenodd" clip-rule="evenodd" d="M233.812 124.969H229.781V120.938H233.812V124.969Z" fill="#DEB07C"/>
<path fill-rule="evenodd" clip-rule="evenodd" d="M237.844 124.969H233.812V120.938H237.844V124.969Z" fill="#DEAF7F"/>
<path fill-rule="evenodd" clip-rule="evenodd" d="M241.875 124.969H237.844V120.938H241.875V124.969Z" fill="#E2BC88"/>
<path fill-rule="evenodd" clip-rule="evenodd" d="M245.906 124.969H241.875V120.938H245.906V124.969Z" fill="#E9C697"/>
<path fill-rule="evenodd" clip-rule="evenodd" d="M124.969 129H120.938V124.969H124.969V129Z" fill="#808000" fill-opacity="0.01"/>
<path fill-rule="evenodd" clip-rule="evenodd" d="M145.125 129H141.094V124.969H145.125V129ZM145.125 201.562H141.094V197.531H145.125V201.562Z" fill="#BB8953"/>
<path fill-rule="evenodd" clip-rule="evenodd" d="M149.156 129H145.125V124.969H149.156V129Z" fill="#C6925E"/>
<path fill-rule="evenodd" clip-rule="evenodd" d="M153.188 129H149.156V124.969H153.188V129Z" fill="#D09C67"/>
<path fill-rule="evenodd" clip-rule="evenodd" d="M157.219 129H153.188V124.969H157.219V129Z" fill="#CF9A64"/>
<path fill-rule="evenodd" clip-rule="evenodd" d="M161.25 129H157.219V124.969H161.25V129Z" fill="#D29E69"/>
<path fill-rule="evenodd" clip-rule="evenodd" d="M165.281 129H161.25V124.969H165.281V129Z" fill="#D49F6B"/>
<path fill-rule="evenodd" clip-rule="evenodd" d="M169.312 129H165.281V124.969H169.312V129Z" fill="#D3A16B"/>
<path fill-rule="evenodd" clip-rule="evenodd" d="M173.344 129H169.312V124.969H173.344V129ZM185.438 169.312H181.406V165.281H185.438V169.312Z" fill="#D49F6A"/>
<path fill-rule="evenodd" clip-rule="evenodd" d="M181.406 129H177.375V124.969H181.406V129Z" fill="#D9A973"/>
<path fill-rule="evenodd" clip-rule="evenodd" d="M185.438 129H181.406V124.969H185.438V129Z" fill="#DCB078"/>
<path fill-rule="evenodd" clip-rule="evenodd" d="M221.719 129H217.688V124.969H221.719V129Z" fill="#DCA975"/>
<path fill-rule="evenodd" clip-rule="evenodd" d="M225.75 129H221.719V124.969H225.75V129Z" fill="#DEB17D"/>
<path fill-rule="evenodd" clip-rule="evenodd" d="M229.781 129H225.75V124.969H229.781V129Z" fill="#DFB381"/>
<path fill-rule="evenodd" clip-rule="evenodd" d="M233.812 129H229.781V124.969H233.812V129Z" fill="#E2B786"/>
<path fill-rule="evenodd" clip-rule="evenodd" d="M237.844 129H233.812V124.969H237.844V129Z" fill="#E6C395"/>
<path fill-rule="evenodd" clip-rule="evenodd" d="M241.875 129H237.844V124.969H241.875V129Z" fill="#ECD0A0"/>
<path fill-rule="evenodd" clip-rule="evenodd" d="M149.156 133.031H145.125V129H149.156V133.031Z" fill="#BB8854"/>
<path fill-rule="evenodd" clip-rule="evenodd" d="M153.188 133.031H149.156V129H153.188V133.031Z" fill="#C08D57"/>
<path fill-rule="evenodd" clip-rule="evenodd" d="M157.219 133.031H153.188V129H157.219V133.031Z" fill="#C38F5A"/>
<path fill-rule="evenodd" clip-rule="evenodd" d="M161.25 133.031H157.219V129H161.25V133.031Z" fill="#CA975F"/>
<path fill-rule="evenodd" clip-rule="evenodd" d="M165.281 133.031H161.25V129H165.281V133.031Z" fill="#CC9863"/>
<path fill-rule="evenodd" clip-rule="evenodd" d="M169.312 133.031H165.281V129H169.312V133.031Z" fill="#CD9964"/>
<path fill-rule="evenodd" clip-rule="evenodd" d="M173.344 133.031H169.312V129H173.344V133.031Z" fill="#CA9660"/>
<path fill-rule="evenodd" clip-rule="evenodd" d="M177.375 133.031H173.344V129H177.375V133.031Z" fill="#CA955E"/>
<path fill-rule="evenodd" clip-rule="evenodd" d="M181.406 133.031H177.375V129H181.406V133.031Z" fill="#D29D66"/>
<path fill-rule="evenodd" clip-rule="evenodd" d="M185.438 133.031H181.406V129H185.438V133.031Z" fill="#D5A06A"/>
<path fill-rule="evenodd" clip-rule="evenodd" d="M193.5 133.031H189.469V129H193.5V133.031Z" fill="#D9A470"/>
<path fill-rule="evenodd" clip-rule="evenodd" d="M209.625 133.031H205.594V129H209.625V133.031Z" fill="#DBA56F"/>
<path fill-rule="evenodd" clip-rule="evenodd" d="M213.656 133.031H209.625V129H213.656V133.031Z" fill="#D9A774"/>
<path fill-rule="evenodd" clip-rule="evenodd" d="M217.688 133.031H213.656V129H217.688V133.031Z" fill="#DDAE7C"/>
<path fill-rule="evenodd" clip-rule="evenodd" d="M221.719 133.031H217.688V129H221.719V133.031Z" fill="#E1B785"/>
<path fill-rule="evenodd" clip-rule="evenodd" d="M225.75 133.031H221.719V129H225.75V133.031Z" fill="#E2BB8B"/>
<path fill-rule="evenodd" clip-rule="evenodd" d="M229.781 133.031H225.75V129H229.781V133.031Z" fill="#E4BC8C"/>
<path fill-rule="evenodd" clip-rule="evenodd" d="M233.812 133.031H229.781V129H233.812V133.031Z" fill="#EACC9D"/>
<path fill-rule="evenodd" clip-rule="evenodd" d="M245.906 133.031H241.875V129H245.906V133.031Z" fill="#D4AA80" fill-opacity="0.0235294"/>
<path fill-rule="evenodd" clip-rule="evenodd" d="M120.938 137.062H116.906V133.031H120.938V137.062Z" fill="#BFBF80" fill-opacity="0.0156863"/>
<path fill-rule="evenodd" clip-rule="evenodd" d="M157.219 137.062H153.188V133.031H157.219V137.062ZM177.375 141.094H173.344V137.062H177.375V141.094Z" fill="#BC8A52"/>
<path fill-rule="evenodd" clip-rule="evenodd" d="M161.25 137.062H157.219V133.031H161.25V137.062Z" fill="#BE8A55"/>
<path fill-rule="evenodd" clip-rule="evenodd" d="M169.312 137.062H165.281V133.031H169.312V137.062Z" fill="#BE8C55"/>
<path fill-rule="evenodd" clip-rule="evenodd" d="M173.344 137.062H169.312V133.031H173.344V137.062Z" fill="#BD8853"/>
<path fill-rule="evenodd" clip-rule="evenodd" d="M177.375 137.062H173.344V133.031H177.375V137.062Z" fill="#D6A068"/>
<path fill-rule="evenodd" clip-rule="evenodd" d="M181.406 137.062H177.375V133.031H181.406V137.062Z" fill="#D7A16B"/>
<path fill-rule="evenodd" clip-rule="evenodd" d="M189.469 137.062H185.438V133.031H189.469V137.062Z" fill="#DBA972"/>
<path fill-rule="evenodd" clip-rule="evenodd" d="M193.5 137.062H189.469V133.031H193.5V137.062Z" fill="#DEAF7C"/>
<path fill-rule="evenodd" clip-rule="evenodd" d="M197.531 137.062H193.5V133.031H197.531V137.062Z" fill="#DEAD7A"/>
<path fill-rule="evenodd" clip-rule="evenodd" d="M201.562 137.062H197.531V133.031H201.562V137.062Z" fill="#DFB07A"/>
<path fill-rule="evenodd" clip-rule="evenodd" d="M205.594 137.062H201.562V133.031H205.594V137.062Z" fill="#DBAB77"/>
<path fill-rule="evenodd" clip-rule="evenodd" d="M209.625 137.062H205.594V133.031H209.625V137.062Z" fill="#DCAB79"/>
<path fill-rule="evenodd" clip-rule="evenodd" d="M213.656 137.062H209.625V133.031H213.656V137.062Z" fill="#E0B687"/>
<path fill-rule="evenodd" clip-rule="evenodd" d="M217.688 137.062H213.656V133.031H217.688V137.062Z" fill="#E4BB8B"/>
<path fill-rule="evenodd" clip-rule="evenodd" d="M133.031 141.094H129V137.062H133.031V141.094ZM141.094 221.719H137.062V217.688H141.094V221.719ZM120.938 233.812H116.906V229.781H120.938V233.812Z" fill="#B88650"/>
<path fill-rule="evenodd" clip-rule="evenodd" d="M137.062 141.094H133.031V137.062H137.062V141.094Z" fill="#B98550"/>
<path fill-rule="evenodd" clip-rule="evenodd" d="M181.406 141.094H177.375V137.062H181.406V141.094Z" fill="#D8A871"/>
<path fill-rule="evenodd" clip-rule="evenodd" d="M185.438 141.094H181.406V137.062H185.438V141.094Z" fill="#E0B987"/>
<path fill-rule="evenodd" clip-rule="evenodd" d="M189.469 141.094H185.438V137.062H189.469V141.094Z" fill="#E7C194"/>
<path fill-rule="evenodd" clip-rule="evenodd" d="M193.5 141.094H189.469V137.062H193.5V141.094Z" fill="#EACAA1"/>
<path fill-rule="evenodd" clip-rule="evenodd" d="M197.531 141.094H193.5V137.062H197.531V141.094Z" fill="#E9CA9F"/>
<path fill-rule="evenodd" clip-rule="evenodd" d="M221.719 141.094H217.688V137.062H221.719V141.094Z" fill="#E0B384"/>
<path fill-rule="evenodd" clip-rule="evenodd" d="M225.75 141.094H221.719V137.062H225.75V141.094Z" fill="#DAAB76"/>
<path fill-rule="evenodd" clip-rule="evenodd" d="M229.781 141.094H225.75V137.062H229.781V141.094Z" fill="#EAD09E"/>
<path fill-rule="evenodd" clip-rule="evenodd" d="M237.844 141.094H233.812V137.062H237.844V141.094Z" fill="#D8B176" fill-opacity="0.0509804"/>
<path fill-rule="evenodd" clip-rule="evenodd" d="M116.906 145.125H112.875V141.094H116.906V145.125Z" fill="#D5AA71" fill-opacity="0.0705882"/>
<path fill-rule="evenodd" clip-rule="evenodd" d="M124.969 145.125H120.938V141.094H124.969V145.125ZM124.969 165.281H120.938V161.25H124.969V165.281Z" fill="#B98551"/>
<path fill-rule="evenodd" clip-rule="evenodd" d="M129 145.125H124.969V141.094H129V145.125Z" fill="#B78350"/>
<path fill-rule="evenodd" clip-rule="evenodd" d="M133.031 145.125H129V141.094H133.031V145.125ZM120.938 149.156H116.906V145.125H120.938V149.156ZM133.031 213.656H129V209.625H133.031V213.656Z" fill="#B6834F"/>
<path fill-rule="evenodd" clip-rule="evenodd" d="M137.062 145.125H133.031V141.094H137.062V145.125Z" fill="#B88450"/>
<path fill-rule="evenodd" clip-rule="evenodd" d="M173.344 145.125H169.312V141.094H173.344V145.125Z" fill="#BE8956"/>
<path fill-rule="evenodd" clip-rule="evenodd" d="M177.375 145.125H173.344V141.094H177.375V145.125Z" fill="#CC9A67"/>
<path fill-rule="evenodd" clip-rule="evenodd" d="M181.406 145.125H177.375V141.094H181.406V145.125Z" fill="#DFB486"/>
<path fill-rule="evenodd" clip-rule="evenodd" d="M185.438 145.125H181.406V141.094H185.438V145.125Z" fill="#ECCFA6"/>
<path fill-rule="evenodd" clip-rule="evenodd" d="M189.469 145.125H185.438V141.094H189.469V145.125Z" fill="#ECD2AB"/>
<path fill-rule="evenodd" clip-rule="evenodd" d="M193.5 145.125H189.469V141.094H193.5V145.125Z" fill="#EBCEA7"/>
<path fill-rule="evenodd" clip-rule="evenodd" d="M197.531 145.125H193.5V141.094H197.531V145.125Z" fill="#EED7B0"/>
<path fill-rule="evenodd" clip-rule="evenodd" d="M201.562 145.125H197.531V141.094H201.562V145.125Z" fill="#F0DBB4"/>
<path fill-rule="evenodd" clip-rule="evenodd" d="M205.594 145.125H201.562V141.094H205.594V145.125Z" fill="#EFD6B0"/>
<path fill-rule="evenodd" clip-rule="evenodd" d="M209.625 145.125H205.594V141.094H209.625V145.125Z" fill="#EDD6B2"/>
<path fill-rule="evenodd" clip-rule="evenodd" d="M213.656 145.125H209.625V141.094H213.656V145.125Z" fill="#EFD6B1"/>
<path fill-rule="evenodd" clip-rule="evenodd" d="M217.688 145.125H213.656V141.094H217.688V145.125Z" fill="#EBCEA5"/>
<path fill-rule="evenodd" clip-rule="evenodd" d="M221.719 145.125H217.688V141.094H221.719V145.125Z" fill="#E7C79C"/>
<path fill-rule="evenodd" clip-rule="evenodd" d="M225.75 145.125H221.719V141.094H225.75V145.125Z" fill="#E3BA8A"/>
<path fill-rule="evenodd" clip-rule="evenodd" d="M241.875 145.125H237.844V141.094H241.875V145.125Z" fill="#FFAA55" fill-opacity="0.0117647"/>
<path fill-rule="evenodd" clip-rule="evenodd" d="M124.969 149.156H120.938V145.125H124.969V149.156Z" fill="#B5834E"/>
<path fill-rule="evenodd" clip-rule="evenodd" d="M133.031 149.156H129V145.125H133.031V149.156Z" fill="#B6824F"/>
<path fill-rule="evenodd" clip-rule="evenodd" d="M137.062 149.156H133.031V145.125H137.062V149.156Z" fill="#B88350"/>
<path fill-rule="evenodd" clip-rule="evenodd" d="M153.188 149.156H149.156V145.125H153.188V149.156ZM165.281 149.156H161.25V145.125H165.281V149.156ZM149.156 189.469H145.125V185.438H149.156V189.469ZM153.188 217.688H149.156V213.656H153.188V217.688Z" fill="#BB8752"/>
<path fill-rule="evenodd" clip-rule="evenodd" d="M157.219 149.156H153.188V145.125H157.219V149.156Z" fill="#BC8852"/>
<path fill-rule="evenodd" clip-rule="evenodd" d="M169.312 149.156H165.281V145.125H169.312V149.156Z" fill="#BB8A51"/>
<path fill-rule="evenodd" clip-rule="evenodd" d="M173.344 149.156H169.312V145.125H173.344V149.156Z" fill="#CFA16C"/>
<path fill-rule="evenodd" clip-rule="evenodd" d="M177.375 149.156H173.344V145.125H177.375V149.156Z" fill="#E2BB8D"/>
<path fill-rule="evenodd" clip-rule="evenodd" d="M181.406 149.156H177.375V145.125H181.406V149.156Z" fill="#E8C69E"/>
<path fill-rule="evenodd" clip-rule="evenodd" d="M185.438 149.156H181.406V145.125H185.438V149.156Z" fill="#EDD6B1"/>
<path fill-rule="evenodd" clip-rule="evenodd" d="M189.469 149.156H185.438V145.125H189.469V149.156Z" fill="#F2E0BC"/>
<path fill-rule="evenodd" clip-rule="evenodd" d="M193.5 149.156H189.469V145.125H193.5V149.156Z" fill="#F1DEBB"/>
<path fill-rule="evenodd" clip-rule="evenodd" d="M197.531 149.156H193.5V145.125H197.531V149.156Z" fill="#F2E0BE"/>
<path fill-rule="evenodd" clip-rule="evenodd" d="M201.562 145.125V149.156H205.594V145.125H209.625V149.156H213.656V153.188H217.688V161.25H213.656V169.312H209.625V189.469H213.656V193.5H217.688V197.531H229.781V193.5H233.812V201.562H229.781V209.625H225.75V217.688H221.719V221.719H217.688V225.75H213.656V229.781H205.594V233.812H193.5V229.781H189.469V221.719H181.406V213.656H177.375V209.625H169.312V201.562H165.281V197.531H161.25V193.5H157.219V185.438H173.344V189.469H177.375V193.5H181.406V197.531H193.5V193.5H197.531V189.469H201.562V173.344H197.531V161.25H185.438V157.219H181.406V153.188H185.438V149.156H197.531V145.125H201.562Z" fill="#F2E1BF"/>
<path fill-rule="evenodd" clip-rule="evenodd" d="M205.594 149.156H201.562V145.125H205.594V149.156Z" fill="#F2E1BE"/>
<path fill-rule="evenodd" clip-rule="evenodd" d="M213.656 149.156H209.625V145.125H213.656V149.156Z" fill="#F1DFBD"/>
<path fill-rule="evenodd" clip-rule="evenodd" d="M217.688 149.156H213.656V145.125H217.688V149.156Z" fill="#EDD5B0"/>
<path fill-rule="evenodd" clip-rule="evenodd" d="M221.719 149.156H217.688V145.125H221.719V149.156Z" fill="#EACBA4"/>
<path fill-rule="evenodd" clip-rule="evenodd" d="M225.75 149.156H221.719V145.125H225.75V149.156Z" fill="#E7C497"/>
<path fill-rule="evenodd" clip-rule="evenodd" d="M229.781 149.156H225.75V145.125H229.781V149.156Z" fill="#E0B486"/>
<path fill-rule="evenodd" clip-rule="evenodd" d="M233.812 149.156H229.781V145.125H233.812V149.156Z" fill="#E9D29D"/>
<path fill-rule="evenodd" clip-rule="evenodd" d="M120.938 153.188H116.906V149.156H120.938V153.188ZM112.875 165.281H108.844V161.25H112.875V165.281ZM124.969 213.656H120.938V209.625H124.969V213.656Z" fill="#B3814D"/>
<path fill-rule="evenodd" clip-rule="evenodd" d="M129 153.188H120.938V149.156H129V153.188ZM116.906 173.344H112.875V169.312H116.906V173.344Z" fill="#B4804E"/>
<path fill-rule="evenodd" clip-rule="evenodd" d="M133.031 153.188H129V149.156H133.031V153.188ZM112.875 225.75H108.844V221.719H112.875V225.75Z" fill="#B7834F"/>
<path fill-rule="evenodd" clip-rule="evenodd" d="M153.188 153.188H149.156V149.156H153.188V153.188Z" fill="#BF8C56"/>
<path fill-rule="evenodd" clip-rule="evenodd" d="M157.219 153.188H153.188V149.156H157.219V153.188ZM149.156 193.5H145.125V189.469H149.156V193.5Z" fill="#C1905A"/>
<path fill-rule="evenodd" clip-rule="evenodd" d="M161.25 153.188H157.219V149.156H161.25V153.188Z" fill="#C28D59"/>
<path fill-rule="evenodd" clip-rule="evenodd" d="M165.281 153.188H161.25V149.156H165.281V153.188Z" fill="#BD8B55"/>
<path fill-rule="evenodd" clip-rule="evenodd" d="M169.312 153.188H165.281V149.156H169.312V153.188Z" fill="#C1915B"/>
<path fill-rule="evenodd" clip-rule="evenodd" d="M173.344 153.188H169.312V149.156H173.344V153.188Z" fill="#E3BE90"/>
<path fill-rule="evenodd" clip-rule="evenodd" d="M177.375 153.188H173.344V149.156H177.375V153.188Z" fill="#EBCDA4"/>
<path fill-rule="evenodd" clip-rule="evenodd" d="M181.406 153.188H177.375V149.156H181.406V153.188Z" fill="#EDD5AF"/>
<path fill-rule="evenodd" clip-rule="evenodd" d="M185.438 153.188H181.406V149.156H185.438V153.188Z" fill="#F1E0BB"/>
<path fill-rule="evenodd" clip-rule="evenodd" d="M217.688 153.188H213.656V149.156H217.688V153.188Z" fill="#F1DEBC"/>
<path fill-rule="evenodd" clip-rule="evenodd" d="M221.719 153.188H217.688V149.156H221.719V153.188Z" fill="#ECD3AD"/>
<path fill-rule="evenodd" clip-rule="evenodd" d="M225.75 153.188H221.719V149.156H225.75V153.188Z" fill="#E8C79E"/>
<path fill-rule="evenodd" clip-rule="evenodd" d="M229.781 153.188H225.75V149.156H229.781V153.188Z" fill="#E5BF91"/>
<path fill-rule="evenodd" clip-rule="evenodd" d="M233.812 153.188H229.781V149.156H233.812V153.188Z" fill="#D9AB76"/>
<path fill-rule="evenodd" clip-rule="evenodd" d="M116.906 157.219H112.875V153.188H116.906V157.219ZM133.031 217.688H129V213.656H133.031V217.688Z" fill="#B4814E"/>
<path fill-rule="evenodd" clip-rule="evenodd" d="M120.938 157.219H116.906V153.188H120.938V157.219ZM120.938 165.281H116.906V161.25H120.938V165.281Z" fill="#B47F4E"/>
<path fill-rule="evenodd" clip-rule="evenodd" d="M124.969 157.219H120.938V153.188H124.969V157.219ZM137.062 225.75H129V221.719H137.062V225.75Z" fill="#B3804E"/>
<path fill-rule="evenodd" clip-rule="evenodd" d="M129 157.219H124.969V153.188H129V157.219Z" fill="#B6814F"/>
<path fill-rule="evenodd" clip-rule="evenodd" d="M153.188 157.219H149.156V153.188H153.188V157.219Z" fill="#C79762"/>
<path fill-rule="evenodd" clip-rule="evenodd" d="M157.219 157.219H153.188V153.188H157.219V157.219Z" fill="#C99461"/>
<path fill-rule="evenodd" clip-rule="evenodd" d="M161.25 157.219H157.219V153.188H161.25V157.219Z" fill="#C7935D"/>
<path fill-rule="evenodd" clip-rule="evenodd" d="M165.281 157.219H161.25V153.188H165.281V157.219Z" fill="#C4915B"/>
<path fill-rule="evenodd" clip-rule="evenodd" d="M169.312 157.219H165.281V153.188H169.312V157.219Z" fill="#C79460"/>
<path fill-rule="evenodd" clip-rule="evenodd" d="M173.344 157.219H169.312V153.188H173.344V157.219Z" fill="#EDD2AB"/>
<path fill-rule="evenodd" clip-rule="evenodd" d="M177.375 157.219H173.344V153.188H177.375V157.219Z" fill="#EFDEB7"/>
<path fill-rule="evenodd" clip-rule="evenodd" d="M181.406 157.219H177.375V153.188H181.406V157.219Z" fill="#F1E0BD"/>
<path fill-rule="evenodd" clip-rule="evenodd" d="M221.719 157.219H217.688V153.188H221.719V157.219Z" fill="#F2DCB8"/>
<path fill-rule="evenodd" clip-rule="evenodd" d="M225.75 157.219H221.719V153.188H225.75V157.219Z" fill="#E8C99E"/>
<path fill-rule="evenodd" clip-rule="evenodd" d="M229.781 157.219H225.75V153.188H229.781V157.219Z" fill="#E7C196"/>
<path fill-rule="evenodd" clip-rule="evenodd" d="M233.812 157.219H229.781V153.188H233.812V157.219Z" fill="#DCA973"/>
<path fill-rule="evenodd" clip-rule="evenodd" d="M112.875 161.25H108.844V157.219H112.875V161.25Z" fill="#B3814F"/>
<path fill-rule="evenodd" clip-rule="evenodd" d="M116.906 161.25H112.875V157.219H116.906V161.25ZM116.906 201.562H112.875V197.531H116.906V201.562ZM124.969 217.688H120.938V213.656H124.969V217.688ZM137.062 229.781H133.031V225.75H137.062V229.781ZM133.031 233.812H129V229.781H133.031V233.812Z" fill="#B2804E"/>
<path fill-rule="evenodd" clip-rule="evenodd" d="M120.938 161.25H116.906V157.219H120.938V161.25ZM108.844 181.406H104.812V177.375H108.844V181.406Z" fill="#B27F4D"/>
<path fill-rule="evenodd" clip-rule="evenodd" d="M124.969 161.25H120.938V157.219H124.969V161.25ZM120.938 205.594H116.906V201.562H120.938V205.594Z" fill="#B5814F"/>
<path fill-rule="evenodd" clip-rule="evenodd" d="M129 161.25H124.969V157.219H129V161.25Z" fill="#B88551"/>
<path fill-rule="evenodd" clip-rule="evenodd" d="M149.156 161.25H145.125V157.219H149.156V161.25Z" fill="#BF8B57"/>
<path fill-rule="evenodd" clip-rule="evenodd" d="M153.188 161.25H149.156V157.219H153.188V161.25Z" fill="#CA9760"/>
<path fill-rule="evenodd" clip-rule="evenodd" d="M157.219 161.25H153.188V157.219H157.219V161.25Z" fill="#CB9663"/>
<path fill-rule="evenodd" clip-rule="evenodd" d="M161.25 161.25H157.219V157.219H161.25V161.25Z" fill="#CA9762"/>
<path fill-rule="evenodd" clip-rule="evenodd" d="M165.281 161.25H161.25V157.219H165.281V161.25Z" fill="#CE9E68"/>
<path fill-rule="evenodd" clip-rule="evenodd" d="M169.312 161.25H165.281V157.219H169.312V161.25ZM233.812 161.25H229.781V157.219H233.812V161.25Z" fill="#DBA76F"/>
<path fill-rule="evenodd" clip-rule="evenodd" d="M229.781 161.25H225.75V157.219H229.781V161.25Z" fill="#E3B789"/>
<path fill-rule="evenodd" clip-rule="evenodd" d="M116.906 165.281H112.875V161.25H116.906V165.281ZM108.844 185.438H104.812V181.406H108.844V185.438ZM120.938 209.625H116.906V205.594H120.938V209.625ZM133.031 229.781H129V225.75H133.031V229.781Z" fill="#B17F4D"/>
<path fill-rule="evenodd" clip-rule="evenodd" d="M149.156 165.281H145.125V161.25H149.156V165.281Z" fill="#BF8A57"/>
<path fill-rule="evenodd" clip-rule="evenodd" d="M153.188 165.281H149.156V161.25H153.188V165.281Z" fill="#CB9561"/>
<path fill-rule="evenodd" clip-rule="evenodd" d="M161.25 165.281H157.219V161.25H161.25V165.281Z" fill="#CB9762"/>
<path fill-rule="evenodd" clip-rule="evenodd" d="M197.531 165.281H193.5V161.25H197.531V165.281Z" fill="#F1E1BE"/>
<path fill-rule="evenodd" clip-rule="evenodd" d="M221.719 165.281H217.688V161.25H221.719V165.281ZM108.844 233.812H104.812V229.781H108.844V233.812Z" fill="#62402A"/>
<path fill-rule="evenodd" clip-rule="evenodd" d="M225.75 165.281H221.719V161.25H225.75V165.281Z" fill="#D5A270"/>
<path fill-rule="evenodd" clip-rule="evenodd" d="M229.781 165.281H225.75V161.25H229.781V165.281Z" fill="#DBA472"/>
<path fill-rule="evenodd" clip-rule="evenodd" d="M100.781 169.312H96.75V165.281H100.781V169.312ZM245.906 181.406H241.875V177.375H245.906V181.406Z" fill="#555555" fill-opacity="0.0117647"/>
<path fill-rule="evenodd" clip-rule="evenodd" d="M108.844 169.312H104.812V165.281H108.844V169.312Z" fill="#B38250"/>
<path fill-rule="evenodd" clip-rule="evenodd" d="M116.906 169.312H108.844V165.281H116.906V169.312Z" fill="#B2814D"/>
<path fill-rule="evenodd" clip-rule="evenodd" d="M120.938 169.312H116.906V165.281H120.938V169.312Z" fill="#B68250"/>
<path fill-rule="evenodd" clip-rule="evenodd" d="M149.156 169.312H145.125V165.281H149.156V169.312Z" fill="#BB8751"/>
<path fill-rule="evenodd" clip-rule="evenodd" d="M153.188 169.312H149.156V165.281H153.188V169.312Z" fill="#CE9C65"/>
<path fill-rule="evenodd" clip-rule="evenodd" d="M157.219 169.312H153.188V165.281H157.219V169.312Z" fill="#D6A16A"/>
<path fill-rule="evenodd" clip-rule="evenodd" d="M161.25 169.312H157.219V165.281H161.25V169.312Z" fill="#D29D69"/>
<path fill-rule="evenodd" clip-rule="evenodd" d="M165.281 169.312H161.25V165.281H165.281V169.312Z" fill="#D5A06C"/>
<path fill-rule="evenodd" clip-rule="evenodd" d="M189.469 169.312H185.438V165.281H189.469V169.312Z" fill="#B9885B"/>
<path fill-rule="evenodd" clip-rule="evenodd" d="M193.5 169.312H189.469V165.281H193.5V169.312Z" fill="#C99764"/>
<path fill-rule="evenodd" clip-rule="evenodd" d="M221.719 169.312H217.688V165.281H221.719V169.312Z" fill="#614129"/>
<path fill-rule="evenodd" clip-rule="evenodd" d="M225.75 169.312H221.719V165.281H225.75V169.312Z" fill="#845F40"/>
<path fill-rule="evenodd" clip-rule="evenodd" d="M229.781 169.312H225.75V165.281H229.781V169.312Z" fill="#B18759"/>
<path fill-rule="evenodd" clip-rule="evenodd" d="M233.812 169.312H229.781V165.281H233.812V169.312Z" fill="#C29261"/>
<path fill-rule="evenodd" clip-rule="evenodd" d="M237.844 169.312H233.812V165.281H237.844V169.312ZM161.25 205.594H157.219V201.562H161.25V205.594Z" fill="#CC9966"/>
<path fill-rule="evenodd" clip-rule="evenodd" d="M241.875 169.312H237.844V165.281H241.875V169.312Z" fill="#D6A46C"/>
<path fill-rule="evenodd" clip-rule="evenodd" d="M104.812 173.344H100.781V169.312H104.812V173.344Z" fill="#B17E4D"/>
<path fill-rule="evenodd" clip-rule="evenodd" d="M120.938 173.344H116.906V169.312H120.938V173.344ZM116.906 189.469H112.875V185.438H116.906V189.469Z" fill="#B88451"/>
<path fill-rule="evenodd" clip-rule="evenodd" d="M153.188 173.344H149.156V169.312H153.188V173.344Z" fill="#D8A26C"/>
<path fill-rule="evenodd" clip-rule="evenodd" d="M177.375 173.344H173.344V169.312H177.375V173.344Z" fill="#D7A36C"/>
<path fill-rule="evenodd" clip-rule="evenodd" d="M181.406 173.344H177.375V169.312H181.406V173.344Z" fill="#D29C69"/>
<path fill-rule="evenodd" clip-rule="evenodd" d="M185.438 173.344H181.406V169.312H185.438V173.344Z" fill="#B9895B"/>
<path fill-rule="evenodd" clip-rule="evenodd" d="M189.469 173.344H185.438V169.312H189.469V173.344Z" fill="#A3774F"/>
<path fill-rule="evenodd" clip-rule="evenodd" d="M193.5 173.344H189.469V169.312H193.5V173.344Z" fill="#65432C"/>
<path fill-rule="evenodd" clip-rule="evenodd" d="M217.688 169.312V173.344H221.719V177.375H225.75V181.406H233.812V185.438H229.781V189.469H225.75V193.5H217.688V189.469H213.656V169.312H217.688ZM193.5 177.375V185.438H189.469V189.469H185.438V193.5H181.406V181.406H189.469V177.375H193.5ZM133.031 237.844V245.906H141.094V249.938H145.125V253.969H129V249.938H120.938V241.875H129V237.844H133.031ZM205.594 241.875H201.562V237.844H205.594V241.875ZM92.7188 249.938H84.6562V245.906H92.7188V249.938ZM100.781 249.938H96.75V245.906H100.781V249.938ZM56.4375 253.969H20.1562V249.938H56.4375V253.969ZM64.5 253.969H60.4688V249.938H64.5V253.969ZM84.6562 253.969H76.5938V249.938H84.6562V253.969Z" fill="#613F29"/>
<path fill-rule="evenodd" clip-rule="evenodd" d="M221.719 173.344H217.688V169.312H221.719V173.344ZM201.562 245.906H197.531V241.875H201.562V245.906ZM60.4688 253.969H56.4375V249.938H60.4688V253.969Z" fill="#623F29"/>
<path fill-rule="evenodd" clip-rule="evenodd" d="M225.75 173.344H221.719V169.312H225.75V173.344Z" fill="#6D4C32"/>
<path fill-rule="evenodd" clip-rule="evenodd" d="M229.781 173.344H225.75V169.312H229.781V173.344Z" fill="#9A6D49"/>
<path fill-rule="evenodd" clip-rule="evenodd" d="M233.812 173.344H229.781V169.312H233.812V173.344Z" fill="#A77B50"/>
<path fill-rule="evenodd" clip-rule="evenodd" d="M237.844 173.344H233.812V169.312H237.844V173.344Z" fill="#A87A4D"/>
<path fill-rule="evenodd" clip-rule="evenodd" d="M241.875 173.344H237.844V169.312H241.875V173.344Z" fill="#CF9966"/>
<path fill-rule="evenodd" clip-rule="evenodd" d="M245.906 173.344H241.875V169.312H245.906V173.344Z" fill="#D4A06A"/>
<path fill-rule="evenodd" clip-rule="evenodd" d="M104.812 177.375H100.781V173.344H104.812V177.375Z" fill="#AF7E4B"/>
<path fill-rule="evenodd" clip-rule="evenodd" d="M108.844 177.375H104.812V173.344H108.844V177.375ZM112.875 185.438H108.844V181.406H112.875V185.438Z" fill="#B5804F"/>
<path fill-rule="evenodd" clip-rule="evenodd" d="M112.875 173.344V181.406H108.844V173.344H112.875ZM129 217.688H124.969V213.656H129V217.688Z" fill="#B3814E"/>
<path fill-rule="evenodd" clip-rule="evenodd" d="M116.906 177.375H112.875V173.344H116.906V177.375ZM116.906 233.812H112.875V229.781H116.906V233.812Z" fill="#B6844F"/>
<path fill-rule="evenodd" clip-rule="evenodd" d="M177.375 177.375H173.344V173.344H177.375V177.375Z" fill="#CC9968"/>
<path fill-rule="evenodd" clip-rule="evenodd" d="M181.406 177.375H177.375V173.344H181.406V177.375Z" fill="#B48457"/>
<path fill-rule="evenodd" clip-rule="evenodd" d="M185.438 177.375H181.406V173.344H185.438V177.375Z" fill="#9E724C"/>
<path fill-rule="evenodd" clip-rule="evenodd" d="M189.469 177.375H185.438V173.344H189.469V177.375Z" fill="#7E5739"/>
<path fill-rule="evenodd" clip-rule="evenodd" d="M193.5 177.375H189.469V173.344H193.5V177.375Z" fill="#634029"/>
<path fill-rule="evenodd" clip-rule="evenodd" d="M197.531 173.344V185.438H193.5V173.344H197.531ZM193.5 185.438V193.5H185.438V189.469H189.469V185.438H193.5ZM233.812 189.469H229.781V185.438H233.812V189.469ZM229.781 193.5H225.75V189.469H229.781V193.5ZM52.4062 249.938H24.1875V245.906H52.4062V249.938ZM20.1562 253.969H8.0625V249.938H20.1562V253.969Z" fill="#835838"/>
<path fill-rule="evenodd" clip-rule="evenodd" d="M225.75 177.375H221.719V173.344H225.75V177.375ZM72.5625 253.969H68.5312V249.938H72.5625V253.969Z" fill="#614029"/>
<path fill-rule="evenodd" clip-rule="evenodd" d="M229.781 177.375H225.75V173.344H229.781V177.375Z" fill="#724F34"/>
<path fill-rule="evenodd" clip-rule="evenodd" d="M233.812 177.375H229.781V173.344H233.812V177.375Z" fill="#89603E"/>
<path fill-rule="evenodd" clip-rule="evenodd" d="M237.844 177.375H233.812V173.344H237.844V177.375Z" fill="#956846"/>
<path fill-rule="evenodd" clip-rule="evenodd" d="M241.875 177.375H237.844V173.344H241.875V177.375Z" fill="#CA9868"/>
<path fill-rule="evenodd" clip-rule="evenodd" d="M249.938 177.375H245.906V173.344H249.938V177.375Z" fill="#FF0000" fill-opacity="0.01"/>
<path fill-rule="evenodd" clip-rule="evenodd" d="M104.812 181.406H100.781V177.375H104.812V181.406ZM120.938 217.688H116.906V213.656H120.938V217.688Z" fill="#AD7C4C"/>
<path fill-rule="evenodd" clip-rule="evenodd" d="M116.906 181.406H112.875V177.375H116.906V181.406Z" fill="#B98450"/>
<path fill-rule="evenodd" clip-rule="evenodd" d="M173.344 181.406H169.312V177.375H173.344V181.406Z" fill="#BA8853"/>
<path fill-rule="evenodd" clip-rule="evenodd" d="M177.375 181.406H173.344V177.375H177.375V181.406Z" fill="#B48452"/>
<path fill-rule="evenodd" clip-rule="evenodd" d="M181.406 181.406H177.375V177.375H181.406V181.406Z" fill="#966946"/>
<path fill-rule="evenodd" clip-rule="evenodd" d="M185.438 181.406H181.406V177.375H185.438V181.406Z" fill="#795435"/>
<path fill-rule="evenodd" clip-rule="evenodd" d="M189.469 181.406H185.438V177.375H189.469V181.406ZM169.312 253.969H165.281V249.938H169.312V253.969Z" fill="#65442C"/>
<path fill-rule="evenodd" clip-rule="evenodd" d="M229.781 181.406H225.75V177.375H229.781V181.406ZM56.4375 249.938H52.4062V245.906H56.4375V249.938Z" fill="#633F2A"/>
<path fill-rule="evenodd" clip-rule="evenodd" d="M233.812 181.406H229.781V177.375H233.812V181.406Z" fill="#66452E"/>
<path fill-rule="evenodd" clip-rule="evenodd" d="M237.844 181.406H233.812V177.375H237.844V181.406Z" fill="#885D3A"/>
<path fill-rule="evenodd" clip-rule="evenodd" d="M104.812 185.438H100.781V181.406H104.812V185.438ZM108.844 201.562H104.812V197.531H108.844V201.562ZM112.875 213.656H108.844V209.625H112.875V213.656ZM116.906 217.688H112.875V213.656H116.906V217.688Z" fill="#AD7C4B"/>
<path fill-rule="evenodd" clip-rule="evenodd" d="M116.906 185.438H112.875V181.406H116.906V185.438Z" fill="#B98250"/>
<path fill-rule="evenodd" clip-rule="evenodd" d="M181.406 185.438H177.375V181.406H181.406V185.438Z" fill="#644129"/>
<path fill-rule="evenodd" clip-rule="evenodd" d="M237.844 185.438H233.812V181.406H237.844V185.438Z" fill="#835937"/>
<path fill-rule="evenodd" clip-rule="evenodd" d="M104.812 189.469H100.781V185.438H104.812V189.469Z" fill="#AC7B4C"/>
<path fill-rule="evenodd" clip-rule="evenodd" d="M108.844 189.469H104.812V185.438H108.844V189.469Z" fill="#AE7C4D"/>
<path fill-rule="evenodd" clip-rule="evenodd" d="M112.875 189.469H108.844V185.438H112.875V189.469Z" fill="#B1804E"/>
<path fill-rule="evenodd" clip-rule="evenodd" d="M141.094 189.469H137.062V185.438H141.094V189.469Z" fill="#BB8652"/>
<path fill-rule="evenodd" clip-rule="evenodd" d="M145.125 189.469H141.094V185.438H145.125V189.469Z" fill="#C08A55"/>
<path fill-rule="evenodd" clip-rule="evenodd" d="M237.844 189.469H233.812V185.438H237.844V189.469ZM88.6875 241.875H84.6562V237.844H88.6875V241.875ZM68.5312 245.906H64.5V241.875H68.5312V245.906Z" fill="#825738"/>
<path fill-rule="evenodd" clip-rule="evenodd" d="M104.812 193.5H100.781V189.469H104.812V193.5ZM108.844 197.531H104.812V193.5H108.844V197.531Z" fill="#AD7B4C"/>
<path fill-rule="evenodd" clip-rule="evenodd" d="M108.844 193.5H104.812V189.469H108.844V193.5Z" fill="#AD7D4C"/>
<path fill-rule="evenodd" clip-rule="evenodd" d="M112.875 193.5H108.844V189.469H112.875V193.5Z" fill="#B37F4E"/>
<path fill-rule="evenodd" clip-rule="evenodd" d="M116.906 193.5H112.875V189.469H116.906V193.5Z" fill="#B78351"/>
<path fill-rule="evenodd" clip-rule="evenodd" d="M141.094 193.5H137.062V189.469H141.094V193.5ZM153.188 221.719H149.156V217.688H153.188V221.719Z" fill="#BA8752"/>
<path fill-rule="evenodd" clip-rule="evenodd" d="M145.125 193.5H141.094V189.469H145.125V193.5ZM157.219 209.625H153.188V205.594H157.219V209.625Z" fill="#C1905D"/>
<path fill-rule="evenodd" clip-rule="evenodd" d="M153.188 193.5H149.156V189.469H153.188V193.5Z" fill="#BC8752"/>
<path fill-rule="evenodd" clip-rule="evenodd" d="M104.812 197.531H100.781V193.5H104.812V197.531ZM112.875 201.562H108.844V197.531H112.875V201.562Z" fill="#AE7C4C"/>
<path fill-rule="evenodd" clip-rule="evenodd" d="M112.875 197.531H108.844V193.5H112.875V197.531Z" fill="#AF7E4D"/>
<path fill-rule="evenodd" clip-rule="evenodd" d="M145.125 197.531H141.094V193.5H145.125V197.531Z" fill="#BC8C57"/>
<path fill-rule="evenodd" clip-rule="evenodd" d="M149.156 197.531H145.125V193.5H149.156V197.531Z" fill="#C79461"/>
<path fill-rule="evenodd" clip-rule="evenodd" d="M153.188 197.531H149.156V193.5H153.188V197.531Z" fill="#D29E6A"/>
<path fill-rule="evenodd" clip-rule="evenodd" d="M104.812 201.562H100.781V197.531H104.812V201.562ZM116.906 205.594H112.875V201.562H116.906V205.594Z" fill="#B07F4D"/>
<path fill-rule="evenodd" clip-rule="evenodd" d="M149.156 201.562H145.125V197.531H149.156V201.562Z" fill="#C3915E"/>
<path fill-rule="evenodd" clip-rule="evenodd" d="M153.188 201.562H149.156V197.531H153.188V201.562Z" fill="#C79462"/>
<path fill-rule="evenodd" clip-rule="evenodd" d="M157.219 201.562H153.188V197.531H157.219V201.562Z" fill="#D09C6A"/>
<path fill-rule="evenodd" clip-rule="evenodd" d="M104.812 205.594H100.781V201.562H104.812V205.594Z" fill="#B27F4E"/>
<path fill-rule="evenodd" clip-rule="evenodd" d="M108.844 205.594H104.812V201.562H108.844V205.594Z" fill="#AD7B4A"/>
<path fill-rule="evenodd" clip-rule="evenodd" d="M112.875 205.594H108.844V201.562H112.875V205.594Z" fill="#AD7B4D"/>
<path fill-rule="evenodd" clip-rule="evenodd" d="M124.969 205.594H120.938V201.562H124.969V205.594Z" fill="#B98350"/>
<path fill-rule="evenodd" clip-rule="evenodd" d="M149.156 205.594H145.125V201.562H149.156V205.594Z" fill="#BD8856"/>
<path fill-rule="evenodd" clip-rule="evenodd" d="M153.188 205.594H149.156V201.562H153.188V205.594ZM161.25 229.781H157.219V225.75H161.25V229.781Z" fill="#C2915E"/>
<path fill-rule="evenodd" clip-rule="evenodd" d="M157.219 205.594H153.188V201.562H157.219V205.594Z" fill="#C59560"/>
<path fill-rule="evenodd" clip-rule="evenodd" d="M108.844 209.625H104.812V205.594H108.844V209.625Z" fill="#AF7C4A"/>
<path fill-rule="evenodd" clip-rule="evenodd" d="M112.875 209.625H108.844V205.594H112.875V209.625Z" fill="#AD7A4C"/>
<path fill-rule="evenodd" clip-rule="evenodd" d="M116.906 209.625H112.875V205.594H116.906V209.625Z" fill="#AE7D4C"/>
<path fill-rule="evenodd" clip-rule="evenodd" d="M124.969 209.625H120.938V205.594H124.969V209.625Z" fill="#B5824F"/>
<path fill-rule="evenodd" clip-rule="evenodd" d="M133.031 209.625H124.969V205.594H133.031V209.625Z" fill="#B88550"/>
<path fill-rule="evenodd" clip-rule="evenodd" d="M153.188 209.625H149.156V205.594H153.188V209.625Z" fill="#BF8B59"/>
<path fill-rule="evenodd" clip-rule="evenodd" d="M161.25 209.625H157.219V205.594H161.25V209.625Z" fill="#C5925E"/>
<path fill-rule="evenodd" clip-rule="evenodd" d="M165.281 209.625H161.25V205.594H165.281V209.625Z" fill="#D19F69"/>
<path fill-rule="evenodd" clip-rule="evenodd" d="M116.906 213.656H112.875V209.625H116.906V213.656Z" fill="#AC7C4D"/>
<path fill-rule="evenodd" clip-rule="evenodd" d="M120.938 213.656H116.906V209.625H120.938V213.656Z" fill="#AF7E4C"/>
<path fill-rule="evenodd" clip-rule="evenodd" d="M129 213.656H124.969V209.625H129V213.656ZM145.125 233.812H141.094V229.781H145.125V233.812Z" fill="#B5834F"/>
<path fill-rule="evenodd" clip-rule="evenodd" d="M157.219 213.656H153.188V209.625H157.219V213.656Z" fill="#C0905D"/>
<path fill-rule="evenodd" clip-rule="evenodd" d="M161.25 213.656H157.219V209.625H161.25V213.656ZM165.281 217.688H161.25V213.656H165.281V217.688Z" fill="#C49260"/>
<path fill-rule="evenodd" clip-rule="evenodd" d="M165.281 213.656H161.25V209.625H165.281V213.656Z" fill="#C59360"/>
<path fill-rule="evenodd" clip-rule="evenodd" d="M177.375 213.656H173.344V209.625H177.375V213.656Z" fill="#F2E0BF"/>
<path fill-rule="evenodd" clip-rule="evenodd" d="M112.875 217.688H108.844V213.656H112.875V217.688Z" fill="#AE794B"/>
<path fill-rule="evenodd" clip-rule="evenodd" d="M157.219 217.688H153.188V213.656H157.219V217.688Z" fill="#BF8F5B"/>
<path fill-rule="evenodd" clip-rule="evenodd" d="M161.25 217.688H157.219V213.656H161.25V217.688Z" fill="#C29160"/>
<path fill-rule="evenodd" clip-rule="evenodd" d="M169.312 217.688H165.281V213.656H169.312V217.688Z" fill="#CA9A63"/>
<path fill-rule="evenodd" clip-rule="evenodd" d="M177.375 217.688H173.344V213.656H177.375V217.688Z" fill="#EFDDB9"/>
<path fill-rule="evenodd" clip-rule="evenodd" d="M181.406 217.688H177.375V213.656H181.406V217.688Z" fill="#F2E1BD"/>
<path fill-rule="evenodd" clip-rule="evenodd" d="M112.875 221.719H108.844V217.688H112.875V221.719Z" fill="#AF7C4E"/>
<path fill-rule="evenodd" clip-rule="evenodd" d="M116.906 221.719H112.875V217.688H116.906V221.719Z" fill="#AC7D4C"/>
<path fill-rule="evenodd" clip-rule="evenodd" d="M120.938 221.719H116.906V217.688H120.938V221.719Z" fill="#AE7B4B"/>
<path fill-rule="evenodd" clip-rule="evenodd" d="M124.969 221.719H120.938V217.688H124.969V221.719ZM133.031 221.719H129V217.688H133.031V221.719ZM141.094 233.812H137.062V229.781H141.094V233.812Z" fill="#B2804D"/>
<path fill-rule="evenodd" clip-rule="evenodd" d="M129 221.719H124.969V217.688H129V221.719Z" fill="#B1824D"/>
<path fill-rule="evenodd" clip-rule="evenodd" d="M137.062 221.719H133.031V217.688H137.062V221.719Z" fill="#B4814F"/>
<path fill-rule="evenodd" clip-rule="evenodd" d="M157.219 221.719H153.188V217.688H157.219V221.719Z" fill="#BD8B57"/>
<path fill-rule="evenodd" clip-rule="evenodd" d="M161.25 221.719H157.219V217.688H161.25V221.719Z" fill="#C2915F"/>
<path fill-rule="evenodd" clip-rule="evenodd" d="M165.281 221.719H161.25V217.688H165.281V221.719Z" fill="#C39260"/>
<path fill-rule="evenodd" clip-rule="evenodd" d="M169.312 221.719H165.281V217.688H169.312V221.719Z" fill="#C68E5A"/>
<path fill-rule="evenodd" clip-rule="evenodd" d="M177.375 221.719H173.344V217.688H177.375V221.719Z" fill="#E7CEA6"/>
<path fill-rule="evenodd" clip-rule="evenodd" d="M181.406 221.719H177.375V217.688H181.406V221.719Z" fill="#F0DBB3"/>
<path fill-rule="evenodd" clip-rule="evenodd" d="M116.906 225.75H112.875V221.719H116.906V225.75Z" fill="#AE7E4D"/>
<path fill-rule="evenodd" clip-rule="evenodd" d="M120.938 225.75H116.906V221.719H120.938V225.75Z" fill="#AD7E4C"/>
<path fill-rule="evenodd" clip-rule="evenodd" d="M124.969 225.75H120.938V221.719H124.969V225.75Z" fill="#B17F4E"/>
<path fill-rule="evenodd" clip-rule="evenodd" d="M129 225.75H124.969V221.719H129V225.75Z" fill="#B3824D"/>
<path fill-rule="evenodd" clip-rule="evenodd" d="M141.094 225.75H137.062V221.719H141.094V225.75Z" fill="#B78550"/>
<path fill-rule="evenodd" clip-rule="evenodd" d="M153.188 225.75H149.156V221.719H153.188V225.75Z" fill="#BA8955"/>
<path fill-rule="evenodd" clip-rule="evenodd" d="M157.219 225.75H153.188V221.719H157.219V225.75Z" fill="#BE8D58"/>
<path fill-rule="evenodd" clip-rule="evenodd" d="M161.25 225.75H157.219V221.719H161.25V225.75Z" fill="#C2915D"/>
<path fill-rule="evenodd" clip-rule="evenodd" d="M165.281 225.75H161.25V221.719H165.281V225.75Z" fill="#C19360"/>
<path fill-rule="evenodd" clip-rule="evenodd" d="M169.312 225.75H165.281V221.719H169.312V225.75Z" fill="#C7935F"/>
<path fill-rule="evenodd" clip-rule="evenodd" d="M177.375 225.75H173.344V221.719H177.375V225.75Z" fill="#E3C093"/>
<path fill-rule="evenodd" clip-rule="evenodd" d="M181.406 225.75H177.375V221.719H181.406V225.75Z" fill="#E9C9A2"/>
<path fill-rule="evenodd" clip-rule="evenodd" d="M185.438 225.75H181.406V221.719H185.438V225.75Z" fill="#EFDBB3"/>
<path fill-rule="evenodd" clip-rule="evenodd" d="M189.469 225.75H185.438V221.719H189.469V225.75Z" fill="#F2DFBF"/>
<path fill-rule="evenodd" clip-rule="evenodd" d="M92.7188 229.781H88.6875V225.75H92.7188V229.781Z" fill="#D4AA80" fill-opacity="0.0470588"/>
<path fill-rule="evenodd" clip-rule="evenodd" d="M104.812 229.781H100.781V225.75H104.812V229.781Z" fill="#815739"/>
<path fill-rule="evenodd" clip-rule="evenodd" d="M108.844 229.781H104.812V225.75H108.844V229.781Z" fill="#845A39"/>
<path fill-rule="evenodd" clip-rule="evenodd" d="M120.938 229.781H116.906V225.75H120.938V229.781Z" fill="#B2814F"/>
<path fill-rule="evenodd" clip-rule="evenodd" d="M124.969 229.781H120.938V225.75H124.969V229.781Z" fill="#AF7F4D"/>
<path fill-rule="evenodd" clip-rule="evenodd" d="M129 229.781H124.969V225.75H129V229.781Z" fill="#B0804E"/>
<path fill-rule="evenodd" clip-rule="evenodd" d="M141.094 229.781H137.062V225.75H141.094V229.781Z" fill="#B4824F"/>
<path fill-rule="evenodd" clip-rule="evenodd" d="M149.156 229.781H145.125V225.75H149.156V229.781Z" fill="#B98952"/>
<path fill-rule="evenodd" clip-rule="evenodd" d="M153.188 229.781H149.156V225.75H153.188V229.781Z" fill="#BB8C56"/>
<path fill-rule="evenodd" clip-rule="evenodd" d="M157.219 229.781H153.188V225.75H157.219V229.781Z" fill="#C08D5B"/>
<path fill-rule="evenodd" clip-rule="evenodd" d="M165.281 229.781H161.25V225.75H165.281V229.781Z" fill="#C99464"/>
<path fill-rule="evenodd" clip-rule="evenodd" d="M173.344 229.781H169.312V225.75H173.344V229.781Z" fill="#BD8B58"/>
<path fill-rule="evenodd" clip-rule="evenodd" d="M177.375 229.781H173.344V225.75H177.375V229.781Z" fill="#E0B787"/>
<path fill-rule="evenodd" clip-rule="evenodd" d="M181.406 229.781H177.375V225.75H181.406V229.781Z" fill="#E5C097"/>
<path fill-rule="evenodd" clip-rule="evenodd" d="M185.438 229.781H181.406V225.75H185.438V229.781Z" fill="#E9CBA2"/>
<path fill-rule="evenodd" clip-rule="evenodd" d="M189.469 229.781H185.438V225.75H189.469V229.781Z" fill="#F1DDBA"/>
<path fill-rule="evenodd" clip-rule="evenodd" d="M229.781 229.781H225.75V225.75H229.781V229.781Z" fill="#BC8954"/>
<path fill-rule="evenodd" clip-rule="evenodd" d="M233.812 229.781H229.781V225.75H233.812V229.781Z" fill="#C08A56"/>
<path fill-rule="evenodd" clip-rule="evenodd" d="M96.75 233.812H92.7188V229.781H96.75V233.812Z" fill="#825739"/>
<path fill-rule="evenodd" clip-rule="evenodd" d="M100.781 233.812H96.75V229.781H100.781V233.812Z" fill="#764E32"/>
<path fill-rule="evenodd" clip-rule="evenodd" d="M104.812 233.812H100.781V229.781H104.812V233.812Z" fill="#6F4931"/>
<path fill-rule="evenodd" clip-rule="evenodd" d="M112.875 233.812H108.844V229.781H112.875V233.812ZM64.5 249.938H60.4688V245.906H64.5V249.938Z" fill="#65422B"/>
<path fill-rule="evenodd" clip-rule="evenodd" d="M137.062 233.812H133.031V229.781H137.062V233.812Z" fill="#B17F4C"/>
<path fill-rule="evenodd" clip-rule="evenodd" d="M149.156 233.812H145.125V229.781H149.156V233.812Z" fill="#B98753"/>
<path fill-rule="evenodd" clip-rule="evenodd" d="M153.188 233.812H149.156V229.781H153.188V233.812Z" fill="#BC8D5A"/>
<path fill-rule="evenodd" clip-rule="evenodd" d="M157.219 233.812H153.188V229.781H157.219V233.812Z" fill="#C08F5C"/>
<path fill-rule="evenodd" clip-rule="evenodd" d="M161.25 233.812H157.219V229.781H161.25V233.812Z" fill="#C99466"/>
<path fill-rule="evenodd" clip-rule="evenodd" d="M181.406 233.812H177.375V229.781H181.406V233.812Z" fill="#DDAE7D"/>
<path fill-rule="evenodd" clip-rule="evenodd" d="M185.438 233.812H181.406V229.781H185.438V233.812Z" fill="#DCAB77"/>
<path fill-rule="evenodd" clip-rule="evenodd" d="M189.469 233.812H185.438V229.781H189.469V233.812Z" fill="#ECD2AC"/>
<path fill-rule="evenodd" clip-rule="evenodd" d="M193.5 233.812H189.469V229.781H193.5V233.812Z" fill="#F1E1BF"/>
<path fill-rule="evenodd" clip-rule="evenodd" d="M221.719 233.812H217.688V229.781H221.719V233.812Z" fill="#BB8851"/>
<path fill-rule="evenodd" clip-rule="evenodd" d="M229.781 233.812H225.75V229.781H229.781V233.812Z" fill="#C08B55"/>
<path fill-rule="evenodd" clip-rule="evenodd" d="M233.812 233.812H229.781V229.781H233.812V233.812Z" fill="#D09C66"/>
<path fill-rule="evenodd" clip-rule="evenodd" d="M76.5938 237.844H72.5625V233.812H76.5938V237.844Z" fill="#885533" fill-opacity="0.0588235"/>
<path fill-rule="evenodd" clip-rule="evenodd" d="M92.7188 237.844H88.6875V233.812H92.7188V237.844Z" fill="#7E5536"/>
<path fill-rule="evenodd" clip-rule="evenodd" d="M96.75 237.844H92.7188V233.812H96.75V237.844ZM80.625 245.906H76.5938V241.875H80.625V245.906Z" fill="#785133"/>
<path fill-rule="evenodd" clip-rule="evenodd" d="M100.781 237.844H96.75V233.812H100.781V237.844ZM221.719 249.938H217.688V245.906H221.719V249.938ZM233.812 249.938H229.781V245.906H233.812V249.938Z" fill="#6F4A2F"/>
<path fill-rule="evenodd" clip-rule="evenodd" d="M104.812 237.844H100.781V233.812H104.812V237.844Z" fill="#6B452C"/>
<path fill-rule="evenodd" clip-rule="evenodd" d="M108.844 237.844H104.812V233.812H108.844V237.844Z" fill="#6A442C"/>
<path fill-rule="evenodd" clip-rule="evenodd" d="M112.875 237.844H108.844V233.812H112.875V237.844Z" fill="#6D482F"/>
<path fill-rule="evenodd" clip-rule="evenodd" d="M133.031 237.844H129V233.812H133.031V237.844Z" fill="#93673E"/>
<path fill-rule="evenodd" clip-rule="evenodd" d="M137.062 237.844H133.031V233.812H137.062V237.844Z" fill="#996A41"/>
<path fill-rule="evenodd" clip-rule="evenodd" d="M141.094 237.844H137.062V233.812H141.094V237.844Z" fill="#AC7C4B"/>
<path fill-rule="evenodd" clip-rule="evenodd" d="M145.125 237.844H141.094V233.812H145.125V237.844Z" fill="#B3824F"/>
<path fill-rule="evenodd" clip-rule="evenodd" d="M149.156 237.844H145.125V233.812H149.156V237.844Z" fill="#B98654"/>
<path fill-rule="evenodd" clip-rule="evenodd" d="M153.188 237.844H149.156V233.812H153.188V237.844Z" fill="#BF8D59"/>
<path fill-rule="evenodd" clip-rule="evenodd" d="M157.219 237.844H153.188V233.812H157.219V237.844Z" fill="#C28D5A"/>
<path fill-rule="evenodd" clip-rule="evenodd" d="M185.438 237.844H181.406V233.812H185.438V237.844Z" fill="#DAA76F"/>
<path fill-rule="evenodd" clip-rule="evenodd" d="M221.719 237.844H217.688V233.812H221.719V237.844Z" fill="#BB8654"/>
<path fill-rule="evenodd" clip-rule="evenodd" d="M225.75 237.844H221.719V233.812H225.75V237.844Z" fill="#B18050"/>
<path fill-rule="evenodd" clip-rule="evenodd" d="M229.781 237.844H225.75V233.812H229.781V237.844Z" fill="#996C45"/>
<path fill-rule="evenodd" clip-rule="evenodd" d="M52.4062 241.875H48.375V237.844H52.4062V241.875Z" fill="#BF8040" fill-opacity="0.0156863"/>
<path fill-rule="evenodd" clip-rule="evenodd" d="M80.625 241.875H76.5938V237.844H80.625V241.875Z" fill="#835B39"/>
<path fill-rule="evenodd" clip-rule="evenodd" d="M84.6562 241.875H80.625V237.844H84.6562V241.875Z" fill="#84593A"/>
<path fill-rule="evenodd" clip-rule="evenodd" d="M92.7188 241.875H88.6875V237.844H92.7188V241.875Z" fill="#815436"/>
<path fill-rule="evenodd" clip-rule="evenodd" d="M96.75 241.875H92.7188V237.844H96.75V241.875Z" fill="#7B5135"/>
<path fill-rule="evenodd" clip-rule="evenodd" d="M100.781 241.875H96.75V237.844H100.781V241.875Z" fill="#784F34"/>
<path fill-rule="evenodd" clip-rule="evenodd" d="M104.812 241.875H100.781V237.844H104.812V241.875Z" fill="#754D32"/>
<path fill-rule="evenodd" clip-rule="evenodd" d="M108.844 241.875H104.812V237.844H108.844V241.875Z" fill="#6C472E"/>
<path fill-rule="evenodd" clip-rule="evenodd" d="M120.938 241.875H116.906V237.844H120.938V241.875Z" fill="#808080" fill-opacity="0.01"/>
<path fill-rule="evenodd" clip-rule="evenodd" d="M137.062 241.875H133.031V237.844H137.062V241.875ZM237.844 249.938H233.812V245.906H237.844V249.938Z" fill="#714A30"/>
<path fill-rule="evenodd" clip-rule="evenodd" d="M141.094 241.875H137.062V237.844H141.094V241.875Z" fill="#805936"/>
<path fill-rule="evenodd" clip-rule="evenodd" d="M145.125 241.875H141.094V237.844H145.125V241.875Z" fill="#7D5435"/>
<path fill-rule="evenodd" clip-rule="evenodd" d="M149.156 241.875H145.125V237.844H149.156V241.875Z" fill="#744D34"/>
<path fill-rule="evenodd" clip-rule="evenodd" d="M209.625 241.875H205.594V237.844H209.625V241.875Z" fill="#624129"/>
<path fill-rule="evenodd" clip-rule="evenodd" d="M213.656 241.875H209.625V237.844H213.656V241.875Z" fill="#63412A"/>
<path fill-rule="evenodd" clip-rule="evenodd" d="M217.688 241.875H213.656V237.844H217.688V241.875ZM181.406 253.969H177.375V249.938H181.406V253.969Z" fill="#67452B"/>
<path fill-rule="evenodd" clip-rule="evenodd" d="M221.719 241.875H217.688V237.844H221.719V241.875Z" fill="#6E4A2E"/>
<path fill-rule="evenodd" clip-rule="evenodd" d="M56.4375 245.906H52.4062V241.875H56.4375V245.906Z" fill="#845938"/>
<path fill-rule="evenodd" clip-rule="evenodd" d="M60.4688 245.906H56.4375V241.875H60.4688V245.906Z" fill="#845839"/>
<path fill-rule="evenodd" clip-rule="evenodd" d="M64.5 245.906H60.4688V241.875H64.5V245.906Z" fill="#85593A"/>
<path fill-rule="evenodd" clip-rule="evenodd" d="M72.5625 245.906H68.5312V241.875H72.5625V245.906Z" fill="#7E5436"/>
<path fill-rule="evenodd" clip-rule="evenodd" d="M76.5938 245.906H72.5625V241.875H76.5938V245.906ZM161.25 245.906H157.219V241.875H161.25V245.906Z" fill="#7F5637"/>
<path fill-rule="evenodd" clip-rule="evenodd" d="M84.6562 245.906H80.625V241.875H84.6562V245.906Z" fill="#724D31"/>
<path fill-rule="evenodd" clip-rule="evenodd" d="M88.6875 245.906H84.6562V241.875H88.6875V245.906Z" fill="#6E482E"/>
<path fill-rule="evenodd" clip-rule="evenodd" d="M92.7188 245.906H88.6875V241.875H92.7188V245.906Z" fill="#6B482E"/>
<path fill-rule="evenodd" clip-rule="evenodd" d="M96.75 245.906H92.7188V241.875H96.75V245.906Z" fill="#68462C"/>
<path fill-rule="evenodd" clip-rule="evenodd" d="M100.781 245.906H96.75V241.875H100.781V245.906Z" fill="#67452C"/>
<path fill-rule="evenodd" clip-rule="evenodd" d="M104.812 245.906H100.781V241.875H104.812V245.906Z" fill="#65422C"/>
<path fill-rule="evenodd" clip-rule="evenodd" d="M120.938 245.906H116.906V241.875H120.938V245.906Z" fill="#151413" fill-opacity="0.980392"/>
<path fill-rule="evenodd" clip-rule="evenodd" d="M141.094 245.906H133.031V241.875H141.094V245.906ZM84.6562 249.938H80.625V245.906H84.6562V249.938ZM253.969 253.969H249.938V249.938H253.969V253.969Z" fill="#633F29"/>
<path fill-rule="evenodd" clip-rule="evenodd" d="M145.125 245.906H141.094V241.875H145.125V245.906Z" fill="#66412A"/>
<path fill-rule="evenodd" clip-rule="evenodd" d="M149.156 245.906H145.125V241.875H149.156V245.906Z" fill="#794F33"/>
<path fill-rule="evenodd" clip-rule="evenodd" d="M153.188 245.906H149.156V241.875H153.188V245.906Z" fill="#7B5433"/>
<path fill-rule="evenodd" clip-rule="evenodd" d="M157.219 245.906H153.188V241.875H157.219V245.906Z" fill="#7F5536"/>
<path fill-rule="evenodd" clip-rule="evenodd" d="M165.281 245.906H161.25V241.875H165.281V245.906Z" fill="#825737"/>
<path fill-rule="evenodd" clip-rule="evenodd" d="M169.312 245.906H165.281V241.875H169.312V245.906Z" fill="#835839"/>
<path fill-rule="evenodd" clip-rule="evenodd" d="M173.344 245.906H169.312V241.875H173.344V245.906Z" fill="#83593A"/>
<path fill-rule="evenodd" clip-rule="evenodd" d="M205.594 245.906H201.562V241.875H205.594V245.906Z" fill="#634129"/>
<path fill-rule="evenodd" clip-rule="evenodd" d="M209.625 245.906H205.594V241.875H209.625V245.906Z" fill="#6C462D"/>
<path fill-rule="evenodd" clip-rule="evenodd" d="M213.656 245.906H209.625V241.875H213.656V245.906Z" fill="#7B5434"/>
<path fill-rule="evenodd" clip-rule="evenodd" d="M217.688 245.906H213.656V241.875H217.688V245.906Z" fill="#7D5534"/>
<path fill-rule="evenodd" clip-rule="evenodd" d="M221.719 245.906H217.688V241.875H221.719V245.906Z" fill="#7F5734"/>
<path fill-rule="evenodd" clip-rule="evenodd" d="M225.75 245.906H221.719V241.875H225.75V245.906Z" fill="#7D5635"/>
<path fill-rule="evenodd" clip-rule="evenodd" d="M233.812 245.906H225.75V241.875H233.812V245.906Z" fill="#7F5436"/>
<path fill-rule="evenodd" clip-rule="evenodd" d="M237.844 245.906H233.812V241.875H237.844V245.906Z" fill="#805636"/>
<path fill-rule="evenodd" clip-rule="evenodd" d="M241.875 245.906H237.844V241.875H241.875V245.906Z" fill="#7F5537"/>
<path fill-rule="evenodd" clip-rule="evenodd" d="M60.4688 249.938H56.4375V245.906H60.4688V249.938Z" fill="#643F2A"/>
<path fill-rule="evenodd" clip-rule="evenodd" d="M68.5312 249.938H64.5V245.906H68.5312V249.938Z" fill="#68442C"/>
<path fill-rule="evenodd" clip-rule="evenodd" d="M72.5625 249.938H68.5312V245.906H72.5625V249.938Z" fill="#6B462D"/>
<path fill-rule="evenodd" clip-rule="evenodd" d="M76.5938 249.938H72.5625V245.906H76.5938V249.938ZM233.812 253.969H229.781V249.938H233.812V253.969Z" fill="#69452D"/>
<path fill-rule="evenodd" clip-rule="evenodd" d="M80.625 249.938H76.5938V245.906H80.625V249.938Z" fill="#644329"/>
<path fill-rule="evenodd" clip-rule="evenodd" d="M96.75 249.938H92.7188V245.906H96.75V249.938ZM68.5312 253.969H64.5V249.938H68.5312V253.969Z" fill="#624029"/>
<path fill-rule="evenodd" clip-rule="evenodd" d="M120.938 249.938H116.906V245.906H120.938V249.938Z" fill="#262019" fill-opacity="0.992157"/>
<path fill-rule="evenodd" clip-rule="evenodd" d="M145.125 249.938H141.094V245.906H145.125V249.938Z" fill="#64412A"/>
<path fill-rule="evenodd" clip-rule="evenodd" d="M149.156 249.938H145.125V245.906H149.156V249.938Z" fill="#6E4830"/>
<path fill-rule="evenodd" clip-rule="evenodd" d="M153.188 249.938H149.156V245.906H153.188V249.938Z" fill="#744D33"/>
<path fill-rule="evenodd" clip-rule="evenodd" d="M157.219 249.938H153.188V245.906H157.219V249.938Z" fill="#714930"/>
<path fill-rule="evenodd" clip-rule="evenodd" d="M161.25 249.938H157.219V245.906H161.25V249.938Z" fill="#714931"/>
<path fill-rule="evenodd" clip-rule="evenodd" d="M165.281 249.938H161.25V245.906H165.281V249.938Z" fill="#734C31"/>
<path fill-rule="evenodd" clip-rule="evenodd" d="M169.312 249.938H165.281V245.906H169.312V249.938Z" fill="#744D32"/>
<path fill-rule="evenodd" clip-rule="evenodd" d="M173.344 249.938H169.312V245.906H173.344V249.938Z" fill="#795235"/>
<path fill-rule="evenodd" clip-rule="evenodd" d="M177.375 249.938H173.344V245.906H177.375V249.938Z" fill="#7A5435"/>
<path fill-rule="evenodd" clip-rule="evenodd" d="M181.406 249.938H177.375V245.906H181.406V249.938Z" fill="#7A5335"/>
<path fill-rule="evenodd" clip-rule="evenodd" d="M201.562 249.938H197.531V245.906H201.562V249.938Z" fill="#63412B"/>
<path fill-rule="evenodd" clip-rule="evenodd" d="M205.594 249.938H201.562V245.906H205.594V249.938Z" fill="#64422B"/>
<path fill-rule="evenodd" clip-rule="evenodd" d="M209.625 249.938H205.594V245.906H209.625V249.938ZM221.719 253.969H217.688V249.938H221.719V253.969Z" fill="#69462D"/>
<path fill-rule="evenodd" clip-rule="evenodd" d="M213.656 249.938H209.625V245.906H213.656V249.938Z" fill="#6C482E"/>
<path fill-rule="evenodd" clip-rule="evenodd" d="M217.688 249.938H213.656V245.906H217.688V249.938Z" fill="#6D492E"/>
<path fill-rule="evenodd" clip-rule="evenodd" d="M229.781 249.938H221.719V245.906H229.781V249.938Z" fill="#6E492F"/>
<path fill-rule="evenodd" clip-rule="evenodd" d="M241.875 249.938H237.844V245.906H241.875V249.938Z" fill="#724B31"/>
<path fill-rule="evenodd" clip-rule="evenodd" d="M245.906 249.938H241.875V245.906H245.906V249.938Z" fill="#734D31"/>
<path fill-rule="evenodd" clip-rule="evenodd" d="M249.938 249.938H245.906V245.906H249.938V249.938Z" fill="#754F32"/>
<path fill-rule="evenodd" clip-rule="evenodd" d="M253.969 249.938H249.938V245.906H253.969V249.938Z" fill="#724C31"/>
<path fill-rule="evenodd" clip-rule="evenodd" d="M76.5938 253.969H72.5625V249.938H76.5938V253.969ZM157.219 253.969H153.188V249.938H157.219V253.969Z" fill="#623F2A"/>
<path fill-rule="evenodd" clip-rule="evenodd" d="M149.156 253.969H145.125V249.938H149.156V253.969Z" fill="#64402A"/>
<path fill-rule="evenodd" clip-rule="evenodd" d="M153.188 253.969H149.156V249.938H153.188V253.969Z" fill="#65412B"/>
<path fill-rule="evenodd" clip-rule="evenodd" d="M161.25 253.969H157.219V249.938H161.25V253.969Z" fill="#64412B"/>
<path fill-rule="evenodd" clip-rule="evenodd" d="M165.281 253.969H161.25V249.938H165.281V253.969Z" fill="#65412C"/>
<path fill-rule="evenodd" clip-rule="evenodd" d="M173.344 253.969H169.312V249.938H173.344V253.969Z" fill="#68452D"/>
<path fill-rule="evenodd" clip-rule="evenodd" d="M177.375 253.969H173.344V249.938H177.375V253.969Z" fill="#69432C"/>
<path fill-rule="evenodd" clip-rule="evenodd" d="M205.594 253.969H201.562V249.938H205.594V253.969Z" fill="#66432B"/>
<path fill-rule="evenodd" clip-rule="evenodd" d="M209.625 253.969H205.594V249.938H209.625V253.969Z" fill="#67442C"/>
<path fill-rule="evenodd" clip-rule="evenodd" d="M213.656 253.969H209.625V249.938H213.656V253.969Z" fill="#69442C"/>
<path fill-rule="evenodd" clip-rule="evenodd" d="M217.688 253.969H213.656V249.938H217.688V253.969Z" fill="#69442D"/>
<path fill-rule="evenodd" clip-rule="evenodd" d="M225.75 253.969H221.719V249.938H225.75V253.969Z" fill="#68452C"/>
<path fill-rule="evenodd" clip-rule="evenodd" d="M229.781 253.969H225.75V249.938H229.781V253.969Z" fill="#69442B"/>
<path fill-rule="evenodd" clip-rule="evenodd" d="M237.844 253.969H233.812V249.938H237.844V253.969Z" fill="#6A472D"/>
<path fill-rule="evenodd" clip-rule="evenodd" d="M241.875 253.969H237.844V249.938H241.875V253.969Z" fill="#69452C"/>
<path fill-rule="evenodd" clip-rule="evenodd" d="M245.906 253.969H241.875V249.938H245.906V253.969Z" fill="#62422A"/>
<path fill-rule="evenodd" clip-rule="evenodd" d="M249.938 253.969H245.906V249.938H249.938V253.969Z" fill="#63402B"/>
</svg>
