<svg width="325" height="194" viewBox="0 0 325 194" fill="none" xmlns="http://www.w3.org/2000/svg">
<path d="M81.25 2.55263H91.4062ZM228.516 2.55263H238.672ZM137.109 17.8684H182.812ZM0 89.3421H15.2344ZM142.188 109.763H152.344ZM167.578 109.763H177.734ZM15.2344 130.184H30.4688ZM289.453 130.184H304.688ZM116.797 181.237H126.953ZM192.969 181.237H203.125Z" fill="black"/>
<path fill-rule="evenodd" clip-rule="evenodd" d="M91.4062 5.10526H81.25V0H91.4062V5.10526ZM96.4844 10.2105H91.4062V5.10526H96.4844V10.2105ZM101.562 15.3158H96.4844V10.2105H101.562V15.3158ZM106.641 25.5263H101.562V15.3158H106.641V25.5263ZM116.797 30.6316H106.641V25.5263H116.797V30.6316ZM106.641 35.7368H86.3281V30.6316H106.641V35.7368ZM66.0156 30.6316V20.4211H71.0938V25.5263H76.1719V20.4211H81.25V25.5263H86.3281V30.6316H66.0156ZM76.1719 10.2105V5.10526H81.25V10.2105H76.1719ZM76.1719 10.2105V20.4211H71.0938V10.2105H76.1719ZM66.0156 30.6316H60.9375V35.7368H55.8594V40.8421H50.7812V45.9474H45.7031V51.0526H35.5469V56.1579H30.4688V61.2632H25.3906V66.3684H15.2344V71.4737H5.07812V76.5789H0V91.8947H15.2344V86.7895H25.3906V81.6842H30.4688V76.5789H35.5469V71.4737H45.7031V66.3684H50.7812V61.2632H55.8594V56.1579H60.9375V71.4737H55.8594V76.5789H50.7812V81.6842H45.7031V86.7895H40.625V91.8947H35.5469V102.105H30.4688V107.211H25.3906V112.316H20.3125V117.421H15.2344V132.737H30.4688V127.632H35.5469V122.526H40.625V117.421H45.7031V112.316H50.7812V107.211H55.8594V97H60.9375V91.8947H66.0156V86.7895H71.0938V81.6842H76.1719V71.4737H81.25V66.3684H86.3281V76.5789H91.4062V81.6842H96.4844V97H101.562V127.632H106.641V153.158H111.719V178.684H116.797V183.789H126.953V173.579H132.031V153.158H126.953V127.632H121.875V91.8947H126.953V97H132.031V102.105H137.109V107.211H142.188V112.316H152.344V107.211H157.422V91.8947H152.344V76.5789H147.266V71.4737H142.188V66.3684H137.109V61.2632H132.031V45.9474H126.953V30.6316H132.031V25.5263H137.109V20.4211H182.812V25.5263H187.891V30.6316H192.969V45.9474H187.891V61.2632H182.812V66.3684H177.734V71.4737H172.656V76.5789H167.578V91.8947H162.5V107.211H167.578V112.316H177.734V107.211H182.812V102.105H187.891V97H192.969V91.8947H198.047V127.632H192.969V153.158H187.891V173.579H192.969V183.789H203.125V178.684H208.203V153.158H213.281V127.632H218.359V97H223.438V81.6842H228.516V76.5789H233.594V66.3684H238.672V71.4737H243.75V81.6842H248.828V86.7895H253.906V91.8947H258.984V97H264.062V107.211H269.141V112.316H274.219V117.421H279.297V122.526H284.375V127.632H289.453V132.737H304.688V117.421H299.609V112.316H294.531V107.211H289.453V102.105H284.375V91.8947H279.297V86.7895H274.219V81.6842H269.141V76.5789H264.062V71.4737H258.984V56.1579H264.062V61.2632H269.141V66.3684H274.219V71.4737H284.375V76.5789H289.453V81.6842H294.531V86.7895H304.688V91.8947H319.922V76.5789H314.844V71.4737H304.688V66.3684H294.531V61.2632H289.453V56.1579H284.375V51.0526H274.219V45.9474H269.141V40.8421H264.062V35.7368H258.984V30.6316H253.906V20.4211H248.828V10.2105H243.75V5.10526H238.672V0H228.516V5.10526H223.438V10.2105H218.359V15.3158H213.281V25.5263H203.125V30.6316H198.047V25.5263H187.891V20.4211H182.812V15.3158H137.109V20.4211H132.031V25.5263H121.875V30.6316H116.797V35.7368H121.875V45.9474H116.797V40.8421H111.719V35.7368H106.641V45.9474H116.797V56.1579H106.641V51.0526H91.4062V56.1579H86.3281V61.2632H81.25V66.3684H76.1719V71.4737H71.0938V81.6842H66.0156V86.7895H60.9375V91.8947H55.8594V97H50.7812V107.211H45.7031V112.316H40.625V117.421H35.5469V122.526H30.4688V127.632H20.3125V117.421H25.3906V112.316H30.4688V107.211H35.5469V102.105H40.625V91.8947H45.7031V86.7895H50.7812V81.6842H55.8594V76.5789H60.9375V71.4737H66.0156V56.1579H71.0938V51.0526H76.1719V45.9474H86.3281V35.7368H81.25V40.8421H76.1719V45.9474H71.0938V51.0526H55.8594V56.1579H50.7812V61.2632H45.7031V66.3684H35.5469V71.4737H30.4688V76.5789H25.3906V81.6842H15.2344V86.7895H5.07812V76.5789H15.2344V71.4737H25.3906V66.3684H30.4688V61.2632H35.5469V56.1579H45.7031V51.0526H50.7812V45.9474H55.8594V40.8421H66.0156V30.6316ZM111.719 76.5789V91.8947H116.797V127.632H121.875V153.158H126.953V173.579H121.875V178.684H116.797V153.158H111.719V127.632H106.641V97H101.562V81.6842H96.4844V76.5789H91.4062V56.1579H106.641V76.5789H111.719ZM121.875 86.7895V91.8947H116.797V86.7895H121.875ZM121.875 86.7895H126.953V91.8947H132.031V97H137.109V102.105H142.188V107.211H152.344V97H147.266V76.5789H142.188V71.4737H137.109V66.3684H132.031V61.2632H121.875V56.1579H126.953V45.9474H121.875V56.1579H116.797V61.2632H111.719V76.5789H116.797V81.6842H121.875V86.7895ZM126.953 71.4737H116.797V61.2632H121.875V66.3684H126.953V71.4737ZM126.953 71.4737V76.5789H132.031V81.6842H137.109V86.7895H142.188V81.6842H137.109V76.5789H132.031V71.4737H126.953ZM213.281 30.6316H203.125V35.7368H198.047V45.9474H192.969V56.1579H198.047V61.2632H187.891V66.3684H182.812V71.4737H177.734V76.5789H172.656V97H167.578V107.211H177.734V102.105H182.812V97H187.891V91.8947H192.969V86.7895H198.047V91.8947H203.125V127.632H198.047V153.158H192.969V173.579H198.047V178.684H203.125V153.158H208.203V127.632H213.281V97H218.359V81.6842H223.438V76.5789H228.516V56.1579H233.594V61.2632H238.672V66.3684H243.75V71.4737H248.828V81.6842H253.906V86.7895H258.984V91.8947H264.062V97H269.141V107.211H274.219V112.316H279.297V117.421H284.375V122.526H289.453V127.632H299.609V117.421H294.531V112.316H289.453V107.211H284.375V102.105H279.297V91.8947H274.219V86.7895H269.141V81.6842H264.062V76.5789H258.984V71.4737H253.906V56.1579H248.828V51.0526H264.062V56.1579H269.141V61.2632H274.219V66.3684H284.375V71.4737H289.453V76.5789H294.531V81.6842H304.688V86.7895H314.844V76.5789H304.688V71.4737H294.531V66.3684H289.453V61.2632H284.375V56.1579H274.219V51.0526H269.141V45.9474H264.062V40.8421H253.906V30.6316H233.594V25.5263H238.672V20.4211H243.75V25.5263H248.828V20.4211H243.75V10.2105H238.672V5.10526H228.516V10.2105H223.438V15.3158H218.359V25.5263H213.281V30.6316ZM233.594 35.7368H213.281V30.6316H233.594V35.7368ZM203.125 45.9474H198.047V56.1579H203.125V61.2632H198.047V66.3684H192.969V71.4737H187.891V76.5789H182.812V81.6842H177.734V86.7895H182.812V81.6842H187.891V76.5789H192.969V71.4737H203.125V61.2632H208.203V76.5789H203.125V81.6842H198.047V86.7895H203.125V91.8947H208.203V76.5789H213.281V56.1579H228.516V51.0526H213.281V56.1579H203.125V45.9474ZM203.125 45.9474V40.8421H208.203V35.7368H213.281V45.9474H203.125ZM233.594 35.7368V45.9474H243.75V51.0526H248.828V45.9474H243.75V40.8421H238.672V35.7368H233.594ZM147.266 30.6316H142.188V25.5263H147.266V30.6316ZM147.266 30.6316H152.344V45.9474H147.266V51.0526H142.188V45.9474H137.109V30.6316H142.188V40.8421H147.266V30.6316ZM177.734 30.6316H172.656V25.5263H177.734V30.6316ZM177.734 30.6316H182.812V45.9474H177.734V51.0526H172.656V45.9474H167.578V30.6316H172.656V40.8421H177.734V30.6316ZM167.578 56.1579H152.344V51.0526H167.578V56.1579Z" fill="#111111"/>
<path fill-rule="evenodd" clip-rule="evenodd" d="M86.3281 10.2105H81.25V5.10526H86.3281V10.2105ZM96.4844 15.3158H91.4062V10.2105H96.4844V15.3158Z" fill="#5E4A43"/>
<path fill-rule="evenodd" clip-rule="evenodd" d="M91.4062 10.2105H86.3281V5.10526H91.4062V10.2105Z" fill="#664F45"/>
<path fill-rule="evenodd" clip-rule="evenodd" d="M233.594 10.2105H228.516V5.10526H233.594V10.2105Z" fill="#664F46"/>
<path fill-rule="evenodd" clip-rule="evenodd" d="M238.672 10.2105H233.594V5.10526H238.672V10.2105ZM243.75 15.3158H238.672V10.2105H243.75V15.3158ZM182.812 25.5263H172.656V20.4211H182.812V25.5263ZM187.891 30.6316H182.812V25.5263H187.891V30.6316ZM187.891 30.6316V35.7368H192.969V30.6316H187.891ZM167.578 91.8947H152.344V86.7895H167.578V91.8947Z" fill="#6C5349"/>
<path fill-rule="evenodd" clip-rule="evenodd" d="M81.25 15.3158H76.1719V10.2105H81.25V15.3158Z" fill="#3C322E"/>
<path fill-rule="evenodd" clip-rule="evenodd" d="M86.3281 15.3158H81.25V10.2105H86.3281V15.3158ZM96.4844 25.5263H91.4062V20.4211H96.4844V25.5263ZM86.3281 61.2632H81.25V56.1579H86.3281V61.2632Z" fill="#3B322E"/>
<path fill-rule="evenodd" clip-rule="evenodd" d="M91.4062 15.3158H86.3281V10.2105H91.4062V15.3158ZM157.422 71.4737H152.344V66.3684H157.422V71.4737Z" fill="#433732"/>
<path fill-rule="evenodd" clip-rule="evenodd" d="M228.516 15.3158H223.438V10.2105H228.516V15.3158Z" fill="#483A36"/>
<path fill-rule="evenodd" clip-rule="evenodd" d="M233.594 15.3158H228.516V10.2105H233.594V15.3158ZM172.656 71.4737H167.578V66.3684H172.656V71.4737Z" fill="#453834"/>
<path fill-rule="evenodd" clip-rule="evenodd" d="M238.672 15.3158H233.594V10.2105H238.672V15.3158Z" fill="#423733"/>
<path fill-rule="evenodd" clip-rule="evenodd" d="M81.25 20.4211H76.1719V15.3158H86.3281V25.5263H81.25V20.4211ZM76.1719 25.5263H71.0938V20.4211H76.1719V25.5263ZM147.266 25.5263H142.188V30.6316H137.109V45.9474H142.188V51.0526H147.266V45.9474H152.344V30.6316H147.266V25.5263ZM172.656 20.4211V30.6316H167.578V45.9474H172.656V51.0526H177.734V45.9474H182.812V66.3684H177.734V61.2632H167.578V51.0526H152.344V56.1579H157.422V61.2632H142.188V66.3684H137.109V61.2632H132.031V45.9474H126.953V30.6316H132.031V25.5263H137.109V20.4211H172.656ZM142.188 86.7895V81.6842H137.109V76.5789H132.031V71.4737H126.953V66.3684H137.109V71.4737H142.188V76.5789H147.266V86.7895H142.188ZM121.875 61.2632H126.953V66.3684H121.875V61.2632ZM116.797 61.2632V71.4737H126.953V76.5789H132.031V86.7895H142.188V91.8947H147.266V97H152.344V107.211H142.188V102.105H137.109V97H132.031V91.8947H126.953V86.7895H121.875V81.6842H116.797V76.5789H111.719V61.2632H116.797ZM116.797 91.8947V86.7895H121.875V91.8947H116.797ZM116.797 91.8947H106.641V86.7895H101.562V97H106.641V102.105H116.797V91.8947ZM116.797 61.2632V56.1579H121.875V61.2632H116.797ZM192.969 66.3684V71.4737H187.891V76.5789H182.812V81.6842H177.734V86.7895H172.656V76.5789H177.734V71.4737H182.812V66.3684H192.969ZM198.047 86.7895V91.8947H203.125V102.105H208.203V91.8947H203.125V86.7895H198.047ZM177.734 86.7895V91.8947H172.656V97H167.578V107.211H177.734V102.105H182.812V97H187.891V91.8947H192.969V86.7895H198.047V81.6842H203.125V76.5789H208.203V61.2632H203.125V56.1579H208.203V45.9474H203.125V40.8421H208.203V35.7368H198.047V45.9474H203.125V56.1579H198.047V51.0526H192.969V56.1579H198.047V61.2632H192.969V66.3684H198.047V61.2632H203.125V71.4737H192.969V76.5789H187.891V86.7895H177.734ZM233.594 20.4211V30.6316H213.281V25.5263H218.359V20.4211H233.594ZM91.4062 30.6316H86.3281V25.5263H91.4062V30.6316ZM182.812 30.6316H177.734V25.5263H182.812V30.6316ZM187.891 35.7368H182.812V30.6316H187.891V35.7368ZM238.672 35.7368H233.594V30.6316H253.906V40.8421H258.984V45.9474H253.906V51.0526H248.828V45.9474H243.75V40.8421H238.672V35.7368ZM66.0156 45.9474H60.9375V40.8421H76.1719V45.9474H71.0938V51.0526H66.0156V45.9474ZM96.4844 40.8421V51.0526H86.3281V45.9474H91.4062V40.8421H96.4844ZM76.1719 51.0526V56.1579H81.25V66.3684H76.1719V71.4737H71.0938V76.5789H66.0156V56.1579H71.0938V51.0526H76.1719ZM218.359 61.2632V71.4737H213.281V61.2632H218.359ZM243.75 66.3684H238.672V61.2632H243.75V66.3684ZM248.828 71.4737H243.75V66.3684H248.828V71.4737ZM248.828 71.4737V76.5789H253.906V71.4737H248.828ZM96.4844 66.3684V76.5789H91.4062V66.3684H96.4844ZM20.3125 71.4737V81.6842H15.2344V86.7895H5.07812V76.5789H15.2344V71.4737H20.3125ZM294.531 76.5789H289.453V71.4737H294.531V76.5789ZM304.688 71.4737V76.5789H314.844V86.7895H304.688V81.6842H294.531V76.5789H299.609V71.4737H304.688ZM101.562 81.6842H96.4844V76.5789H101.562V81.6842ZM279.297 97V102.105H284.375V107.211H289.453V112.316H294.531V117.421H299.609V127.632H289.453V122.526H284.375V117.421H279.297V112.316H274.219V107.211H269.141V97H279.297ZM45.7031 112.316H40.625V117.421H35.5469V122.526H30.4688V127.632H20.3125V117.421H25.3906V112.316H30.4688V107.211H45.7031V112.316ZM208.203 137.842V153.158H203.125V178.684H198.047V173.579H192.969V153.158H198.047V142.947H203.125V137.842H208.203ZM116.797 142.947V148.053H121.875V153.158H126.953V173.579H121.875V178.684H116.797V153.158H111.719V142.947H116.797Z" fill="#342D2A"/>
<path fill-rule="evenodd" clip-rule="evenodd" d="M91.4062 20.4211H86.3281V15.3158H91.4062V20.4211Z" fill="#362E2C"/>
<path fill-rule="evenodd" clip-rule="evenodd" d="M96.4844 20.4211H91.4062V15.3158H96.4844V20.4211ZM91.4062 40.8421H86.3281V35.7368H91.4062V40.8421Z" fill="#443833"/>
<path fill-rule="evenodd" clip-rule="evenodd" d="M101.562 20.4211H96.4844V15.3158H101.562V20.4211Z" fill="#695047"/>
<path fill-rule="evenodd" clip-rule="evenodd" d="M223.438 20.4211H218.359V15.3158H223.438V20.4211Z" fill="#413632"/>
<path fill-rule="evenodd" clip-rule="evenodd" d="M228.516 20.4211H223.438V15.3158H228.516V20.4211ZM162.5 66.3684H157.422V61.2632H162.5V66.3684Z" fill="#433731"/>
<path fill-rule="evenodd" clip-rule="evenodd" d="M233.594 20.4211H228.516V15.3158H233.594V20.4211ZM81.25 35.7368H76.1719V30.6316H81.25V35.7368ZM218.359 86.7895H213.281V81.6842H218.359V86.7895Z" fill="#3D332F"/>
<path fill-rule="evenodd" clip-rule="evenodd" d="M238.672 20.4211H233.594V15.3158H238.672V20.4211Z" fill="#413533"/>
<path fill-rule="evenodd" clip-rule="evenodd" d="M243.75 20.4211H238.672V15.3158H243.75V20.4211Z" fill="#55443D"/>
<path fill-rule="evenodd" clip-rule="evenodd" d="M91.4062 25.5263H86.3281V20.4211H91.4062V25.5263ZM96.4844 66.3684H91.4062V61.2632H96.4844V66.3684Z" fill="#342E2A"/>
<path fill-rule="evenodd" clip-rule="evenodd" d="M101.562 25.5263H96.4844V20.4211H101.562V25.5263Z" fill="#513F3A"/>
<path fill-rule="evenodd" clip-rule="evenodd" d="M238.672 25.5263H233.594V20.4211H238.672V25.5263ZM116.797 56.1579H111.719V51.0526H116.797V56.1579Z" fill="#392F2D"/>
<path fill-rule="evenodd" clip-rule="evenodd" d="M248.828 25.5263H243.75V20.4211H248.828V25.5263ZM238.672 51.0526H233.594V45.9474H238.672V51.0526Z" fill="#503F39"/>
<path d="M319.922 22.9737H325ZM319.922 43.3947H325ZM319.922 74.0263H325ZM319.922 176.132H325Z" fill="black"/>
<path fill-rule="evenodd" clip-rule="evenodd" d="M325 25.5263H319.922V20.4211H325V25.5263ZM325 45.9474H319.922V40.8421H325V45.9474ZM325 76.5789H319.922V71.4737H325V76.5789ZM325 91.8947H319.922V86.7895H325V91.8947ZM325 178.684H319.922V173.579H325V178.684Z" fill="black" fill-opacity="0.01"/>
<path fill-rule="evenodd" clip-rule="evenodd" d="M96.4844 30.6316H91.4062V25.5263H96.4844V30.6316ZM208.203 35.7368H203.125V30.6316H208.203V35.7368ZM167.578 61.2632H157.422V56.1579H167.578V61.2632ZM106.641 86.7895H101.562V81.6842H106.641V86.7895ZM213.281 97H208.203V91.8947H213.281V97Z" fill="#352E2A"/>
<path fill-rule="evenodd" clip-rule="evenodd" d="M101.562 30.6316H96.4844V25.5263H101.562V30.6316Z" fill="#352D2B"/>
<path fill-rule="evenodd" clip-rule="evenodd" d="M106.641 30.6316H101.562V25.5263H106.641V30.6316Z" fill="#483B37"/>
<path d="M319.922 28.0789H325ZM319.922 38.2895H325ZM319.922 48.5H325ZM319.922 58.7105H325ZM319.922 68.9211H325ZM319.922 125.079H325ZM319.922 130.184H325ZM319.922 135.289H325ZM319.922 140.395H325ZM319.922 145.5H325ZM319.922 165.921H325ZM319.922 171.026H325Z" fill="black"/>
<path fill-rule="evenodd" clip-rule="evenodd" d="M325 30.6316H319.922V25.5263H325V30.6316ZM325 40.8421H319.922V35.7368H325V40.8421ZM325 51.0526H319.922V45.9474H325V51.0526ZM325 61.2632H319.922V56.1579H325V61.2632ZM325 71.4737H319.922V66.3684H325V71.4737ZM325 122.526V148.053H319.922V122.526H325ZM325 163.368V173.579H319.922V163.368H325Z" fill="black" fill-opacity="0.01"/>
<path fill-rule="evenodd" clip-rule="evenodd" d="M71.0938 35.7368H66.0156V30.6316H71.0938V35.7368Z" fill="#372E2C"/>
<path fill-rule="evenodd" clip-rule="evenodd" d="M76.1719 35.7368H71.0938V30.6316H76.1719V35.7368ZM218.359 45.9474H213.281V40.8421H218.359V45.9474Z" fill="#3A302D"/>
<path fill-rule="evenodd" clip-rule="evenodd" d="M86.3281 35.7368H81.25V30.6316H86.3281V35.7368Z" fill="#433832"/>
<path fill-rule="evenodd" clip-rule="evenodd" d="M111.719 35.7368H106.641V30.6316H111.719V35.7368Z" fill="#59463F"/>
<path fill-rule="evenodd" clip-rule="evenodd" d="M116.797 35.7368H111.719V30.6316H116.797V35.7368Z" fill="#4E3F38"/>
<path fill-rule="evenodd" clip-rule="evenodd" d="M147.266 35.7368H142.188V30.6316H147.266V35.7368ZM177.734 35.7368H172.656V30.6316H177.734V35.7368Z" fill="white"/>
<path fill-rule="evenodd" clip-rule="evenodd" d="M213.281 35.7368H208.203V30.6316H213.281V35.7368Z" fill="#40332F"/>
<path fill-rule="evenodd" clip-rule="evenodd" d="M71.0938 40.8421H66.0156V35.7368H71.0938V40.8421ZM218.359 51.0526H213.281V45.9474H218.359V51.0526ZM81.25 56.1579H76.1719V51.0526H81.25V56.1579ZM253.906 71.4737H248.828V66.3684H253.906V71.4737Z" fill="#3A312D"/>
<path fill-rule="evenodd" clip-rule="evenodd" d="M76.1719 40.8421H71.0938V35.7368H76.1719V40.8421ZM218.359 61.2632H213.281V56.1579H218.359V61.2632Z" fill="#39312D"/>
<path fill-rule="evenodd" clip-rule="evenodd" d="M81.25 40.8421H76.1719V35.7368H81.25V40.8421Z" fill="#39302D"/>
<path fill-rule="evenodd" clip-rule="evenodd" d="M96.4844 40.8421H91.4062V35.7368H96.4844V40.8421Z" fill="#493B36"/>
<path fill-rule="evenodd" clip-rule="evenodd" d="M101.562 40.8421H96.4844V35.7368H101.562V40.8421Z" fill="#503F38"/>
<path fill-rule="evenodd" clip-rule="evenodd" d="M106.641 40.8421H101.562V35.7368H106.641V40.8421Z" fill="#614B42"/>
<path fill-rule="evenodd" clip-rule="evenodd" d="M116.797 40.8421H111.719V35.7368H116.797V40.8421ZM223.438 45.9474H218.359V40.8421H223.438V45.9474ZM106.641 51.0526H101.562V45.9474H106.641V51.0526Z" fill="#403531"/>
<path fill-rule="evenodd" clip-rule="evenodd" d="M121.875 40.8421H116.797V35.7368H121.875V40.8421Z" fill="#5A473F"/>
<path fill-rule="evenodd" clip-rule="evenodd" d="M147.266 40.8421H142.188V35.7368H147.266V40.8421ZM177.734 40.8421H172.656V35.7368H177.734V40.8421Z" fill="#884237"/>
<path fill-rule="evenodd" clip-rule="evenodd" d="M187.891 40.8421H182.812V35.7368H187.891V40.8421Z" fill="#3A302E"/>
<path fill-rule="evenodd" clip-rule="evenodd" d="M192.969 40.8421H187.891V35.7368H192.969V40.8421Z" fill="#5B493F"/>
<path fill-rule="evenodd" clip-rule="evenodd" d="M218.359 40.8421H213.281V35.7368H218.359V40.8421ZM152.344 71.4737H147.266V66.3684H152.344V71.4737Z" fill="#443732"/>
<path fill-rule="evenodd" clip-rule="evenodd" d="M223.438 40.8421H218.359V35.7368H223.438V40.8421Z" fill="#685147"/>
<path fill-rule="evenodd" clip-rule="evenodd" d="M228.516 40.8421H223.438V35.7368H228.516V40.8421Z" fill="#6C5348"/>
<path fill-rule="evenodd" clip-rule="evenodd" d="M233.594 40.8421H228.516V35.7368H233.594V40.8421ZM162.5 86.7895H157.422V81.6842H162.5V86.7895Z" fill="#6B5349"/>
<path fill-rule="evenodd" clip-rule="evenodd" d="M60.9375 40.8421V45.9474H66.0156V51.0526H55.8594V56.1579H45.7031V51.0526H50.7812V45.9474H55.8594V40.8421H60.9375ZM264.062 40.8421V45.9474H269.141V51.0526H274.219V56.1579H264.062V51.0526H253.906V45.9474H258.984V40.8421H264.062ZM66.0156 76.5789H60.9375V71.4737H66.0156V76.5789ZM71.0938 81.6842H66.0156V76.5789H71.0938V81.6842ZM253.906 81.6842H248.828V76.5789H253.906V81.6842ZM116.797 102.105V112.316H106.641V102.105H116.797ZM213.281 102.105V112.316H203.125V102.105H213.281Z" fill="#772717"/>
<path fill-rule="evenodd" clip-rule="evenodd" d="M91.4062 45.9474H86.3281V40.8421H91.4062V45.9474ZM81.25 51.0526H76.1719V45.9474H81.25V51.0526ZM86.3281 56.1579H81.25V51.0526H86.3281V56.1579ZM147.266 71.4737H142.188V66.3684H147.266V71.4737Z" fill="#38302C"/>
<path fill-rule="evenodd" clip-rule="evenodd" d="M101.562 45.9474H96.4844V40.8421H101.562V45.9474Z" fill="#3A302C"/>
<path fill-rule="evenodd" clip-rule="evenodd" d="M106.641 45.9474H101.562V40.8421H106.641V45.9474Z" fill="#59463D"/>
<path fill-rule="evenodd" clip-rule="evenodd" d="M121.875 45.9474H116.797V40.8421H121.875V45.9474Z" fill="#4C3D38"/>
<path fill-rule="evenodd" clip-rule="evenodd" d="M187.891 45.9474H182.812V40.8421H187.891V45.9474Z" fill="#3E322F"/>
<path fill-rule="evenodd" clip-rule="evenodd" d="M192.969 45.9474H187.891V40.8421H192.969V45.9474Z" fill="#4D3F38"/>
<path fill-rule="evenodd" clip-rule="evenodd" d="M228.516 45.9474H223.438V40.8421H228.516V45.9474ZM238.672 61.2632H233.594V56.1579H238.672V61.2632Z" fill="#3B312D"/>
<path fill-rule="evenodd" clip-rule="evenodd" d="M233.594 45.9474H228.516V40.8421H233.594V45.9474Z" fill="#58453E"/>
<path fill-rule="evenodd" clip-rule="evenodd" d="M86.3281 51.0526H81.25V45.9474H86.3281V51.0526Z" fill="#3C332E"/>
<path fill-rule="evenodd" clip-rule="evenodd" d="M101.562 51.0526H96.4844V45.9474H101.562V51.0526ZM299.609 76.5789H294.531V71.4737H299.609V76.5789ZM25.3906 81.6842H20.3125V76.5789H25.3906V81.6842ZM213.281 86.7895H208.203V81.6842H213.281V86.7895ZM218.359 97H213.281V91.8947H218.359V97ZM203.125 142.947H198.047V137.842H203.125V142.947Z" fill="#352D2A"/>
<path fill-rule="evenodd" clip-rule="evenodd" d="M111.719 51.0526H106.641V45.9474H111.719V51.0526Z" fill="#5C4840"/>
<path fill-rule="evenodd" clip-rule="evenodd" d="M116.797 51.0526H111.719V45.9474H116.797V51.0526Z" fill="#5F4A41"/>
<path fill-rule="evenodd" clip-rule="evenodd" d="M126.953 51.0526H121.875V45.9474H126.953V51.0526ZM157.422 76.5789H152.344V71.4737H157.422V76.5789Z" fill="#4C3E38"/>
<path fill-rule="evenodd" clip-rule="evenodd" d="M187.891 51.0526H182.812V45.9474H187.891V51.0526Z" fill="#3B3230"/>
<path fill-rule="evenodd" clip-rule="evenodd" d="M198.047 51.0526H192.969V45.9474H198.047V51.0526Z" fill="#362D2A"/>
<path fill-rule="evenodd" clip-rule="evenodd" d="M213.281 51.0526H208.203V45.9474H213.281V51.0526ZM248.828 66.3684H243.75V61.2632H248.828V66.3684ZM223.438 71.4737H218.359V66.3684H223.438V71.4737ZM213.281 81.6842H208.203V76.5789H213.281V81.6842ZM111.719 91.8947H106.641V86.7895H111.719V91.8947ZM213.281 102.105H208.203V97H213.281V102.105Z" fill="#352E2B"/>
<path fill-rule="evenodd" clip-rule="evenodd" d="M223.438 51.0526H218.359V45.9474H223.438V51.0526Z" fill="#372F2D"/>
<path fill-rule="evenodd" clip-rule="evenodd" d="M228.516 51.0526H223.438V45.9474H228.516V51.0526Z" fill="#3B312E"/>
<path fill-rule="evenodd" clip-rule="evenodd" d="M233.594 51.0526H228.516V45.9474H233.594V51.0526Z" fill="#40352F"/>
<path fill-rule="evenodd" clip-rule="evenodd" d="M243.75 51.0526H238.672V45.9474H243.75V51.0526Z" fill="#5F4B43"/>
<path fill-rule="evenodd" clip-rule="evenodd" d="M91.4062 56.1579H86.3281V51.0526H91.4062V56.1579Z" fill="#3C312E"/>
<path fill-rule="evenodd" clip-rule="evenodd" d="M111.719 56.1579H106.641V51.0526H111.719V56.1579Z" fill="#362F2B"/>
<path fill-rule="evenodd" clip-rule="evenodd" d="M126.953 56.1579H121.875V51.0526H126.953V56.1579Z" fill="#4C3D37"/>
<path fill-rule="evenodd" clip-rule="evenodd" d="M187.891 56.1579H182.812V51.0526H187.891V56.1579Z" fill="#3C332F"/>
<path fill-rule="evenodd" clip-rule="evenodd" d="M213.281 56.1579H208.203V51.0526H213.281V56.1579ZM147.266 66.3684H142.188V61.2632H147.266V66.3684Z" fill="#342D2B"/>
<path fill-rule="evenodd" clip-rule="evenodd" d="M233.594 56.1579H228.516V51.0526H233.594V56.1579Z" fill="#3E332D"/>
<path fill-rule="evenodd" clip-rule="evenodd" d="M238.672 56.1579H233.594V51.0526H238.672V56.1579Z" fill="#43362F"/>
<path fill-rule="evenodd" clip-rule="evenodd" d="M243.75 56.1579H238.672V51.0526H243.75V56.1579Z" fill="#4A3A35"/>
<path fill-rule="evenodd" clip-rule="evenodd" d="M248.828 56.1579H243.75V51.0526H248.828V56.1579Z" fill="#54423A"/>
<path fill-rule="evenodd" clip-rule="evenodd" d="M40.625 61.2632H35.5469V56.1579H40.625V61.2632ZM284.375 61.2632H279.297V56.1579H284.375V61.2632Z" fill="#552C22"/>
<path fill-rule="evenodd" clip-rule="evenodd" d="M45.7031 61.2632H40.625V56.1579H45.7031V61.2632Z" fill="#5A2B21"/>
<path fill-rule="evenodd" clip-rule="evenodd" d="M50.7812 61.2632H45.7031V56.1579H50.7812V61.2632ZM66.0156 81.6842H60.9375V76.5789H66.0156V81.6842Z" fill="#762718"/>
<path fill-rule="evenodd" clip-rule="evenodd" d="M96.4844 61.2632H91.4062V56.1579H96.4844V61.2632Z" fill="#55423B"/>
<path fill-rule="evenodd" clip-rule="evenodd" d="M101.562 61.2632H96.4844V56.1579H101.562V61.2632Z" fill="#4A3D37"/>
<path fill-rule="evenodd" clip-rule="evenodd" d="M106.641 61.2632H101.562V56.1579H106.641V61.2632Z" fill="#52403B"/>
<path fill-rule="evenodd" clip-rule="evenodd" d="M187.891 61.2632H182.812V56.1579H187.891V61.2632ZM167.578 66.3684H162.5V61.2632H167.578V66.3684Z" fill="#3F3330"/>
<path fill-rule="evenodd" clip-rule="evenodd" d="M223.438 61.2632H218.359V56.1579H223.438V61.2632Z" fill="#604A43"/>
<path fill-rule="evenodd" clip-rule="evenodd" d="M228.516 61.2632H223.438V56.1579H228.516V61.2632Z" fill="#5D4840"/>
<path fill-rule="evenodd" clip-rule="evenodd" d="M243.75 61.2632H238.672V56.1579H243.75V61.2632Z" fill="#40332E"/>
<path fill-rule="evenodd" clip-rule="evenodd" d="M248.828 61.2632H243.75V56.1579H248.828V61.2632Z" fill="#473832"/>
<path fill-rule="evenodd" clip-rule="evenodd" d="M253.906 61.2632H248.828V56.1579H253.906V61.2632Z" fill="#543C35"/>
<path fill-rule="evenodd" clip-rule="evenodd" d="M274.219 61.2632H269.141V56.1579H274.219V61.2632Z" fill="#712B19"/>
<path fill-rule="evenodd" clip-rule="evenodd" d="M279.297 61.2632H274.219V56.1579H279.297V61.2632ZM60.9375 91.8947H55.8594V86.7895H60.9375V91.8947Z" fill="#5A2D22"/>
<path fill-rule="evenodd" clip-rule="evenodd" d="M35.5469 66.3684H30.4688V61.2632H35.5469V66.3684Z" fill="#4D2D25"/>
<path fill-rule="evenodd" clip-rule="evenodd" d="M40.625 66.3684H35.5469V61.2632H40.625V66.3684Z" fill="#4E2D23"/>
<path fill-rule="evenodd" clip-rule="evenodd" d="M45.7031 66.3684H40.625V61.2632H45.7031V66.3684Z" fill="#5B2B21"/>
<path fill-rule="evenodd" clip-rule="evenodd" d="M101.562 66.3684H96.4844V61.2632H101.562V66.3684Z" fill="#362D2C"/>
<path fill-rule="evenodd" clip-rule="evenodd" d="M106.641 66.3684H101.562V61.2632H106.641V66.3684Z" fill="#57453E"/>
<path fill-rule="evenodd" clip-rule="evenodd" d="M132.031 66.3684H126.953V61.2632H132.031V66.3684ZM192.969 66.3684H187.891V61.2632H192.969V66.3684Z" fill="#2D2725"/>
<path fill-rule="evenodd" clip-rule="evenodd" d="M152.344 66.3684H147.266V61.2632H152.344V66.3684Z" fill="#352E2C"/>
<path fill-rule="evenodd" clip-rule="evenodd" d="M157.422 66.3684H152.344V61.2632H157.422V66.3684Z" fill="#3F3430"/>
<path fill-rule="evenodd" clip-rule="evenodd" d="M172.656 66.3684H167.578V61.2632H172.656V66.3684ZM106.641 81.6842H101.562V76.5789H106.641V81.6842ZM218.359 91.8947H213.281V86.7895H218.359V91.8947Z" fill="#372F2C"/>
<path fill-rule="evenodd" clip-rule="evenodd" d="M177.734 66.3684H172.656V61.2632H177.734V66.3684Z" fill="#38302B"/>
<path fill-rule="evenodd" clip-rule="evenodd" d="M223.438 66.3684H218.359V61.2632H223.438V66.3684Z" fill="#39322D"/>
<path fill-rule="evenodd" clip-rule="evenodd" d="M228.516 66.3684H223.438V61.2632H228.516V66.3684Z" fill="#5F4B42"/>
<path fill-rule="evenodd" clip-rule="evenodd" d="M253.906 66.3684H248.828V61.2632H253.906V66.3684Z" fill="#4A3C37"/>
<path fill-rule="evenodd" clip-rule="evenodd" d="M279.297 66.3684H274.219V61.2632H279.297V66.3684Z" fill="#5B2B23"/>
<path fill-rule="evenodd" clip-rule="evenodd" d="M284.375 66.3684H279.297V61.2632H284.375V66.3684Z" fill="#4F2D25"/>
<path fill-rule="evenodd" clip-rule="evenodd" d="M289.453 66.3684H284.375V61.2632H289.453V66.3684Z" fill="#512D26"/>
<path fill-rule="evenodd" clip-rule="evenodd" d="M30.4688 71.4737H25.3906V66.3684H30.4688V71.4737Z" fill="#3D2D28"/>
<path fill-rule="evenodd" clip-rule="evenodd" d="M35.5469 71.4737H30.4688V66.3684H35.5469V71.4737Z" fill="#4D2D24"/>
<path fill-rule="evenodd" clip-rule="evenodd" d="M101.562 71.4737H96.4844V66.3684H101.562V71.4737ZM213.281 91.8947H208.203V86.7895H213.281V91.8947ZM116.797 142.947H111.719V137.842H116.797V142.947Z" fill="#362E2B"/>
<path fill-rule="evenodd" clip-rule="evenodd" d="M106.641 71.4737H101.562V66.3684H106.641V71.4737Z" fill="#39302C"/>
<path fill-rule="evenodd" clip-rule="evenodd" d="M162.5 71.4737H157.422V66.3684H162.5V71.4737Z" fill="#463935"/>
<path fill-rule="evenodd" clip-rule="evenodd" d="M167.578 71.4737H162.5V66.3684H167.578V71.4737Z" fill="#403532"/>
<path fill-rule="evenodd" clip-rule="evenodd" d="M177.734 71.4737H172.656V66.3684H177.734V71.4737Z" fill="#3F342F"/>
<path fill-rule="evenodd" clip-rule="evenodd" d="M228.516 71.4737H223.438V66.3684H228.516V71.4737Z" fill="#4F3F3A"/>
<path fill-rule="evenodd" clip-rule="evenodd" d="M289.453 71.4737H284.375V66.3684H289.453V71.4737Z" fill="#4C2D26"/>
<path fill-rule="evenodd" clip-rule="evenodd" d="M294.531 71.4737H289.453V66.3684H294.531V71.4737Z" fill="#492C27"/>
<path fill-rule="evenodd" clip-rule="evenodd" d="M25.3906 76.5789H20.3125V71.4737H25.3906V76.5789Z" fill="#372D2A"/>
<path fill-rule="evenodd" clip-rule="evenodd" d="M30.4688 76.5789H25.3906V71.4737H30.4688V76.5789Z" fill="#432D27"/>
<path fill-rule="evenodd" clip-rule="evenodd" d="M101.562 76.5789H96.4844V71.4737H101.562V76.5789Z" fill="#342E2B"/>
<path fill-rule="evenodd" clip-rule="evenodd" d="M106.641 76.5789H101.562V71.4737H106.641V76.5789Z" fill="#634C44"/>
<path fill-rule="evenodd" clip-rule="evenodd" d="M152.344 76.5789H147.266V71.4737H152.344V76.5789Z" fill="#3F332F"/>
<path fill-rule="evenodd" clip-rule="evenodd" d="M162.5 76.5789H157.422V71.4737H162.5V76.5789Z" fill="#4B3B37"/>
<path fill-rule="evenodd" clip-rule="evenodd" d="M167.578 76.5789H162.5V71.4737H167.578V76.5789Z" fill="#543F3A"/>
<path fill-rule="evenodd" clip-rule="evenodd" d="M172.656 76.5789H167.578V71.4737H172.656V76.5789ZM111.719 86.7895H106.641V81.6842H111.719V86.7895Z" fill="#382F2D"/>
<path fill-rule="evenodd" clip-rule="evenodd" d="M218.359 76.5789H213.281V71.4737H218.359V76.5789Z" fill="#362F2C"/>
<path fill-rule="evenodd" clip-rule="evenodd" d="M223.438 76.5789H218.359V71.4737H223.438V76.5789Z" fill="#413430"/>
<path fill-rule="evenodd" clip-rule="evenodd" d="M228.516 76.5789H223.438V71.4737H228.516V76.5789Z" fill="#53433C"/>
<path fill-rule="evenodd" clip-rule="evenodd" d="M258.984 76.5789H253.906V71.4737H258.984V76.5789ZM60.9375 86.7895H55.8594V81.6842H60.9375V86.7895Z" fill="#5F2B20"/>
<path fill-rule="evenodd" clip-rule="evenodd" d="M60.9375 81.6842H55.8594V76.5789H60.9375V81.6842Z" fill="#712819"/>
<path fill-rule="evenodd" clip-rule="evenodd" d="M111.719 81.6842H106.641V76.5789H111.719V81.6842Z" fill="#37302C"/>
<path fill-rule="evenodd" clip-rule="evenodd" d="M157.422 81.6842H152.344V76.5789H157.422V81.6842Z" fill="#4D3D37"/>
<path fill-rule="evenodd" clip-rule="evenodd" d="M162.5 81.6842H157.422V76.5789H162.5V81.6842Z" fill="#5D4740"/>
<path fill-rule="evenodd" clip-rule="evenodd" d="M167.578 81.6842H162.5V76.5789H167.578V81.6842Z" fill="#604942"/>
<path fill-rule="evenodd" clip-rule="evenodd" d="M218.359 81.6842H213.281V76.5789H218.359V81.6842Z" fill="#3B342E"/>
<path fill-rule="evenodd" clip-rule="evenodd" d="M223.438 81.6842H218.359V76.5789H223.438V81.6842Z" fill="#473934"/>
<path fill-rule="evenodd" clip-rule="evenodd" d="M258.984 81.6842H253.906V76.5789H258.984V81.6842Z" fill="#742719"/>
<path fill-rule="evenodd" clip-rule="evenodd" d="M264.062 81.6842H258.984V76.5789H264.062V81.6842Z" fill="#632E22"/>
<path fill-rule="evenodd" clip-rule="evenodd" d="M325 81.6842H319.922V76.5789H325V81.6842Z" fill="#400000" fill-opacity="0.0156863"/>
<path fill-rule="evenodd" clip-rule="evenodd" d="M55.8594 86.7895H50.7812V81.6842H55.8594V86.7895Z" fill="#512C25"/>
<path fill-rule="evenodd" clip-rule="evenodd" d="M66.0156 86.7895H60.9375V81.6842H66.0156V86.7895Z" fill="#692A1D"/>
<path fill-rule="evenodd" clip-rule="evenodd" d="M137.109 86.7895H132.031V81.6842H137.109V86.7895ZM187.891 86.7895H182.812V81.6842H187.891V86.7895Z" fill="#332C29"/>
<path fill-rule="evenodd" clip-rule="evenodd" d="M157.422 86.7895H152.344V81.6842H157.422V86.7895Z" fill="#664E46"/>
<path fill-rule="evenodd" clip-rule="evenodd" d="M167.578 86.7895H162.5V81.6842H167.578V86.7895Z" fill="#56443D"/>
<path fill-rule="evenodd" clip-rule="evenodd" d="M258.984 86.7895H253.906V81.6842H258.984V86.7895Z" fill="#4E2D25"/>
<path fill-rule="evenodd" clip-rule="evenodd" d="M264.062 86.7895H258.984V81.6842H264.062V86.7895Z" fill="#5B2D22"/>
<path fill-rule="evenodd" clip-rule="evenodd" d="M269.141 86.7895H264.062V81.6842H269.141V86.7895Z" fill="#592D23"/>
<path fill-rule="evenodd" clip-rule="evenodd" d="M325 86.7895H319.922V81.6842H325V86.7895Z" fill="#333333" fill-opacity="0.0196078"/>
<path fill-rule="evenodd" clip-rule="evenodd" d="M50.7812 91.8947H45.7031V86.7895H50.7812V91.8947Z" fill="#4B2D27"/>
<path fill-rule="evenodd" clip-rule="evenodd" d="M55.8594 91.8947H50.7812V86.7895H55.8594V91.8947Z" fill="#462D29"/>
<path fill-rule="evenodd" clip-rule="evenodd" d="M147.266 91.8947H142.188V86.7895H147.266V91.8947ZM177.734 91.8947H172.656V86.7895H177.734V91.8947Z" fill="#131312"/>
<path fill-rule="evenodd" clip-rule="evenodd" d="M264.062 91.8947H258.984V86.7895H264.062V91.8947Z" fill="#522D24"/>
<path fill-rule="evenodd" clip-rule="evenodd" d="M269.141 91.8947H264.062V86.7895H269.141V91.8947ZM116.797 127.632H111.719V122.526H116.797V127.632Z" fill="#522D25"/>
<path fill-rule="evenodd" clip-rule="evenodd" d="M274.219 91.8947H269.141V86.7895H274.219V91.8947Z" fill="#462E27"/>
<path fill-rule="evenodd" clip-rule="evenodd" d="M45.7031 97H40.625V91.8947H45.7031V97Z" fill="#392D2A"/>
<path fill-rule="evenodd" clip-rule="evenodd" d="M50.7812 97H45.7031V91.8947H50.7812V97Z" fill="#422D29"/>
<path fill-rule="evenodd" clip-rule="evenodd" d="M55.8594 97H50.7812V91.8947H55.8594V97Z" fill="#4A2E27"/>
<path fill-rule="evenodd" clip-rule="evenodd" d="M162.5 97H157.422V91.8947H162.5V97Z" fill="#131313"/>
<path fill-rule="evenodd" clip-rule="evenodd" d="M269.141 97H264.062V91.8947H269.141V97Z" fill="#402F2A"/>
<path fill-rule="evenodd" clip-rule="evenodd" d="M274.219 97H269.141V91.8947H274.219V97ZM45.7031 102.105H40.625V97H45.7031V102.105Z" fill="#422E28"/>
<path fill-rule="evenodd" clip-rule="evenodd" d="M279.297 97H274.219V91.8947H279.297V97Z" fill="#382D29"/>
<path d="M319.922 94.4474H325Z" fill="black"/>
<path fill-rule="evenodd" clip-rule="evenodd" d="M325 97H319.922V91.8947H325V97Z" fill="#2A1515" fill-opacity="0.0470588"/>
<path fill-rule="evenodd" clip-rule="evenodd" d="M50.7812 102.105H45.7031V97H50.7812V102.105Z" fill="#382D2A"/>
<path d="M319.922 99.5526H325ZM319.922 104.658H325Z" fill="black"/>
<path fill-rule="evenodd" clip-rule="evenodd" d="M325 97V107.211H319.922V97H325Z" fill="#1C1C1C" fill-opacity="0.0705882"/>
<path fill-rule="evenodd" clip-rule="evenodd" d="M40.625 107.211H35.5469V102.105H40.625V107.211Z" fill="#3A2D2A"/>
<path fill-rule="evenodd" clip-rule="evenodd" d="M45.7031 107.211H40.625V102.105H45.7031V107.211ZM121.875 148.053H116.797V142.947H121.875V148.053Z" fill="#372E2A"/>
<path fill-rule="evenodd" clip-rule="evenodd" d="M50.7812 107.211H45.7031V102.105H50.7812V107.211Z" fill="#382F2A"/>
<path d="M319.922 109.763H325Z" fill="black"/>
<path fill-rule="evenodd" clip-rule="evenodd" d="M325 112.316H319.922V107.211H325V112.316Z" fill="#241212" fill-opacity="0.054902"/>
<path fill-rule="evenodd" clip-rule="evenodd" d="M111.719 117.421H106.641V112.316H111.719V117.421Z" fill="#652A1E"/>
<path fill-rule="evenodd" clip-rule="evenodd" d="M116.797 117.421H111.719V112.316H116.797V117.421Z" fill="#632A1E"/>
<path fill-rule="evenodd" clip-rule="evenodd" d="M208.203 117.421H203.125V112.316H208.203V117.421Z" fill="#69291D"/>
<path fill-rule="evenodd" clip-rule="evenodd" d="M213.281 117.421H208.203V112.316H213.281V117.421Z" fill="#602C1F"/>
<path d="M319.922 114.868H325Z" fill="black"/>
<path fill-rule="evenodd" clip-rule="evenodd" d="M325 117.421H319.922V112.316H325V117.421Z" fill="black" fill-opacity="0.0196078"/>
<path fill-rule="evenodd" clip-rule="evenodd" d="M111.719 122.526H106.641V117.421H111.719V122.526Z" fill="#572A24"/>
<path fill-rule="evenodd" clip-rule="evenodd" d="M116.797 122.526H111.719V117.421H116.797V122.526Z" fill="#582D24"/>
<path fill-rule="evenodd" clip-rule="evenodd" d="M208.203 122.526H203.125V117.421H208.203V122.526Z" fill="#4B2E26"/>
<path fill-rule="evenodd" clip-rule="evenodd" d="M213.281 122.526H208.203V117.421H213.281V122.526Z" fill="#5A2C23"/>
<path d="M319.922 119.974H325Z" fill="black"/>
<path fill-rule="evenodd" clip-rule="evenodd" d="M325 122.526H319.922V117.421H325V122.526Z" fill="black" fill-opacity="0.0117647"/>
<path fill-rule="evenodd" clip-rule="evenodd" d="M111.719 127.632H106.641V122.526H111.719V127.632Z" fill="#4E2E27"/>
<path fill-rule="evenodd" clip-rule="evenodd" d="M208.203 127.632H203.125V122.526H208.203V127.632Z" fill="#482E27"/>
<path fill-rule="evenodd" clip-rule="evenodd" d="M213.281 127.632H208.203V122.526H213.281V127.632Z" fill="#4B2D25"/>
<path fill-rule="evenodd" clip-rule="evenodd" d="M116.797 132.737H111.719V127.632H116.797V132.737Z" fill="#492E27"/>
<path fill-rule="evenodd" clip-rule="evenodd" d="M121.875 132.737H116.797V127.632H121.875V132.737Z" fill="#472E27"/>
<path fill-rule="evenodd" clip-rule="evenodd" d="M203.125 132.737H198.047V127.632H203.125V132.737Z" fill="#3B2E29"/>
<path fill-rule="evenodd" clip-rule="evenodd" d="M208.203 132.737H203.125V127.632H208.203V132.737Z" fill="#472D25"/>
<path fill-rule="evenodd" clip-rule="evenodd" d="M116.797 137.842H111.719V132.737H116.797V137.842Z" fill="#402E29"/>
<path fill-rule="evenodd" clip-rule="evenodd" d="M121.875 137.842H116.797V132.737H121.875V137.842Z" fill="#4D2E26"/>
<path fill-rule="evenodd" clip-rule="evenodd" d="M203.125 137.842H198.047V132.737H203.125V137.842Z" fill="#3D2E28"/>
<path fill-rule="evenodd" clip-rule="evenodd" d="M208.203 137.842H203.125V132.737H208.203V137.842Z" fill="#412E28"/>
<path fill-rule="evenodd" clip-rule="evenodd" d="M121.875 142.947H116.797V137.842H121.875V142.947Z" fill="#432E28"/>
<path d="M319.922 181.237H325ZM319.922 186.342H325Z" fill="black"/>
<path fill-rule="evenodd" clip-rule="evenodd" d="M325 178.684V188.895H319.922V178.684H325Z" fill="black" fill-opacity="0.0156863"/>
<path d="M319.922 191.447H325Z" fill="black"/>
<path fill-rule="evenodd" clip-rule="evenodd" d="M325 194H319.922V188.895H325V194Z" fill="#141414" fill-opacity="0.0509804"/>
</svg>
