<svg width="191" height="119" viewBox="0 0 191 119" fill="none" xmlns="http://www.w3.org/2000/svg">
<path d="M75.1475 1.56579H103.328ZM165.951 29.75H175.344ZM169.082 70.4605H181.607Z" fill="black"/>
<path fill-rule="evenodd" clip-rule="evenodd" d="M103.328 3.13158H75.1475V0H103.328V3.13158ZM109.59 6.26316H103.328V3.13158H109.59V6.26316ZM118.984 9.39474H109.59V6.26316H118.984V9.39474ZM125.246 12.5263H118.984V9.39474H125.246V12.5263ZM131.508 15.6579H125.246V12.5263H131.508V15.6579ZM140.902 21.9211H131.508V15.6579H134.639V18.7895H140.902V21.9211ZM144.033 25.0526H140.902V21.9211H144.033V25.0526ZM147.164 28.1842H144.033V25.0526H147.164V28.1842ZM153.426 34.4474H147.164V28.1842H150.295V31.3158H153.426V34.4474ZM162.82 34.4474V37.5789H159.689V40.7105H156.557V37.5789H153.426V34.4474H162.82ZM165.951 31.3158V34.4474H162.82V31.3158H165.951ZM175.344 31.3158H165.951V28.1842H175.344V31.3158ZM181.607 34.4474H175.344V31.3158H181.607V34.4474ZM184.738 37.5789H181.607V34.4474H184.738V37.5789ZM184.738 40.7105V37.5789H191V40.7105H184.738ZM184.738 40.7105H181.607V43.8421H175.344V46.9737H165.951V43.8421H159.689V46.9737H165.951V50.1053H169.082V53.2368H172.213V56.3684H175.344V62.6316H178.475V68.8947H169.082V65.7632H162.82V62.6316H159.689V56.3684H156.557V53.2368H153.426V50.1053H150.295V46.9737H147.164V43.8421H137.77V40.7105H106.459V43.8421H97.0656V46.9737H87.6721V50.1053H81.4098V53.2368H78.2787V56.3684H75.1475V59.5H68.8852V62.6316H65.7541V65.7632H62.623V68.8947H59.4918V72.0263H53.2295V75.1579H50.0984V78.2895H43.8361V81.4211H25.0492V78.2895H9.39344V75.1579H6.2623V72.0263H3.13115V56.3684H6.2623V50.1053H9.39344V46.9737H12.5246V43.8421H15.6557V37.5789H18.7869V34.4474H21.918V31.3158H25.0492V28.1842H28.1803V25.0526H34.4426V21.9211H40.7049V18.7895H43.8361V15.6579H53.2295V12.5263H59.4918V9.39474H65.7541V6.26316H75.1475V3.13158H65.7541V6.26316H59.4918V9.39474H53.2295V12.5263H43.8361V15.6579H40.7049V18.7895H34.4426V21.9211H28.1803V25.0526H25.0492V28.1842H21.918V31.3158H18.7869V34.4474H15.6557V37.5789H12.5246V40.7105H9.39344V43.8421H6.2623V50.1053H3.13115V56.3684H0V72.0263H3.13115V78.2895H9.39344V90.8158H12.5246V93.9474H9.39344V103.342H12.5246V106.474H15.6557V109.605H18.7869V112.737H25.0492V115.868H28.1803V119H37.5738V115.868H43.8361V119H53.2295V115.868H62.623V119H72.0164V115.868H75.1475V112.737H81.4098V115.868H90.8033V112.737H109.59V109.605H118.984V106.474H137.77V103.342H140.902V97.0789H144.033V93.9474H147.164V90.8158H150.295V87.6842H156.557V62.6316H159.689V65.7632H162.82V68.8947H169.082V72.0263H181.607V59.5H178.475V56.3684H175.344V53.2368H172.213V50.1053H175.344V46.9737H181.607V43.8421H184.738V40.7105ZM147.164 90.8158V84.5526H153.426V62.6316H150.295V50.1053H147.164V46.9737H137.77V43.8421H106.459V46.9737H97.0656V50.1053H87.6721V53.2368H81.4098V56.3684H78.2787V59.5H75.1475V62.6316H68.8852V65.7632H65.7541V68.8947H62.623V72.0263H59.4918V75.1579H53.2295V78.2895H50.0984V81.4211H43.8361V84.5526H25.0492V81.4211H12.5246V90.8158H15.6557V93.9474H12.5246V103.342H18.7869V109.605H25.0492V112.737H31.3115V115.868H37.5738V112.737H43.8361V115.868H53.2295V112.737H62.623V115.868H72.0164V112.737H75.1475V109.605H81.4098V112.737H90.8033V109.605H109.59V106.474H118.984V103.342H137.77V93.9474H144.033V90.8158H147.164ZM156.557 56.3684H153.426V59.5H156.557V56.3684Z" fill="#111111"/>
<path fill-rule="evenodd" clip-rule="evenodd" d="M84.541 3.13158V6.26316H90.8033V9.39474H97.0656V12.5263H100.197V15.6579H87.6721V12.5263H84.541V18.7895H81.4098V21.9211H78.2787V18.7895H68.8852V15.6579H72.0164V12.5263H75.1475V9.39474H68.8852V12.5263H65.7541V15.6579H62.623V12.5263H59.4918V9.39474H65.7541V6.26316H75.1475V3.13158H84.541ZM131.508 15.6579V21.9211H122.115V18.7895H128.377V15.6579H131.508ZM109.59 28.1842H106.459V25.0526H109.59V28.1842ZM40.7049 28.1842V31.3158H46.9672V34.4474H50.0984V37.5789H43.8361V40.7105H31.3115V43.8421H46.9672V40.7105H50.0984V37.5789H53.2295V34.4474H56.3607V40.7105H65.7541V46.9737H59.4918V50.1053H53.2295V53.2368H50.0984V50.1053H46.9672V53.2368H50.0984V56.3684H40.7049V53.2368H37.5738V50.1053H21.918V43.8421H18.7869V50.1053H12.5246V53.2368H9.39344V56.3684H6.2623V50.1053H9.39344V46.9737H12.5246V43.8421H15.6557V40.7105H18.7869V34.4474H21.918V31.3158H25.0492V28.1842H40.7049ZM28.1803 40.7105H25.0492V43.8421H28.1803V40.7105ZM156.557 37.5789V40.7105H159.689V46.9737H162.82V53.2368H159.689V50.1053H156.557V46.9737H153.426V37.5789H156.557ZM43.8361 46.9737H40.7049V50.1053H43.8361V46.9737Z" fill="#FB984E"/>
<path fill-rule="evenodd" clip-rule="evenodd" d="M90.8033 6.26316H84.541V3.13158H103.328V6.26316H109.59V9.39474H103.328V12.5263H97.0656V9.39474H90.8033V6.26316ZM53.2295 15.6579V21.9211H59.4918V18.7895H56.3607V15.6579H68.8852V18.7895H62.623V21.9211H78.2787V28.1842H68.8852V34.4474H72.0164V37.5789H75.1475V40.7105H68.8852V43.8421H65.7541V40.7105H62.623V37.5789H56.3607V34.4474H53.2295V31.3158H56.3607V28.1842H50.0984V31.3158H40.7049V28.1842H37.5738V25.0526H46.9672V21.9211H40.7049V18.7895H43.8361V15.6579H53.2295ZM125.246 25.0526H118.984V28.1842H109.59V25.0526H115.852V21.9211H125.246V25.0526ZM34.4426 28.1842H28.1803V25.0526H34.4426V28.1842ZM65.7541 28.1842H62.623V31.3158H59.4918V34.4474H65.7541V28.1842ZM147.164 34.4474H144.033V31.3158H147.164V34.4474ZM175.344 34.4474H172.213V37.5789H165.951V40.7105H159.689V37.5789H162.82V34.4474H165.951V31.3158H175.344V34.4474ZM153.426 37.5789H150.295V34.4474H153.426V37.5789ZM165.951 46.9737V50.1053H169.082V53.2368H172.213V56.3684H175.344V59.5H169.082V56.3684H162.82V46.9737H165.951ZM15.6557 53.2368H12.5246V50.1053H21.918V56.3684H28.1803V53.2368H25.0492V50.1053H31.3115V56.3684H34.4426V59.5H31.3115V62.6316H25.0492V59.5H18.7869V56.3684H15.6557V53.2368ZM43.8361 62.6316H34.4426V59.5H43.8361V62.6316ZM34.4426 68.8947H31.3115V65.7632H34.4426V68.8947Z" fill="#FFC176"/>
<path fill-rule="evenodd" clip-rule="evenodd" d="M75.1475 12.5263H72.0164V15.6579H65.7541V12.5263H68.8852V9.39474H75.1475V12.5263ZM62.623 15.6579H53.2295V12.5263H62.623V15.6579ZM87.6721 12.5263V18.7895H84.541V12.5263H87.6721ZM78.2787 21.9211H75.1475V18.7895H78.2787V21.9211ZM109.59 31.3158H103.328V34.4474H97.0656V28.1842H109.59V31.3158ZM140.902 31.3158V37.5789H137.77V31.3158H140.902ZM53.2295 37.5789H50.0984V34.4474H53.2295V37.5789ZM18.7869 40.7105H15.6557V37.5789H18.7869V40.7105ZM50.0984 40.7105H46.9672V43.8421H31.3115V40.7105H43.8361V37.5789H50.0984V40.7105ZM59.4918 40.7105H56.3607V37.5789H59.4918V40.7105ZM28.1803 43.8421H25.0492V40.7105H28.1803V43.8421ZM153.426 43.8421H150.295V40.7105H153.426V43.8421ZM21.918 46.9737H18.7869V43.8421H21.918V46.9737ZM68.8852 46.9737H65.7541V43.8421H68.8852V46.9737ZM43.8361 50.1053H40.7049V46.9737H43.8361V50.1053ZM37.5738 53.2368H34.4426V50.1053H37.5738V53.2368Z" fill="#FB8F4E"/>
<path fill-rule="evenodd" clip-rule="evenodd" d="M106.459 12.5263H103.328V9.39474H106.459V12.5263ZM56.3607 15.6579V18.7895H59.4918V21.9211H53.2295V15.6579H56.3607ZM75.1475 21.9211H62.623V18.7895H75.1475V21.9211ZM46.9672 25.0526H37.5738V28.1842H34.4426V21.9211H46.9672V25.0526ZM115.852 25.0526H112.721V21.9211H115.852V25.0526ZM56.3607 31.3158H53.2295V34.4474H46.9672V31.3158H50.0984V28.1842H56.3607V31.3158ZM65.7541 28.1842V34.4474H59.4918V31.3158H62.623V28.1842H65.7541ZM112.721 31.3158H109.59V28.1842H112.721V31.3158ZM90.8033 37.5789H84.541V34.4474H90.8033V37.5789ZM150.295 34.4474V37.5789H153.426V40.7105H144.033V34.4474H150.295ZM181.607 37.5789H175.344V40.7105H169.082V43.8421H165.951V37.5789H172.213V34.4474H181.607V37.5789ZM62.623 40.7105H59.4918V37.5789H62.623V40.7105ZM84.541 40.7105H81.4098V37.5789H84.541V40.7105ZM75.1475 43.8421H68.8852V40.7105H75.1475V43.8421ZM25.0492 53.2368H21.918V50.1053H25.0492V53.2368ZM15.6557 56.3684H12.5246V59.5H25.0492V62.6316H34.4426V65.7632H31.3115V68.8947H28.1803V65.7632H18.7869V62.6316H9.39344V53.2368H15.6557V56.3684ZM165.951 59.5H162.82V56.3684H169.082V59.5H175.344V62.6316H178.475V65.7632H172.213V62.6316H165.951V59.5ZM40.7049 68.8947H34.4426V65.7632H40.7049V68.8947Z" fill="#FFB676"/>
<path fill-rule="evenodd" clip-rule="evenodd" d="M109.59 12.5263H106.459V9.39474H109.59V12.5263ZM103.328 15.6579H100.197V12.5263H103.328V15.6579ZM122.115 21.9211H115.852V18.7895H122.115V21.9211ZM81.4098 25.0526H78.2787V21.9211H81.4098V25.0526ZM72.0164 34.4474H68.8852V31.3158H72.0164V34.4474ZM28.1803 56.3684H21.918V53.2368H28.1803V56.3684ZM34.4426 56.3684H31.3115V53.2368H37.5738V56.3684H46.9672V59.5H34.4426V56.3684ZM34.4426 62.6316H31.3115V59.5H34.4426V62.6316ZM43.8361 65.7632H40.7049V62.6316H43.8361V65.7632Z" fill="#FFC076"/>
<path fill-rule="evenodd" clip-rule="evenodd" d="M112.721 12.5263H109.59V9.39474H112.721V12.5263ZM109.59 25.0526H106.459V21.9211H109.59V25.0526ZM90.8033 34.4474H87.6721V31.3158H90.8033V34.4474ZM81.4098 37.5789H78.2787V34.4474H81.4098V37.5789Z" fill="#FFBE75"/>
<path fill-rule="evenodd" clip-rule="evenodd" d="M115.852 12.5263H112.721V9.39474H115.852V12.5263ZM140.902 25.0526H137.77V21.9211H140.902V25.0526Z" fill="#FB954D"/>
<path fill-rule="evenodd" clip-rule="evenodd" d="M118.984 12.5263H115.852V9.39474H118.984V12.5263ZM87.6721 25.0526H84.541V21.9211H87.6721V25.0526Z" fill="#FB944D"/>
<path fill-rule="evenodd" clip-rule="evenodd" d="M106.459 15.6579H103.328V12.5263H106.459V15.6579ZM81.4098 28.1842H78.2787V25.0526H81.4098V28.1842ZM84.541 37.5789H81.4098V34.4474H84.541V37.5789Z" fill="#FFBE76"/>
<path fill-rule="evenodd" clip-rule="evenodd" d="M109.59 15.6579H106.459V12.5263H109.59V15.6579ZM115.852 18.7895H112.721V15.6579H115.852V18.7895ZM87.6721 28.1842H84.541V25.0526H87.6721V28.1842ZM90.8033 31.3158H87.6721V28.1842H90.8033V31.3158Z" fill="#FFBA75"/>
<path fill-rule="evenodd" clip-rule="evenodd" d="M112.721 12.5263V18.7895H109.59V12.5263H112.721ZM106.459 18.7895H103.328V15.6579H106.459V18.7895ZM84.541 28.1842H81.4098V25.0526H84.541V28.1842Z" fill="#FFBA74"/>
<path fill-rule="evenodd" clip-rule="evenodd" d="M115.852 15.6579H112.721V12.5263H115.852V15.6579Z" fill="#FFB973"/>
<path fill-rule="evenodd" clip-rule="evenodd" d="M118.984 15.6579H115.852V12.5263H118.984V15.6579Z" fill="#FB914C"/>
<path fill-rule="evenodd" clip-rule="evenodd" d="M125.246 15.6579H122.115V18.7895H118.984V12.5263H125.246V15.6579ZM103.328 18.7895H100.197V15.6579H103.328V18.7895ZM90.8033 18.7895V21.9211H93.9344V25.0526H87.6721V18.7895H90.8033ZM106.459 21.9211H103.328V18.7895H106.459V21.9211ZM103.328 25.0526V28.1842H97.0656V25.0526H103.328ZM53.2295 56.3684H50.0984V53.2368H53.2295V56.3684Z" fill="#FB914D"/>
<path fill-rule="evenodd" clip-rule="evenodd" d="M90.8033 18.7895H87.6721V15.6579H90.8033V18.7895ZM125.246 18.7895H122.115V15.6579H125.246V18.7895ZM97.0656 31.3158H90.8033V28.1842H97.0656V31.3158ZM144.033 37.5789H140.902V34.4474H144.033V37.5789ZM34.4426 53.2368H31.3115V50.1053H34.4426V53.2368ZM59.4918 53.2368H56.3607V50.1053H59.4918V53.2368Z" fill="#FB904E"/>
<path fill-rule="evenodd" clip-rule="evenodd" d="M93.9344 18.7895H90.8033V15.6579H93.9344V18.7895ZM128.377 18.7895H125.246V15.6579H128.377V18.7895Z" fill="#FB954E"/>
<path fill-rule="evenodd" clip-rule="evenodd" d="M100.197 18.7895H93.9344V15.6579H100.197V18.7895Z" fill="#FB914E"/>
<path fill-rule="evenodd" clip-rule="evenodd" d="M109.59 18.7895H106.459V15.6579H109.59V18.7895Z" fill="#FFB974"/>
<path fill-rule="evenodd" clip-rule="evenodd" d="M118.984 18.7895H115.852V15.6579H118.984V18.7895Z" fill="#FFB975"/>
<path fill-rule="evenodd" clip-rule="evenodd" d="M84.541 21.9211H81.4098V18.7895H84.541V21.9211Z" fill="#FB984D"/>
<path fill-rule="evenodd" clip-rule="evenodd" d="M87.6721 21.9211H84.541V18.7895H87.6721V21.9211Z" fill="#FB964E"/>
<path fill-rule="evenodd" clip-rule="evenodd" d="M93.9344 21.9211H90.8033V18.7895H103.328V21.9211H97.0656V28.1842H93.9344V21.9211ZM106.459 25.0526H103.328V21.9211H106.459V25.0526ZM90.8033 28.1842H87.6721V25.0526H90.8033V28.1842Z" fill="#FB924D"/>
<path fill-rule="evenodd" clip-rule="evenodd" d="M109.59 21.9211H106.459V18.7895H109.59V21.9211Z" fill="#FFBB74"/>
<path fill-rule="evenodd" clip-rule="evenodd" d="M112.721 21.9211H109.59V18.7895H112.721V21.9211ZM87.6721 31.3158H84.541V28.1842H87.6721V31.3158ZM78.2787 34.4474V31.3158H84.541V34.4474H78.2787ZM78.2787 34.4474H75.1475V37.5789H78.2787V34.4474Z" fill="#FFBC75"/>
<path fill-rule="evenodd" clip-rule="evenodd" d="M115.852 21.9211H112.721V18.7895H115.852V21.9211Z" fill="#FFB976"/>
<path fill-rule="evenodd" clip-rule="evenodd" d="M84.541 25.0526H81.4098V21.9211H84.541V25.0526Z" fill="#FB974D"/>
<path fill-rule="evenodd" clip-rule="evenodd" d="M103.328 25.0526H97.0656V21.9211H103.328V25.0526ZM93.9344 28.1842H90.8033V25.0526H93.9344V28.1842ZM50.0984 59.5H46.9672V56.3684H50.0984V59.5Z" fill="#FB934D"/>
<path fill-rule="evenodd" clip-rule="evenodd" d="M112.721 25.0526H109.59V21.9211H112.721V25.0526ZM147.164 31.3158H144.033V28.1842H147.164V31.3158ZM75.1475 37.5789H72.0164V34.4474H75.1475V37.5789Z" fill="#FFBF76"/>
<path fill-rule="evenodd" clip-rule="evenodd" d="M134.639 25.0526H125.246V21.9211H134.639V25.0526ZM62.623 50.1053H59.4918V46.9737H62.623V50.1053ZM50.0984 53.2368H46.9672V50.1053H50.0984V53.2368ZM56.3607 53.2368H53.2295V50.1053H56.3607V53.2368ZM40.7049 56.3684H37.5738V53.2368H40.7049V56.3684Z" fill="#FB974E"/>
<path fill-rule="evenodd" clip-rule="evenodd" d="M137.77 25.0526H134.639V21.9211H137.77V25.0526Z" fill="#FA954D"/>
<path fill-rule="evenodd" clip-rule="evenodd" d="M106.459 28.1842H103.328V25.0526H106.459V28.1842ZM93.9344 34.4474H90.8033V31.3158H93.9344V34.4474ZM106.459 34.4474H103.328V31.3158H106.459V34.4474ZM97.0656 37.5789H93.9344V34.4474H97.0656V37.5789ZM65.7541 50.1053H62.623V46.9737H65.7541V50.1053Z" fill="#FB8F4D"/>
<path fill-rule="evenodd" clip-rule="evenodd" d="M122.115 28.1842H118.984V25.0526H122.115V28.1842Z" fill="#FEB676"/>
<path fill-rule="evenodd" clip-rule="evenodd" d="M125.246 28.1842H122.115V25.0526H125.246V28.1842Z" fill="#FEB675"/>
<path fill-rule="evenodd" clip-rule="evenodd" d="M128.377 28.1842H125.246V25.0526H128.377V28.1842Z" fill="#FEB474"/>
<path fill-rule="evenodd" clip-rule="evenodd" d="M131.508 28.1842H128.377V25.0526H131.508V28.1842Z" fill="#FA914C"/>
<path fill-rule="evenodd" clip-rule="evenodd" d="M134.639 28.1842H131.508V25.0526H134.639V28.1842Z" fill="#FA8F4A"/>
<path fill-rule="evenodd" clip-rule="evenodd" d="M137.77 28.1842H134.639V25.0526H137.77V28.1842Z" fill="#FA8E4A"/>
<path fill-rule="evenodd" clip-rule="evenodd" d="M140.902 28.1842H137.77V25.0526H140.902V28.1842Z" fill="#F98D4A"/>
<path fill-rule="evenodd" clip-rule="evenodd" d="M144.033 28.1842H140.902V25.0526H144.033V28.1842Z" fill="#FDB36F"/>
<path fill-rule="evenodd" clip-rule="evenodd" d="M72.0164 31.3158H68.8852V28.1842H72.0164V31.3158Z" fill="#FFC175"/>
<path fill-rule="evenodd" clip-rule="evenodd" d="M75.1475 31.3158H72.0164V28.1842H75.1475V31.3158Z" fill="#FFC075"/>
<path fill-rule="evenodd" clip-rule="evenodd" d="M78.2787 31.3158H75.1475V28.1842H78.2787V31.3158Z" fill="#FFBA76"/>
<path fill-rule="evenodd" clip-rule="evenodd" d="M81.4098 31.3158H78.2787V28.1842H81.4098V31.3158Z" fill="#FFBC74"/>
<path fill-rule="evenodd" clip-rule="evenodd" d="M84.541 31.3158H81.4098V28.1842H84.541V31.3158ZM87.6721 34.4474H84.541V31.3158H87.6721V34.4474Z" fill="#FFBB75"/>
<path fill-rule="evenodd" clip-rule="evenodd" d="M115.852 31.3158H112.721V28.1842H115.852V31.3158Z" fill="#FFB574"/>
<path fill-rule="evenodd" clip-rule="evenodd" d="M118.984 31.3158H115.852V28.1842H118.984V31.3158Z" fill="#FFB572"/>
<path fill-rule="evenodd" clip-rule="evenodd" d="M122.115 31.3158H118.984V28.1842H122.115V31.3158Z" fill="#FFB270"/>
<path fill-rule="evenodd" clip-rule="evenodd" d="M125.246 31.3158H122.115V28.1842H125.246V31.3158Z" fill="#FDB06F"/>
<path fill-rule="evenodd" clip-rule="evenodd" d="M128.377 31.3158H125.246V28.1842H128.377V31.3158Z" fill="#FDAE6C"/>
<path fill-rule="evenodd" clip-rule="evenodd" d="M131.508 31.3158H128.377V28.1842H131.508V31.3158Z" fill="#F98848"/>
<path fill-rule="evenodd" clip-rule="evenodd" d="M134.639 31.3158H131.508V28.1842H134.639V31.3158Z" fill="#FA8948"/>
<path fill-rule="evenodd" clip-rule="evenodd" d="M137.77 31.3158H134.639V28.1842H137.77V31.3158Z" fill="#FA8B4A"/>
<path fill-rule="evenodd" clip-rule="evenodd" d="M140.902 31.3158H137.77V28.1842H140.902V31.3158Z" fill="#F98B4D"/>
<path fill-rule="evenodd" clip-rule="evenodd" d="M144.033 31.3158H140.902V28.1842H144.033V31.3158Z" fill="#FDA760"/>
<path fill-rule="evenodd" clip-rule="evenodd" d="M78.2787 34.4474H72.0164V31.3158H78.2787V34.4474Z" fill="#FFBD75"/>
<path fill-rule="evenodd" clip-rule="evenodd" d="M97.0656 34.4474H93.9344V31.3158H97.0656V34.4474Z" fill="#FB904D"/>
<path fill-rule="evenodd" clip-rule="evenodd" d="M109.59 34.4474H106.459V31.3158H109.59V34.4474ZM100.197 37.5789H97.0656V34.4474H100.197V37.5789ZM137.77 34.4474V40.7105H131.508V34.4474H137.77ZM150.295 46.9737H147.164V43.8421H153.426V46.9737H156.557V50.1053H159.689V56.3684H156.557V53.2368H153.426V50.1053H150.295V46.9737ZM21.918 50.1053H18.7869V46.9737H21.918V50.1053Z" fill="#FA8844"/>
<path fill-rule="evenodd" clip-rule="evenodd" d="M112.721 34.4474H109.59V31.3158H112.721V34.4474ZM184.738 40.7105H181.607V43.8421H169.082V40.7105H175.344V37.5789H184.738V40.7105ZM150.295 43.8421H140.902V40.7105H150.295V43.8421ZM78.2787 46.9737H75.1475V43.8421H78.2787V46.9737ZM162.82 53.2368V59.5H159.689V53.2368H162.82ZM165.951 62.6316H162.82V59.5H165.951V62.6316ZM165.951 62.6316V65.7632H169.082V68.8947H178.475V65.7632H172.213V62.6316H165.951ZM9.39344 56.3684V62.6316H18.7869V65.7632H28.1803V68.8947H40.7049V65.7632H46.9672V68.8947H43.8361V72.0263H40.7049V75.1579H18.7869V72.0263H12.5246V68.8947H9.39344V65.7632H6.2623V62.6316H3.13115V56.3684H9.39344ZM18.7869 59.5H12.5246V56.3684H18.7869V59.5Z" fill="#FEAD67"/>
<path fill-rule="evenodd" clip-rule="evenodd" d="M115.852 34.4474H112.721V31.3158H115.852V34.4474Z" fill="#FDAB66"/>
<path fill-rule="evenodd" clip-rule="evenodd" d="M118.984 34.4474H115.852V31.3158H118.984V34.4474Z" fill="#FCAA67"/>
<path fill-rule="evenodd" clip-rule="evenodd" d="M122.115 34.4474H118.984V31.3158H122.115V34.4474ZM87.6721 46.9737H84.541V43.8421H87.6721V46.9737Z" fill="#FCA766"/>
<path fill-rule="evenodd" clip-rule="evenodd" d="M125.246 34.4474H122.115V31.3158H125.246V34.4474ZM90.8033 46.9737H87.6721V43.8421H90.8033V46.9737Z" fill="#FBA866"/>
<path fill-rule="evenodd" clip-rule="evenodd" d="M128.377 34.4474H125.246V31.3158H128.377V34.4474Z" fill="#FCAD6B"/>
<path fill-rule="evenodd" clip-rule="evenodd" d="M131.508 34.4474H128.377V31.3158H131.508V34.4474Z" fill="#FB8B4A"/>
<path fill-rule="evenodd" clip-rule="evenodd" d="M134.639 34.4474H131.508V31.3158H134.639V34.4474Z" fill="#FA8D4C"/>
<path fill-rule="evenodd" clip-rule="evenodd" d="M137.77 34.4474H134.639V31.3158H137.77V34.4474Z" fill="#FB8E4D"/>
<path fill-rule="evenodd" clip-rule="evenodd" d="M144.033 34.4474H140.902V31.3158H144.033V34.4474Z" fill="#FB994F"/>
<path fill-rule="evenodd" clip-rule="evenodd" d="M93.9344 37.5789H90.8033V34.4474H93.9344V37.5789ZM78.2787 37.5789V43.8421H75.1475V37.5789H78.2787Z" fill="#FFB675"/>
<path fill-rule="evenodd" clip-rule="evenodd" d="M103.328 37.5789H100.197V34.4474H103.328V37.5789ZM140.902 40.7105H137.77V37.5789H140.902V40.7105Z" fill="#FA8845"/>
<path fill-rule="evenodd" clip-rule="evenodd" d="M106.459 37.5789H103.328V34.4474H106.459V37.5789Z" fill="#FA8745"/>
<path fill-rule="evenodd" clip-rule="evenodd" d="M109.59 37.5789H106.459V34.4474H109.59V37.5789ZM68.8852 53.2368H65.7541V50.1053H68.8852V53.2368Z" fill="#F98744"/>
<path fill-rule="evenodd" clip-rule="evenodd" d="M112.721 37.5789H109.59V34.4474H112.721V37.5789ZM106.459 40.7105H103.328V37.5789H106.459V40.7105ZM97.0656 43.8421H93.9344V40.7105H97.0656V43.8421Z" fill="#F78343"/>
<path fill-rule="evenodd" clip-rule="evenodd" d="M115.852 37.5789H112.721V34.4474H115.852V37.5789Z" fill="#FAA465"/>
<path fill-rule="evenodd" clip-rule="evenodd" d="M118.984 37.5789H115.852V34.4474H118.984V37.5789Z" fill="#FBA665"/>
<path fill-rule="evenodd" clip-rule="evenodd" d="M122.115 37.5789H118.984V34.4474H122.115V37.5789ZM93.9344 43.8421H90.8033V40.7105H93.9344V43.8421Z" fill="#FCA966"/>
<path fill-rule="evenodd" clip-rule="evenodd" d="M125.246 37.5789H122.115V34.4474H125.246V37.5789Z" fill="#FDAA65"/>
<path fill-rule="evenodd" clip-rule="evenodd" d="M128.377 37.5789H125.246V34.4474H128.377V37.5789Z" fill="#FEAC66"/>
<path fill-rule="evenodd" clip-rule="evenodd" d="M131.508 37.5789H128.377V34.4474H131.508V37.5789Z" fill="#FA8843"/>
<path fill-rule="evenodd" clip-rule="evenodd" d="M81.4098 40.7105H78.2787V37.5789H81.4098V40.7105ZM40.7049 65.7632H34.4426V62.6316H40.7049V65.7632Z" fill="#FFB776"/>
<path fill-rule="evenodd" clip-rule="evenodd" d="M87.6721 40.7105H84.541V37.5789H87.6721V40.7105Z" fill="#FFB576"/>
<path fill-rule="evenodd" clip-rule="evenodd" d="M90.8033 40.7105H87.6721V37.5789H90.8033V40.7105Z" fill="#FEB472"/>
<path fill-rule="evenodd" clip-rule="evenodd" d="M93.9344 40.7105H90.8033V37.5789H93.9344V40.7105Z" fill="#FDAE68"/>
<path fill-rule="evenodd" clip-rule="evenodd" d="M97.0656 40.7105H93.9344V37.5789H97.0656V40.7105ZM75.1475 50.1053H72.0164V46.9737H75.1475V50.1053Z" fill="#F98743"/>
<path fill-rule="evenodd" clip-rule="evenodd" d="M100.197 40.7105H97.0656V37.5789H100.197V40.7105Z" fill="#F98643"/>
<path fill-rule="evenodd" clip-rule="evenodd" d="M103.328 40.7105H100.197V37.5789H103.328V40.7105Z" fill="#F98443"/>
<path fill-rule="evenodd" clip-rule="evenodd" d="M109.59 40.7105H106.459V37.5789H109.59V40.7105ZM59.4918 65.7632H56.3607V62.6316H59.4918V65.7632Z" fill="#F67F43"/>
<path fill-rule="evenodd" clip-rule="evenodd" d="M112.721 40.7105H109.59V37.5789H112.721V40.7105Z" fill="#F67F42"/>
<path fill-rule="evenodd" clip-rule="evenodd" d="M115.852 40.7105H112.721V37.5789H115.852V40.7105Z" fill="#F89E63"/>
<path fill-rule="evenodd" clip-rule="evenodd" d="M118.984 40.7105H115.852V37.5789H118.984V40.7105ZM53.2295 68.8947H50.0984V65.7632H53.2295V68.8947Z" fill="#F89D62"/>
<path fill-rule="evenodd" clip-rule="evenodd" d="M125.246 40.7105H118.984V37.5789H125.246V40.7105ZM165.951 43.8421H159.689V40.7105H165.951V43.8421ZM175.344 46.9737H165.951V43.8421H175.344V46.9737ZM162.82 62.6316H159.689V59.5H162.82V62.6316ZM6.2623 62.6316V65.7632H9.39344V68.8947H12.5246V72.0263H18.7869V75.1579H40.7049V72.0263H43.8361V68.8947H53.2295V75.1579H50.0984V78.2895H43.8361V81.4211H25.0492V78.2895H9.39344V75.1579H6.2623V72.0263H3.13115V62.6316H6.2623ZM53.2295 68.8947H56.3607V65.7632H53.2295V68.8947ZM165.951 65.7632H162.82V62.6316H165.951V65.7632Z" fill="#F89C62"/>
<path fill-rule="evenodd" clip-rule="evenodd" d="M128.377 40.7105H125.246V37.5789H128.377V40.7105ZM59.4918 68.8947H56.3607V65.7632H59.4918V68.8947Z" fill="#F47C41"/>
<path fill-rule="evenodd" clip-rule="evenodd" d="M131.508 40.7105H128.377V37.5789H131.508V40.7105Z" fill="#F57C41"/>
<path fill-rule="evenodd" clip-rule="evenodd" d="M144.033 40.7105H140.902V37.5789H144.033V40.7105Z" fill="#FEA963"/>
<path fill-rule="evenodd" clip-rule="evenodd" d="M81.4098 43.8421H78.2787V40.7105H81.4098V43.8421Z" fill="#FFB374"/>
<path fill-rule="evenodd" clip-rule="evenodd" d="M84.541 43.8421H81.4098V40.7105H84.541V43.8421Z" fill="#FEAD6A"/>
<path fill-rule="evenodd" clip-rule="evenodd" d="M87.6721 43.8421H84.541V40.7105H87.6721V43.8421Z" fill="#FDAB68"/>
<path fill-rule="evenodd" clip-rule="evenodd" d="M90.8033 43.8421H87.6721V40.7105H90.8033V43.8421ZM81.4098 46.9737H78.2787V43.8421H81.4098V46.9737Z" fill="#FDAA66"/>
<path fill-rule="evenodd" clip-rule="evenodd" d="M100.197 43.8421H97.0656V40.7105H100.197V43.8421Z" fill="#F68042"/>
<path fill-rule="evenodd" clip-rule="evenodd" d="M103.328 43.8421H100.197V40.7105H103.328V43.8421ZM78.2787 56.3684H75.1475V53.2368H78.2787V56.3684Z" fill="#F57E43"/>
<path fill-rule="evenodd" clip-rule="evenodd" d="M106.459 43.8421H103.328V40.7105H106.459V43.8421ZM65.7541 65.7632H62.623V62.6316H65.7541V65.7632Z" fill="#F47D42"/>
<path fill-rule="evenodd" clip-rule="evenodd" d="M140.902 43.8421H137.77V40.7105H140.902V43.8421Z" fill="#FC9652"/>
<path fill-rule="evenodd" clip-rule="evenodd" d="M72.0164 46.9737H68.8852V43.8421H72.0164V46.9737Z" fill="#FFB475"/>
<path fill-rule="evenodd" clip-rule="evenodd" d="M75.1475 46.9737H72.0164V43.8421H75.1475V46.9737Z" fill="#FEB272"/>
<path fill-rule="evenodd" clip-rule="evenodd" d="M84.541 46.9737H81.4098V43.8421H84.541V46.9737Z" fill="#FDA966"/>
<path fill-rule="evenodd" clip-rule="evenodd" d="M93.9344 46.9737H90.8033V43.8421H93.9344V46.9737Z" fill="#F68143"/>
<path fill-rule="evenodd" clip-rule="evenodd" d="M97.0656 46.9737H93.9344V43.8421H97.0656V46.9737Z" fill="#F57E42"/>
<path fill-rule="evenodd" clip-rule="evenodd" d="M115.852 43.8421V46.9737H118.984V50.1053H128.377V46.9737H125.246V43.8421H134.639V50.1053H137.77V53.2368H134.639V56.3684H131.508V59.5H128.377V62.6316H125.246V53.2368H118.984V68.8947H115.852V72.0263H109.59V68.8947H106.459V65.7632H100.197V72.0263H106.459V75.1579H103.328V78.2895H97.0656V81.4211H93.9344V78.2895H90.8033V81.4211H84.541V78.2895H87.6721V72.0263H84.541V78.2895H81.4098V75.1579H78.2787V65.7632H72.0164V68.8947H65.7541V65.7632H68.8852V62.6316H75.1475V59.5H78.2787V56.3684H81.4098V53.2368H87.6721V50.1053H97.0656V46.9737H106.459V43.8421H115.852ZM93.9344 56.3684H90.8033V59.5H84.541V65.7632H90.8033V62.6316H93.9344V56.3684ZM106.459 56.3684H103.328V62.6316H106.459V56.3684ZM115.852 56.3684H109.59V59.5H112.721V62.6316H115.852V56.3684ZM56.3607 75.1579V78.2895H59.4918V81.4211H53.2295V84.5526H50.0984V78.2895H53.2295V75.1579H56.3607Z" fill="#FCEFE8"/>
<path fill-rule="evenodd" clip-rule="evenodd" d="M118.984 46.9737H115.852V43.8421H118.984V46.9737ZM134.639 62.6316H131.508V59.5H134.639V62.6316Z" fill="#F5E7DF"/>
<path fill-rule="evenodd" clip-rule="evenodd" d="M122.115 46.9737H118.984V43.8421H122.115V46.9737ZM87.6721 87.6842H84.541V84.5526H87.6721V87.6842ZM31.3115 103.342H28.1803V100.211H31.3115V103.342Z" fill="#F1E1D9"/>
<path fill-rule="evenodd" clip-rule="evenodd" d="M125.246 46.9737H122.115V43.8421H125.246V46.9737ZM131.508 84.5526H128.377V81.4211H131.508V84.5526ZM37.5738 90.8158H34.4426V87.6842H37.5738V90.8158ZM125.246 90.8158H122.115V87.6842H125.246V90.8158ZM84.541 97.0789H81.4098V93.9474H84.541V97.0789ZM103.328 100.211H100.197V97.0789H103.328V100.211Z" fill="#F1E1D7"/>
<path fill-rule="evenodd" clip-rule="evenodd" d="M137.77 46.9737H134.639V43.8421H137.77V46.9737ZM125.246 50.1053H122.115V46.9737H125.246V50.1053ZM59.4918 109.605H56.3607V106.474H59.4918V109.605Z" fill="#F2E3DA"/>
<path fill-rule="evenodd" clip-rule="evenodd" d="M68.8852 50.1053H65.7541V46.9737H68.8852V50.1053Z" fill="#FA8C49"/>
<path fill-rule="evenodd" clip-rule="evenodd" d="M72.0164 50.1053H68.8852V46.9737H72.0164V50.1053Z" fill="#F98745"/>
<path fill-rule="evenodd" clip-rule="evenodd" d="M78.2787 50.1053H75.1475V46.9737H78.2787V50.1053Z" fill="#FBAA65"/>
<path fill-rule="evenodd" clip-rule="evenodd" d="M81.4098 50.1053H78.2787V46.9737H81.4098V50.1053Z" fill="#FBA767"/>
<path fill-rule="evenodd" clip-rule="evenodd" d="M84.541 50.1053H81.4098V46.9737H84.541V50.1053Z" fill="#FBA565"/>
<path fill-rule="evenodd" clip-rule="evenodd" d="M87.6721 50.1053H84.541V46.9737H87.6721V50.1053Z" fill="#F9A366"/>
<path fill-rule="evenodd" clip-rule="evenodd" d="M122.115 50.1053H118.984V46.9737H122.115V50.1053ZM140.902 53.2368H137.77V50.1053H140.902V53.2368ZM140.902 62.6316H137.77V59.5H140.902V62.6316ZM122.115 68.8947H118.984V65.7632H122.115V68.8947ZM65.7541 68.8947V75.1579H59.4918V72.0263H62.623V68.8947H65.7541ZM100.197 81.4211H97.0656V78.2895H100.197V81.4211Z" fill="#FCEEE7"/>
<path fill-rule="evenodd" clip-rule="evenodd" d="M128.377 50.1053H125.246V46.9737H128.377V50.1053ZM131.508 62.6316H128.377V59.5H131.508V62.6316ZM103.328 84.5526H100.197V81.4211H103.328V84.5526ZM122.115 90.8158H118.984V87.6842H122.115V90.8158ZM97.0656 109.605H93.9344V106.474H97.0656V109.605ZM50.0984 112.737H46.9672V109.605H50.0984V112.737Z" fill="#F5E7DE"/>
<path fill-rule="evenodd" clip-rule="evenodd" d="M137.77 50.1053H134.639V46.9737H137.77V50.1053ZM137.77 62.6316H134.639V59.5H137.77V62.6316ZM128.377 72.0263H125.246V68.8947H128.377V72.0263Z" fill="#FAEDE5"/>
<path fill-rule="evenodd" clip-rule="evenodd" d="M147.164 50.1053H137.77V46.9737H147.164V50.1053ZM140.902 56.3684H137.77V53.2368H140.902V56.3684ZM93.9344 59.5H90.8033V56.3684H93.9344V59.5ZM137.77 59.5H131.508V56.3684H137.77V59.5ZM115.852 62.6316H112.721V59.5H115.852V62.6316ZM72.0164 72.0263H68.8852V68.8947H72.0164V72.0263ZM75.1475 75.1579H72.0164V72.0263H75.1475V75.1579ZM115.852 75.1579H112.721V72.0263H115.852V75.1579ZM81.4098 78.2895H78.2787V75.1579H81.4098V78.2895ZM103.328 81.4211H100.197V78.2895H103.328V81.4211ZM62.623 84.5526H59.4918V81.4211H62.623V84.5526Z" fill="#FBEEE7"/>
<path fill-rule="evenodd" clip-rule="evenodd" d="M62.623 53.2368H59.4918V50.1053H62.623V53.2368Z" fill="#FA8D4B"/>
<path fill-rule="evenodd" clip-rule="evenodd" d="M65.7541 53.2368H62.623V50.1053H65.7541V53.2368ZM59.4918 59.5H56.3607V56.3684H59.4918V59.5Z" fill="#FA8A48"/>
<path fill-rule="evenodd" clip-rule="evenodd" d="M75.1475 53.2368H68.8852V50.1053H75.1475V53.2368Z" fill="#F88744"/>
<path fill-rule="evenodd" clip-rule="evenodd" d="M78.2787 53.2368H75.1475V50.1053H78.2787V53.2368Z" fill="#F68445"/>
<path fill-rule="evenodd" clip-rule="evenodd" d="M81.4098 53.2368H78.2787V50.1053H81.4098V53.2368Z" fill="#F9A467"/>
<path fill-rule="evenodd" clip-rule="evenodd" d="M144.033 53.2368H140.902V50.1053H144.033V53.2368Z" fill="#F8EBE3"/>
<path fill-rule="evenodd" clip-rule="evenodd" d="M147.164 53.2368H144.033V50.1053H147.164V53.2368ZM106.459 81.4211H103.328V78.2895H106.459V81.4211ZM56.3607 84.5526H53.2295V81.4211H56.3607V84.5526Z" fill="#FBEDE6"/>
<path fill-rule="evenodd" clip-rule="evenodd" d="M150.295 53.2368H147.164V50.1053H150.295V53.2368Z" fill="#FCEFE6"/>
<path fill-rule="evenodd" clip-rule="evenodd" d="M56.3607 56.3684H53.2295V53.2368H56.3607V56.3684Z" fill="#FB8E4C"/>
<path fill-rule="evenodd" clip-rule="evenodd" d="M59.4918 56.3684H56.3607V53.2368H59.4918V56.3684ZM53.2295 62.6316H50.0984V59.5H53.2295V62.6316Z" fill="#F98B48"/>
<path fill-rule="evenodd" clip-rule="evenodd" d="M62.623 56.3684H59.4918V53.2368H62.623V56.3684Z" fill="#F98945"/>
<path fill-rule="evenodd" clip-rule="evenodd" d="M65.7541 56.3684H62.623V53.2368H65.7541V56.3684Z" fill="#FA8945"/>
<path fill-rule="evenodd" clip-rule="evenodd" d="M68.8852 56.3684H65.7541V53.2368H68.8852V56.3684Z" fill="#FA8B46"/>
<path fill-rule="evenodd" clip-rule="evenodd" d="M72.0164 56.3684H68.8852V53.2368H72.0164V56.3684ZM62.623 62.6316H59.4918V59.5H62.623V62.6316Z" fill="#F98947"/>
<path fill-rule="evenodd" clip-rule="evenodd" d="M75.1475 56.3684H72.0164V53.2368H75.1475V56.3684Z" fill="#F78545"/>
<path fill-rule="evenodd" clip-rule="evenodd" d="M122.115 56.3684H118.984V53.2368H122.115V56.3684Z" fill="#F7E8E0"/>
<path fill-rule="evenodd" clip-rule="evenodd" d="M125.246 56.3684H122.115V53.2368H125.246V56.3684Z" fill="#F7E9E2"/>
<path fill-rule="evenodd" clip-rule="evenodd" d="M137.77 56.3684H134.639V53.2368H137.77V56.3684Z" fill="#FBEFE7"/>
<path fill-rule="evenodd" clip-rule="evenodd" d="M144.033 56.3684H140.902V53.2368H144.033V56.3684ZM140.902 84.5526H137.77V81.4211H140.902V84.5526ZM134.639 87.6842H131.508V84.5526H134.639V87.6842ZM40.7049 109.605H37.5738V106.474H40.7049V109.605Z" fill="#F1E1D8"/>
<path fill-rule="evenodd" clip-rule="evenodd" d="M147.164 56.3684H144.033V53.2368H147.164V56.3684Z" fill="#F9EBE5"/>
<path fill-rule="evenodd" clip-rule="evenodd" d="M150.295 53.2368V62.6316H153.426V68.8947H150.295V72.0263H144.033V68.8947H147.164V59.5H144.033V56.3684H147.164V53.2368H150.295ZM46.9672 84.5526H43.8361V81.4211H46.9672V84.5526ZM125.246 84.5526H122.115V81.4211H128.377V84.5526H131.508V87.6842H125.246V84.5526ZM43.8361 87.6842H40.7049V84.5526H43.8361V87.6842ZM118.984 87.6842H115.852V90.8158H112.721V84.5526H118.984V87.6842ZM59.4918 87.6842V93.9474H56.3607V97.0789H53.2295V90.8158H56.3607V87.6842H59.4918ZM109.59 90.8158H106.459V87.6842H109.59V90.8158ZM103.328 93.9474V90.8158H106.459V93.9474H103.328ZM103.328 93.9474H100.197V97.0789H103.328V93.9474ZM90.8033 93.9474H84.541V90.8158H90.8033V93.9474ZM78.2787 97.0789H75.1475V93.9474H78.2787V97.0789ZM72.0164 100.211H68.8852V97.0789H72.0164V100.211Z" fill="#F6E6DC"/>
<path fill-rule="evenodd" clip-rule="evenodd" d="M53.2295 59.5H50.0984V56.3684H53.2295V59.5Z" fill="#FB8E4A"/>
<path fill-rule="evenodd" clip-rule="evenodd" d="M56.3607 56.3684V62.6316H53.2295V56.3684H56.3607ZM62.623 59.5H59.4918V56.3684H62.623V59.5Z" fill="#FA8B48"/>
<path fill-rule="evenodd" clip-rule="evenodd" d="M65.7541 59.5H62.623V56.3684H65.7541V59.5Z" fill="#F98B47"/>
<path fill-rule="evenodd" clip-rule="evenodd" d="M68.8852 59.5H65.7541V56.3684H68.8852V59.5Z" fill="#F98847"/>
<path fill-rule="evenodd" clip-rule="evenodd" d="M72.0164 59.5H68.8852V56.3684H72.0164V59.5Z" fill="#F78445"/>
<path fill-rule="evenodd" clip-rule="evenodd" d="M75.1475 59.5H72.0164V56.3684H75.1475V59.5Z" fill="#F67E42"/>
<path fill-rule="evenodd" clip-rule="evenodd" d="M106.459 59.5H103.328V56.3684H106.459V59.5ZM122.115 59.5H118.984V56.3684H122.115V59.5Z" fill="#F8EAE3"/>
<path fill-rule="evenodd" clip-rule="evenodd" d="M112.721 59.5H109.59V56.3684H112.721V59.5ZM90.8033 65.7632H87.6721V62.6316H90.8033V65.7632ZM125.246 65.7632H122.115V62.6316H125.246V65.7632ZM87.6721 75.1579H84.541V72.0263H87.6721V75.1579ZM112.721 81.4211H109.59V78.2895H112.721V81.4211Z" fill="#F8EAE2"/>
<path fill-rule="evenodd" clip-rule="evenodd" d="M115.852 59.5H112.721V56.3684H115.852V59.5Z" fill="#F0E1D8"/>
<path fill-rule="evenodd" clip-rule="evenodd" d="M125.246 59.5H122.115V56.3684H125.246V59.5ZM134.639 68.8947H131.508V65.7632H134.639V68.8947ZM75.1475 84.5526H72.0164V81.4211H75.1475V84.5526Z" fill="#F9EAE3"/>
<path fill-rule="evenodd" clip-rule="evenodd" d="M140.902 59.5H137.77V56.3684H140.902V59.5ZM109.59 78.2895H106.459V75.1579H109.59V78.2895Z" fill="#FBEDE7"/>
<path fill-rule="evenodd" clip-rule="evenodd" d="M144.033 56.3684V62.6316H140.902V56.3684H144.033ZM125.246 87.6842H122.115V84.5526H125.246V87.6842Z" fill="#F8E8DF"/>
<path fill-rule="evenodd" clip-rule="evenodd" d="M156.557 59.5H153.426V56.3684H156.557V59.5ZM62.623 68.8947H59.4918V65.7632H62.623V68.8947ZM59.4918 72.0263H53.2295V68.8947H59.4918V72.0263Z" fill="#F47B41"/>
<path fill-rule="evenodd" clip-rule="evenodd" d="M46.9672 62.6316H43.8361V59.5H46.9672V62.6316Z" fill="#FFBD76"/>
<path fill-rule="evenodd" clip-rule="evenodd" d="M50.0984 62.6316H46.9672V59.5H50.0984V62.6316Z" fill="#FFB873"/>
<path fill-rule="evenodd" clip-rule="evenodd" d="M59.4918 62.6316H56.3607V59.5H59.4918V62.6316Z" fill="#F98A48"/>
<path fill-rule="evenodd" clip-rule="evenodd" d="M65.7541 62.6316H62.623V59.5H65.7541V62.6316Z" fill="#F78746"/>
<path fill-rule="evenodd" clip-rule="evenodd" d="M68.8852 62.6316H65.7541V59.5H68.8852V62.6316Z" fill="#F78345"/>
<path fill-rule="evenodd" clip-rule="evenodd" d="M87.6721 62.6316H84.541V59.5H87.6721V62.6316ZM125.246 68.8947H122.115V65.7632H125.246V68.8947ZM118.984 72.0263V68.8947H122.115V72.0263H118.984ZM118.984 72.0263H115.852V75.1579H118.984V72.0263ZM72.0164 75.1579H68.8852V72.0263H72.0164V75.1579ZM68.8852 78.2895H62.623V75.1579H68.8852V78.2895ZM97.0656 84.5526H90.8033V81.4211H97.0656V84.5526ZM87.6721 103.342H84.541V100.211H87.6721V103.342Z" fill="#FBEEE6"/>
<path fill-rule="evenodd" clip-rule="evenodd" d="M90.8033 62.6316H87.6721V59.5H90.8033V62.6316ZM131.508 97.0789H128.377V93.9474H131.508V97.0789Z" fill="#F0E0D6"/>
<path fill-rule="evenodd" clip-rule="evenodd" d="M93.9344 62.6316H90.8033V59.5H93.9344V62.6316ZM103.328 72.0263H100.197V68.8947H103.328V72.0263ZM87.6721 78.2895H84.541V75.1579H87.6721V78.2895ZM144.033 84.5526H140.902V81.4211H144.033V84.5526ZM68.8852 112.737H65.7541V109.605H68.8852V112.737Z" fill="#F0E0D7"/>
<path fill-rule="evenodd" clip-rule="evenodd" d="M106.459 62.6316H103.328V59.5H106.459V62.6316ZM75.1475 68.8947H72.0164V65.7632H75.1475V68.8947ZM78.2787 81.4211H75.1475V78.2895H78.2787V81.4211ZM97.0656 87.6842H93.9344V84.5526H97.0656V87.6842Z" fill="#EFDFD6"/>
<path fill-rule="evenodd" clip-rule="evenodd" d="M122.115 62.6316H118.984V59.5H122.115V62.6316Z" fill="#F6E7E0"/>
<path fill-rule="evenodd" clip-rule="evenodd" d="M125.246 62.6316H122.115V59.5H125.246V62.6316ZM137.77 87.6842H134.639V84.5526H137.77V87.6842ZM31.3115 90.8158H28.1803V87.6842H31.3115V90.8158ZM21.918 97.0789H18.7869V93.9474H21.918V97.0789ZM72.0164 112.737H68.8852V109.605H72.0164V112.737Z" fill="#EDDCD3"/>
<path fill-rule="evenodd" clip-rule="evenodd" d="M147.164 62.6316H144.033V59.5H147.164V62.6316ZM100.197 93.9474H93.9344V90.8158H100.197V93.9474Z" fill="#F6E7DC"/>
<path fill-rule="evenodd" clip-rule="evenodd" d="M46.9672 65.7632H43.8361V62.6316H46.9672V65.7632Z" fill="#FFB876"/>
<path fill-rule="evenodd" clip-rule="evenodd" d="M50.0984 65.7632H46.9672V62.6316H50.0984V65.7632Z" fill="#FEB06C"/>
<path fill-rule="evenodd" clip-rule="evenodd" d="M53.2295 65.7632H50.0984V62.6316H53.2295V65.7632Z" fill="#FDAD68"/>
<path fill-rule="evenodd" clip-rule="evenodd" d="M56.3607 65.7632H53.2295V62.6316H56.3607V65.7632Z" fill="#F88644"/>
<path fill-rule="evenodd" clip-rule="evenodd" d="M62.623 65.7632H59.4918V62.6316H62.623V65.7632Z" fill="#F47F42"/>
<path fill-rule="evenodd" clip-rule="evenodd" d="M87.6721 65.7632H84.541V62.6316H87.6721V65.7632ZM118.984 72.0263H115.852V68.8947H118.984V72.0263ZM112.721 75.1579H106.459V72.0263H112.721V75.1579ZM62.623 78.2895H56.3607V75.1579H62.623V78.2895ZM78.2787 78.2895H75.1475V75.1579H78.2787V78.2895ZM106.459 78.2895H103.328V75.1579H106.459V78.2895ZM84.541 81.4211H81.4098V78.2895H84.541V81.4211ZM65.7541 84.5526H62.623V81.4211H65.7541V84.5526Z" fill="#FCEFE7"/>
<path fill-rule="evenodd" clip-rule="evenodd" d="M122.115 65.7632H118.984V62.6316H122.115V65.7632ZM78.2787 68.8947H75.1475V65.7632H78.2787V68.8947ZM125.246 72.0263H122.115V68.8947H125.246V72.0263ZM134.639 93.9474H131.508V90.8158H134.639V93.9474Z" fill="#FAECE5"/>
<path fill-rule="evenodd" clip-rule="evenodd" d="M128.377 65.7632H125.246V62.6316H128.377V65.7632ZM50.0984 84.5526H46.9672V81.4211H50.0984V84.5526Z" fill="#FBEEE8"/>
<path fill-rule="evenodd" clip-rule="evenodd" d="M131.508 65.7632H128.377V62.6316H131.508V65.7632ZM53.2295 87.6842H50.0984V84.5526H53.2295V87.6842ZM90.8033 87.6842H87.6721V84.5526H90.8033V87.6842Z" fill="#F9EBE3"/>
<path fill-rule="evenodd" clip-rule="evenodd" d="M134.639 65.7632H131.508V62.6316H134.639V65.7632ZM56.3607 87.6842H53.2295V84.5526H56.3607V87.6842Z" fill="#F8EAE1"/>
<path fill-rule="evenodd" clip-rule="evenodd" d="M137.77 65.7632H134.639V62.6316H137.77V65.7632Z" fill="#FCECE5"/>
<path fill-rule="evenodd" clip-rule="evenodd" d="M140.902 65.7632H137.77V62.6316H140.902V65.7632Z" fill="#FCEEE5"/>
<path fill-rule="evenodd" clip-rule="evenodd" d="M144.033 65.7632H140.902V62.6316H144.033V65.7632ZM50.0984 90.8158H46.9672V87.6842H50.0984V90.8158ZM90.8033 90.8158H87.6721V87.6842H90.8033V90.8158Z" fill="#F9EBE1"/>
<path fill-rule="evenodd" clip-rule="evenodd" d="M147.164 65.7632H144.033V62.6316H147.164V65.7632ZM46.9672 87.6842H43.8361V84.5526H46.9672V87.6842ZM75.1475 97.0789H72.0164V93.9474H75.1475V97.0789Z" fill="#F7E7DD"/>
<path fill-rule="evenodd" clip-rule="evenodd" d="M50.0984 68.8947H46.9672V65.7632H50.0984V68.8947Z" fill="#FEAC67"/>
<path fill-rule="evenodd" clip-rule="evenodd" d="M103.328 68.8947H100.197V65.7632H103.328V68.8947ZM137.77 93.9474H134.639V90.8158H137.77V93.9474ZM65.7541 109.605H62.623V106.474H65.7541V109.605Z" fill="#F4E5DD"/>
<path fill-rule="evenodd" clip-rule="evenodd" d="M106.459 68.8947H103.328V65.7632H106.459V68.8947ZM137.77 72.0263H134.639V68.8947H137.77V72.0263Z" fill="#F9EAE2"/>
<path fill-rule="evenodd" clip-rule="evenodd" d="M128.377 68.8947H125.246V65.7632H128.377V68.8947ZM68.8852 81.4211H65.7541V78.2895H68.8852V81.4211Z" fill="#FBEEE5"/>
<path fill-rule="evenodd" clip-rule="evenodd" d="M131.508 68.8947H128.377V65.7632H131.508V68.8947ZM93.9344 87.6842H90.8033V84.5526H93.9344V87.6842Z" fill="#FAEBE4"/>
<path fill-rule="evenodd" clip-rule="evenodd" d="M137.77 68.8947H134.639V65.7632H137.77V68.8947ZM131.508 75.1579H128.377V72.0263H131.508V75.1579ZM65.7541 81.4211H62.623V78.2895H65.7541V81.4211Z" fill="#FAEBE3"/>
<path fill-rule="evenodd" clip-rule="evenodd" d="M140.902 68.8947H137.77V65.7632H140.902V68.8947ZM50.0984 87.6842H46.9672V84.5526H50.0984V87.6842ZM78.2787 87.6842H75.1475V84.5526H78.2787V87.6842ZM122.115 87.6842H118.984V84.5526H122.115V87.6842ZM65.7541 90.8158H62.623V87.6842H65.7541V90.8158Z" fill="#F9EAE1"/>
<path fill-rule="evenodd" clip-rule="evenodd" d="M144.033 68.8947H140.902V65.7632H144.033V68.8947Z" fill="#F8E7DF"/>
<path fill-rule="evenodd" clip-rule="evenodd" d="M147.164 68.8947H144.033V65.7632H147.164V68.8947ZM144.033 75.1579H140.902V72.0263H144.033V75.1579ZM53.2295 97.0789H50.0984V93.9474H53.2295V97.0789Z" fill="#F7E6DC"/>
<path fill-rule="evenodd" clip-rule="evenodd" d="M68.8852 68.8947V75.1579H65.7541V68.8947H68.8852ZM81.4098 81.4211H78.2787V78.2895H81.4098V81.4211Z" fill="#FCEEE6"/>
<path fill-rule="evenodd" clip-rule="evenodd" d="M75.1475 72.0263H72.0164V68.8947H75.1475V72.0263Z" fill="#FAECE6"/>
<path fill-rule="evenodd" clip-rule="evenodd" d="M78.2787 68.8947V75.1579H75.1475V68.8947H78.2787ZM75.1475 78.2895H72.0164V75.1579H75.1475V78.2895Z" fill="#FBEFE8"/>
<path fill-rule="evenodd" clip-rule="evenodd" d="M106.459 72.0263H103.328V68.8947H106.459V72.0263ZM84.541 84.5526H78.2787V81.4211H84.541V84.5526ZM100.197 84.5526H97.0656V81.4211H100.197V84.5526ZM75.1475 87.6842H72.0164V84.5526H75.1475V87.6842Z" fill="#F5E6DE"/>
<path fill-rule="evenodd" clip-rule="evenodd" d="M109.59 72.0263H106.459V68.8947H109.59V72.0263ZM59.4918 112.737H56.3607V109.605H59.4918V112.737Z" fill="#EEDED4"/>
<path fill-rule="evenodd" clip-rule="evenodd" d="M131.508 72.0263H128.377V68.8947H131.508V72.0263Z" fill="#FAEAE3"/>
<path fill-rule="evenodd" clip-rule="evenodd" d="M134.639 72.0263H131.508V68.8947H134.639V72.0263Z" fill="#FAEBE2"/>
<path fill-rule="evenodd" clip-rule="evenodd" d="M140.902 72.0263H137.77V68.8947H140.902V72.0263Z" fill="#F9E8E1"/>
<path fill-rule="evenodd" clip-rule="evenodd" d="M144.033 72.0263H140.902V68.8947H144.033V72.0263ZM137.77 81.4211H134.639V78.2895H137.77V81.4211ZM43.8361 93.9474H40.7049V90.8158H43.8361V93.9474Z" fill="#F7E8DF"/>
<path fill-rule="evenodd" clip-rule="evenodd" d="M153.426 68.8947V84.5526H147.164V87.6842H144.033V93.9474H137.77V84.5526H144.033V75.1579H147.164V72.0263H150.295V68.8947H153.426ZM18.7869 81.4211V84.5526H21.918V87.6842H25.0492V90.8158H18.7869V97.0789H25.0492V90.8158H28.1803V93.9474H31.3115V97.0789H28.1803V100.211H25.0492V109.605H18.7869V103.342H15.6557V87.6842H12.5246V81.4211H18.7869ZM50.0984 112.737V115.868H43.8361V112.737H37.5738V115.868H31.3115V112.737H25.0492V109.605H43.8361V106.474H46.9672V112.737H50.0984ZM50.0984 112.737H56.3607V109.605H53.2295V106.474H50.0984V112.737ZM131.508 87.6842V93.9474H128.377V87.6842H131.508ZM125.246 93.9474V97.0789H134.639V93.9474H137.77V103.342H118.984V106.474H106.459V109.605H97.0656V103.342H106.459V100.211H118.984V97.0789H122.115V93.9474H125.246ZM84.541 109.605H81.4098V106.474H87.6721V109.605H90.8033V112.737H84.541V109.605ZM75.1475 112.737H72.0164V109.605H75.1475V112.737ZM72.0164 115.868H62.623V112.737H72.0164V115.868Z" fill="#EBDAD0"/>
<path fill-rule="evenodd" clip-rule="evenodd" d="M122.115 75.1579H118.984V72.0263H122.115V75.1579ZM128.377 75.1579H125.246V72.0263H128.377V75.1579Z" fill="#FAEDE4"/>
<path fill-rule="evenodd" clip-rule="evenodd" d="M125.246 75.1579H122.115V72.0263H125.246V75.1579ZM118.984 78.2895H115.852V75.1579H118.984V78.2895ZM81.4098 90.8158H78.2787V87.6842H81.4098V90.8158Z" fill="#FAECE3"/>
<path fill-rule="evenodd" clip-rule="evenodd" d="M134.639 75.1579H131.508V72.0263H134.639V75.1579Z" fill="#F9E9E0"/>
<path fill-rule="evenodd" clip-rule="evenodd" d="M137.77 75.1579H134.639V72.0263H137.77V75.1579Z" fill="#F9E8DF"/>
<path fill-rule="evenodd" clip-rule="evenodd" d="M140.902 75.1579H137.77V72.0263H140.902V75.1579Z" fill="#F8E8DE"/>
<path fill-rule="evenodd" clip-rule="evenodd" d="M147.164 75.1579H144.033V72.0263H147.164V75.1579ZM106.459 103.342H103.328V100.211H106.459V103.342Z" fill="#EBDAD1"/>
<path fill-rule="evenodd" clip-rule="evenodd" d="M72.0164 78.2895H68.8852V75.1579H72.0164V78.2895Z" fill="#FAEDE6"/>
<path fill-rule="evenodd" clip-rule="evenodd" d="M112.721 78.2895H109.59V75.1579H112.721V78.2895Z" fill="#FAEEE5"/>
<path fill-rule="evenodd" clip-rule="evenodd" d="M115.852 78.2895H112.721V75.1579H115.852V78.2895Z" fill="#FBECE3"/>
<path fill-rule="evenodd" clip-rule="evenodd" d="M122.115 78.2895H118.984V75.1579H122.115V78.2895Z" fill="#F5E4DC"/>
<path fill-rule="evenodd" clip-rule="evenodd" d="M125.246 78.2895H122.115V75.1579H125.246V78.2895ZM140.902 81.4211H137.77V78.2895H140.902V81.4211ZM84.541 87.6842H81.4098V84.5526H84.541V87.6842ZM118.984 97.0789H115.852V93.9474H118.984V97.0789Z" fill="#F2E2DA"/>
<path fill-rule="evenodd" clip-rule="evenodd" d="M128.377 78.2895H125.246V75.1579H128.377V78.2895ZM106.459 84.5526H103.328V81.4211H106.459V84.5526ZM72.0164 87.6842H68.8852V84.5526H72.0164V87.6842ZM87.6721 90.8158H81.4098V87.6842H87.6721V90.8158Z" fill="#F9EBE2"/>
<path fill-rule="evenodd" clip-rule="evenodd" d="M131.508 78.2895H128.377V75.1579H131.508V78.2895ZM122.115 84.5526H118.984V81.4211H122.115V84.5526Z" fill="#F8E8E0"/>
<path fill-rule="evenodd" clip-rule="evenodd" d="M134.639 78.2895H131.508V75.1579H134.639V78.2895Z" fill="#F7E8DE"/>
<path fill-rule="evenodd" clip-rule="evenodd" d="M137.77 78.2895H134.639V75.1579H137.77V78.2895ZM59.4918 84.5526H56.3607V81.4211H59.4918V84.5526ZM53.2295 93.9474H50.0984V90.8158H53.2295V93.9474ZM62.623 109.605H59.4918V106.474H62.623V109.605Z" fill="#F5E6DD"/>
<path fill-rule="evenodd" clip-rule="evenodd" d="M140.902 78.2895H137.77V75.1579H140.902V78.2895ZM40.7049 87.6842H37.5738V84.5526H40.7049V87.6842ZM50.0984 93.9474V100.211H46.9672V93.9474H50.0984ZM68.8852 100.211H59.4918V97.0789H68.8852V100.211ZM97.0656 100.211H93.9344V97.0789H97.0656V100.211Z" fill="#F5E5DC"/>
<path fill-rule="evenodd" clip-rule="evenodd" d="M144.033 78.2895H140.902V75.1579H144.033V78.2895Z" fill="#EBDBD2"/>
<path fill-rule="evenodd" clip-rule="evenodd" d="M62.623 81.4211H59.4918V78.2895H62.623V81.4211Z" fill="#EEDED5"/>
<path fill-rule="evenodd" clip-rule="evenodd" d="M72.0164 81.4211H68.8852V78.2895H72.0164V81.4211ZM90.8033 84.5526H87.6721V81.4211H90.8033V84.5526ZM118.984 84.5526H115.852V81.4211H118.984V84.5526Z" fill="#FBEDE5"/>
<path fill-rule="evenodd" clip-rule="evenodd" d="M75.1475 81.4211H72.0164V78.2895H75.1475V81.4211Z" fill="#F7EAE1"/>
<path fill-rule="evenodd" clip-rule="evenodd" d="M93.9344 81.4211H90.8033V78.2895H93.9344V81.4211Z" fill="#FCEEE8"/>
<path fill-rule="evenodd" clip-rule="evenodd" d="M109.59 81.4211H106.459V78.2895H109.59V81.4211ZM72.0164 84.5526H68.8852V81.4211H72.0164V84.5526Z" fill="#FAECE4"/>
<path fill-rule="evenodd" clip-rule="evenodd" d="M115.852 81.4211H112.721V78.2895H115.852V81.4211ZM75.1475 93.9474H72.0164V90.8158H75.1475V93.9474Z" fill="#F8E9E1"/>
<path fill-rule="evenodd" clip-rule="evenodd" d="M118.984 81.4211H115.852V78.2895H118.984V81.4211Z" fill="#F9E9E1"/>
<path fill-rule="evenodd" clip-rule="evenodd" d="M122.115 81.4211H118.984V78.2895H122.115V81.4211ZM100.197 87.6842H97.0656V84.5526H100.197V87.6842Z" fill="#F6E8DF"/>
<path fill-rule="evenodd" clip-rule="evenodd" d="M125.246 81.4211H122.115V78.2895H125.246V81.4211Z" fill="#F6E7DF"/>
<path fill-rule="evenodd" clip-rule="evenodd" d="M128.377 81.4211H125.246V78.2895H128.377V81.4211ZM43.8361 100.211H40.7049V97.0789H43.8361V100.211Z" fill="#F7E6DE"/>
<path fill-rule="evenodd" clip-rule="evenodd" d="M131.508 81.4211H128.377V78.2895H131.508V81.4211ZM78.2787 103.342H75.1475V100.211H78.2787V103.342ZM31.3115 106.474H28.1803V103.342H31.3115V106.474Z" fill="#F4E3DA"/>
<path fill-rule="evenodd" clip-rule="evenodd" d="M134.639 81.4211H131.508V78.2895H134.639V81.4211ZM109.59 93.9474H106.459V90.8158H109.59V93.9474Z" fill="#F5E5DB"/>
<path fill-rule="evenodd" clip-rule="evenodd" d="M144.033 81.4211H140.902V78.2895H144.033V81.4211Z" fill="#F3E4DB"/>
<path fill-rule="evenodd" clip-rule="evenodd" d="M21.918 84.5526H18.7869V81.4211H21.918V84.5526ZM115.852 100.211H112.721V97.0789H115.852V100.211Z" fill="#ECDAD1"/>
<path fill-rule="evenodd" clip-rule="evenodd" d="M25.0492 84.5526H21.918V81.4211H25.0492V84.5526Z" fill="#ECDCD1"/>
<path fill-rule="evenodd" clip-rule="evenodd" d="M68.8852 84.5526H65.7541V81.4211H68.8852V84.5526Z" fill="#FBEDE4"/>
<path fill-rule="evenodd" clip-rule="evenodd" d="M78.2787 84.5526H75.1475V81.4211H78.2787V84.5526ZM137.77 90.8158H134.639V87.6842H137.77V90.8158ZM128.377 93.9474H125.246V90.8158H128.377V93.9474ZM37.5738 103.342H34.4426V100.211H37.5738V103.342Z" fill="#EFDFD5"/>
<path fill-rule="evenodd" clip-rule="evenodd" d="M87.6721 84.5526H84.541V81.4211H87.6721V84.5526ZM128.377 90.8158H125.246V87.6842H128.377V90.8158ZM122.115 93.9474H115.852V90.8158H122.115V93.9474ZM128.377 97.0789H125.246V93.9474H128.377V97.0789Z" fill="#F7E9E1"/>
<path fill-rule="evenodd" clip-rule="evenodd" d="M109.59 84.5526H106.459V81.4211H109.59V84.5526Z" fill="#F7EAE0"/>
<path fill-rule="evenodd" clip-rule="evenodd" d="M112.721 84.5526H109.59V81.4211H112.721V84.5526ZM46.9672 87.6842V93.9474H43.8361V87.6842H46.9672ZM72.0164 90.8158H68.8852V87.6842H72.0164V90.8158Z" fill="#F8E9E0"/>
<path fill-rule="evenodd" clip-rule="evenodd" d="M115.852 84.5526H112.721V81.4211H115.852V84.5526ZM78.2787 93.9474H75.1475V90.8158H78.2787V93.9474Z" fill="#F7E9DF"/>
<path fill-rule="evenodd" clip-rule="evenodd" d="M134.639 84.5526H131.508V81.4211H134.639V84.5526ZM84.541 93.9474H81.4098V90.8158H84.541V93.9474ZM62.623 97.0789H59.4918V93.9474H62.623V97.0789Z" fill="#F3E3D9"/>
<path fill-rule="evenodd" clip-rule="evenodd" d="M137.77 84.5526H134.639V81.4211H137.77V84.5526ZM75.1475 106.474H72.0164V103.342H75.1475V106.474Z" fill="#EFDED5"/>
<path fill-rule="evenodd" clip-rule="evenodd" d="M25.0492 87.6842H21.918V84.5526H25.0492V87.6842Z" fill="#EBDDD0"/>
<path fill-rule="evenodd" clip-rule="evenodd" d="M28.1803 87.6842H25.0492V84.5526H28.1803V87.6842ZM31.3115 109.605H28.1803V106.474H31.3115V109.605ZM56.3607 109.605H53.2295V106.474H56.3607V109.605Z" fill="#ECDCD2"/>
<path fill-rule="evenodd" clip-rule="evenodd" d="M31.3115 87.6842H28.1803V84.5526H31.3115V87.6842Z" fill="#EFDFD4"/>
<path fill-rule="evenodd" clip-rule="evenodd" d="M34.4426 87.6842H31.3115V84.5526H34.4426V87.6842ZM109.59 87.6842H106.459V84.5526H109.59V87.6842ZM40.7049 93.9474H37.5738V90.8158H40.7049V93.9474Z" fill="#F2E2D8"/>
<path fill-rule="evenodd" clip-rule="evenodd" d="M37.5738 87.6842H34.4426V84.5526H37.5738V87.6842Z" fill="#F4E5DA"/>
<path fill-rule="evenodd" clip-rule="evenodd" d="M59.4918 87.6842H56.3607V84.5526H59.4918V87.6842ZM81.4098 103.342H78.2787V100.211H81.4098V103.342ZM50.0984 109.605H46.9672V106.474H50.0984V109.605Z" fill="#F2E2D9"/>
<path fill-rule="evenodd" clip-rule="evenodd" d="M62.623 87.6842H59.4918V84.5526H62.623V87.6842ZM62.623 93.9474H59.4918V90.8158H62.623V93.9474Z" fill="#F7E6DD"/>
<path fill-rule="evenodd" clip-rule="evenodd" d="M65.7541 87.6842H62.623V84.5526H65.7541V87.6842ZM90.8033 103.342H87.6721V100.211H90.8033V103.342Z" fill="#F8E8E1"/>
<path fill-rule="evenodd" clip-rule="evenodd" d="M68.8852 87.6842H65.7541V84.5526H68.8852V87.6842Z" fill="#F9EBE4"/>
<path fill-rule="evenodd" clip-rule="evenodd" d="M81.4098 87.6842H78.2787V84.5526H81.4098V87.6842Z" fill="#F9ECE4"/>
<path fill-rule="evenodd" clip-rule="evenodd" d="M103.328 87.6842H100.197V84.5526H103.328V87.6842Z" fill="#F5E6DB"/>
<path fill-rule="evenodd" clip-rule="evenodd" d="M106.459 87.6842H103.328V84.5526H106.459V87.6842ZM75.1475 90.8158H72.0164V87.6842H75.1475V90.8158Z" fill="#F1E0D7"/>
<path fill-rule="evenodd" clip-rule="evenodd" d="M112.721 87.6842H109.59V84.5526H112.721V87.6842ZM56.3607 90.8158H53.2295V87.6842H56.3607V90.8158ZM81.4098 97.0789H78.2787V93.9474H81.4098V97.0789Z" fill="#F6E7DD"/>
<path fill-rule="evenodd" clip-rule="evenodd" d="M15.6557 90.8158H12.5246V87.6842H15.6557V90.8158Z" fill="#EBDAD0" fill-opacity="0.964706"/>
<path fill-rule="evenodd" clip-rule="evenodd" d="M28.1803 90.8158H25.0492V87.6842H28.1803V90.8158ZM31.3115 93.9474H28.1803V90.8158H31.3115V93.9474ZM28.1803 106.474H25.0492V103.342H28.1803V106.474ZM81.4098 109.605H78.2787V106.474H81.4098V109.605Z" fill="#EBDBD1"/>
<path fill-rule="evenodd" clip-rule="evenodd" d="M34.4426 90.8158H31.3115V87.6842H34.4426V90.8158Z" fill="#F0E0D5"/>
<path fill-rule="evenodd" clip-rule="evenodd" d="M40.7049 90.8158H37.5738V87.6842H40.7049V90.8158Z" fill="#F3E5D9"/>
<path fill-rule="evenodd" clip-rule="evenodd" d="M43.8361 90.8158H40.7049V87.6842H43.8361V90.8158ZM100.197 90.8158H97.0656V87.6842H106.459V90.8158H103.328V93.9474H100.197V90.8158ZM93.9344 93.9474H100.197V97.0789H93.9344V93.9474ZM93.9344 93.9474V90.8158H90.8033V93.9474H93.9344ZM112.721 90.8158H109.59V87.6842H112.721V90.8158ZM115.852 93.9474H112.721V90.8158H115.852V93.9474ZM65.7541 97.0789H62.623V93.9474H65.7541V97.0789ZM81.4098 100.211H72.0164V97.0789H81.4098V100.211Z" fill="#F6E6DD"/>
<path fill-rule="evenodd" clip-rule="evenodd" d="M53.2295 90.8158H50.0984V87.6842H53.2295V90.8158Z" fill="#FAEADF"/>
<path fill-rule="evenodd" clip-rule="evenodd" d="M62.623 90.8158H59.4918V87.6842H62.623V90.8158Z" fill="#F8E7DE"/>
<path fill-rule="evenodd" clip-rule="evenodd" d="M68.8852 90.8158H65.7541V87.6842H68.8852V90.8158Z" fill="#FAEAE1"/>
<path fill-rule="evenodd" clip-rule="evenodd" d="M78.2787 90.8158H75.1475V87.6842H78.2787V90.8158Z" fill="#FAECE1"/>
<path fill-rule="evenodd" clip-rule="evenodd" d="M93.9344 90.8158H90.8033V87.6842H93.9344V90.8158Z" fill="#F8E7E0"/>
<path fill-rule="evenodd" clip-rule="evenodd" d="M97.0656 90.8158H93.9344V87.6842H97.0656V90.8158ZM59.4918 97.0789V100.211H65.7541V103.342H56.3607V97.0789H59.4918Z" fill="#F4E4DA"/>
<path fill-rule="evenodd" clip-rule="evenodd" d="M118.984 90.8158H115.852V87.6842H118.984V90.8158ZM72.0164 93.9474H68.8852V90.8158H72.0164V93.9474ZM93.9344 100.211H90.8033V97.0789H93.9344V100.211Z" fill="#F6E5DC"/>
<path fill-rule="evenodd" clip-rule="evenodd" d="M134.639 90.8158H131.508V87.6842H134.639V90.8158Z" fill="#F3E3DA"/>
<path fill-rule="evenodd" clip-rule="evenodd" d="M147.164 90.8158H144.033V87.6842H147.164V90.8158Z" fill="#EADAD1" fill-opacity="0.92549"/>
<path fill-rule="evenodd" clip-rule="evenodd" d="M12.5246 93.9474H9.39344V90.8158H12.5246V93.9474Z" fill="white" fill-opacity="0.01"/>
<path fill-rule="evenodd" clip-rule="evenodd" d="M21.918 93.9474H18.7869V90.8158H21.918V93.9474ZM112.721 93.9474H109.59V90.8158H112.721V93.9474ZM43.8361 109.605H40.7049V106.474H43.8361V109.605Z" fill="#ECDBD2"/>
<path fill-rule="evenodd" clip-rule="evenodd" d="M25.0492 93.9474H21.918V90.8158H25.0492V93.9474ZM97.0656 103.342H93.9344V100.211H97.0656V103.342ZM68.8852 106.474H65.7541V103.342H68.8852V106.474Z" fill="#F0E1D7"/>
<path fill-rule="evenodd" clip-rule="evenodd" d="M34.4426 93.9474H31.3115V90.8158H34.4426V93.9474Z" fill="#ECDDD4"/>
<path fill-rule="evenodd" clip-rule="evenodd" d="M37.5738 93.9474H34.4426V90.8158H37.5738V93.9474Z" fill="#EFDDD4"/>
<path fill-rule="evenodd" clip-rule="evenodd" d="M50.0984 93.9474H46.9672V90.8158H50.0984V93.9474Z" fill="#F8E9DF"/>
<path fill-rule="evenodd" clip-rule="evenodd" d="M65.7541 93.9474H62.623V90.8158H65.7541V93.9474Z" fill="#F9EAE0"/>
<path fill-rule="evenodd" clip-rule="evenodd" d="M68.8852 93.9474H65.7541V90.8158H68.8852V93.9474ZM72.0164 97.0789H68.8852V93.9474H72.0164V97.0789Z" fill="#F4E5DB"/>
<path fill-rule="evenodd" clip-rule="evenodd" d="M81.4098 93.9474H78.2787V90.8158H81.4098V93.9474ZM81.4098 106.474H78.2787V103.342H81.4098V106.474Z" fill="#F7E9E0"/>
<path fill-rule="evenodd" clip-rule="evenodd" d="M125.246 93.9474H122.115V90.8158H125.246V93.9474ZM109.59 100.211H106.459V97.0789H109.59V100.211ZM93.9344 106.474H90.8033V103.342H93.9344V106.474Z" fill="#EEDDD3"/>
<path fill-rule="evenodd" clip-rule="evenodd" d="M150.295 93.9474H147.164V90.8158H150.295V93.9474Z" fill="white" fill-opacity="0.01"/>
<path fill-rule="evenodd" clip-rule="evenodd" d="M15.6557 97.0789H12.5246V93.9474H15.6557V97.0789Z" fill="#EBDAD0" fill-opacity="0.984314"/>
<path fill-rule="evenodd" clip-rule="evenodd" d="M25.0492 97.0789H21.918V93.9474H25.0492V97.0789ZM53.2295 100.211H50.0984V97.0789H53.2295V100.211ZM34.4426 106.474H31.3115V103.342H34.4426V106.474Z" fill="#F4E5DC"/>
<path fill-rule="evenodd" clip-rule="evenodd" d="M34.4426 97.0789H31.3115V93.9474H34.4426V97.0789Z" fill="#EBDCD2"/>
<path fill-rule="evenodd" clip-rule="evenodd" d="M37.5738 97.0789H34.4426V93.9474H37.5738V97.0789Z" fill="#F2E1D8"/>
<path fill-rule="evenodd" clip-rule="evenodd" d="M40.7049 97.0789H37.5738V93.9474H40.7049V97.0789ZM37.5738 100.211H34.4426V97.0789H37.5738V100.211Z" fill="#F4E4DC"/>
<path fill-rule="evenodd" clip-rule="evenodd" d="M43.8361 97.0789H40.7049V93.9474H43.8361V97.0789Z" fill="#F6E8DE"/>
<path fill-rule="evenodd" clip-rule="evenodd" d="M46.9672 97.0789H43.8361V93.9474H46.9672V97.0789Z" fill="#F6E5DE"/>
<path fill-rule="evenodd" clip-rule="evenodd" d="M59.4918 97.0789H56.3607V93.9474H59.4918V97.0789ZM84.541 100.211H81.4098V97.0789H84.541V100.211ZM75.1475 109.605H72.0164V106.474H75.1475V109.605Z" fill="#EFDED4"/>
<path fill-rule="evenodd" clip-rule="evenodd" d="M68.8852 97.0789H65.7541V93.9474H68.8852V97.0789ZM56.3607 103.342H53.2295V100.211H56.3607V103.342ZM68.8852 103.342H65.7541V100.211H68.8852V103.342Z" fill="#F3E4DA"/>
<path fill-rule="evenodd" clip-rule="evenodd" d="M87.6721 97.0789H84.541V93.9474H87.6721V97.0789Z" fill="#F5E6DC"/>
<path fill-rule="evenodd" clip-rule="evenodd" d="M90.8033 97.0789H87.6721V93.9474H90.8033V97.0789ZM134.639 97.0789H131.508V93.9474H134.639V97.0789ZM50.0984 106.474H46.9672V103.342H50.0984V106.474Z" fill="#EEDDD4"/>
<path fill-rule="evenodd" clip-rule="evenodd" d="M93.9344 97.0789H90.8033V93.9474H93.9344V97.0789Z" fill="#F4E4DB"/>
<path fill-rule="evenodd" clip-rule="evenodd" d="M106.459 97.0789H103.328V93.9474H106.459V97.0789Z" fill="#F5E3DA"/>
<path fill-rule="evenodd" clip-rule="evenodd" d="M109.59 97.0789H106.459V93.9474H109.59V97.0789Z" fill="#F2E3D9"/>
<path fill-rule="evenodd" clip-rule="evenodd" d="M112.721 97.0789H109.59V93.9474H112.721V97.0789Z" fill="#F1E0D6"/>
<path fill-rule="evenodd" clip-rule="evenodd" d="M115.852 97.0789H112.721V93.9474H115.852V97.0789ZM72.0164 109.605H68.8852V106.474H72.0164V109.605ZM65.7541 112.737H59.4918V109.605H65.7541V112.737Z" fill="#F1E2D9"/>
<path fill-rule="evenodd" clip-rule="evenodd" d="M122.115 97.0789H118.984V93.9474H122.115V97.0789Z" fill="#EEDCD4"/>
<path fill-rule="evenodd" clip-rule="evenodd" d="M147.164 97.0789H144.033V93.9474H147.164V97.0789ZM12.5246 106.474H9.39344V103.342H12.5246V106.474ZM112.721 112.737H109.59V109.605H112.721V112.737ZM78.2787 115.868H75.1475V112.737H78.2787V115.868Z" fill="#FFFFAA" fill-opacity="0.0117647"/>
<path fill-rule="evenodd" clip-rule="evenodd" d="M15.6557 100.211H12.5246V97.0789H15.6557V100.211Z" fill="#EBDAD0" fill-opacity="0.858824"/>
<path fill-rule="evenodd" clip-rule="evenodd" d="M31.3115 100.211H28.1803V97.0789H31.3115V100.211Z" fill="#EBDCD1"/>
<path fill-rule="evenodd" clip-rule="evenodd" d="M34.4426 100.211H31.3115V97.0789H34.4426V100.211Z" fill="#F1DFD6"/>
<path fill-rule="evenodd" clip-rule="evenodd" d="M40.7049 100.211H37.5738V97.0789H40.7049V100.211ZM78.2787 106.474H75.1475V103.342H78.2787V106.474Z" fill="#F4E6DC"/>
<path fill-rule="evenodd" clip-rule="evenodd" d="M46.9672 100.211H43.8361V97.0789H46.9672V100.211Z" fill="#F4E3D8"/>
<path fill-rule="evenodd" clip-rule="evenodd" d="M56.3607 100.211H53.2295V97.0789H56.3607V100.211ZM100.197 100.211H97.0656V97.0789H100.197V100.211Z" fill="#F5E4DB"/>
<path fill-rule="evenodd" clip-rule="evenodd" d="M87.6721 100.211H84.541V97.0789H87.6721V100.211Z" fill="#F7E7DE"/>
<path fill-rule="evenodd" clip-rule="evenodd" d="M90.8033 100.211H87.6721V97.0789H90.8033V100.211ZM56.3607 106.474H53.2295V103.342H56.3607V106.474Z" fill="#F6E7DE"/>
<path fill-rule="evenodd" clip-rule="evenodd" d="M106.459 100.211H103.328V97.0789H106.459V100.211Z" fill="#EEDED3"/>
<path fill-rule="evenodd" clip-rule="evenodd" d="M112.721 100.211H109.59V97.0789H112.721V100.211ZM28.1803 109.605H25.0492V106.474H28.1803V109.605ZM37.5738 109.605H34.4426V106.474H37.5738V109.605Z" fill="#ECDBD1"/>
<path fill-rule="evenodd" clip-rule="evenodd" d="M118.984 100.211H115.852V97.0789H118.984V100.211Z" fill="#ECDAD2"/>
<path fill-rule="evenodd" clip-rule="evenodd" d="M15.6557 103.342H12.5246V100.211H15.6557V103.342Z" fill="#EBDAD0" fill-opacity="0.705882"/>
<path fill-rule="evenodd" clip-rule="evenodd" d="M28.1803 103.342H25.0492V100.211H28.1803V103.342ZM90.8033 109.605H87.6721V106.474H90.8033V109.605Z" fill="#ECDAD0"/>
<path fill-rule="evenodd" clip-rule="evenodd" d="M34.4426 103.342H31.3115V100.211H34.4426V103.342Z" fill="#F5E5DD"/>
<path fill-rule="evenodd" clip-rule="evenodd" d="M40.7049 103.342H37.5738V100.211H40.7049V103.342Z" fill="#F4E4D9"/>
<path fill-rule="evenodd" clip-rule="evenodd" d="M43.8361 103.342H40.7049V100.211H43.8361V103.342Z" fill="#F9ECE3"/>
<path fill-rule="evenodd" clip-rule="evenodd" d="M46.9672 103.342H43.8361V100.211H46.9672V103.342Z" fill="#F2E4D8"/>
<path fill-rule="evenodd" clip-rule="evenodd" d="M50.0984 103.342H46.9672V100.211H50.0984V103.342Z" fill="#F2E3D8"/>
<path fill-rule="evenodd" clip-rule="evenodd" d="M53.2295 103.342H50.0984V100.211H53.2295V103.342Z" fill="#F4E3D9"/>
<path fill-rule="evenodd" clip-rule="evenodd" d="M72.0164 103.342H68.8852V100.211H72.0164V103.342Z" fill="#F3E2D9"/>
<path fill-rule="evenodd" clip-rule="evenodd" d="M75.1475 103.342H72.0164V100.211H75.1475V103.342Z" fill="#F1E2D8"/>
<path fill-rule="evenodd" clip-rule="evenodd" d="M84.541 103.342H81.4098V100.211H84.541V103.342Z" fill="#F3E2D8"/>
<path fill-rule="evenodd" clip-rule="evenodd" d="M93.9344 103.342H90.8033V100.211H93.9344V103.342Z" fill="#F3E2DA"/>
<path fill-rule="evenodd" clip-rule="evenodd" d="M100.197 103.342H97.0656V100.211H100.197V103.342Z" fill="#EDDED1"/>
<path fill-rule="evenodd" clip-rule="evenodd" d="M103.328 103.342H100.197V100.211H103.328V103.342ZM46.9672 106.474H43.8361V103.342H46.9672V106.474Z" fill="#EDDCD1"/>
<path fill-rule="evenodd" clip-rule="evenodd" d="M37.5738 106.474H34.4426V103.342H37.5738V106.474Z" fill="#EDDDD2"/>
<path fill-rule="evenodd" clip-rule="evenodd" d="M40.7049 106.474H37.5738V103.342H40.7049V106.474Z" fill="#F3E4DD"/>
<path fill-rule="evenodd" clip-rule="evenodd" d="M43.8361 106.474H40.7049V103.342H43.8361V106.474ZM78.2787 109.605H75.1475V106.474H78.2787V109.605Z" fill="#EEDCD3"/>
<path fill-rule="evenodd" clip-rule="evenodd" d="M53.2295 106.474H50.0984V103.342H53.2295V106.474Z" fill="#EFDED3"/>
<path fill-rule="evenodd" clip-rule="evenodd" d="M59.4918 106.474H56.3607V103.342H59.4918V106.474Z" fill="#F3E5DD"/>
<path fill-rule="evenodd" clip-rule="evenodd" d="M62.623 106.474H59.4918V103.342H62.623V106.474Z" fill="#F1E0D9"/>
<path fill-rule="evenodd" clip-rule="evenodd" d="M65.7541 106.474H62.623V103.342H65.7541V106.474ZM87.6721 106.474H84.541V103.342H87.6721V106.474Z" fill="#F2E1D9"/>
<path fill-rule="evenodd" clip-rule="evenodd" d="M72.0164 106.474H68.8852V103.342H72.0164V106.474Z" fill="#F0DFD7"/>
<path fill-rule="evenodd" clip-rule="evenodd" d="M84.541 106.474H81.4098V103.342H84.541V106.474Z" fill="#F5E3DB"/>
<path fill-rule="evenodd" clip-rule="evenodd" d="M90.8033 106.474H87.6721V103.342H90.8033V106.474Z" fill="#EEDCD6"/>
<path fill-rule="evenodd" clip-rule="evenodd" d="M97.0656 106.474H93.9344V103.342H97.0656V106.474Z" fill="#EFE0D6"/>
<path fill-rule="evenodd" clip-rule="evenodd" d="M140.902 106.474H137.77V103.342H140.902V106.474Z" fill="#DBDBDB" fill-opacity="0.027451"/>
<path fill-rule="evenodd" clip-rule="evenodd" d="M34.4426 109.605H31.3115V106.474H34.4426V109.605ZM93.9344 109.605H90.8033V106.474H93.9344V109.605Z" fill="#EDDCD2"/>
<path fill-rule="evenodd" clip-rule="evenodd" d="M68.8852 109.605H65.7541V106.474H68.8852V109.605Z" fill="#F5E6DF"/>
<path fill-rule="evenodd" clip-rule="evenodd" d="M109.59 109.605H106.459V106.474H109.59V109.605Z" fill="#EBDAD0" fill-opacity="0.941176"/>
<path fill-rule="evenodd" clip-rule="evenodd" d="M122.115 109.605H118.984V106.474H122.115V109.605Z" fill="#EEDDCC" fill-opacity="0.0588235"/>
<path fill-rule="evenodd" clip-rule="evenodd" d="M18.7869 112.737H15.6557V109.605H18.7869V112.737Z" fill="#E3E3C6" fill-opacity="0.0352941"/>
<path fill-rule="evenodd" clip-rule="evenodd" d="M84.541 112.737H81.4098V109.605H84.541V112.737Z" fill="#EBDAD0" fill-opacity="0.968627"/>
<path fill-rule="evenodd" clip-rule="evenodd" d="M25.0492 115.868H21.918V112.737H25.0492V115.868Z" fill="#F2D7C9" fill-opacity="0.0745098"/>
<path fill-rule="evenodd" clip-rule="evenodd" d="M53.2295 115.868H50.0984V112.737H53.2295V115.868Z" fill="#EBDAD0" fill-opacity="0.972549"/>
<path fill-rule="evenodd" clip-rule="evenodd" d="M81.4098 115.868H78.2787V112.737H81.4098V115.868Z" fill="#FFCCCC" fill-opacity="0.0196078"/>
<path fill-rule="evenodd" clip-rule="evenodd" d="M93.9344 115.868H90.8033V112.737H93.9344V115.868Z" fill="#F1D5D5" fill-opacity="0.0705882"/>
<path fill-rule="evenodd" clip-rule="evenodd" d="M40.7049 119H37.5738V115.868H40.7049V119Z" fill="#E6D9CC" fill-opacity="0.0784314"/>
<path fill-rule="evenodd" clip-rule="evenodd" d="M43.8361 119H40.7049V115.868H43.8361V119ZM75.1475 119H72.0164V115.868H75.1475V119Z" fill="#FFBFBF" fill-opacity="0.0156863"/>
<path fill-rule="evenodd" clip-rule="evenodd" d="M56.3607 119H53.2295V115.868H56.3607V119Z" fill="#E6E6CC" fill-opacity="0.0392157"/>
<path fill-rule="evenodd" clip-rule="evenodd" d="M62.623 119H59.4918V115.868H62.623V119Z" fill="#E8D1D1" fill-opacity="0.0431373"/>
</svg>
